<mxfile host="app.diagrams.net" modified="2024-01-16T07:46:01.035Z" agent="Mozilla/5.0 (Macintosh; Intel Mac OS X 10_15_7) AppleWebKit/537.36 (KHTML, like Gecko) Chrome/120.0.0.0 Safari/537.36" etag="wPLVSqKz8KYnlQdzOHgo" version="22.1.18" type="github">
  <diagram name="Page-1" id="Ph_ROHwrIgw1dcgKo8CK">
    <mxGraphModel dx="1242" dy="820" grid="1" gridSize="10" guides="1" tooltips="1" connect="1" arrows="1" fold="1" page="1" pageScale="1" pageWidth="850" pageHeight="1100" math="0" shadow="0">
      <root>
        <mxCell id="0" />
        <mxCell id="1" parent="0" />
        <mxCell id="Jn1EYD1DzJk262iB9yRI-4" value="GPU Server" style="points=[[0,0],[0.25,0],[0.5,0],[0.75,0],[1,0],[1,0.25],[1,0.5],[1,0.75],[1,1],[0.75,1],[0.5,1],[0.25,1],[0,1],[0,0.75],[0,0.5],[0,0.25]];outlineConnect=0;gradientColor=none;html=1;whiteSpace=wrap;fontSize=12;fontStyle=0;container=1;pointerEvents=0;collapsible=0;recursiveResize=0;shape=mxgraph.aws4.group;grIcon=mxgraph.aws4.group_on_premise;strokeColor=#7D8998;fillColor=none;verticalAlign=top;align=left;spacingLeft=30;fontColor=#5A6C86;dashed=0;" vertex="1" parent="1">
          <mxGeometry x="30" y="70" width="760" height="440" as="geometry" />
        </mxCell>
        <mxCell id="Jn1EYD1DzJk262iB9yRI-5" value="" style="shape=image;verticalLabelPosition=bottom;labelBackgroundColor=default;verticalAlign=top;aspect=fixed;imageAspect=0;image=data:image/png,iVBORw0KGgoAAAANSUhEUgAAALwAAAC+CAYAAACPgWWgAAAAAXNSR0IArs4c6QAAAIRlWElmTU0AKgAAAAgABQESAAMAAAABAAEAAAEaAAUAAAABAAAASgEbAAUAAAABAAAAUgEoAAMAAAABAAIAAIdpAAQAAAABAAAAWgAAAAAAAACQAAAAAQAAAJAAAAABAAOgAQADAAAAAQABAACgAgAEAAAAAQAAALygAwAEAAAAAQAAAL4AAAAA6E0g0wAAAAlwSFlzAAAWJQAAFiUBSVIk8AAAQABJREFUeAHtndmSJMl1nj33zKqstfeeacyGAQQSC4cgZSJlNF2QkulCRsl0oTfQe/BZdCHpAagLmskkymhGUTASXASI2Gaf3rv2qtwrU993PKO7ZtCD6gF6UN2Z4VWRsbl7RHj85/jvx497pFSGsgSWqAQqq93ubImet3zUJS+B6pI/f/n4S1YCJeCX7IUv++OWgF92BCzZ85eAX7IXvuyPWwJ+2RGwZM9fAn7JXviyP24J+GVHwJI9fwn4JXvhy/64JeCXHQFL9vwl4JfshS/745aAX3YELNnzl4Bfshe+7I9bAn7ZEbBkz18Cfsle+LI/bgn4ZUfAkj1/Cfgle+HL/rgl4JcdAUv2/CXgl+yFL/vjloBfdgQs2fOXgF+yF77sj1sCftkRsGTPXwJ+yV74sj9uCfhlR8CSPX8J+CV74cv+uCXglx0BS/b8JeCX7IUv++OWgF92BCzZ85eAX7IXvuyPu5CAL2eHXXZYf/7z1z//1MtxpuJtViupwkaddRURZpWm05Qm01msZ7NZCiEoJeHleKlf4l2+lICvAepGo5I21+rpylYzXbvaSpe3W2llpZZa9Uqq1SppcprScDRNB0ejdPf+ID3cGafdw3E6Op6kU84hC2VYwhJ4aQAvyFuNKsBupG+81U1fe2M1vXKtna6tA/ZrndS90kbLT9MMNDeatVRv8mio+mF/kh7e76WHDwfp3sNh+ul7x+lnH/bTHYTg4HCS+oNTaoIlfPNL+sgv/AcRBPr1zWZ6+2Ynfedra+mbgP3N11fTSqeRWrVaanbQ6pdaqYrGn4HcereeGhsNqE2QHbT5aeqfjNOoP07j4TQdH6HpdwD/g2F698OT9L2/O0h//6OjtA/4pUFlWOwSeGEBD+1ObUD8W9dX0r/5+lb6Juurl9upvV5P9bVaaqw1UvMqy6UmWn2WqkhGfZ2F49V2Lcnb5S2zVEnTitv8E2/YRwCOhmnQG6c+y0ef9NJf/vVu+l9/tZd++n4vnfSm0R5Y7Ne+vE9Xazabf/KiPb70uo5m/+3rq+k/vLaZvltrpbWdaaoeAkb4d5WlVqmmJpy9ztKAvrSuN1IDulOF9qjbK7RibcjaiK3xU4XXu9Q4X4Pn1xu1VGG/jXBcRmhc+tQAd+4N0mRi+hetVMr7eR4l8MJxeMGOYk9vr7XSv7rUTb+ZAPL+KRqbgzXWB1AP0DhrgcopVKZZZXuWxqcIxAlAhcpUquh116LW/5lchX1+a2j7JiAX9JVaSshO2qQm+AbgPyXCAY3a//ej4zQekYcJyrBQJfDCAd7SvdVupH9/dS39s047rcxQ0R3gKvrQztoXZ+NpOq3N0u5wlB7+pJ8+fnACQKdpe7OVbt1apREL9VmB+rQysNXsCsATBKPtrSHa9dSF+iBCSMIs/ea31tMpl+hCmX7ww+N0iHCVYbFK4IUCvNq9CbC/sdpKv7OxktY69VRpQUfmDdBaR36CdqcKeFiZpP/9vZ30P/7mUXr34wEpq+nSWiX9wT+9nP71H15PN15ZoUEL1QH4jdDoUB2BHyqfPOI9Qm3Q9B3iTQD+kKNvfW0lzeqXU71dTd//68N0BOhLTb84oH/hOHyXxucfXOqk32aRrlRaaGZAL/ArgHPaTGl0o5b+/OO99F//+530/R8dpms3v5p+41u/m37y3r30wSe76fJ6I13fbkdj9pSGqmFmJxTbNnDddp2gQdPpKW1b1lxmCugHGvC5hyaAP+mdpv3dcZqMicv5Mrz8JfBiAR7AdQDb17fX0vZaJw3h2/U6XBqNLtUYw7nHl6vp48Yk/Zf/eTf9w48Pg6Z85zvfTr/3+7+X3nvv/fT+h3cxV6b01qurqY2ATKA60znYaQhkbV0AXjtknCMO71JrzgjwjzleQ9iaq9WgNYIeuSg1/cuP9/RCUZoadvVadz39bP1qGja6qQtteW0ySG+xdOvTNMEiM+2m9OG9XvoYa0pndTXVoSk//cmPAOZ+evjgXoB7B5u6vawNqJCavGLP0pQagr8a5p8KQpVoBM8AOIQpmgZjTDO6JrTotGpznZXJLL3y+kr6jd+ZYLenrXBntACvu3yEFwbwNkrX19ehJzfTbPNSut9spv1WMx3WaDjW76W3Nk5SZYMX1pzBRKQnKa2026lFA/fo4CDtPHoE2AF5o5FWscVv03Ddvg6tAcTNlQbmy3kjFkBLT1TuMBrZC1YcWgCYJKuzU9wSaBs3SQOVaq1U043X2+nVt1fT/iM6r4al5eZlF5kXAvBV7OSbW5vp+o0baWNjAzCfpvv3H2Ajx0rz1pvpAE7e3/o4Xbp0mlYwV357u5ne/Nu99IMfD1O700FQNtJ4Mk7D4YQG7ih981tb6evf2U5b9NBOyVt64jVQ5mh2+DuL/jQVBCfJ5dX91gaWBhQq7PWAvkG7YZVrf/Vb3bSPL85HPz5Jp/L5Mry0JXDhgBdoG5sb6frN66nbXQ2ePBqNUr/fC81bwVheWemm1RvddPNNOD6A/woNyv+Ilv5P//mD9A8/OASs2OOpIWrY37/7zmb64397K119tRuWmDBn8npskMrXZ6j2gCzbFbanmDjH49NwQbDWiMYrJsqEpq82Zlh4Kmnreit99btrqXc8Tg8+xJZTYr4E/C9bAt1uF81+DbB34eOgDDjqJnD5yuW0traeNXLqp41r9bRxA2oCJdEb8o/+6Hp6C7+av/jLR+lvvr9HugqafSP9yz+8kX7jm1uhpWEoAXSpTlhm1Oxwc3bwu9F1mAXATwG8vbGNGo1VNT0cZ1qlV5ftKg3fBubQy6+202vfXEv7D6lJTmziluFlLIEL1fCNZgOacimtotkbjTogRZvzd3o6oXGJmwD7o1EfL8keDUm0s4RbWzpAFJhf//pGevOt9fTH/24M3qvUFI20BldXq08D0IAZfIcdnRpBzaxyPp1wjQFtA+iJwqBZcgaww5HeePydKhx6X8rxKaUWDdmrb3TS5j+20/33ejmjl/GNL/k9Xxjg5dRra2tpbWMNjV3PC/4ttSqgr7RD4zZb7dSo11IHM+QMIRgNsya24wmMpingb8GzX1lFWIgnYNXq2t6Duohw4s1AvK4JofE5NwXop1hxZiNs8EjEBGBLzUc46owRFDuhThEEQS/gpf81uH0XX50bb7bTIzq6TF+Gl68ELgzwaveNrfXQ7MGzAa/AbzaaWEha2N8RArR8BZSOepPU28HDkR7RqiQbDl/FvFjF+UXQ1zQ50gpV61dEpxobIGuSDNpS0Bf2x/i/nwL0GTSGyiQoD3tpRHqapOloOEwnQ2gLJpxJgF6BQRrIm1tK1+mJ/eTHvbR7Z0At8vK98GW/4wsDvDRmdRWjOlRE4EWjE8qSvRkBs9QFIE7RzDuHtbT7cJq6bVwIAO8pPu91LC914usdqfbVbUAXhApamuwy4OUz7E2xw4+x4IwZDOISvUzk7TWmlMCERuqY2xgQ75iapI9Nfsh1VOJhAiUX41aJq5Z/+/c20j/+xTTt38U27yXK8NKUwIUAXmB2MCdmC0pGTPivix7/bWRKvAF0BR7/6KSVbt9P+MqMg4frKNaEykQDVk2PCVGfmArCE3ydTApXAjP0+Clgnuh0RtoQJsGO5iZHenSlM1B6tkdo9gE1wYhlwqKt3kzV8npXNhCwq6930vEOtc7ebhr2zP+led9Lf6MXAngR0oTSFCZD30LQ7eDOaGj9CACR9EQwPdyfpB8ORunWtl6ONDgh3GM6hgS83L0OCKsNubbnzY0f+beCg6aOI+Tlvsftaa0iMAkh0VeyDzc5Gk/SCZp9TK2gVg8Ob3TyUhi9V++lxnUaUKrrX+2k3bvQmx/ik1yGl6YELgTwkpWahHgewmwI757Km+HRNjDzMWjGgOF4d3fSUW2UvnGzkTrNcWrAv6U0VRqz4Y4QtCZTGim84ATeOXfBynYIg6NKlAW09Sk2exu/0paj8TjtY/s/It8+i43eaLAWNxhClPPQctok3dqlRnr92+tp58MBI6gQ0ohTJCjXL2oJPEHdr/kOC+2u9nQJsKNhMxUB+FCOk+PjdLC3D0KhIStX03u703Rl/Shtdse50Srnr89BjxdlgJp02umD34NvAaoZs7CpT9HqI8A+CqvPLJ2g3Q8B/CGAP4HyCHgtNopLXtTuOW+bBCSNxmsb2/yV11rpBo3YD/7uKCxAClMZXuwSuDjAq3fnYHftYGshZoePbHoCCE9OoAvsXrtxPW1dvpyOquN09+DDtFo/gpYIRDqKAHcVx7IaRNztGtrXWQtqbelHbgTbeVRhWzfjqVp9Bn2hNjkZDdMhLglHXHsA3dFLMhqpgJpbihBUxooBpMetITwzhKiOFKzgTfkV3A52P2EGhAf0BZThhS+BCwO8II/AWvqSAa9VZJpGAwdZ9wFZLV26vJ3WN9dwEmOwdmUlPRhupVujQ+afoWYAdEQPs+QMg7m2ebVsw3NmrjDoK8x6bCcS0jOBLvXZGhC5B+iPqVWCu0Nj8j1Jgfgjn9Ds0B/bDWHtlAZ5CfIImoQgbd1opWtvr6STw6M0xn/emqQML24JXIg/vJ1O+s/U6V0VOkUQ+H2APugP0dZ1vB6ZjoNFm7zaXzAN6SVNk5PUbRGHTQEolQmgqYk96AIYtdHP4O0TkvcBuMDu4TATaxqpx6dod53OOA7eM7UKSfFy5GGYXyNv52PKalAydrX4OEZ2PEB4Sr/5KKYX+edCNLx6cgLQpgzCDsoA0MXZiE6fMeNUdfFttXEIQzCGaHv9A8YjGqutEdq2mn5wvA0V0WozBPjV1EED6/su8MdoZAdxVDG3V3HnraLZK3RQTeAjWmOGdGQN2R5xzdhGAKwYvCfvIWt1D4jqvO9Bj1dC28dhbymOKRiXbrXS16uMh4X83/7Hk6h1jF+GF68ELkTDWwy69QrqovF6ipaVyoiiBr7wgj0sNXMTodtT4kwYgjegl2inP01Hs0Ea0GidAPQRzMURUo5uHQC2AfCVupwA6KzVWZtWKgPwC/CHF2UBbNIGsOdrsqXmQHDifAF6T+Z4HndbQdPXRvPowYNRGhw5DtaTZXjRSuBCNLyFoMaORqtARpsOAPspgNQ+f6qfLp2Yek0WPjECfjLBzwZByO4DrfTBrJkezHrpKpp1+7SO/zzAA3QN3A/qaN5wQ5CrYIufyettdUJB8ESgWWytIk0KzMZ7CYyKU7U3C/9zF2XWNloFP+A2nhXARE7/GNeVdO2NdrpFI/aEgd+jk5LPR6G+YD8XpuHVgJ2VlTAfTugF3Xm0yzC9wwC72l1giSxphOAS8NEZhFBowpRTSElOKif4wGh1mdEARaOz7pMgFuLI3QcKlFSG7bF2fvMUqKI6XyZAHOBnHzkLcP/cmlokg/7JWvB7q96vI6W6m/W430PciE+Z28b8y/DilMCFAV7t3oSrM/NZjFY62D9IvV4vOPsIHi/FmaHp5zaTeW2QLTqOiAL+6bTVT+MGM4WR15hlFMvcRYAyHgJ4j+sNaUdS6HTAHMZ09bfABpAF0AWvAvaExgjkzywafUhkOzricd61wmF6hwV2t+hFJs7xHj23NGbL8OKUwIVRGs2Qx3QsrXRXwiRZmCXV5FpqhjRgHRDShOd3mJDJhqyaPzqmAGV7ixpiC9CqsaEwY2oJaVCYKgGlxpwm6pUOWaw1LOxHRytsCQNQ8BUHNnF4vkBZfC8cEMB50/xzQF4iWClUpTLwItfZZIlQCXgWNf3WtUb6J79HI5Ya56ffO8Lbk3vzQmW48BK4MMCr4Qf9fvSmanZ0zpiioec5+bzLEG3fO6IDCiD5B9Si0Br7lbTNlGQbWEimnJP2C7AxKK7RY2oPK+gLM6VejoLRRe/IAG+B5UB81uoBdpKFpo+r5OsZRU1vAONhoZlp/fGeOFBHmmRZLYTgFD+gMYLX1sr0LzZjIMoH//eEhqwuEzmP8vfiSuDCAO8ja3E53D9iuo0OMP78ql/u/tnTE6ak2WHkkb2oG18BXETBWwCgo23HaHwAr3djDSGooe7pw6KDyo4qe3WfANj7CMzHOjdMwzWB6kCrS4O1jeciWMNw25GPbY+Y6IlOryrVRlXJYjDsmOuP4O+bG00GpfPBhluH6UffO4jxsAp2GS6uBC4U8D62zmEjVGI0RL9AOQjS4fFp2n2/n1bwUa+vM2cNB/3MTQ1QPfF4hAaBMdqszEeZtftnNW3B3euAe4UpPVxaeETqCiyNCpXP9YxHuzdreAWM6zgrmfKoC3KMBUR81PK6Fg/pB+jywYatK8105VY7/dWfPkp33u3lxuwXeNYy6vMrgQsHfEFffqlHAsgDPmNzjO27RVtAVf14lBOAmzoiSm2sAGCOZIx2Br8CcEbRSqXarQaTqDYZdshsxTGtB3dkfmfjeUgaw3HNPH52Z4absm2IadAaBY1z0JzM5xUarVE13COaUWP8n//2KN3+SQ/XCcyWRM0/bpTh11ECF2aleV4PJyB1J+heplELvRFAamUbplpTsnPZ3LEMDY83AyDknBQHpWy8TkegtxmBBSht5RIKnAe45zcbAA2EukUMLg60aezK5eftC608tmwJxlKYHJzSxKdnDetNC4cz7/mY2dHsmbXGiIgmKMOXXgIvPeAtIRurTcyBLYb+ydvVroI9huUhDALO+eAFueZEF7e1srQwi64z3NAZzGKYYEb1ExACTkEboOYXUQrLjNN6qOWFvA3YgDhpo4OKNZfP21zDqF5vZbWWrtxsMxB8JUyXUqHj/TxZ61nB+tLf+hJfYCEAHw1BwLfCoIw8y9gc8HMNH1/8mAO+wVoBqNK41We+08bFAToTggIQAnj8+MdecSDWAt8vj9SI7OwKbmuWlJZFozu0+zxJpM7aXsDnBQHD0WyL2uj6a+20cbWZjumV3ce1WKGNay8xGH8dj46uW4CAeh3y5Y4h3flNtGg0LOXrLLRhg0K4Vg1LJ2IWAnaBLxEwJXKyDt93So5TW76BPADIPso7tLXYt3fWJcbOWmwIVF0LDREnNBYm+NkLftOHoxnp8zURiHyY4zi2kW77Up3pAFf54No25tlZ+uRHJ9x/6YNjsX6ZYSE0fFFAftGvw2RM8nJBlTW75kVoDNrc4/rKy+HVuPUK1h1ONrXGQH3k/mrxrGkf6/i5AIheKYy7nst/HovOJ44FvRHZRZjnZX5ez+C2wiDFaWMJ6nK/fquKdnXqoe2H0Zg1Uo5f/j7fElgYwKvNbTiuaqIESMHhBX3B4bGWxDbr4PQAUD4uPdEcaXw5vGAW1QFnNHeYG0VfAUDOydiz6xm1APv8R1C7B5s3+jz+EwHKxzLgc3yFoEPbYxOKs3END1EE74BZih0jayjyyLHL3+dRAotBaSwJUDfCLj9gaW/Qc4sAxGDsMEtm06TmQwWjoDx0yKL5MSXSYXUKpYmJnUC2Q/gMwc/dELwCm7UN3dwPJszpbS3mwYkown0emf0iFMB1bQUQlYDCQYY2oK9crTMDm9+masTc9H/9Z7tp7y4TPXHvRdoir3L9q5XAwmj4KAY0pt9x7eCxGBQFtNjDqkbPDVVNkmxDaQJ8OMBU0fB2MNWZ7iPb2EElJ4VzANOGqULgfhwTtV6NY0SI5iptgNDsHo5g/ZCDvj1uF/tetwhntb+elpvc95aavlWPxuwJ05PEPRQJyvWvXAILBXgB1OILfGGtAeQCWBrjwO6aHJ7tAHxwfMqOBmsFdS6lcQ7L4PBAUxoj0KgAMlgFvcfYLxqlueQD+bGZz+WjGdNnYZ6PZ0GZx+F00Kf5KWNLcVa7taA4NG3TLh1q+tZHupzpPHa5+mVLYKEALzDqmP1WL+deTTAa3DwarHPA1wW/gAdAQW/wNwhBCB6fOXvoZNAX81KCfHW8JkjNOKHJoSKF5n0C9CeIfCIG89cSkZ72irwJjs+TmqeN2XUo2dWbDFpHCB/eHqY+nVRleD4lsFiAp0y0w9vr2sBiY8jWGjCFdnc7Op7m29KLUyeVBHERD5CH74wAZ3FCKB3XNGk6KqswbRpfcCowArbYto0g0Q8eH0KR9xWgzO1Fdj4WDQKTm551/slrY3XXqjidtZCxanrwCaCnbVKGX70EFhLwKwIee7xAKwCPsoxtO57U6HJ7KQQTFwA2tLw8H9Uv9bGxmm3tDP4G8AHKOZAzeE0zBz0nnwZajxUozmAPqHuQwzJ/1wqCa39yiLzYV9gcsqjZktGQ6eEnozTql6AvyumXXS8c4PXQ7WCalMvb+AxwA2xdfAsfGxuwQXe00Ah4aE0IBoIg/cncWmjP3Ykzeok4BzlbgjgarVp9LP2wAM3B7wFB+7gGyOlsFGjhCVCbZp6fW3GJALp77ueaYJ2G7E3Gyh7QgL2HZ2j5jalcPr/s72IBXqCBk9YaA7r5GJmNVrV4BrtrLTS54VpoeL0rx0wdrLXGuFlA1LwuAhQqY6/QHLzSDU8I3PCMdHeu7SNBADXHycfnYDezx4u5PDleCIbXyMCfnyOWtcAqtdXVV1pp7+EEepPNlZ4qwxcvgcUCPDhSKzfwSOxsQU8Ad9CTAD7bQWc0Qc4brhwXg+O+6bIVR00fVhoBqVuxHF6wE6KRG6CF389t+mYQGjsEwvy4iTiG9MQ67+uicFYAIo2CIu+PNGyHsOT4Z9N6/Q1qrW1Mlh8y780RDmchJHFX5c8XKYHFArxPDl7k7w4K0a89e0BmaqMAZBMk8FbbS21Qq2MGaswY+Oq57F5APoKVlYCXughLM89A9YzAzBQmvIE9NE/jZiSODbcLMHuCMG/cfipOCAxRXRtMWwiJ+2yv0scgTXvEhxiOtdEbN9+YMcrwDCWweIDnoevMRrZCY09LTWhsaQ2aW7risL3sKvyE3zvUcMLsTYLdL3uLIYGtU5kjlzLgOc4xt6U5DvULjV9ENo0ADKAqDPPt+dpVBDaC+8daQTCfLEim8bouavUn4M/nFdLrX+ngv1+D3ozi27FFtuX62UpgIQEvdWkD+MI/3qIIPq+t3UVbPODJ/jYCi7lrtIDQEaWW11yZUZ9Bp0kyQA8QBWWAEUHweBYC482RGoglHoDNNCanybZNjwNeBWMO6EjnvvlyCyaPOG48jvMkrwb3LZ/fxrX4o5/2GBNcelhSYs8cFg7w4kQri/407Q0/fYl6B01hodErMtwI1OZzDQ+ARNaIz1gyXSUCgYkSTW8qokRQ02dN7HoOSjY8JlAjWnECQCsE+RjJ2Y5lDmrBHueL48U6aA5R5/GKdMW+2ZtOIbC3+OqNNo3tWfoAt2LXIaRxt+XPLyqBhQN8AI0fAa+rcABesKjR0fwxE4GNWfajEQuyBcspH0IYMV+lHU51Pp/psbxomgRlIg4YB/BAng3MyhyFcc0AZAaewhKA5YcUITzuB2A9ZrpYjOd2sZ5vR20xzyOEbX4+hIFrs3bKbhuye8xwtgu9GQ11ZIs7IXIZPq8EFg7wWbUyhhSflA5jSDU1CtTwqxHw8y95cyRreUAivRF4Y7U887mGI1lgh1ieEnSCjWB2po3ACudJjgnqDHYB7mIQ2MaPcwHsvB/n2S80trkZN/ZJmteC38XrzdexzX4AH/MrbZVNQD9kdrP7uCBMYtTU/N68gTL8XAnQ7F+8IEDHaGu/yepXtOXtNjSdUsOhdHlqDUCsSzBwCstNk09htvm42aNhaMrpehOXYSw0zNykf4sodBYExoywCYwVkqD9HNfaYz+XZkXWXt+OLeVCQTF63uX4HI9qYweCiOmQD+PypwAZiBmH5ztxxAw9bV4GLpveeLvNBLKXeaZp+tu/PAD0xJpfI8cqf8+WwOJpeJ5OEEXDlblqYjCI9IXFv6AyICYwEaCDE2O+VMs7N87J4QhBEW658eqg7AAtIFZTG0JjC2p2z85QIOcXjAFubqLQ/l6r0OBCthJ5eQ85z4BxxM95xmXYr0ClIq0H3A8aZV4hV3HMa65RmzlA/C5fCN/bGXNPpirD00pgIQHvg9qTKq1p+Vl6wQ4ybKgKELVv7oRiR/CgKl201vR7oxhmx2f+cqeVUQCbqA+KYvoAnmAEhFGqOvMCXpBYA2whEByvgXhBH/ECsBnQ5mPCEBjzpRaINBz2hvJxd/J2gP3xtYxjMG9rCIXGqUYqacCY3g/fHTDzGelK0EcpffZnIQGfQWgHFA1Xebx0Q7AXjmFq/LkACBwtHzlAT5g+bzTkS35+z1KKgjYOFc9aTS94A9xxOAM9AMo5XHMAmg1f1zleLfaLNKzngmMaAcuQ83l+T7YrxuGmfI6Iz3bUGsTNx0kzr2FCoNi2E20VD8v+CXz+LlN/lNRm/k4/vVpIwIsUebRf8Sum7gilGsAHRKBHBagQCCqD61CKIEirzJBP1E/8ZA5nBJuaNDS8kRUSNWuxCEjPC16QzKR/pBH4bM+BL3BDUDhues9Hes5nIZrXGObp+YhvGulLkU/eL2oN1+Zhft7bquNjcTY74gskO/jdOIdmqegpnjNhMQHPA4bZEICHqzCDup1bMrS6HU9oeLlNAfIM/iwA1gaCeTLCTInVRidj56ARhEVDU9N+ISgB6DloYzYCznGJDHQQyWUibVxSIM8FoBCeyDcERJALfuNn4ciC4K16jmu6xPkn6xAO8vWejd/BpViZenCfKQgPnV+/DGdLYGEBLzB82200nnPVuO2x6GnVBVjVaQAoavxiCGBofyJr1RkC+BGWnjoHY1aDApAibw4w5SODVmhlTZyFQM2sls+aPuKQxjg2WjPg5+tC+5un26wfL4Lffa9zRlhC6xfnSFOhm9Z8Fbb1rpQtpbtQm5MT8ozCIIMypIU0S8Z75SXrOz5iyotTPpxQY5C0eJtiljwN02LWmHwtJ/F5qNytL0e3BqC3tclA6sZKPfWGgIaGbKPK4GonXSJzG6Z2/9t4pWOfcxlJmhWnSJIDt4EZ11MwOEf+Yi6AByhDWDiQawzWCkCAOceLiCYo0pgaUJunhCjynItZ7IaAZM5vm2NrLaV3vsM3sN5rpv39PiZLMzJmGRZWw/tqwx6OCm5tOKJJHZuDNKPg7xGHw9GopYfVbvuYnsM4pJhAhHsnfoIHTY3aLBqdAtBaQGWvVq0LWC/Asczj1cqAMMAoyNkmrzA1EkcJy9tTPqhwSloXrhGN3Lwd16I9EW0C1lXMpm6brjpPE3mQzlqg5jVYe6yL1abDzMYffzJOB0chJvOnX+7VQgNeyKpVdSSrM3uvGlWwg4kAc+z4/tmXAuh24OzBcvz4I65hTKdOv0cjkNqhFZYeDgoua4QQI0BLXBW9tnyPhQCwFrQ5bgailAVJCVAW62yVyRQoN3bnAAbcgliLjPkoslXS1hQith+DvTgfoJ8f5zKbUJsBvbB37/OZTr/nWQZq+mbzTxa1HOZ4TU06oJxdOAAvnZ87atmILTS9gqAtvsGsB8YraAcbAWJ7MgeYK23ENolnFPMX5FKSwmUYNGfAo+7rNlpJ70ASbfyF9rUWyMAnbQiENYBx1eA5TcHhI41gn4PZWuTJOfNUoAQ56djOQpDzsLbotBgPuzNN9x4+GciyqO/7WZ5roQEvIsWD/vEtOqG0wMQAD0omOmzgIoJewAhfqUyDmsCOqlloao7GaQBLFF0NhtjnNVXmDiZTATZSC3gjhRb2mCDkUDiemReAJ8Lcfj4HP+cDoBzPfB8hYduG1Vmgh1CZt/FjLX1R2Fx7ERfyF/QBfOPmpd0gDg9x+z6fFzom3pKHxQY8L1c8qGGdr6YW2tuDHgM8IEn6olDEMVYeC5DPbdjB24kj5fHcCMCfQG/G0BstNFKZrMHV4hnkgtJxsNIbaZCf2SyAGsCPePm8GtrvUzlANhqvpJWnC/yGgHbxIUhjHNrbzFjsMbfz2m3PzWhnmH+mQXndREq21oiH9H14h+/W4hy3zGHhAS94tcy4bmGeVKOrTYFPhAA8e+6r4WNDgBGiISufB9mZ+ngec+Wc3uid2Naq42EByX8A27wArXEL8AvYBsfUvIU2liZlQSABx4OnszYvtbkgLcyPCkM/3JdpR3ic88ZXGIxnjSTgC1oTPN9z3BTNkuQXge5Ca24/JC5plzUsPOB9sb5gQaRpssHU1GEO9ARAdfF80UgtNHzwfYCiEATXN6rAInIWmEoAXyC3EKIsLF5IAJq5oDe9x6RDma5YK3hICjSgc0tg10kfHJyIQZFMwnnzDpu+mZHvgJ5fXR6kMk0OmVcAm31HX1mbFEBXsLyO+XsD7tv4/tknM0ytHlvOsBSAz1o+a/oWDViBnyHOKgBhgzY2HlMa04QQCPpY7HH1oEcBkzUFyQeMNhoDZsGtZUaNLTjjJGtB6b5mTUGuxjXOGLD3WQS2GjjSsZ1BmuPIVIoG7ylAj4+zAWrdm02HBZWFa7NojTlgdjL3PX42n5r5eh3mxt+Hx3/8QHMrz0G8ZQtLAfjipZ4CTsHuBwgCoTqHCWtXYDSsM2yKaw77H8eCzhApXIsFvAuRFACwnnoAsA+gZTFNkPYY9IDMtoKZC1AFw0HhLgO0rV8bsbYAhwFINXrW9CQhL+mJgI95cXSNIJ7a3ThO8R0DPkiv9j7AU/Ij/Gf0lFylilGmw8GMuEF7iOMMDOvtlO7tprR7RCcW+S1bWCrAC+oJQ+HsQW1guYkwB3YGuEDOIH98zvOCPYDO9pzT58mdQtebbRoCwJ49mgBVjm3uoaFBlaAPI4pg53yeCYG8+FMQ5N+CWa0cQkYmCo1AFux+5FjLTVCY+dr4UpgBmr/PWNwjPptziKfk4fE0PCWtNQS9NUrQG64rJbJXeK3NWNiHKR32FF4yXKKwXIDn5fIZpgj61zh7Qbxvf0TtHNTB2zlWAP0x2Ivz9riaRq6Tc4hfP4rcB4SCW2tKdhdWu5M9wHUd16NmMWXky1qqI8CD7rBvCG3uPXGuB1CN00bYNIkWwuE9ICuh7R29JXUaIVF96E20GYgQQkQ+Cl2PCacUNj5Hm/ZOUnrvftxNXG9ZfpYL8PO3qpaXEzeZocyBIIb45SdEwJ18+Mk+h8BTUBnpTBWjfky8GuBXU7rQK0scvk2WjtX2JGiIcsAaGp61Gj24BKtsz+cY2wI0rElsV0g/Q3D4ShonpD+zdAKI7dntoOo1Y1YRmqA/biOt3q6a3Aaz11JI9KGZknZAI/WEGmBITWB+CsoKHVLv3hf4PIuJlyQsJeDV5mO1IFTBEVFqeoNaN5AjcokTFD8gnxuo7odO53yNga46mVUEvItIiwwCU8lpbk4AnD7pWlQEY9QigDFTHQ4GcLkkGavBx8TnCzpRMzhethAMaZBgFcTWFFIVvkgbcbMGF/zzW+cmvBWOkCZbbszL+8D9hg3OEdfZxAfMqfnuA+/X2MsRlhPwvltBH1NbAEhnGg4195kXLxACPCZggzQuudGKfgboNSacl5rEeaMRAjwcoxIJ0A/VqqRrAHplIpQ+5wR0yIh5CnrOOweOGlyKYzylTsDbwLUWOGG8rdNnK0BtrmG6QpAEchaifN+Z/2vdUYiINz9vvtYQWnfefVhJB0vE5ZcX8GBDoEhv1M4NvAulKk8LGc9EFpjzKJnWCPgMfI8X54iWAxtSnN6kkjCiRO9phzORBYANoLLKoM20xHaAwBagam/BKeDFajRUOdcD9Mdoe7V8h3u2MRt5hQa3FiBPElRCSLgHKFLY6LlBhck8vQcbtjtw+dv7ClUWErNa5LDcgOfNCo4BHzWeAooaLc2qDVnR4ALgHoe5CTGf4JQak39HQ2Vao8AgACxZcPJ58/BrfX2m8dsf8QFj9rOZMOcvpw9gA2RPSlkwzyesloFy7eV4MhAQSq/HWtBqkjyg5/U4NL7myywQgr/Q9AUl8h6YZyrs914rj9UlL/LDdSjdPagk3OYRKp7BSy1wWHrAx7sFDH7y8hRtX+8A2jmn/xTgjRhgAZSsg26oKeXvzi0f88vPaY7H0LxSH2LHJdTOY8C9O4ZC8PXA3KBF6z+mLkQjP+mHGlmACvwhgHd75ryX5Gd7QBMlQ9MBeSU0/S6jmu7j867Lwyo1ThPYKgBRLbgmrveikNhOKO69xvXWia+s3T3CtBnz5Bt/cUMJeN/tXK3F1zUApd6VWm8cufQknN3mKCCRc1sdqNEFlNuyorzJOc6THWvyEtjzNANqi2NozikH2mSEQyMgzNpVC4uOaa7zjXldG7WsOaZGVjObp5o8e21WseRgV0fbKzA2SHVXUCDMR4C7eM51NGBZS6WsEWwE7/SgNnRGSazMflFDCfizbxbgab0J8yCoyl/7y69f3AZwRXrsACDpiIfdZxEqYcMnbbghh/bnuBLAuSfx0NyCnoVhs0FxHjdUUbdqdEFpntYMcckAagajmj5s/MQxZ/dd5P6CXoEpaoKgMMQR7NnyQ3ZsM0N4WGfM2yG/LS700QFfAl9wLV8CHhx8KgCscY+5aVjk03L6bKsHGfEvAgW7wFETq1XzElQB4KnxdTuIAeN6UzpKyoHjITucN455oGEPyWcPbd8D/Fpo6uQlSAWkS9AS4ngdgTokbrQ3iNNkUVAUCp3MBLmgPu7N0hHAt62gJacatUNOX0HrB/BJ4zPoosAm1CbTqE/Q8iPix62a34KFEvCffaHzN62NXl4vuKQ4jobK+pS1CBEwj9cCPzuHCZX4AqCAB+SmCzs9+wH4yCZvIwKR1ZDB4YcsB8x2ZiOWnv/g9gqSPalWDaGpOSe10Y1Bkyezj6QW6yAipBHY8nKFQLv9Cdra5kiAHqCHQCo4pmEp9gW95lE8LtLhsJJ2+otrtSkBz4t+WhCcAmISFAcNKq/HEcXjglorjbw8b8vPXcRmBrNa3IZr8VXAsz46meJ4VVP7m7exNKYjQK+GVWvzaeKQKkEv4I1XXEPK4/3hCxZuDHFfxuO4lhzlU2qkcJi2xTFt79YY1hRPLDl52zhN7ldT5S6A30dYFjGUgP8Fb7UAvW4IVWYXbtIaFLgRPGkQgQDTRqeN2ABknBD4mdaExQYw5TYAADNpCIZCA3Vi12ytGZgKFZpTTcdzcNqorc6pk8niqoKW8+PQ2tkzUkALYm3vVj3mZw2ixceOKjU/kxh4q0+0ewgN6fIjRANWPm+74g6dUQPyLx6TlAsRSsCf8xozONGiOLE08boCS6FZw3/ebdMLsvj3QKHpOUTiGEdLI9Y/awHTu50TzBEY9+B2Pme9MQSuAr8HKKUxMfaVtNFY9aIAWMqj2ZKx5WGqlLrUQntnCqRGr5E2uD+gl7tbI4RgsB32SO/HxXTkp8WmzYEH2OUfQW9yHUbcBQkl4J/lRQICP5DW2aZZiOVFe7YfNJbfh8YHaAHuALKYl2sDfPIuTJah4L1WIRBsZm9J0xLv8ZKpkPmp7bXk7AH+A/Sv5swYs6rmVcsLehbt9X3s+3J3RvIxzw15R9wsINFWsEbgnm0IKxT64EubCvALeCelMl0XqZJGfdxnclavxalFCfZhlOG8EhC5AJg2KB9E4PUDCj0R48MKALiF2hSwU38AjlCfoValMiPnuhHtwMb9Yq23pWq55ucyycMzZgLUWLuvlsa3ncZsaHEAf0yCQ5Yr2BivkP82aLWm4UqpR/x7JiXPy2Sme7IaW1t7aHDOI6cxiNt1l3hqc2uKOB/PyC7PaS3wJq3ha5iBdvWwXKBQavhneJlqbGc96F5pxURNgc4AJ6DHmiP4BblfChHH0aAFSBzCpKlZErBTFQh4cZV/3MhgjGOArwC9cuOe9Mcfd2OwORI3xFntgA6CA3p2Hbq3AqjrxgHsuiPkWqCSVrhneXtSQ5OPmjxs/az9eNvI2ok4ym+VtCGoriON5kwmZMUV4hM+5zlBaBYllIB/pjcJYAHu2uUmH1nAZQtNr7KWdgiFGIQBiMYsgjTOcRw8BcgLN2IFIoM5X7SAESwp50VCjxX5mt4Oo6BLnBP0YR4lwRDX5IN6I+0jYSfcUICXi9s3oGuylh7Nm2G2FOzkK7BtALstwJ1DPjq45sIQAuH12LeGsCH+PrTmEKFZlFBSmmd8k06BoY08QEuacBLLXIFhf44wyr4qkwN8WkBLExXZhDNUQVmzxYxlgH3abGS3AMEryMkn4AeZzm2BfDNaaxyaZRthwrlTUKmg6NUZwiZi2R/PaukeGv8BUnEHG+T10SjdpLpZRwKjt5ZorxJvRcFhW84eoGcnXI45JuhlLQKhiYR5T9xqCOt1Ir8CJbs3xnpE2kUIpYZ/xrdYBRGrNFpXtnDNUrODDMEXAHGf7dDU5Cf4/XbqiN5O555xNjO/I1UPAUAIiJNdD55odDMUbjEiivPiywapGj60vKLhNeagL7R+XFOqw7IH+B+xHKH1HdQhH1eD24gV9KHB5fSAPDqovIjVyPwagj96eIk/lOizr1n0Y9oZR2j7RQilhn+Gt+irFheqScE6A3RBawMDuAQE6jnHxhRUqUUFmj45vSNMfY1J6mDgFsyCUC4fQDUTndSIqxjIyU85MaXmUBQEdUiW14y03oN1Aue8EeNJg7g3ozpV9zH7PUD/sHGaHkLUD+ly7YHkr0BlLhMvRkqxloZF8JlYyFbcZwFj29M10rxO4+CdDab3wGf+2KrgJQ+lhn/GF+hsBSt8E7ULjw8tC8ACtKQPAKNhizGugs84Ln46c3gwTh2cVZzfMiTF87QJdC1mU7QHuMFZDNQIc6OgQ2AEumZQbe6eN2/XsSfSHwe2Ix/OAXo1/n6jnu4D/jsKANfSV2cNVLepOkLDB9gRGtZh34997q1Yk2WT616hx+poq53uY5vXQe1lDiXgn+XtzUHWXqunVSw1NhxD+5I26A0AyxaarLlFZXB9tPDwcJJ6j0apzdhZKRFZBWqdmvtsHgFhgCZvDzcFwOkoJcEvLZLHB6LJIWobcBe9tOwYPwcPclGWECXuYwTQD7mZO7Qf3m800i77dejJKnmukH+mOeQ8B3kB/rDRk9777eJesXEVwDOpzT7fj5JivayhBPyzvjlApWly7VoLzQ2o1KbxI8jzIr2IbYHCtmA54bupvd1JzD2/cR0HAA5yKj6GPE9OLEDswjWcoUyQi2HXgn6Ca8PE4/EXXCbu2vjyfPkI/1EbZB+fnD6oDrTJFF74hArmI7T9+7Qn+lh5LtES7ZJ3jUyiskAQXMcVyDBAb1LirXEzzXcupR3aB0f747gvn+VlCyXgn/WNAZwaQFm70oy1cLbTx5deaPm8w75g54RTZBzeGaQBWlEAa9asRyeVgoEOti1APnpaCu7wjoRc65MjgPVidFDKgM/29A/w3KQhHDSH40VjNoTDtCSQ/uTaYQ5+jofg+EOCmGiVKx7B9R/QkD7p+ElPqBgau45gNULj80BED2EhfQgCz1LDXbp7CWH/1lZ0ph08HL6UoC8B/4yABwOB5852nrVMDAl216LC7Rj8IdgBsksfTbj/ySA8LmPGM7hwByuPtUBORyJANcYZ5hSKETyd/NTScn2n21a7Hz/gszUf88HkfSw/hy6YPlkPWY8c2sdA7AnzzkyYf0a35lMalwqKfDv77CNQXFCB0F4vbRmwvrfSSPeud9Pe1dXU45tWLdobbe6ljgDEbGXcg3G5m0jXhsRvf2Mzbf/zK2HKFPR+9K2gZs9YlBcarQT8MxZ/Bjc9kBt+FTBTmgBt/JDJXABC24tjtOXB7QFgHYX2ztq3Qg3RCjNlNvOokXPcYi55Nb4QM770xqlEjh9Bi/b45A4g1l15grlzxLR6IyZGHWIFGh9iSz9mYVyqy9CFKffGDAQxbhYEr5NpkTRItwOn+JviFHf66lo6urWW9lYbjMTi8ixN4jqtiHdTPFuV/LTctN+5nLZ+a4uaZ5x27g1DKF8W0JeA94U+YxCEdTqUOlhrfMFAhpQZtFkP8itCAIzaffejTGfMHl2JxmWQ9aUm1hp7a4moNvdk/OYhelKTyAJgqaGtGQ7vo92hRRG4QFzDNQdi2xzQylNcHE7R8gFyp9VjnOqYAd4jlrGCQS0wxc9dwQkB9LpcowGt6WKFaby2nh5e7aQHG034Pvnjldbk+k3ytXFrqPFVw9Nb3VT5zqW0yrezhmj4/Qdqesyx3ow39QKHEvBf4OUEaNHcAbIRLUBfLvY9tXSh6M1uhE/v3oeDdHR/GDw+I1MNS3SsMyubOIzRCRUCQ0IZjEFKo28OchFURFCOmYpj/w6AQqNHCAnxTvJ9/CKMBb9HEPTsDJrDh83GIQRZEKb0G8ygYyMda8h+fbud1l/tptmNlXRwbSU9ZH9nvZkOsTDpBKeQV4k6Qigm372cuphat7De2Jjvoe2d7sRyiPLJd/vC/ZYdT1/klQDMCY23vfeHabbZSp1L9KBen2BTR3MCTv3W7Xw6xjJzeA/uLj84o/HcPIQCrNAOqMHnNU3aiRXjTDkpDQpTZCE9gGfI9Rxj+ykgBejP3LgZf/aYp+fXnq8iTjR87UDi4Cl0J5Q87gin42PMrdV0i3u4er2T2m9vpP6rq2n3YJR2AfIq3H6dCXJWEMja66tQHhzXaPjeemM1ddH0V2520vf+7F76+MfHn75X7+MFCiXgf4mXISWozhqpOVpJExqS0/XRHPTQBWjDwd0BDUlU62cDIBvh2bX7UR/Q41+PXb/CII/Mf8kHEKmVi+B+D/9cZ1LIiH4M3SJKrAv5+NTBz9s5k4Va34awvb0VelQf3u0F1eox7/drb6ynTRrYq3B8v1SihMzg+BXm1m/QoRXjdaFlTVyIL2G9afzuFg11L3ov3f7JMcJPijPX+rzb+XUfLynNL1HictWtrc20sb6ZprjPjvpU5yxDpg0+vseXux+Og08XGvazl9DyohWn6ZcFHXwKYqOGAFcF4BWC/uFp2vmwH8IjiXkafr4Q2D97I+x7vXCEw+FthuFdj0zbDkM0ertNZ1m3AcC5T+TCDjAqstRBCFrQGCyrc1TTttGbdAMlQPtkAKU73vdjztKup931U27k13RoaQGvmc7wRV+I6VqtVrp543ra3FiHh0hh+mnvznE6oUd1iM3cxuNT0RlXzCAbOtMZ9ECfGLuGwvZOb6qTM3lEM+UB3P3w3ijaAdEgNH3cdr73XxXscTtkZX9B3AfaeoybpaJl3kfw8hG0rA24XRSOHcb+7e0MQoOHiwWZ+O0oQ4dpD7auttKVV1dQALRjaMxm0MfpF+JnKQHfoItd0NbpdczTa+QX5hs5TwAE3vXr19LVK1fJo0EPKFaKvYN0dHzyKUqiYPyivGzADnA7GB/QdV/b4ssc7fCZGTPNgBaZw7ujtH+bxir8PfL5EhWlQJ4x300NC1SF9ogfTmvCz21g7+8OY1HrZ58h+gcQhj60x3j9PrXa4YiGLxYdem/bDIVcx4qlwHwCtekj2C+Skl86Dr+xsRHaudNZwSrCx3qPjtLxyQnVNS8Qr8LhEK3E8ej9/IwKbSAgVy5fTq++8irVepvqH2sLL7nZpgeV7ZH+LrzdJsLUYRnhnz4gv6I2+ayK05SYxvXUrWynzqSVjvtHqbe/mw73j9PxEfZtndoD6KAnb+SVu885xDw8e9B5JrsZ09ukJhf0G5grh4D5vZ8dhEvEJpabGzdX0voWPkWYM52GpAmd8Rn7TojPbAfHOMvdffeYBrcP+GKFhQe82nF1ZSV119ZoYDXTWrebLsG/64wWGgFyz6+vdaOrfwLg+/0BX8voo73goAA4wEocwd5dXU1XrmCO664G79U9oEPeV69cCapxcHAQtYZC5TUVprv37+frPOW9e+0O34ZfWemQHw3BKW4LY5apU6VqSgEwBdY/I3xmR/IITzmVT3yRX66jyXK0T6fTNmsasYK+BY/fANxq8AFafX8vf/OyRs/spS24PELRcJwgN+MgGaf50/rkh+OsIYp7/CK38mXGXWjAC6hXbt5M77zzDnx7IwnInd0deDJmPkxxPTT7mElbNrfW8VmPiepCs08Euv4tj0seegIE7SxSq5/i5IJsIAw4XuFMtbW5CcBX+XTkILReA8FSWOpQJ4Vnb28v8jU77ynW/CiANnzNU7oguus0EBUofVwOjg5DWM4CukhvHp9Xc3juCwcur1Wov6OQV1N7G2czqNWdjzBX0pDdxt5uA9bGrFabj98/JH6XGo8Z7zHPNNDyTShei90Odvvf/cOr3Pss/f2fP0yHO7m3+Qvf05eQYGE5vMC4du1a+trX3k4tgHVweBBLzy97gaBTnKns2FlZXeF8K8ArFh1eJ7eX5wtE87Hbf8yA1SGAFtT93iD1ej1ox0kA2prBvDTXtdt0xJDOYF7WAtYWcv820xtYS2xQ21za3sKct51WiG8a45n3KW0Cr99qQZNYFwpe33nz31hfT+vrawhYGyHyLKbMJ5IZ1/1VfuTz9tTK6atYbsY8ew+qoo1+jR7YDhpfoVQpHNOojQ8l0/Au/P9da/VpweU3r/NsuGIMsF71ER471i46LKSGV/OtdDrp6tWr6fj4OP30pz8DsOMAVhdKU6vQjY5/+Ktv3AKIeA5CO+TugkyAC2BfqGmsAVx7TF7vt04NBdVZB7wKR52vKfCeA7iCtwXoBWjdbTU+6eX7IUQcs3YwX/OTLk0VQI7FwBDqEy+zttqlLdBBU9JjyzmfaaO7zr1TG4GdkwFC1zuhwXxM7XUY9/o8AGXbor/Lsw7R2ht2tmGt6R/QppilG6+sBs2p8bx9LDF37/WgbiMa8qvp6rU29ExFQeOXctygQ+rbv38pbd/opL/607vpwx+Qh/MJXmBYWA1fWGEePnyYHu3sMB+LJjKG2qFNg0pAQwTqfcC+f7AfgJZUCPQhn71T24Y2V6O7TXqFogdFcV+gqq2/+vbb2OSxstgmgCap6Q0KyJh57lyr8WzgjTlv2r55sGjhMQ/bFeZfaHjpkP7vCphUpw5tajbQltQQ9ej08QOX1k5raRNKpBAbz7wn0K2nW+zjtp75B7yGO/IEh7EZ03WM/NrIHp1gmCmlW03m2nScrtcd0APbY5HyNefH3FbwLdMO/Q36D6npB3TI2Q9xUaGy2u1erMh9SU+eebGzhGXN7GWkBdsAXZrTbnfS7dt30Fqj0Ji+nPiyNlW41hXBPXTN4r4gFORyewXl1VdeSa+//hqA7SIwB1T7vQCb1hnedYA30qrFBT/gLvJR+3l/UpNb5CM49vcP0gk0acQYVNsI0pW4HrUVzUFvPmoIBdnr64BTvDhrCOnT7bt30sMdvjhcnHhOZSvNUQDsSa3zLawNPD5vvNFJWzfaMXRR4dOJLDrkcLlY72IcQLuvb1HzNWnzUGZ+gfD2R730/T+7n979/kG0F57T7X2hbBaS0lgCWUuidXhTLgbBqmYVTA8ePEj37t8Lvq2GFYBqVDWt/HwI8CbSDIAeX/ogvflIZS5dupRuvfoqcUfpgw9+yLXUxGg7qvIRWtY4mjgFeH9AT2mA+JRG32raRODU0lpxtM6Y5x5gPz4+Qkiwu3vdEC4EDCEphExhlRpJsWwoGwYI6wmURjXabLTCzCpFk/48z0CWEaQ6I7wuH50M0gEdYp21k7SiuzSmTG/Jsbf6D/nx59W1Rrr6SjttIhxOQus9HtLvIJcvasHneY/PmtfCavinFYBAVEOqnXexnOyzFECSF3tezS63drsQlLN5eezNN94IGvHJ7dvRRvCYAmNjtU0+VvMCtQ94FR5rmQ78+513fotGaie0/wbaXd7+6NEOlqPdXCMQX4Ezvukzr0dQ5/dim8AGthRJIVR4xw6Lmmt070PRfs4KnnI4WwI5fy7/GLhxeh4njs9vAOYTc+tLfeT1Q4RBSvTcb/DTt/cL9xZWwz/tqQWEYL59506sfZOCqeDo8WZ9YwTjPi14/Aj7+sNHj2JtrVAEgTiAbgh4axG1vMAVhpoub964GW2GwXCQOqPcMXWI6dFGp/egdjeNd3D26sW95MZzHmEkjdB6FOfORJ5jrTfmjNQAAAJQSURBVLil57KeF8mn8vKSUrHPhrPFZroxVMbe4xysbT+b4te7v1SAt2gLLX62mAtAcfLs4aduC3BrBylToXmLiGpdefunAseqcGzpizXK8dFxcHytR2row8NjFiws0BfzM3w+JrKAPo530ej51IP+/M6T2/v8J/r5VF/ukaUD/PMoTinHFwk25kZw7/fefz/aEVps5P1DNL0NXs9duOr7Ig/0EsctAf8lvzxrD2uFvf39sNZId2p+HpDjdkjJ2Uuwf8kv4Uz2JeDPFMaXtSngT3BjCMo0r+cVhIKafFnXLfP9+RIoAf/zZfKlHHkM7jlPf7z/pVytzPTzSmBuYf280+XxsgQWqwRKwC/W+yyf5pwSKAF/TgGVpxerBErAL9b7LJ/mnBIoAX9OAZWnF6sESsAv1vssn+acEigBf04BlacXqwRKwC/W+yyf5pwSKAF/TgGVpxerBErAL9b7LJ/mnBIoAX9OAZWnF6sESsAv1vssn+acEigBf04BlacXqwRKwC/W+yyf5pwSKAF/TgGVpxerBErAL9b7LJ/mnBIoAX9OAZWnF6sESsAv1vssn+acEigBf04BlacXqwRKwC/W+yyf5pwSKAF/TgGVpxerBErAL9b7LJ/mnBIoAX9OAZWnF6sESsAv1vssn+acEigBf04BlacXqwRKwC/W+yyf5pwSKAF/TgGVpxerBErAL9b7LJ/mnBIoAX9OAZWnF6sESsAv1vssn+acEigBf04BlacXqwRKwC/W+yyf5pwSKAF/TgGVp8sSKEugLIGXtgT+P+i7T3Aaib1NAAAAAElFTkSuQmCC;" vertex="1" parent="Jn1EYD1DzJk262iB9yRI-4">
          <mxGeometry x="370" y="97.5" width="69.26" height="70" as="geometry" />
        </mxCell>
        <mxCell id="Jn1EYD1DzJk262iB9yRI-9" value="" style="shape=image;verticalLabelPosition=bottom;labelBackgroundColor=default;verticalAlign=top;aspect=fixed;imageAspect=0;image=data:image/png,iVBORw0KGgoAAAANSUhEUgAAASwAAAEcCAYAAAB9B4nYAAAAAXNSR0IArs4c6QAAAERlWElmTU0AKgAAAAgAAYdpAAQAAAABAAAAGgAAAAAAA6ABAAMAAAABAAEAAKACAAQAAAABAAABLKADAAQAAAABAAABHAAAAAB5QTphAAAlp0lEQVR4Ae2dCZgcRfnGa66dPRNykWTJ7iYBIgoKyI0igiBBBORSVOSSK0G570uiqEQQOeWUS0XuSxQQ5FAQEREEIvy5d5cchBCy987O0f/vHeikp7enZ2p2dnp6+63n2Wdnpqurqn/V807VV199HVKjmAzDCHV0dKw1ilWwaBIggSoi0NrauioUChmj1aRQOQp+552lMyORzA6hcHgHpUKfE6GaaRiqXikjJo0fLEcdLIMESKD6Cch3v1Y0IBkKqf5wKPSOoYyXjYx6LJUyHp89u7l9pFdQsmC9++4H00PR5MFhFTpKGjG5Nh7P1NbGG6OxqIpFIyocliPSaiYSIIFgERDRUplMRiWTaZVKpdTAYKI3kUhEhMLyjKGuNNLRm2fOnLK0FCraitLe/v7scNhYIMq5T319rWpsqK+Lx2tKqZvnkAAJBIhAIjGkenv7B/oHZNIVUrenk+rcWbOmv6uDoGjB6uzsrDOMyNkybDpuXFNDtKmpIYZRFBMJkAAJ6BDA6Kunpy/ZLX+iJ79KJwfOmzVrVlGmo6IEq7Nz2WdVyHhARlKTJ04YXx+JYHTHRAIkQAKlE0in02rlyq7+xNDQB5m02q2tbfqiQqUVFKz2ziUHhFTo6okTx9fJ7K9g/kIV8jgJkAAJWAn09Q0YKz/qGlBG5rDW1nX+YD1mf+06p+voWHpiJBy+etrUyfUUKzs6vicBEigHgYaGuhA0JhSO/EY05yS3MvOOmLJiFQkvmDp1UgOngG4IeYwESKAcBFKptHp/+Yf9aSN9ZtuM5oudynQUrM7OJd8JhcLXTps2mfYqJ2r8jARIYFQIQLSWvb+iP5M2DhGb1u32SoYJVnv70g1l8e/ZqVMnN8TEp4qJBEiABCpJIJlMimh92CeitcXMmc2vWuvOsWG98cYb8VBEPTBBVgIpVlZMfE0CJFApArFYTE2YMK4uHAk9sGjRohwnzxzBitc1nllbUzMFRrBKNY71kAAJkICdgDikh8WNampT08RTrcdWC9NbS5a0xtKhV5unT6HdykqIr0mABDwhAHvW0mUf9IdUak5LS8tiNGL1CKsmrc4R7/UoVwQ96RtWSgIkYCMQlT3JTY31USMUPcs8lB1hvfnmsrVr4sa7zdPXrotEVmuYmYf/SYAESMATAul0Ri1ZunwgGjFam5ubV2TVqaYmc0BdXTxDsfKkT1gpCZBAHgLQJNEmQwI/fBdZsoIlcazmNTY2NOQ5hx+TAAmQgGcExABfL7G15qEBYcS1kvg1M2oZIsazDmHFJEAC+QlInD0lIbba3n77/alhFUnuKGKVzJ+dR0iABEjAWwLi4jAUjaa+HA6HwtshUqi3zWHtJEACJJCfgGhUk4Qx3j4sy4Sbilf7an+s/KfwCAmQAAl4QyAWjYYk6PrGYnQ3Zkaj3DPoTTewVhIggWIIxGIRlVFq3bAYsxplXljMOcxDAiRAAp4QyIZjN4wGuDXE+XQbT/qAlZIACRRJ4BONqpMRlhGhYBVJjdlIgAQ8IQCNglZlHUc9aQErJQESIAFNAhQsTWDMTgIk4B0BCpZ37FkzCZCAJgEKliYwZicBEvCOAAXLO/asmQRIQJMABUsTGLOTAAl4R4CC5R171kwCJKBJgIKlCYzZSYAEvCNAwfKOPWsmARLQJEDB0gTG7CRAAt4RoGB5x541kwAJaBKgYGkCY3YSIAHvCFCwvGPPmkmABDQJULA0gTE7CZCAdwQoWN6xZ80kQAKaBChYmsCYnQRIwDsCFCzv2LNmEiABTQIULE1gzE4CJOAdAQqWd+xZMwmQgCYBCpYmMGYnARLwjgAFyzv2rJkESECTAAVLExizkwAJeEeAguUde9ZMAiSgSYCCpQmM2UmABLwjQMHyjj1rJgES0CRAwdIExuwkQALeEaBgeceeNZMACWgSoGBpAmN2EiAB7whQsLxjz5pJgAQ0CVCwNIExOwmQgHcEKFjesWfNJEACmgQoWJrAmJ0ESMA7AhQs79izZhIgAU0CFCxNYMxOAiTgHQEKlnfsWTMJkIAmAQqWJjBmJwES8I4ABcs79qyZBEhAkwAFSxMYs5MACXhHgILlHXvWTAIkoEmAgqUJjNlJgAS8I0DB8o49ayYBEtAkQMHSBMbsJEAC3hGgYHnHnjWTAAloEqBgaQJjdhIgAe8IULC8Y8+aSYAENAlQsDSBMTsJkIB3BChY3rFnzSRAApoEKFiawJidBEjAOwIULO/Ys2YSIAFNAhQsTWDMTgIk4B0BCpZ37FkzCZCAJgEKliYwZicBEvCOAAXLO/asmQRIQJMABUsTGLOTAAl4R4CC5R171kwCJKBJgIKlCYzZSYAEvCNAwfKOPWsmARLQJEDB0gTG7CRAAt4RoGB5x541kwAJaBKgYGkCY3YSIAHvCFCwvGPPmkmABDQJULA0gTE7CZCAdwQoWN6xZ80kQAKaBChYmsCYnQRIwDsCFCzv2LNmEiABTQIULE1gzE4CJOAdAQqWd+xZMwmQgCYBCpYmMGYnARLwjgAFyzv2rJkESECTAAVLExizkwAJeEeAguUde9ZMAiSgSYCCpQmM2UmABLwjQMHyjj1rJgES0CRAwdIExuwkQALeEaBgeceeNZMACWgSoGBpAmN2EiAB7whQsLxjz5pJgAQ0CVCwNIExOwmQgHcEKFjesWfNJEACmgQoWJrAmJ0ESMA7AhQs79izZhIgAU0CFCxNYMxOAiTgHQEKlnfsWTMJkIAmAQqWJjBmJwES8I4ABcs79qyZBEhAkwAFSxMYs5MACXhHIOpd1d7W3N1vKMOlCdGIUg3xkEsOHiIBEqg0gcAK1hdPX6VW9eWXrJ02jqnrf9hU6f5gfSRAAi4EOCV0gcNDJEAC1UWAglVd/cHWkAAJuBCgYLnA4SESIIHqIkDBqq7+YGtIgARcCFCwXODwEAmQQHURoGBVV3+wNSRAAi4EAuvWMK4+pIz8Xg30wXK5aXiIBLwiEFjBeurna3nFnPWSAAmUSMAXgvXWsrT6ywtJ10vcdbOYmtQUVr97IuGab/P1omqL9aPq+kcHVcKlyLa1w+prm9W4lsWDJEAClSXgC8H6v8Vp9fO7+l3JrN/cpCLhUMF8x+9RlxWsi/84UNDTnYLlipwHSaDiBGh0rwDyZEqp15ekK1ATqyCBsU2AglWB/r30gQG164+71OV/GlAZF0N/BZrCKkjA1wQoWKPcfRhZXfHggMIo6xf3DKgfXNOrhuQ1EwmQgD4BCpY+M60zLhCRSllmgw88N6QOuqRHDQxxqKUFkplJQAhQsEbxNnjtPVndfHFoWA1Pv5pUp93cN+xzfkACJOBOgILlzmdER//076G8zqn3/HNI3fT44IjK58kkEDQCvnBr+NQ6EXX6PvWufbPe9LBaqyFUMB/8sJCO272uoB+Wa4VFHHzkv8NHV9bTMF3ca6u4gtf9WE7/eC2pbn48ke2fY4X79Alj63fylr8l1CMykt5kdlTNn1unYr74Vvnzjgu1dywxWlum+7P1Vdxq2K3mzF+ZY79yai78wvA3VtPSjzJq+zO71OAnNrvPzYyqB84aN2YuF6PoeVf1rr6esd6fqy/UgxcdnUuVp78FcN78zSPu06LHfjJevfhOSp1wvbvN57IjGtX60yNq7oIuV5Tzd61T83atVQiR3OUSIvnLG8UUyjzi173qGRkh5EtTxocV2mhP7R+kC4oVzrn32aExLVgvt6dWixWu96V3U6ovYYyZvZoYPVoT7JNj+QfIeq1evPZUsLA1pkseBuGW4LeUlNFKoXwY0SBvoXyDyY/rw0Mo3PLiS4XUN+ier7bm43z2a0D5xaR33k+r91dl1NS1wiqd+fiMyBiaMcGdw56sq6b2Y357j3vTmuzvrcf4euQEPBWskTe/eksIaZil9r+wJzvqWNGVUSkRLTyxZ7zYtdaTEeOGrVH1pQ1janv5G0tCVr09x5ZVMwEK1ij1js4jwrC525owAvmwx5C/lHr29VR2o/ac5ohaeFCD2mxddpmVFV8Hi8AYmnxUV8fNmhZRtTUaw6wCzYfH/L4Lu9UfxfGUiQSCSoCCNUo9HxWyn22TuV0ZE6aZm87iCKuMSFmUzwhQsEaxw76+eXnjae23bVzNmMwuG8UuY9FVToB3/yh20Le+GFdweyhHmtgYUifvPXb9tcrBiGWMfQKezi9OlS8g/golBNLruG5ioWzZ48Xme+mSCUWV9/sTSntc/YqejLpffKzKlX7y3QY1WSKqVkv6qNdQbyxNqw9kZRMuIBMbw2qdSWG1gexK0FkhLXQ9KBt7Mj8UnnAVQT1TxVMe9ZRz1RSOra9JoMgV3YbUk1HjG6Se8SG1QUtUYXo/mum9FRn13JsptcmsiJo1Vc+M0Cnndq6Aa4yhwtLOqfIDiWi5ursJsPDzamdabTUn6vgju1z6+Q2xo66QxSA8CwG7M9YTO23rlFGGYwNfEcGCN3DHB584GdkaMJbe9suXCx37cgc6P7Xar2qk1/ijb9Wr3bco7/SylDbBT+zOfySyf/+WL5jpN2Yta1JTSO2yaY06YpdaNVvzy2eWgy/EQy8MqT/Ilhc4ZjqF48GIc8fP1ajDv1qrPj1D70tu1oP/j7+cVL9/MqH+/r+kYwQNfDHhUnLU3FqxSZb36wJ+1/xlUF1034BsEzOyW3puPKZJbfeZmLWJw16vEodnOFz/6fkh9ab8aDilDVsjao8t4uqgHeOqPu6++POwsJ53ZW/WpQbb2/541njVJkLUKz6IYIM+R9RfpwT/wW9+Ia6w5aqmvHicqquMpzsC2L0qv5JMegTgi/Xj7zSovbb2XqyeeyOlTv9tX8HIqXDHwN66W/+eUIfuVKs2ki+OTsIXA5Esnn/LwePUUtBKGeHhi3T3Mwm1n3xhIOqNde5fTMvpql1+QHE9T4lQuSWM6rAyi7+vy4/G+d9rKMveT4xWTrqxT73w9prrhJPtjY8lXAXrxscG1S/vHXB1esb1LJIfzUUd/er6vw6qM/erV9/YKv89dP2jiaxY4TyI4e1PJdT64kZzzi19rmHEkR9Oz5dJYMoO2dmBnSGjnSqgiUotk4tiKp5Ak3zxYP/Cr/raZbKBFV/78JwQhZNv6ssGIRx+1PkT7Dq4TkYBOv5oT7ySVPOv7lW9A8XtEkDNqOc2+YLhi3+DjE5ailiUwOjwsMt7FERPJyGWGbYW/e74JjVzbT0hNuuBY/C1D8uo6v6PR1Xm5+Z/9L1Tgm8eBBbXqpMgKMdc26v+11mrTpMAAvLYg2GpS6bA1gRR7NHoA5z715fchd9a/kheV0SwsL2FaTgBzP9bp0RUXHphLbHNzBLbAxxD8VdOH67hNRf/yR1PJ7IjAbdnOLqVZm5xcsuDYxCrQy/tWf1LXyi//Tj81Pb6eXd2Y/U0l2gQGLl9+5c92SmYvYxi3sO0ce6t/QpTN92EUdWJN/Rl98Y6nYtp2El7Drfpgj0i1f5ZpoClpqseGszunYXzcaGkK1Yob4MRTMsLtcd6vCKCNZb2jlnhjfT1FUc2qo0lekG1Jny58atuFyv8Sn9V7FRw24AHfq3MNmCsflrsTZhOwBCsk2DwxRcSow97gv1ojy1rsluUGmtDYvQVA7VMT28XIYUAWBPsh9isfscpTSoeGz6UQOQIHIe9yJ62lEe/7bV1XG0kvnMTxOC+sjejMBLDiMZuv9G9PlzXNRhV3dfvaI8Dz4N2rM0uQDnZmxAkwEmsYG/CdBiMMLLEaLN9eUY9+tKQuueZoexiiPU6/yDTdAjLIV+ptX5c8DWm2vtuExebYUzNkIUVpCUrM1m739OvpdSUcSG14Nvu4Z8KVlJkhop8WzBagEGaaQ0BrMZUs1jhS3aiRMiwG7yxinX5EQ3DDNAz11YKscbmSTwoPGzjErFb2oVuzdXnvjpVppv2zeKYCl96eIPadoNcAzRGpZ+XuFOH7VyrbpKpy3l39OdExUBkj6tEHI79+vCRyjm39GdXNa21TxDj/UWHNqqvyJfRmlDPJuKkCzsc6vmp1GOy2FMEtNiEkR84/lemkk4Jo6oLD2nMrs45HYft9xIRLHvaW+yaC8S+CTunNa0rK3cQFlz/KcIViwrWhOvYeeOaov35dv18jfrp9+qHrVBjnyv2uFY6VUSwMC+nYOV27ZG7DP9C5ebw9h1GSm9LJAlrwk1616njFL7k+RJWik6QaQ1cHE4Wo3Kh9Jh8of4lIyZrwsrTvaePy5Zh/dz6Gi4NEJM2sSXBHmVdscRo5sAv1+a0EzYue7hqrDTeI/W4uRJg9IMRCcINPfLfZHbavvMmhQULgn/1QwPqV2KrMoXO2n5zVHXaPnWqzmUL1wX39A970tIRsjJ61jfdRzRgeP0Pm9Rx1/Wq+/61ZiqJtsB+dtGhhaeG+28XVwsPbCirm4qVQSmvK+JEMVmWupnWEEAQO/sv+pqj1fHqt0/kxilDFM1rj27MEQG3lmLR4DtfirtlyR672RYmGj5cl8tqEwSvmASOP9wtV/xhg7n32Vzj9M3yRHD7iO+SwxtdxcpaP0QNQlGMWGXtaT/rVgvvdhYrGOxvP2VcdhrlJlaLZdr1qIikNWFkfoas+hWTIOoXHtKgMOqypnv/mRg2orUex+sNWyLqp+L7V06fOnsdpbwv7q4opWTLOTNL9MexFDGmXp6xb13V3QhWwMvE1vM/cSK0JgiQ/ca3Hnd6fdI33EcPcNZ8Rmwg1rSTTFfwpdRJWE2dPC73VrZOhWDbeeLlNaMMlA1fJ9h+yp3gTPs1eQal0xQQo6rvy1T24XPHKdjMCqXHHVbeTt/XeaUvX1mw5dmdszH6g9+ZWzp57/qqDPVcmJrbVRV5zG3IXWQRYyYbphZ2u0y1XRyM7fbRyD5idNVNEJHt5Xof+k+uWJjlvCK+QvbHne2zTeHplnm++R+G6t1kN4T1oR4wzJvpbTHqwz/Mmkqpx3p+vtduLhk/Ex+uYkadZtnPvZkrKhAfOHniTyel5bcHYgnhNhOm4bvl2esK59/REHOz7pH8r4hglTtqwUgu2MtzccOdW6HVlJFcJ1bbrAlbU2CALiVtIYb4fIJlrwflI38paXMZsdz0+Joz4U6BqSHsp071bL5e+UdXa2p3fgUH6h0/G1NubhfWM5d3WRRGDmB188oHc6fq1vw6r52YmOdvKosa5dz2ZJZbjv+54+hylOhQxpbrx6p6CuTQ5FH56LjdS9+uMioNylMo9gla0wTZw1jqDTzJNlVDuaZF014P7CUTS9wviaV1e1rR/bHw2utBvkkO+e3nl/s9XAEOEV8zbHkpJn0krhWjlZyYmHVNcegz85jX/ysiWBhiYoUpyAl7u6p9ZdDsH7sv0Egcf+1TJIzWzC009nowDS11NdnJ2bFB/LaQ7PXgs5FcE853SxB3GOhvO7lpmAPwIrENHi3e/LAjFUpO7S50TrHH4T+XL2GBpVpTRQQLF48NsUFNcHjEyhditfsh2UcrEBFEFCglvb5kjS0J52MEBXsK0mSHUQ5W2EpJdudO1GGO1uzXg/LzbRoupW7rOfhxvlNcP+B2sM2nYurSwxpWX6+ZDwsCZ/++sMuHfSEB1wS/q5H8oUw44sL1xI+pYloKRzc4FAYxnS++LLorbF5ywoNr7elBMZwjMoJOwijikRdzDcfWsvErj2mg1cD/oGw/KSVu/UMv5NazrozozbAwCFeNUUPSop0PS/7RWPzAVitr++eK4+XZIl4LbuvPQYcoCK2TI9lHzuUcsLxBCJ2H/rPmA7D6y4Lx2qFj1pTg/1cVG2FhSgj/o6AlLGPjF81PCU/qsW+6RhgU+4peoWuC8ym2w1gTjM5mgnMj6rImfJFN25P1c7fX8FV6RZ5/aE07yOqkmbABe6s5a97jc0STcDM8m+eW4z/uAaftMOff3e8ao38HCyu0A86x5TK6l+O6vCijYoKFi8N2iiAlLBvj19VvCb/kdpHFrv8zf5c7SnC7LuwPxDYQa8IoZ664H1jTHrY4X1jdO/43fTme69b89tcQHYSjsSa0f3fbj4S9Hojvsdf1FWVLMss2n15tvtf5f46Ev7GbRTCyxAOCrS4Y1jI3lpVZe1QIOPQ+uSh3NGk9x+m1dQTrdNxPn1VUsPAlcDP2+QlcobZiunHJYY3D7BeFzquW4/O/VjssNAziT2EzdKHN7HjaMyIi2A3h3/1SrVpnYu4thwBz9tEcvpDz5fHvhQzweAjtty7oGTZS+qpsnbHv09xXNgnb/QHxlOYjZTN0oVU7eJwf8KseNWf+R+pLZ3QVjAnm1IcwxGNvpN09BK4Kh13RM2wbFMqAzcpua8Io6yhps90D3qnO+2VLzhYnrVIbHP1Rdm+nUx6/fZZ794xy6506YJSr9KR4eFHfcExjRSIwjtYFIhyz/cuCujBl2/lHXQpfBrugYFSF0Ct7yrYUeMtbE0TpGHHrsCdsTXHaFweb2VfO7spGS7BvjMYCwIUSxG7ugm6FOq0JCxyny04Ce4I960f7D/cSf+TFIbWj1IOgg/YngSNe1tWyL3HuuV3qb5+Mat5dnla/kC03pSRc6/VyX9jDCsPF4OBLeh3jc+FHfutP5U6bMQo99LKebIQLeNRbR1B4jZhdR0kEUUTAwMgYo0lENR2thYZSWJR6Tqi9Y4nR2jK91PO1zwPQAy/u0R7Walfk0QnY23bVvEbH8CYeNankatFXx8rm2XvzxKbHRmcYmRGNA7Hd8eVwSsiHvXOIspAv/ViM0gj455SwugoDNdwUENsd/kxOCT+I2O/ott8PUSQQsdMpoZ42uR6EbUHkTYzgrN7h5jnYOnSHXA8SIiLAHmYmOF3ed8bHx8zP7P8hsojdhTqsCcb6W08aHhoHIXV2P69bLf7Q+bqxGR1Tx4wc7pD47vl8rNBmp21Pcxd05WzFOnCHuDpP9hFWW+roXKoqOsICANgXsFMcy79jLcGweu0Pht9wfr1O9NUvJOCb3fZiXg92/uNXGwbvfGIFg/dV85pcxQrlIYwv9is6JUxBETkCU818YgWxwWqsm1ih7GNkozSiPDgl1AMxwdYk/HcSKzA5cAfn853KdPoMK8bXHt00bASOeq/483DRxmj35mOb8oaEgUAhGgVGW/nECqYYiKnfU8UFC8Dw6KsLDm4cM97vGEFccHBDdve9uZTu9xvDbD9GT1fPb5Q4V7Xa9jhMfe48bZzaaePcFTqzbOt/2HjAEJt7dR0X4VuEsMUIh1IoQXDOlakhRhBOQf7czsdIBiFbrA8Eidk8QOzv85WHkQ7icKE91vRvES2nhBjr98vIbYv19UUHNr27pB9wnzqlaCS3Efb3Tud49Vnk+ONPPHf8eP1wryNt8Gz5lQHAp1917qCRll+p8xHB8aZjxyn7EnSl6q9EPfhSwS63i/gUYVqCMMG5k5ncVmD0fMKe9eri7zdq+wxhLyEC5OGxVRhVWe0zubWIx7xMEY+QuGK/lsit8LvSSViBw4ZubH9B5FKn0ZRZHkQbEUEvk3A0G9menINRJmK9m2l/Camztc2Fwjxm/w+fNIjmU2L8N9P+MsrcMs/58HzHE2pwrXgkl31KaZZh/v+MhIg574AGdcIedcM87s08+N8udjlEVzXTMRL8r9QnHplljMb/ru5eVXEblv1Czr+rX/26TBs67WWP5nuMpA4TR8qTvlGf95drNOv3smz4SSGYHZ4XCLeCATECY89gs8RS/8KnY9lRQKl7D63XhenNYxLu96V2ef6h1AnjO0ZTeF7gNrIKi5XYfKMGazmFXsPY/piEckG0Ukxtu2XTNOxY8BPbWkZCX5B6zO1ETmXBhoVVu43luYKIuKq7owEGf3i/w8Z3uDwerdhROrb5IGwOngAEGyJ+WCbJ9BHTvy/KD0yxz4iE6F7x54HslBuOrhDFakywYXkuWAADZ7iF4kTn9itXTQBxM+CxUlav7WpqH9tCAmORAAQrz6y2spc7b9daNUeGx3gckd13p7Itca8NnvrHyQMji7HJuJfEoyRAAqUQqIoRltlwDMfxoAD44FRLwjAbm1jni6h6EXS/WjiwHSTgNYGqmRLaQcCegOD9TmFm7XlH6z0cHffdVubzYgStRgPkaF03yyWBaiVQNVNCOyA8pgh/eIz4DfLo7idfGXJ88oj9vJG+h3/MzpvEZMpXk91xXw7D8UjbxPNJgATWEKgKG9aa5uS+gnEbf7BrIY41tkc8J8uv+Tx+c892fzdO4gqtL8vDm8jKzGb4k+X06S5PDHYvjUdJgAQqQaCqbFjFXjD2qb22OJ0NKtcpWxFg+0rI0iyWvU3/ICwNYysHHgOPQG6Y4iGQ23TZfAuhgvMqEwmQgH8IVO2UsBBCBPEvNpB/obJ4nARIwD8EOMzwT1+xpSQQeAIUrMDfAgRAAv4hQMHyT1+xpSQQeAIUrMDfAgRAAv4hQMHyT1+xpSQQeAIUrMDfAgRAAv4hQMHyT1+xpSQQeAIUrMDfAgRAAv4hQMHyT1+xpSQQeAIUrMDfAgRAAv4hQMHyT1+xpSQQeAIUrMDfAgRAAv4hQMHyT1+xpSQQeAIUrMDfAgRAAv4hQMHyT1+xpSQQeAIUrMDfAgRAAv4hQMHyT1+xpSQQeAIUrMDfAgRAAv4hQMHyT1+xpSQQeAIUrMDfAgRAAv4hQMHyT1+xpSQQeAIUrMDfAgRAAv4hQMHyT1+xpSQQeAIUrMDfAgRAAv4hQMHyT1+xpSQQeAIUrMDfAgRAAv4hQMHyT1+xpSQQeAIUrMDfAgRAAv4hQMHyT1+xpSQQeAIUrMDfAgRAAv4hQMHyT1+xpSQQeAIUrMDfAgRAAv4hQMHyT1+xpSQQeAIUrMDfAgRAAv4hQMHyT1+xpSQQeAIUrMDfAgRAAv4hQMHyT1+xpSQQeAIUrMDfAgRAAv4hQMHyT1+xpSQQeAIUrMDfAgRAAv4hQMHyT1+xpSQQeAIUrMDfAgRAAv4hQMHyT1+xpSQQeAIUrMDfAgRAAv4hQMHyT1+xpSQQeAIUrMDfAgRAAv4hQMHyT1+xpSQQeAIUrMDfAgRAAv4hQMHyT1+xpSQQeAIUrMDfAgRAAv4hQMHyT1+xpSQQeAIUrMDfAgRAAv4hQMHyT1+xpSQQeAIUrMDfAgRAAv4hQMHyT1+xpSQQeAIUrMDfAgRAAv4hQMHyT1+xpSQQeAIUrMDfAgRAAv4hQMHyT1+xpSQQeAIUrMDfAgRAAv4hQMHyT1+xpSQQeAIUrMDfAgRAAv4hQMHyT1+xpSQQeAIUrMDfAgRAAv4hQMHyT1+xpSQQeAIUrMDfAgRAAv4hQMHyT1+xpSQQeAIUrMDfAgRAAv4hQMHyT1+xpSQQeAIUrMDfAgRAAv4hQMHyT1+xpSQQeAIUrMDfAgRAAv4hQMHyT1+xpSQQeAIUrMDfAgRAAv4hQMHyT1+xpSQQeAIUrMDfAgRAAv4hQMHyT1+xpSQQeAIUrMDfAgRAAv4hQMHyT1+xpSQQeAIUrMDfAgRAAv4hQMHyT1+xpSQQeAIUrMDfAgRAAv4hQMHyT1+xpSQQeAIUrMDfAgRAAv4hQMHyT1+xpSQQeAIUrMDfAgRAAv4hQMHyT1+xpSQQeALhUCiUNgwj8CAIgARIoHoJQKNEq1IYYQ1SsKq3o9gyEiABpT7RqEERrFBPJpMhExIgARKoWgLpdEaFVKg7HA6pt5LJdNU2lA0jARIggVQqpVQ49GY4YxgvJFNJGrF4T5AACVQtgWQyZahM+oWwkVFPDg4O9VRtS9kwEiCBwBMYHEx0yzzwyXAsZjyRSAzFA0+EAEiABKqSAAzuiaGh2ohKPxlubm5eIcuFbwwMJqqysWwUCZBAsAnI6EpcGsKvtrS0rMw6jhqZzBW9vf29wcbCqycBEqhGAr19/b0ZlbkSbcsKVjqduFVULJxKc7WwGjuMbSKBoBJIpdJKbOyhVKL2NjDICtasWbNWKSN0dXdX32BQwfC6SYAEqo9AV3cvNOnKdded2IXWZQULL1Kp0MK+/v50Ev4OTCRAAiTgMQFxZVAD/QOpaMRYaDZltWDNnj31ffF/P3vlyi7askw6/E8CJOAZgZUrV/WJf/uZWBg0GxEyX+C/LB9GO99b9sJa45s+3dTUELEe42sSIAESqBSB7p6+VHd376IZ60zdDAEazHpXj7DwAXZDp1Nq967unn7xzTLz8D8JkAAJVIwAtKerq6d/KJzZwypWaECOYOGDWbOmv2tkjP0+WLGyH3NIJhIgARKoFAFojmjPgLha7bNuc3OHvd5hgoUMra3ND2eUcdT7yz+kaNmJ8T0JkMCoEIBYQXMkQN/hbW3rPOpUSY4Ny56hvXPJARLh76opkyc2xOM19sN8TwIkQAJlIYBpIGZ1Ykg/vKWl+ZZ8hboKFk5qb1+8cygcvnP8+Kb6cU0N0XwF8XMSIAESKIWAGNdT4m/Vb2TSe7e1zfirWxkFBQsnL168uCVjRO6PRiPrTZq4VmMsRt1yg8pjJEAChQlgCvjhylW94vv5elil95wxY8Z7hc4qSrBQiLg8hDs7lx0ZCquFdbW1URlx1YmAFSqfx0mABEgghwCC8XV19Q4MDA6mZIHvlJaW6dfIamBRYY+LFiyzxs7OzomGETlBfCCOFbuW0dhQ31RXF4dLhJmF/0mABEgghwBCxAwMJFRvX19PIpGUaMehi4104qK2traPcjIWeFOyyixfvrxxYCC9dzgSmicx4T8fr4kN1NbGm2S6GI5GoyocDstfycUXaDYPkwAJVCuBTEaCg8pzIjCSkmlfRgIr9CSGknWiCc9n0pkr4/Hw3dOmTesrpf1lURSIV38ivV3YMLYNhUObiQvqHJlEjhNRbZBGlaWOUi6O55AACVScgCGTLRGjEDYrvy7+VM/L+3/EYuG/lypS1iv4f60NdGAavQuvAAAAAElFTkSuQmCC;" vertex="1" parent="Jn1EYD1DzJk262iB9yRI-4">
          <mxGeometry x="20" y="50" width="179.57" height="170" as="geometry" />
        </mxCell>
        <mxCell id="Jn1EYD1DzJk262iB9yRI-2" value="" style="shape=image;verticalLabelPosition=bottom;labelBackgroundColor=default;verticalAlign=top;aspect=fixed;imageAspect=0;image=data:image/png,iVBORw0KGgoAAAANSUhEUgAAAbwAAACQCAYAAABzqd4mAAAAAXNSR0IArs4c6QAAAIRlWElmTU0AKgAAAAgABQESAAMAAAABAAEAAAEaAAUAAAABAAAASgEbAAUAAAABAAAAUgEoAAMAAAABAAIAAIdpAAQAAAABAAAAWgAAAAAAAACQAAAAAQAAAJAAAAABAAOgAQADAAAAAQABAACgAgAEAAAAAQAAAbygAwAEAAAAAQAAAJAAAAAAee4HVwAAAAlwSFlzAAAWJQAAFiUBSVIk8AAAQABJREFUeAHsvWmwZMd153fvraq39N7ofX+9ACAAEqQIiIT2pkRxRI00shZqwnaMHeEJhyM8tmM+TPiD7Qi1HA7vHybC1gdbmgnHjGzHCJqxJrROUEuLHIkiKZAiiQaxNHpBb+huoPd+W1Xd69//ZJ5bt+pVvVdv6UY3WPnerdxOnnPyZN5zMvPmzZskIzeSwEgCIwmMJDCSwPeABFLVcf/+/XNFUWRpmtaTpCClSPKkhj+epOlkMjdzM6kXF5PP/VCS/Nxns+THXtqcbNuWJK27d5Ok3UoyIFMw6XJXCM0AV0S4FJg0RAgVOYhEtODvHNcfc/1P6YvJ20IDPtgj5XvLSbS5qkwb/RQC+E9opx/E34kvESOrIqvXaolEeu/OTLJpfSv5vmey5Oc/V0++8FNpMla/kyQz0whaWFRgFQ75qzztkKZqqXaW5K3k18++k/83x34hueaYv0fbyqs/8kcSGEngEZWAFOrIjSQwvAR8UOOjFkpuGL70CHIkgZEERhL4wCTAjG7kRhIYUgIYO7d3VoKpXkbChk3dyUNiG4GNJDCSwEgCD1UCoxneQxX3Y05M65l+WVVk/rKkaK9upfQxl8qI/ZEERhJ4TCQwmuE9Jg31SLAZHwCGZ7UYu4JneCxtXn0kmBsxMZLASAIjCSwugdEMb3H5PNq50QD1MjkguRds+XEhti00YWYng1fkaVHcHs3wli/MUYmRBEYSeNgSWJ3BC/sEHzbPI3pRAmGm1RFHMHTaztpJeyAhbViJl7bWsld35EYSGElgJIFHXgKrWtK0PerSslHBWvyRr/KHi0G9q6H5lV5SKHizw15WsAZZe6uXlsMjNToXO1YyEjd+uEQ6qs1IAiMJfEglUKqwldbvgc8mVsrYqNxDkABGddU96CGwOSIxksBIAiMJIIFVqatUe9L1X5lM2CqnJgAj970hAXum971R1VEtRxIYSeDxlsCqDN7jXfUR96uWwGgNe9UiHCEYSWAkgYcngaUNns/eBszaPHu5LOtYsZF7/CWQh22bj39FRjUYSWAkgQ+9BAZuWpEhs4148qMYOsYthDLfreIwDhjhB3lVY1cQMWxDlh2E83sh3UXkfllnEyipKeuLVeGWAA8goEYTLS1rj9xIAiMJjCTwGEignOG52nI/8K5znGXwpEx7a0OCMqOr6tkFoA40wDc0KlQtyCteA8C/Z5PD2dkaIMRBQpckXFzud2V2tVVPzoqjBTs09VoCB0gPILpi1KOCIwmMJDCSwJpLwGZ4GepKj2PM3vAjX6dFBXOnWUPIF3WfTEjFKV9xS4vlSg5JH+Q0c+xywk+CbX7RJghN+wQ0li+CpQvDhz5Stxapfi4iiCb8luOWxeUAcK/oFy/QkxtbI8zK0yTnkwlFWituNa35eoBH0ZEERhIYSeDRkkDUlFKDURWaUuP7L50UQv00JWlRAVqVqmFL6P+zwNj1grlGHu3+65EM3+OJzRBmeBL4IKEPSu9Bucqo5pm595tV4hoVH0lgJIGRBB60BBYaPCkwrFL4q5B3Q1QmkSBQjy/I94yO38/YKc2uCNaBIWOuU3YUkgSYUUUBhdl3Kf2KeNQQQzRGpcTQwSpqIx3o1BoPiuDQnI0ARxIYSWAkgSUlEDatdKwMBaIS9TStd2rNMiYHjEHRKUkhBx1e7YXyAVcX4pBU/k4Qmi1j38uBlj7Gm7PQzLqv5lVy+kyvbVSJgreP6VpjhOFK5q8NeEMh9o60q22wlGRDqQUlIrL2aElzKQGO8kcSGEngEZBA3KXZq8pcLSrdwx1u7UmSsrikXwVRffm8A7n8kD0P9GLjI2PnorDprubjGLGwZUUNoARf+/WtLLFhvODC5vOcZfjCuRCRcbAweRl4R6AjCYwkMJLAw5PAwNcSFmNBmxYWOCVJA66B4xB+1GuxumNg1oCPRwnFeHKdwUUtaSXrMHFjJh03fJxoaaJX3NIYhWi2ZwOTgZVYeYN5M8v38EAyo4yRBEYSGEngEZFANHhSfn2MmDGJSvNsgprJlfYuLpmVsztpv0FohqxwKM7v6P0uSbN0dR5otuJypYxanq5H1DVCbcJqExY4M97l0GCB1wW09Km5H1tdgnNsXe2jiGc4YD8/FuoB7Yn2K/gopi2H7S5pLVKZYXEuhW9YPIuwsuyspXhaCmE/ngfh7IUdBDeIZm/5QXAPOn0Q3w+Cv0G01rKOy+V7LXkalvaa0AwGb8EzOmSpNEsPswZRk2FDpyrEShpqt2rwnG0BDmDN9LWKA9AJd8MbHYPxpTqL2A/k9HGAAdg7cB/KUFvyp+rprM30inQzghinqvOSJml8KUGvCTBQKGq8G6cmkqjULn5JclGs5SBFMMt1sa3FTrawmZaL7WHDuzRiLQaS95otJSDh0V2xFD6X/iB8zpfdYQO5WtsM1XEQP8NQcp6rdXd87vficVkpfzn0q7Sq9HrxP4w4d+MCua01f5KPy9D9B1W3Ku9L0Vhuuy2Fbxjaw96LS9FKfIbnRClAfaTJcErMUKD6UzJfn7ErNIOlGpzFBaxifoWczi/50X5amodVTI5iMYgqDutxkXDI918ZPQ+viS++AterQTc0T3GMMBStX/3VJDlxIoCOUe+WRJi10yybT5qF3vauoWnnmQxL6O2kns7RoLwKbkJS07puISgQamoHfitsZSxRGd2uN9lrF8c42FWcJ3YXfQxifvOsFauSlhTgap3w6Fpr/lbLV7/yanxdy+W3n6yquJQ/yClvsfxB5R5W+oPmb1g5raS+K+lz3v4roVctsxLa1fLLCrvBo5BUMXUoFaHqI4eSjNMBQeRMzaRoLUfrZzn8Sq+WU7YBfVLJQi9QFcYZqRC0dCHCwJKNZq0xhXRAwcaZnenyWGaQJ1iD+9WIdhCg0kXFq7oY3OA8lR4Gg32qruRtMD6rq/j/lV9JCjd4Uql1qGi1so2xS/MZKtlEYnNcEhlP9kir0x41riyfRL5jUFHj4FyWslYmYu9nnhHA7Le3NjGu9g9VVQJ4aXNN9GuzQ9XfUD8CPxJIevx44PnkySQ5TqTqTioxGB4XUjW7NxyFIZzHK3knO2GC/Et6wtdH4KQGwWbdfFk6P8c9sEL/5IJyoYrGzzB17C3vPcTrIoWQPvfcc9nc3FzaarXsqhaq1+uFrs2bN+evvPKKyvksSbh0Kc19ggucw5VtFyCOm3cyRB7Ar2M+TiNaWHz2a0fnL6NDASJY+R13vBNcEIp9ztNFo3op3fErfa1dBkLHb7itCoRiP6FKxwmfVF4vX0pbjRPt7Dg/QV4nLRR+oGlyNJr9ZF6BHS6oSiYH9++Zob41NHKNBFOH2jJSpGyOyNYlszM3k7HkcvL5H0rSn//JevIjP7Ar2bINPm++T7dtas8EpfSDa8f7J4vxkBp+zcJFeRllJZucw5pcTWtyAGWt00mt+UfJR5L/DgNxrYriezXMCxo/urOW/IPGRPKjSGl3M29oDTOvZXmNFUx6RJHcvttONm5Iku/7WJb84k9vTn75b29Ja+M3kmTmdhCbTc18jBMnJWoONYHfRghcTW8FqkMBtZ2lk5/STegbSXM8ac+n/8dbr1/7r5/5DxM6Q3Ay1jLsHv+AfdVOrjh27Nj49HS+q9Fob0+S1uaWpsxpmqOIHUYjJSbIxdzs7Ozpa9euXQ1FB/8eO/bEpnZ7Yk+ep08wJJkUHXBSd2bgvDQZwsiiWdy+Pz9/+vr16/ciNqcpOdWmpqY2zqfzu8aKbE/ezGo576DUY1OBdzADQ+VQ0ejEk4Lc6s08z89evHjxkucN4Vd5NvAXXnihceXKlSPUc1+WZbvAuZuMrYgAWRQNGxglxRxk7+QZfaTIr9bT4uJ4Mzl3+t13r/fQdPxKllwUt360a9eu9ZOT6Y40re9st4uNDIyjwaxr5eMBuoBdqhGXp+32NDJ8G7lxY3UcfWvTfDa/vT2X7kK469KMA/fMdfpWv1b09mi32zyCz9rIbx460/V66+69e633K/2lQyzIxeMmH4+swM8OHDiwG7o707S9mXqqotwTAZPuEbkayfA6z3V7fPz+O6dP37gTclb1mx45svfA/Hy+O00bE1meQbut+lid8iKrE5pjq971ZpZdR+Y3Y17ZL5ZLPVYrZ/8/i11pvLPibE1UcxvWS4MpgimaL7LmfDtNZoq0Na00MszgiTRhxeW06URBb46Y3EkQkBIFZ2uYTB5xmMx2GzrtZNPV306e/qf/eVIcPpKs1xt5S7l5Jj6bENEuNjKO8xhrgmvdukVKsefj3mzSfPdWcvvJ/2Jlr7nrRpxoT2xqT7TNwlMDrzGE1yWMJDA4F5IDk9PJT38yqf3gsSQ7OsWqI/rwlt66WKJi+/clzYnxpPgv//vk4OXrybo2AwI6gpQpb7/pNiyweLIuaXJ7vJ6sW18kuza0s4m0mc5Pz6WTzXbS1Av8Jn+xxuUcuk+qOxqAAQft4bPkMgNgiKldNeeHiVrebOXtFkOcR/s9PKs51Sjm5+fX1WrFM9zcz1G/g+puuBYdjr4fKgxcA7HeGxsb+6MdO3bcR+FYLye9xOMikd9qTeylv/44t89+Bh0baBlTxOAQvOSksQiCy883Gg0NCtzgqbhgZIjrs/nsjlqefB/lPlVk+RjczINXbOHi4ETBFTmxUKlAkTbAOw3y3yN5OQbPe0z9yJEj6+F1C8buSfA8z3WI+D6o7KdKDCjo/Ek6bhVMshno3eaVXgYQ2cU8L87N1pPX0bNvMRm8tn79+punT5++Sxln0+mE4mQguy2U+yjBjyLafYTbKValkEfiSqapFFvaaaOCbq6kTVva1rD3aln7dyjYZfCazeY2bs2PFUX+Ce6enciCu04jUXRldGrFMuKJGrXCPPKjW+Yt7qw5gvdp+5sTE4139+3bd5W898B/h3468957792nqFd3IboS73CB/fv3j4P3RWh8nJt+C/1OfYN7AlbBjoytTaiPDF4Lo3x1fn7D71P914ajsCiUVgKeTtPap6nRFig0EAfaP1QPXsYQ4W303Wvw9y0wyeDJSdcKyPuJ0oZy0eClN6kbNSsUB7fauGa2CyY0ZFVCMjub1O/ezBt3r96sT86k2czNeUkh0QzDW1LP+eQ04ZPErKBlRt4gZBIUEAFrsQAme9fEXqZzs8Xk3enko7fuJv/p0cPJnbEs0VkeZFtRq62qq+W0jDmhOpI6DcPJGuJqw9L0ZC25P97A3qizag7q4hFDSoFwq0jqjVpyaceG5A9AcTZwBFtAOC3Sqs7YJSFWJkmZHTyfZ62foAw3OLeh8DO7zRiczFM9DBsWoa7ReiZ7NDaerEPIk/OSjx64CSNvFUj4IqSoAmKXyXJ6+WrSHmsk+d/9mWTPtfeSqZm5sVqrPXmvyDe01EA8w0tl8BIEMT2nMVEz3bJlvr5toll7/+L1bCzjZXXNBQHhZoTDJpgBF6GKU50hTH2SFqikRUjqdlpOlfDzosVqAAMvHisySpmbQebdkI9czGqL0thUr2efomK0l5RnWsc3gcQbWoxrlnabG/v+unXrrmKMzqCMNWRQL3eRuI/By57FmP3HXPvpVNLA5EXRmUwtvA4GvkH5P+e6wCUnnoyvW7VbYxOt+j6a5wdpqL9LV1hPHn1XAxvBdMSrjokr6SviLlAtswzQ82RyLScMZjFW+X1wnSP/y1xeSGU8TLB0StelbpkcOnRoBzPgTxP8Ga5PcO3hktzoE5rVJXXqwl0AhVByE8HtBA+B/JPQtpkCKC/Wa+lfz01Pf3n79u1/hjJ3owcK6B0/nrGOZjQR6w7q9wP4n0UdfYT7HaGgloETw7ZBS6W6Xb+6dEOEmLjs57x8yE9tMHSB+/JvAD5VLdBMmnsY3LyEsftpCh2FIfqML3cFSLUP/31pkWe08E1TYV/ULzFuhWbB5zD43xkfH39lamrqlXPnzt2KtFXG8Vn5mL6YJ/gStl6f29xsNn4Bmf6MLdXRiZGxyTxAKUgujGH8JuHrGhvj1IerBq8L5yLEe3nVM5FP0nq/DIUd0JtADGw7J6Q5EPMWft6F3T+nH2lGKZrFC8kL2SvJK4HHRYj1y4oGL5ugQnqZiw4rAcqMKYDWU4/lHxYYeDKzbfIo6V5eV2/OULBaT5DBkzYILRUx4Ek/ViRHiiUGX79kejkjlRWg5U6/n2zM5pKxLfVk99axRNNrJZuzG0gh1wEhh74GmxNJxt2Wb2wks5SZhe05WBDvEcpQqGuZwathpMD32rpa8jVyzlruMn8Q2DEk93eYFKFEUmxc6LoSIPUPe0Ts5sTgjSUT6yfTiU0b0nExPD7PmBEENmmKdO3uJRzYpk4gqWHUt+xJ6lPbs/GiqDfyog65GkqFauUa6FKAirSKWiEL1M5na+snWBebxnaJCbUgP+LJBAV4EEgkGj2yU9o3E08C786NCSqIXQVpLYdxJslZOe7qLfCIxZm1Ze12k0XfhKWxdJvVsodHaWjuhXVcTzLynZqYmLgIiAyeHGLpyEXLeVevXj1A8jNZqrYJEALqOEQvYebFExhRGYOqM9At7TydzrMGTbWFPrRTG8WAX2/UuknGslUKnWYSnY7ziPwAA9bQGdSpUC5kaP2jgyAU7hTojhfMeDegdI8wE/kR5PRjZL/EdYB64Tk90EkQkZmA3HponTKsVZBl8IkM2CFiO7l/do2NTW7fu/fQ32zduuEcdO7wvCgupgUBQEODkw3MfnZSZlOnrqIgVa3aKfRgXV7k2yGyYF0mb+cN+sBGmNgNr6yz0H5iqOpgrps/oCJMqE8nt1K/YwiUKzmK3J9i6fzwvn1Tf83q4puXL1+eJn251RYRo3r8eFJ/++3aAWg9XcuybeLFkZVA1nSqhMbx6pf5VNYujh4+fHjX2bNn3yPDBh2CwBneEBzul/6+Hvo7KMqyptowygBP9JhC7EVqm6GiLekxczjc/aCiwYOgqEl5BaQl42bwlEiKKK5j8WeiGE8w9UynWjAVtrCIEyu0FEsD7LKSRUM4WM5MMEYbJhkzMiNKMF7BkSkuzVXwhEErqcrnomwcJ5FWwnnBUNymh+uYF80IPNkUSse84T3EU+iZxfeHxoojI9oFU2bMqgn1p6Ya4zZZzy27lXVXff1g0yyz9wBm9RKHbvDEgrOuVrGOEDofGlTrDQz+rP0ZDnHkmKaWmNRkHuHdvUelwK9pwhjGC4NpsgEi6KLADrG+zqXdN1M11OBC4/c8HWu0W9n40fFpsf4oO3GcMMNr8yziDorzNjeSlo/U3xmkBPtPG+rmncTnmVPBM41i6u7du18nTTMPd6prwQaNMZY79wMn42lC4TfMFq1dEDWDSPJM7DT0dTYTidYCd/t2LZ+YKGZRZvcoOksBegpbbq2BjfVqmYqsA+pqZnfYe5ONdyyLwoxm8wb96Qb8qRMt5UTPmMDYPUv45yn3Cyj1p/BVFs/6PRGBioJ8dTXnjzuUYIQXjAAke/jIhPMwKZ+iS/3x9PT0v3j//fdfJe3miePH8xMnTxK0snq2dRsFyQNpoytZqr3Uu6HaqaPi0RkjHlnEN4QD8pWn57qQT1tsM2BZNjypqMLXitocBu8Odb7DjbsTbnyQpHqWLhLiLiqFF3mUZ5rMZaNyCqt+u7ikZ1idKH4YuD9jxvfrxLVqYAUrPsGBTrC6zL355hN7sNJPEVkndng22mLgkKuipBkzWhwiqCi2PmfAQr1Slq5ZiuRxzj0GfOpD4lXqajE5kr3QIbO7FLwO+Q3ITsZP95CRhSL3QYFMk9sodD0dMvzM7pZNxykH5WZVsx4TK6ceqTrrCnK3ED8q0NBkEC7HC9rCFhRJhOMgJ8IDnfh0vPIj39yXYaWYNPAyhaErF+kEYbbjAyZYHHErbhF+YnGPVnzYd9xKjeUVFC6Lki8fb1ENrzKLOOya7muNC/Qf5lOGWAkigM+vDJt6bp11zHrGho9ingEEhqu3DhYP5cKdQoLkoSQJgHLaEBETYh2UrqR58BfM9FgLJT5Gcl1rxEJU9lsBGnD08YZ1sViNNU9bj801n+Y56O1gMIZF8yjA0TaSinVulIge1Ft7SSmHeHIAOR1BsfisTL0v+8IXvpC+/PLLCbsRNco/guLfBzw7E6yBVFazX4uBU80gq6rhz6JO5WBBgjVeYEPdsm8x8uTCr4HEoApYifBrUOVPCRNB6CpxqlWChIADOu1cm31mZ3OeeTb/FrOMn6NaxwQqmcG3gpKj5IOTXL2zhZSS1dDbHY6CJZ8MMoqnwTWL0n3/zp07es5588SJE0IuPpwn0ZGMRFftogGF0pZyXr4LLvLu9ezKs/YMOSorOpaPX8Mk9KXJ9mlNNR0WXQDjWjnzOoAUcYFIxlPoQp/rVM9IiJ5fAUiStgJaeymeFEpWH+7yfG/z7t27/y27XmUkAoM9yAzjgJ9ake3CzD2JSDeIcTqe0Ei40FGQS3VgokXQ8NNOUmU8r06PcmtoYDLMoEnY+jqNWIwmDEgaqir0ISERWDtH+QWWDHwVP1HX20YnFs6gYNWSDpeDIL9KNp8f+6g2YwATQRsm9PDMciOPKjbQCbku7y8KUx50liyxUldGEhpP0BaoejaB2nKuMyBAFevnTFCWIRNEQAxX4C3NdJDJNpmzhr0PO7Z8EqFFaWjHnqI5aqNZg94EZ3Od8NNkqD27oRwbPiN4VvV5Ntqq87CHZ2ts9rCq6MdFYqWVYDmRj5iIIAqWv1QtSd2qpnLKxqltbG8Y3d8wSCUoT/tpAiV8dbEqbqLDO7CprPpmnYkmdzc0WVdx7ofH9MFBqgK6e0wx0UZaahP/ai8XDPnFXtIPo1g0UZYrMHYJszqDIZ1FjgzFn+8jSytqUm7IRcIxIUnyaiLSFdfW1oaiA5x282mNWrI0sIF3uCE1LI7O/QGoSRZjcBIACDIp494Pa4sDSpUFtLM1y1qfoR4/iYF/RvDUNeiqwKz4Fr8QEA3N+IC2i6jZfJOBcApO3VdOfgtcoOW5H5tgmHlraWuj5VZ+BEOUZ8fSy0JjFQJXRxoV8KGCwgPe/rBGYkEW9OkvwTJ0ZYo/nl9oJhgHLKXREN+liyS1zwDOnYh8E4kCDm+CJC5IsYlPR0rZHJAUmpX9gmCZDX8X/12uZbu0kewG89Mgtj4OP0afuPNgUqbvkB5tgi3opQcY1xwlVYM+OTFPsZU4ns6ENjWpKsxl9MQOl/qL+od4W7WLBi/c7LHCA5GaqfDcKvlq2PMH+RKLrYCokEXwgn1KeeBkthRxo9ZT9jdlUgPWDCW+peRq+R2OFOrERFLiDCnhF60d4kSXQl5yEQOIhEVdPUxzXGWlYkoEXIBY8N18BEhLr0Ajm5Ir6+8BzHukdcVAO9STsDSRMKgXijEjIxglOizBnoil9P+J/MgzfsCMvmuhu5ogzHW05+PrKrzbKwlSgkgp5XlacQgFrOWk06oeMzuJ1CSYzrEDsZ4fAWZPSDM0yuuSMPFhHcN+05W6weGhJNVTXugrLFtulazyqvkeNi1CXhi8EoCORpgLnKeJAXOs8GLYUzYWpB9XgrQvrkrU71FtNdSGp9s8a2P50ZanqFSxAZFupvwEl8pzzwRM/I6Rr+GtNtHoWfpvMnP4tnIZYGTI3CA10QZ3xjUuHIF8OUAR+IpcwLV40QqMLI/fel2F4K9gECQFXU0X77o8UTKdpp1vcU82LRMFgqzAKbQFhr7YAg6rYJRztTxJiho+DE76IjuPPzY1NTVb2cgiRGXbCbjHlXlYkf0MhJ/N28UmtrOB1AZAoiA1jBoRG2EjI+EwYxVYmk7Rih+h0fQ8XM6qgm8FLGXoH6v30NCrBSwN3lCIqI5qFH5USxO+R4dCsSQwBNSN1QU0Xi67tAgHcoPphM7Qnd9bxioQuaiGu0sNF4Netp/NeSaRksGAtZRSD6p+PDpIiaLCtKU5ykAJqbiCsZI2EBEI/VXy0jFj6tWlOiuLg7eC2goP9SMEsaA81QGFrO1Uepr44XGqnOsDBl+5bWw5sHfv3u1sENArBVEITEvqLW52GTx7tmIiIb969wq2IhzhVXbplG/4eDamMQrb3LPXMHQnuRg561UhnyxaGcFgpIoD+DKyeqTuCCNfUpTaF5yymaDQhgLxDOFcz6npDtSJ2RY8c9/rWVh+gfzFXMZy5oa5uRme1yXspks2ucYl7HUzn3SWIQuebxVn4eIyBo4t5LylmRbM3NjMwUYhYPZwsVlIip2NCNRBuh3cM6R/hfi/gd5X4oaVrrppCQ8F/RbwfwUsstLCQjCo+FVeJAvJShty9HxVdPWMXi7KqYTHOKfa/XcWQ3qLsGg6LsHLUdyexSI3PfdNz8PL9ZC18Jd8p9GbqXSeR6Tn2IzxV0U7u03NtaqmMSntamSRicloB7DIKdlOutq54sISDbKQ8Z+C3ots7ddzRd+5KUS6evnweln6008/vXF+9s4BjNYU2kRbMlQqlEt5344N4sS0y32KDGaAVMyA9PSGVwjYcQsDGgy+WaHVRYP0oVyPzLTeK1KOaygcwwK5wRsWvgtOylW1X7azgYRKqTD3I0gMTQWZdZtqkyEBk0IFxprUGmHZHKxZgdA4VUYXdLQeWlFgsYi8UPcIpkgXOuKSlwNKMFUZWDEvEHVEFJ5SPcdCpFucn8iFlR7upw9jGD12nyf351eAbjiiDxGK9WjNM6LIEDEqJZlAZEcY1LJsaXtRpUhNhM2iuS3L0yO0v5SS86k7VZZNN60rbM/r9YVHsAkv1M6xAeDMhg3jL6O8TrKiD23NevS+iZpbaItZLnaPtv8DkniOlmE8RMMa2/DAM8tBqQzBK4T/BP/L1IjNE8Uky216YMyaOGsmeLVa3pqdLS4BU3XiSTTFe3tqamqMZ5UYu+woOHz5ymEEx0zAFWHyTeJ/wHuO0Jw/22rVm7yyg23Q+9RzvOs1htFpb2fT0DPU4yVK/TCk9A6fDJ6W5P4ZtL6IsZOMzcUZtcmbMpfZMfsH95v3v4pk1tfyWpOyqncpfAwAhsNkrw0Oh8n/DGmfJfw8l5zDu1xnYe4NcP8a11/D7yQwEjZFTa5WSHEF1Ci4WQYoLjfRM35pN7WTZqHWcawgvOC7vFSWtileqdcb/8vW1taLV5K76/L8Do8p1qfr1pkox5HBVso8BflP4dPOCc/sDFv4taAZYYXY5JG+iP8Gl82K8Z0mwS6nOhgO3r2bZGbIcn16iJqy47XaVW3IzGCr+Crd6V3szi+Sr3cuJReSSRF4yruWjewwfeQtZpfXSHHZVvnsYuBRiKzK4HkNrf6qTdn1CFerXYq6p8qCqZaJ2ZakHysnQyf59pRVtE/ZPlBl0gByZf5KAurt1e6yGA4zN9ZpHEqrA6occRs9xHR6ebf8IoxlG7AjML8UDQGFdZlohKZEFXMsIwJZ6WX8iC+VNxwammpBP0/WP95LmqoUsyK98MsOSfZK4TN7UyWLcc4uPcIDVxm8U1FS2ZEjWzc2m+l++v82KTk1KY7ynOwdbnw9PdUMwySFv5TLtdst7ni7sAgwCwp7P0M+fAZjSdib3IsxC0mY3dXffumlF7+J0fAuqtt1GCeejW8Ue4Ndk/shoR2C6AqraKhtgJEFEE5mc8lXsG7/+tixK2+xsRJ5LnAyEmNssrjAwTbvIOeL2I9PYCA0e3iVvK/yfFSGz11XvRgUyIhpxnEl+VX4O1HW3+Hli29jaGpq6j64j8LfPbWRHGHn3eL88CytYPk1fY0Z/OueOKRfymlpeGNLtJlRFrcnJyfPvXLmFe0+0+Ck172DQaIPpOxczDUbZsk33Yu86FM2mDL4WBX1MS1taqblTnRKOXhiTFO02Dw3t5ltyE/RSLtszBSkov6hvYP46V0GSN/mmdLbGMQfJ36QYjbwQqFIiBqOrc+y5lNpa1ZyGzjjFcFHyQ2rq/vyLAXOEkn4s+bnR52LyxQtQVe48ksnkWnnofwYVgOaQQBIKJwxIAKspVeRKAMX6Q32A5jRj/yElLX51RBvaKfq8qdfObHOb7yoMY8HghmR/PwKZaKUrTydXzdveUmGLj/DH9AH/KBXG6k36zLaGFlrlyiPYcJWVI2iCtvog3UxyvNmaLFhIlbIgB6Lnygh41WC597XEl92gdEsS0Nl7xtjJ9BhhLv/uefKxKzZHDsA/GFgeY8zwKJ0tKR0mUvLiFJkVRpE18apW4CpC7duoZ406z4YO3UuudD0IbzUb8r7hVaO2QatXeOYMC0/0sMCIWaewUVETWJSeN++cuXKd6OxU3kJRpfzQDCZf/fdd89dvHjlj0j+P8H5vzJJ+59J/7/BcVEAOC/TVceQxa/qf2JgfbrKYPCM17JsCFT5sfuG5K5yPfADoy6ngQBlRkDPigGiTBvt9i0t8Q50OraM2exXgP8iFf46tZgNuqKsd+h0YVlby7Zb2NHqaV6Xrnp+IVCzPE6X2Eonfpbh9nY9rCNRCiT0Ebbi0nlu8sr8W9zrGuTRnwNK4NldVLMNN3QpTiRqP8378UdeeMHaDNBIZWDNPvgMF9KKOJFEbYKCPLqkq/SePNORK6LihYLQPbYcXwq96laOqYqlE+5B38noG+qhboUXw9AvrxtHNVYNB/JKqV59mRo+UUrPiGjEh3lmEa3FSs7wCB4JyF6hMnux9/Gu4Gu2YjWkgnpReooBxv6bN/cKJuEZEzVOD6Kgp4jyHllwxPXMjJF5Mk1Yib00lLZaJ9Q9eEXLuSjRMwynVaKLyrCMe3o/XztR3WEv0KXNMSYmml30lvc4m1J4Nbd7M4czJRjpGF0Ob+gvXbp0pdGY/BbLtl9Hub/ODGvWMkJlFlQo5i3llfoMfow2vHXRHYBgGJgBRYdN1i2ie4aN3BwOEUst8N1wcboPM8D8NO39BlVgWdpcrxzpiwVnubY3/OZv/qZWFQa59OWKXDkPdAuN9hzEd6o7wZk4CrwUCTPi5CL39WWWPa8Tvoo1DAO4MLoLFlKnohS2cWVqdlao5GxTVwg+or9lB1kJf2bs+hX07u55i3Zfb3MHHuQPC9ddvuxaleSVYaogiEFVq7cHLoTqTemhbrJZTEC9eYp3p1UxVsMdyqFMmdddvAO2VMiNnfvAP26Wrk8VJQ0pCy39aUlNMzQdfYWY9a5Xuhe57Rsba9rGB47UYhlPp1Okh4Hj7D9+g2MJqniHoJY2zTh6xjJ8NZG6VL9LaJhx2asLZVNW9Jjy5TB2uZYaNRcXHu0uFT+9OCs4BBUcsJ0akYRy5rUBeyHfQeRXy+r1jk0833qSI8cO62zZmC883j0Er0s8iC9d7TNnztzWbAblro0jgld+F33iVec4euticWZctePHj5vsMdbiS3SqvFZxeVg7SwUntyh+8kVnKXzC0+NUpXDx21ve4/LT3/3d33VemEHVb1IH9Sv1TTmHrcoIuKKufhlAFvx6GW+LhIef29tF9hTothlbQBhf+Bi4O/ycZ+XyJninmWVewRb6MzqQC1IotZmmNsUh8oc4nEFtLud8Oc2Qusxf6K6q/GLkBglpsTKVPPhS/VXN6lWBGBg0mQ3M7cpQ9V2SXRmPUGTlLeSCU39kvMXKQveltCDjQT65lI1N6eiibFRGObqqPA7CNSjd0Dlu+bjgVbGG9MfllxtLS1qs4Fgd9D7Yu4S14+0+tTMFwd4VFmxTDoiusYxZugOUOszT+3JULcXExbMpGQj7LtNKBCORim7oDEHELnURZ0rNswDbqxEbQanmvGhIhxdPSE6dOqWwx6v4Y9luL36+hxOOOLaAI31AZc+awClA/XTVjfpuxMj+LMe2/cNGI/sRXoh+ImIUTSlrXSbPmC6vCwdx568CsiDoMF6Hql9s3LhRx58JBp3MXYS1XoChf4LDya9eVfwedtj+mAammtj0w7KgtY0gq7gs7LKPaDgaQDt1q2paKPxuVhG9BlK0mSWLv0FOhcwdn5ri0MH63vladoBtuxityAKzN1sHL4q7jHIu8n2LGTYY6d64SLNfYjXWDuXl8YgRrfHCWD2b4Nyoif2ztfxA8oINGp1MSc8TluPHvrucIkPDrnAkGoWEsFZWM5VXSfmOa2ielwWortU7XnDqy0LUF1h14Jk+rqxFr0B64wbd76fE0C9zqDS9w1GSq6JbqwqbwqsglmC5zbLH63t4vbL0Cmn9TgcIaGlSI1q2zOuoI56rFhnPsZJDKNPvzs6uTycmpvVawD7qztv3plw1I7xG+UukC592+63WVVvNecSPg31NIj3VAh3wqDDKXBhRuBpfijeDZdbQROddwrhrEODlyy4W0xTXrOQZJMFmH+0czPnizIHX2+36tVqtdZclt1vx3MeqUla5qiav5pG1bOf8WUGeP+r7exrQyPgNRKZ8+KvmC48KdOGrAqws7GgZrnSWNKuonKbTFVNb4W87/RD5Wh08zytEPOWVjmSOWXJXJaqICRu8Tsw5Pz19qJ3VDlGQA72VQWm5KCMsHPdA+zwyu8/Zs1rUvogkLjH+e0FgnC/GfhZpGj4+zQSamSAjjNmn1k1v57Mi7+mRgPBV21XFHhm3JGOSlEu30wUkZxm7cC2vNpKHLvXvgMemMIakpGQxJyyj1ZMT8of8tfJOdsgyw4KFt9GAFv7oxWBIGJjYybaQCVoVXVC6G7CsTHeyYjb8iEZP6LTlqq/cnNZCFEun6MbwS6wuwe7SCD9YCG7sqqJVbbSkeZZ7+p6kJ4WIW89nbA4zit61YcMcCp2T/9MaJ7ujvMgHhp1+xbsoTs3yGJPr7LX+oheyVbjYnD7C99YVj7riPbUKAhGRVRojNddsFq9Tv7epZjPScKKiQtjo8qNZbXGYtL9H8n+LpvwfOZr0HzJY+DyK86nnn3/el71UTs5ohOAH8xvb9iESD52JfuJ61xvSfcm27I/0pcPw+DRpzMTMkScc3s4ZO3JrLAfXWJHwkVCE7HjCqYvjL1uTs9nksxwpf5h3VFAPrF/oPKuqgeKzmli087TZvW3btrWxzgzi8stcmu1r8MByOeZP24GYIoJjKwv/H2OpQ4PA4I4bPaPpScvxwbziskvRsRke/FMT73/BN72qCoLBLs/2BMpYOeUrzZwDEVFaJRry/TdmlOWUrjRdJFbLdcEIbuVOzRMpdJBUaXVShwqp3vvDBK9kGcVXKau6dCiG7h7zrZqE8TvyqxQdFFRf6KLhgGbuPLLQtz4U6FkmaEp5KxTZDKgt08C6fkIFjOdQINRl0+O3S7NaLauEbjLdzGTcoD2k4J9EKrtIE6xOCOEjr/kUYUbAyWa21NNuVpTdnXpxObnO8hMvY3FEFkUkqlLEADwY16+djKfVkKsiaLOr8jpLlKcRw2sgfR5rPk5dVT92ttpzQmdCotJMRMZ+N1sh2NmZ7OSkvaPo9xdv3rz51t6De99iUnxmXb1+Uc/vyC+VO2HHU6VP8ofBqWrSPtqHnczfu1eeP1mtf1lRHUzOczG+rVf8GEL9JBlu8EBk4uGH3lekfBGm9i47JzsbrfrL0ehgFSdYt3yGL5ywHC+GpDPAYqojiJ3Z2zWOJ3zn3OVzOr0l23v06IXa/OxFeNChSvaPFqUI9k5+0d5Sb+Uf5RMtXykrcJx2PVnGhgh408vXfQVy48nTA29DIFoSJBg83bii4PgppqCS/eqHSVwJ0HSwAHtdBV9v1oK4ESS1DxpjZkGBlSXQQp2CHuTWXZ1z0x/kpkqY0hPSeBKRk7L6SdDwoV4o7dDlzDB1pSyM9MB01WkhtKWE5pGQ4UTklaqoQtaACivInVDFXzJuuQCE8uExgsKGxMo+hj9l7VAs3Au5DBvP8ZK3GcHekQYPriC92EXV+TxLrve6WLrz+yVH2WSvM+y9wdcxWUPL+YBmuGNV1jFERI+LJ7mIdZMPj/Le5iXlk0wKJkn9qKlaq6LdTIIzWGLAqwcpQV88T47R747R03+CFJZF07/mxKq/4gvXf8kGlzfOnz+vpWPNMEochB+a8/bV0ueDdaoepo6X19juX+MYMhkwzcp6b399DLhx+/btj8Pb57h+HJgjpmdDW2hAhtqQpIUvm2bTyOla0ai+vxhhgAyuNKp8V5gvofFSO6f10A4wFV4qE3e0nCI3aMDL+g6kl33qwIErb7755iUWQqZ5KUGDGImNZqUAe2n4UsumrJU/jRHtvAt4wlTbkG0qdqvOulwlwdEYl5X0lQW7WlqkHK3CVb1XovcMU5JAEy/1gsr0xMtyywl4HZdTZjFY8ewV64VT3ipc9W6topGBCTdUd2Wq5MwIOV99hV3FOChcwVgJDoIOjWrDpyATL+P+wIJklLwKSDh06itrG3xcZLFij3BetXE4AotPlHCmIzO1W8zg2Kyh53dWNY5eKg7RnhpJs9RpR2xZtRgfcyQV7ywVxS0u36GoPBV0iRnsmvygvoT0IQncSE1Pty7wsvS/wDZxxECxEw64yk0KUaFaVe0H3hCJfsNaGT1Fy2C7UdAvkXiErSTHmR6cxui9ily/yvO21+NL9xKR4Xh4VRTJB+ZUFy5rLfxUg4AneTPh3+G4Oi2da4Clk7P5cpSdEco74XOS7dNcz5B2MOgQMIR+SLLhoghfTMiTGZ6jfb1WrHuLjCXdeJJt5WC5o+iAPaF1hMwUucrqs1Tv0FDvxg8eGz4d87Zv367rtORVeOCTWeXOV7q+gUzU2+lBDOi+vXuTdZcv932Z3gAH/wiR1ctAoBMwDy6w4pzS4IVxWQePSBoLPaQDWyFRs+KqsfPSapt+6Z4/0Pc6y/dwCayEHmbKvEUCC/BUYBfLq4ANDKr8AbFqt3d8UqvEKmKXlWOJdUDAK6iNI1mdr8aVtXU23R8Wa1kFzWQ/sFoMy+2wcMzMkk3M7OZ4xsIpICnP5bxouo6QFq+1FsDhv2k8m1EAhbaOv8kBWnfY/bCdryH7qF1SLTEQXhOn8bAjXm6zLZMBJ5NxAoqM/CuHDu3bzQlafM0g/356Lz3fPv+gR8WRFVVX/Vo7XC2VHxvWIROkxLmW5PLtzUQvbn0aPXGKArvYDfiEjB8zPhSrzfgiPmIfHkeVOXA8TY5xIN/PIwf1I/UV9Lt9YUF9bDthTlUpDUvF0LkgVEbLiezmTrNz7Bz55q780IUz9g1rg5HsXH5qEIVTDCyDthYH/6a7teskfIs9DsthCpp6uf0CWNUGXY43PG5zP3Aog90D28kUXm2BZZ5JLRKdlVrbP55sPHDs2N1zp0/bB5MFI+e8hFjf3yFA+pZbfqIZPPu8E71PysvfIRYL0osavnWxQ5rFo++1Wj7pnhKmhIW0MiM3JiKcCNm901NuyWhk1CuxZgyLsNYBDugGj1zolQLC2gdR3Tru9VCW9RXqiKzNedGI4aF7Rt+ZEE8Ke5xgr7yUpduUq02X56zE9DYLK6Q85o6vGicpXyVvc3JI7TwK4LqeVUUBMBK3Q6I3cnuTn+pEe7vVaW6N1E8Rl9Ohujy/N/npR9fjLBurCHUwNzvbOsny3yU2/P8Ctfo8yu5FzTSY44dbIECr8xPSdnqNAfEQjBC4iomRjez4+zjJT2PwfgJ5/zY7O//4woULrwoW57a9i4eQ9Vj9WnXhWD59I9mHOHQwtPUufDnlqb7Sx1oS1wvlBEuniC7tJNZnlCTMbyLVP23Mzb75lasv69g1l5fjFU7dqRqk1Wi3w3ne0syRVQhjSe2kyyIg5KDv5F36vE4MEi77DmKc7bHqkb5N2jGaWgZPDia03xRexXZa35dk65+rJbtu8HERjOYJQE6B+2XBPjJOFTMXF7moRbXvUidY1iPKqpNtkmM2HgLxtzvWlTVERJQj4ugr5iklggUJZc6AwACuhEe1Xx6+HmQqzKImctBggeV5LskvXqRJVnYBqcIdBCG0PPIg6HIRm5DYFeJOQ76Hu+rp7VZmdiHtHzFGKVDSCrj5YMvj/lqCFDHO9vnzPlkte/LJJ5ndZRdIu4JykcJQrfXc5QniLDlxxiaFWHIiqbiK0r+UtVo6eX8zgDzHI/kBOddmD5BEP86t9bXsyAkpf4M++H169stI5V+j8l6lvlcoNK/7lz8snX0hmLtLGsIUqthlTx+Q2tuH7Fgs1kRjXS3LkGnyg8jz59kH+Nm9e48yczwuxW/CxTfa+B8Gp7robEwObLZBkwZOung2Zt8A1JKn6i5XbWKVQ1xm7CQXTmApfh8D9sW3r76tAdeiTkeg4aaY1/Htuza7i9FZsderjYKI07sYs1P05bNkWjfzpc08XweN7DtclwQLLqdntw4aAGYbe1p5/Zn5efsyBvm/Av/PVevgZT5Q34ULE+KtrEiMk6bViYrsrQZeDYHHIlZzoit2hscRByxmWCONMqysSHMpWq7XbcDpqL2sfBm85Rk9L22khXJvxqk/fEsz17cQWW3QrWxAhNs8A9JJvvZ4GDpu+Kw/ucAErKsaN+zL+CnrJsMbyhmtGFaKgRCXKR7sYl6lXIlQ5ZTuxSO/+phgslk30OPsrFIaDfPl7XxCJ/YfPHjwNAbtNdI+zaX3y9zwqSWJmiHUw/2L7Ga7w4G/On2F74rpcwTkyiIisKooSV69E/WyDVaPbggMTq1s/YsXr36VA7R5z27yi+zCYHmz9qMw9f3M9I4ig/CJh9jT6IelAgGB3QUYvHgryPTZl96F+0cBbdTS9s3De86fPHslOR95K+kOwevjAMJZlHZySlWuEgmyKbuL6qyrdB0jk55BpeiMzd/ilBqMUOmEz3F6ohku3qcUrsNcnK6ilQw560WiiSG1BD6/1GalYoyBXrer1WbYqFV/gwEJm2OchGkamk8paJUi3VVktacZ87O8KVdq3xBdxi91RRyGfxmlhgM1gyf0xja/cdamFFuUE9t2gY+gLdzmdu8Txxh6tSQz5csF+YVwv18TdS8ghTlljrFH2C6kltIisS4hFE6npaJdrg9BS+qTbkwaMjDgz6GTmJNnxW/RVJp9/xY36MtJ9ltf4CjU58oqkXEiefnUCcOo9PREkp/8TFIbz+5nzXSM4e0GjNtGvs+i3bvUAmPXTMZ0PHrSrteSFuq0zdiXh8YQCGOiFnXTF8OlIQxxV6UWj0gs5iiocBCTNlpJw4RcS0doC7oOGd4GfemG4gG9Ayqteks6cfnaYP7YO3u5l1GLzeRUWxRL+l38TzDbYzNL1NG6tdERSFXLSNoscJFLS006W5DDpG0ZSaNgQCS8qE4AWjtnemzt0A2PSd3FeseZMzdvHzt287X5YtftvKif41NJf0lNnyT/KDNA7Sw8RNU3aMZnWpFiFNQ+disPnHU9oloU4e4QZPosovzFVlZoc9B5LjmHD7HH+teqouVKnT/aVROierNNad0ZpZiSdxDFN8lHzsVX6IWnKwhUpldOZZz373iVJD8MDEuSbvAMsdGKdCc5TeijjOsmGLwJtcrDph0rp01be0ny5UzlSxvQEaVx+E1zNiU1P1K0eUbbcSUPnaSlQ9AyvpaGXD5EMHiqG8JWG8ioWAUiLlohhEi0kMWtnqY0PVuFVM5cGfCESnpEV1bJYUnXLRH+Ii2R0YVoHawH46LkujKFAFy9rkm6DE9dxu45yGDsOD4424FRO9lF9mSy47njyXG9YMJtKXd8B8OlM3PabAwCFgowfBomcFMbKR3fK/m1qayRFg9cWiJW/dtRFkqOw+JYcWFf3Ln81F5y8oTH5KcAl99TEcTyyTFY8SOwvs4LkOn4S7hABCSoff70sffwHc4S4jENaCch325nn7cqwE13Fu+73PDs1ky30YyxWbkbM2YldqBuphngO1wpb/VOst1uHKFLINENlLADrMDXRLRCYgUYVljEe4UqJQaKsDnh6hnCZzjD8k/feecdjmBrv4jsXqKTvcSNIcO3DcnxXIoOEzBQvhxWY+VYFLU1Nq1wsu09TT5L4l9v3779z9577727osPlgnQeSHocndintqYW6Ee4WAv5inlcyZV6k5GmOgDgn7daE19+9109IzNn7RDDVU94jJgSec1hG8/wDhLcrTh4hE9ljZ7iXE+Q9DnS2ExkXzkXqNKlKgTLYC49EtL0a2WVTkD48jEmQodAuE/f22P2qcPAK3WwsMCXdNCBrGu4JcGXBWAGD5Y14tBNHG4l3dxwDlFSTBjGum41bWWr19AJLNzUa1rl4TIrabKLxAmXbdnLD8gX1F1lUaA8AGeTLt8VFM62fX6mBldZDbk6SolwgSvbNuYIX2+askjXQF77yjKMFMGxOnutNzdupS8325Xnq33W6E4KQZfjCPL2wXXs2mu0k2zsdpLVmd3lc8iQGRz1Z11bW4eT/N40hKCu7wgj2CzjqzPMAsdULbtUuVDHLgKLRFRDaeCw5CyDiex4DYzJJHibxPX5ngxfuAUtp44puQje0ywaxKUgU2qd5WkW2YQe8+WJ+bJYxsMG3r4JN0MF6PENIhIawV6mTtg8cZllzTdQ4LZbM+iHIBDJED1wn350ql1LzlFj7D69lCf7mts/eAk4idCWD55eSUGEkdHCm0vb1zF6l1+/+PqXx+bHXkef/BskcQTQZxjufRrZPsutvEUdKOgVIRE6dUTJTH3T6Gg2oVNtnuUot1Nxh2jIEdDj58Sz8c/tque8vN+po+tSvoZgfY3nwQmboRJO7wm3NPC99VT527y/d/rYsf03MXguBaULthdebWQ6jD68tdUqngJErxSY7CO8y5SoWiHdCsynuCgHYI8jXzjX9yYTh7ZaEvtd5Ow0TY8CepT3Cd+KzwBVTkbzkXBhhpdK+8Ox6iolqvaJHgvONktRMlBpjSarNdlsxNQobaJd9eA+LH72yEn17OeEWKsYvY4UnnVn9AFeZExqLYyIbBN3if6wILEA5YWi1/VLq8KouN1XUf7Ch+JqYKNa12o01Hz6rb+XrtsxyYRypg97VVyEd/0znYqftJ4cSybuMYWb5ySqea1ysaSpR7jqXNSAK03mSNuOmDZgx8fo5uk8PDAz4pvNZnSxPmDUNbwzaNWZy+SjPsrATGOFeksGD5FpG4EGC1XZiTeJwPu0ya0iPAuyyGvT0Ao/IihDKN/GRox4OCGpxvrswcf7pBWvJE2mpaZy0wAial5moHmZdBSGjfW0HKU7AhnwOkKRvnn5hR+6lJx5OWGnod6lYgQgAT0wR+tY41m7PzAqiyOm8qWLzFg8l9EjpNmHrtdQtt9gF+/TfECXnZ2cup8m7MrU1+P1PloppxhgPhhH9Xgo5+TIhg0bzvUYPCP0mP5oRscDfw2Q0i8huNs8epCxkw4+yHWcy5cDJRPdibpMPshmC4Ovg8yctEHIZ3gEDUa+O8FHmTIdabV2MhB7mjQ/0FtwJV5FACeuo+F4bQTB6+p16vXR9ZRV1EbIqBwOGUuTw7Tkk8wqz5Gh+jo/JQLSPjBnBo8Opi8Jw7BMjG2m0qZDkwoPJ8xnUoSx46afqdVZ5JFG5xVcLoEHDYpPeEkHjAyPZGyYVUBpxDXzUvAeK8Ia/7QAwA/aO8JYGZcdaXLWGJ4Wkuy3lx8DsfsVhU6X4zD4pFlM3r89++wbfz+dWz+B/qYX1uxYVdD6wzAhQ1JarVRQ6Xf+UdK+8I+S7J9/MTl0iSXQZn0+aYLSbAJQTFatj+hc2jlI6qMprCekkzPMonnqIZ75xrbm1sEg2cNKYR/WiRVVCN88/Ab4NHRhEU6s55zbz3etAn4DEm6V63gWlvx0MJ7apFbn9Ke6sLTR6yRIXnh2xbK1BjXFks6TmSfNW4/3M7xYKXpfoV1w5QvVKIuMB/npW3SjY8jhqGTAzI4ory6kxZVGrX6eb+9IVtqxqd13ejGbqbajVM4aO+u+wvkAaSxkWcR0ldQjCP3AOobSHUZZ6jAJS5y3Wd761vx88Z3x8fSPeIfl51AsP8Vw9geYBWg3q8oZDuROWDcliPjiPLLcwUvYKGGepfM8Xe7ll4P/GP1Wbxw952VVIPkG8/GP6XAAAEAASURBVIr/vZXnlzFGes3lHmMlTlZJdiMDva7gcoxlJRN6W1F8nPy/zzfqtFT4x1EGghG8ybuSVsY5RGYHfZMBm3aBCtRkTn7ZlIR14/MZjuB60EWsePCqiH7UThZRAo4bw3zGhukhAI+sX7++zmBFiSIUcg1k6R/YqOJWgWWVX4yCGTx4112MUM1ygVz88wdZLBvltdDIsJ43kHI+bzl3Yy4t5pJidpp7HUWtR/jGoRmxQI7GGewsE4AueHAwhWTPcjI7zUF9TaRKd+e7uhiPsnHAKcSO3P3BpLqaReVkrTBcqprUNhPJrcWd5PNbJ5PntRwoBzXbo84xwGUCSTJichISPTArNvHQ5iefS5+/dDOtt+CbCY/0IRAIU56IQ7KJkZtstJJ9k82kPt1KZm/MsLmlhUESslAHRkVWK0oM5QQdhiIRHBOXQaMJntk7sdXYgFzXawORhiMWxWqX0tIo2l7JTN8RTt2YAQRJ2achA4/0ZguondQpi7a+wEJQw6XH30n0msFh9DQY59ZNU30P7DvUGmOX7kdqPKPTt/KSc2S/wdGZemfJXMbsTsuaRIZtwliyy+stW40Xx7klTofpOumI3Hpxh15oHXIC/yrr5dVz1UbVG4noUO0mHCpbHEuOjTNPGD994/Q94sJlxh7faTk9gxcMMxJt7pE7dWz3hmS+vk5GjO3x+vio1cAyJW8cCfS6otDmoY0s4UX99GCNXStuwjNGHuSPnhUU2d3Nmze9wyebNJTnWQdTryeeeHXduom/RMp6Kf/pKANlRXmaXHYRf4mh7F8+99z+b5w6dVF9T20QlVRXW0r+5tCoe9Bc7E5IN3v/IMPbSTCltupKtdILfyq8xUxDFTQ5m3FQGodRG08x0GfVzN7p876wEFmJQZos6L8BQKqjCMn3Ogtvb38maXHnBq+GeWc5h730ODBLnelP4tDRN9h/1sV4yTifyZO5W7PJ/dkinZtlu4cMnspQSJecBFsRbkjUr/L75kVlz3qcFPEMYxgzBqiXFjMUCKty/XEKbaQrmF5XVeyWR60kJqoW9k8zqmJW9LPjyDzTpBzGxbs9OxReIVcFKSZxKGjPvzB7dYYBz+0byz4yNQbWjN6sjSgmCYppZwNyo3iRN9MmA7Pp+3d5Z62dzLw/bVv5bCWYMiqHGAfWj+y+zthTjmjAXK0xJwOezPCoX3ksmKQNVLjbbb8lJBMTqAEFWNlE1S2T4UzmjW1hlpwEZhfiCbKeN3BIaW++DX4Aeewd2yf06JXrlyWKNtZ8lpcMvs1I5iANLKO3k17wPjfH12isv2EZXEs2VScxrdSVYq4gcHxqrjbjZfEV06wFBWoB9dnQNkqiTcI2d8EnU1NTGa9OlAWUFp26Xr90z5cvegbT2t3aw3uX+47u3fvOxNbLV0+dsvUXwRgdBXCOz3jlIOQM5S46rdPv3ju1b99mndTyS9xlOzSiUAH6mJex+096CP5t4KF8ZnbKd1koaU0dT77XFN8gZCgIVEc+OTv73hZgrvF+XIPv3/EJplrebhd/VqvZDkf6WbnKoDpzaUJi4+zdDDA/ee9eeorl4q8wg9ZuVjnBVWUkecsx1mWglqYfQZ7xdCBrq1LeAgqRriQl93XSjz1O/OkpDo4BX6HTWIpj8MszweQylxcQjwtcmMsAQm8pAaV1elzsz4Yj9mfVsdrvekr0j1pL0980ckWJYfSAQ8epXtzjxJi+SUHqnXrT5hi+Gu+dNTRYKdiHGHhVpw1iFx3CCziO6fL6uQAvdCKjnY2sLZHI00JrcZVxnF20qhkK93FeTllVUUpraxbGsh87DtgbrTeoTAVYRhQnYUfgviHBwJDRYIOIAChGqqQXLvAiPebFlttMZtENqpOMXAO9qrJu4UguSQC+LBdURkBly5lYoTHwKV1DaTaP6rWLbvwxLrqqinEcfXqQntDZY0gxojw5l1v0dfvZNg06EIMkCa3ivFAl6dEOhpazvVHWlL+l5kz0eRy+FMCSZvG7SPA8dd/A/Heayf3ZNM/OnE6uVwxevJV6ZTF8xWmB7mbqLXoKC3uAx8WIVxt/rU1USLxK5OHXetUc6Vr6Mv4wdgov13krqnHTo0d37Zifb/9tFMNPsi3rfPPu/q8fOtT8i/Pnr54j32d6C2hg7IQnsKkAC0T0/sAucY0/o1O/s35Lv+TpdjbHQLunYznoGvnO1UDu14iOodGyknSC6rgRylcTjJ1RZulvhqXfrzNoPYyAPocexkghGKDwKNjhA9m8yHNRBl3FaVJl8FQLh5BvtTp+PKmff2PPPvYRHERV79QWWI0rxAC+wwuW9afiAhm36d9uQDyfbDnd9YZWvtTKQS4MWhXMNIPVEN528rzx8JEjR/yrGIaEH0OiSMdZ97IcETedJB6BDLyqy/DwJ03Vh6VskxX2ZxUNQxsqjKq3rdb0Oa+EyBMWcULSA2KCLSUo+XoyjviybJ7sjpSE0Jyj8PgQvjUBUxGtqhYsmTWRH7MuaGlGFRCYEPqIbDH0Bj6QH7inWuykzLlENuhu2sD4sTZ07EEpOqpSJraQyYyHDKVJfkGGJPCv5mznLCywCTRjQlynQpOYu/CUjS0toZATWZ4vElxyoZ56rMZQWsuYpE8gOy3TKtzlADZ4JQpHhQdFdSm9ywmmLEQYpOwMZUiHnprTOu7j7ELF6A2a4hEpG77NySI6yeL948ePv4Jiytg9WGhUHmuLdKPTjbA6JxlmjPozvSgsOlV0oqkPeM7PzvLsi74oLiNAaL8wvFIh0pkSJPUpvm4t5aCZRBWX448KV120nxN64yEYu9pLRH+WJv9bLGTfZ6bBRojGOIr6a3w77R2M0+z4+HiBgdNdpHJWNiJOmek1OKmFsyTTI2To/TwgHCTUJHQ8KWV2gBXpdZSmuvMDdeJDhuDBuoBflNS/eEXAZS5flW+z9HuDWdurLK8yruFLE2mxLdg8e7huMxDghOgYRVD+7T9MTiSnueQcTxAkcGfOHNxYb7SeZBC8H1tHP1VRtB2FAfLFJRmRSwzgvoR+Pws9m1+gNhwP2bID1lAyPIzZ2xt5rv1ZQD7B1en/RkDFpG1ywTzFM8ozJPC9PiPuOPsIO+pWz9Hkylx5U/HySl5X/9fOz97+HGCH+61HMK2oSRDuRLoSJaaneEqEF2ydiZiHFkhOzDqnpK/EgdhECgf2zJ92EQ3dyLzQalMOWpy8IJjlkjDcvYVE0/5CB5CppdtghyBq1bGfrlLdAgkC0lSoCxw0AY5f2t7CPKXWbgjNtGrUh8VO6kY5dT9cUFghPPSviAq5+iNOQU3FJTcew1mlND5W9yuXNA1SgIL1SChrlTBmO+ldoRIeIBWWWmOlmXFCF9jjGTHpifWBEog7EJeuHhgMyXBiccIZh/tOYDS2YhS2cXPr8UKOIVGfN3SHDx+eaTabeheKzQ0pz7iUHomQKN5jTEroCbrFAY47e3Jq797me1eurOPEH3rDWNFoBHx37tzhFPx9V6JBr9bLcJFgvfPEiST7jd/IPgkf/xm6+lPxXmcLlp1AM0X6G2yk+Cb+qenp6bepx3vT02N3tmxJZtm4kPMdvDrsTeIfwiAeJ4yytM0ZoimWnZ5uCeta6JirPL77bn2irvfw3MXqefRx872qJtYK81+gqWxFoaB9L7Cs+Xs52wOQExt7JBrJRwE1r+2Y0nLvHiYGP7z7N3Zff/eFd7+ZvGJtJU2gAianer21sd1MnmKVbmepX2y2GLKFmNA1CvC1heS35+rtb9WatQk+ch41iiDkOmOlLJuZnpura6mSk4fSvWiwHWg42RBQqX8Zn/Q/PiOVFE+S/h2u17gWdSXTDgUaVThE7eSibQy0DrCJ6Un6V+sK/XksHZNlkBaNcF54cd8NnrT2ItbEaQcunIIZPpPf4kQWzRUy4VAl8cW+/HCp4iHdRLpCWs5vlQ9D1cmQ3YIF/QR+OlnVUp1wyA8MdcMqLSKxysS6KDWir2Kxu1wJAVUna5iQylTKhdsC2tCVYnI5VmEMrfiolCtJ9UsrMxUoS8XqWwGd3bBkyS40j2oEseku6mHP4711VLrndYpEKMtQmMBCIAMvk5n91DEWO5jRPI+x+z6e6Yyh1FrEBSg4bFzBoge7QPPkY9yqOr7JR9clHlkLSI6RMIX/A6x7blWnRhNN6OERG2qZnOkZhV4szjW6/yKXZrDuOrhImZqa2vJP/sncx2Dh8/StH0EB6zQZqxVxOwcSpEdg7zDXR8jX8u+19eubt/hC/H2MapvZjOqygXoBl3yG6xmudQENoWhY8TUeVEzv9pybzCbf/qU3fun+ieSEUi1LgbV2JrG1Rdolwy7UJjqlVO24zpv8VZUpaHfez5v/EvJ+nkZjcKEZFJK2S0atRL0RhfVDPOq8NvX+1JvnknPawCInOZmsms3aJl6Keob67Q49qCxraOKdfI1ddq9xbNir185evmoYlv65un//3tcBuwh/eq+SvlRpzUB+kr5q390DTgZUVr7kjXCXM4ZJsUdoQUZiVv1UcHpCcxgSP0T+dlbDNcqeYDeJLLMXFdxQzg1eRRpWrjfeF5moDQXYt/TCxH7chw65llQW0l3blMhr2U/VkLQRyaqfX2tSo75I+klxDWtoNPlRN6Zemqs+0Xtcsljoy9sa8rGmqOhl8Ku70q1IH/T9alQKW6ZJABJL1dmgsJrQCTt4fu3atTFmP1NkfY7r3+VG1wxqFiOBVzpuf1MJWukfJ9VJCY8uv/u1FvosET68Wvy0ssiM+o06gpOuuR4afJ7GngF9tVPU8KhOhb66zbtUT7Hi8g8wZD9GWiMoIFuX0DiNjb2k2mORVDsLj0CGfdz2nGWG+H3gtdVdUwS9ZqA6afel6xyCptRMdOSL+H3eG+WhX/Haq2dfvfpqYh9OUN0CJZVYS2dSA2GVo7XE34NLlQgrIlrlc3fC65bGHa2n9u7f8W2k8TZLkYdoLL2r5x0hylxGJv0UjXqNZcPfA5MMnhsVQ4w8+XKHjmpLd2vRKvYAdQUaDuxqvIJngWlxcWYmbKSNm2hU3nG57FMttcel/DHKY5izsyB4kmbjoADaB2bUP8OCRDEJhY+AZYplyEZ8AV04XeKiYa46nzRiAUK/3r8nYVejAmaMDPrEv35AbvWKeIb1HlJTD8vOBwenPvGg3ALcNJf628NwIhP60BpSc4RC7uuya4j+IaOiFqFCUgPclcO0zOJiLRt3cTCvJzM53mrIx1jS3Iyi2iblj6GQcVjgjNMSf3d2ZJzStl9J7wUagKUTDDH8ENhMpmjEYgaqHCmmjOUjLbHugq9nwbNbucHgKWRlMFSszQe00NJLREgw8G5A/uN8KB5xiKboCF44eLRlTJ1HZ/5+LWloKcydMqo8evowPiOEUNke3mNZRyubu2bOkbpfRTwoTUxKDmKkzZ6FbyOZPyP8d2B/D81dlYHLDUNYaKDxw3v27Jlnme888BXX1nt9h0iofLsxdgGwCSHCv47gz7Y2tKaT9ypFFwbTeAC1chjGZFdYJzgPEnvGSqXcOIHWmMWuFHvYJrOflYudlLmwEGUnRbxIMBp0Vlva0gKrOpqKlQvdocAAJ19Nq+hy3MjgBWmZrAlK5Gvr1Dhri/GDx2a9DjZcTwxxMs0Hz/RiHJR3joapg9zgnD4lpGD95uyT3ZWkbelc2lF5n2uOslJmUibeddzXHa7Hsop30oiYg6aY5JJSJEKCO70sG5yUE8+BkptoLtHr61BUY/AkWOAKLX9qd57iuoxMhxwQYeJHluV38abcWEb55lQAZa10zQAFIhrfhOnfyev5WwbUr44xYxmecDu4AhXezHZ43lr4HUKRphtcRw7xEsbTev2xsez1+fnaH8L3J8nbwyWevZz7KoZRK36GdrpN+LwScPXthw7t4E3mg5iHHSoaBODtr0GK5plsmOOIs2YrPX9r5637yTm+8PvKK7xlZK5KQwnajORpbd62u8KS1XnaSqdNiTHx504WT9VmO0S6l80rR9mteefMmTPiUa5aF/ZohET1GicQU4jrDxe2Cqi7abEsEoOAAy7DV+dd1OmFaDlGe1aLRYEf38yOHFdbB7VC9SIqCdpFupY2TRvhe9pqST7M8j4yMJqq5+PpNPK30b/dmbo7iesw7CVviEXqy33pTU0fQDjoGsDDFZT7IqUtSxJ1qYqVfpfj6OCu0Ij1wjOnmROXODFFBz4tO6koGWgjRxZ9ZcgVbJjRCSDfIvyPwfFrwH+D8IzKCCdhbayxCL7JL/oyZFrKVDevXs6vaIKGrd4YO5XBXcL/vyjz/85tnjsTt507b86T4JbtwNtbPsalPtmhzVeMW61mL8yy6XiBCj3rY6SXuE34g3uYq/707bevXuMx7rd4toaVSWUolCeZ40ssVMpuxFTv8+lbgp9kM4d9yWBqaqo+0Z57CsijXLwgDLQtiarRZYtAobdnk/kbXFd46f0Km1581zHpfZ3q4PXQaROXW2l+DrN5P5ikMltE9PaVTJNKaLXiGTbjGG8Rh7erEWrAj84etiICULFw4dmBJ3RcdTi7vL9JFiu6Bs/wjC11ClVGIlantuCH8udhVE2SLBs0iDXIEuILbstHUcoPQ0gPsN70ZSl73TS6Waw2xKW4aRgd5JvXeOa2oloWNd5J5agVCoOO31zvtBod1YhH7WV4QQ137tyZ3L9/X1uvdR6ndjUKpu+9aVnVvlPB1sO4RfVjVaKDhWLEYIVHeVqC7H1kKRArF43OOeLn+BI5My5eFeAwQfh7DpmxC8+MlWZnkqXwOFfyPUzQ8AmnX0qT0tRBynrOx/Og5K8I/z+Ev3H91HU7fSTC9+JS2aEcz0RTloq9vV2PiU8TL7RI4+xTHWob6zwU4sWBVEfhExGXCbqaBJ1MoTd5pMNtlbHcuKJcOdXVZVRs27bt0rVr732dtMPwqMO3tWEo8mokoGF9RMvN+sLrixi9L9Xrd+p8p/BZbMhTpFsfAmkoABO2WbdoM5uevww+Dg+wE18ALV217cpEAp5e8H7qNLQug/VmmA9Jq4l1sVSFTLcj5U/QqzVweltZva7OR/aoFTLSO/Lk6vXm6OxmgmokbKiVpYARco4i/DBe35tqmIIfMhgXXSnUNauftc6aYRshWoUEmLWwU7+l51brmWEYpqCYZAwKThtKNuY19pyuwPFcg5NM7TiljVhUVIy9R12qMZTrhnba7nu/wZO9Z4QRmIAfzX5cQS/gxEbsSl1GTxWoDj0N2igUJqxv92mZsp/z+8HyNm3a9CYbWH4dopwGUnwUY/kp9NTzYD1CmrbQw2+J3Thz+VaRBzimG5xgQ5gdnekrXH+O4n1lcnLy/BtvvCFjp/Ki7zOeKoqhw9DQwEZtuR6futvSntJICkafo3T0PuCGdlYrlezQBHoAqa9OhlHf2hDbD2NrZI0e1WHMU2ykUpN2iEdP+UrU5MfyYn7gwNEvcT79NtC8GHBqfUjZBlIWge6nyf+PmJFfm55O3mGF/HnKPE8XtMETdQ7v3VFMvZ7pd4veeZ5Fx8oO3RNknVhM5t4nRFw7Su/w4vK7IOPrsin9VpgJ2T62wGFe5FMk/iAL9n+K7040DIcSeEOZNsq0oSk8c1ZbQUkAuvRjvsI45Zlf/oT4sL99b8CuwlVqXRmjyEAJuMzcB7DsLbExB5Z9lDNUiUqdHmVW+/HGfa/dg2+jIL6KQtQQm7uUT1kwEtZx5aiF9zB65/uVHZDmzYpc0uto8u/gT+btYgcma1ZNzd2tIy4kt+8wmq1uz1Oqlb97926bcyNvorReg6+/ZGaiGZSeaS1wwmWF7GdB9sAEWzRC5QqAb3oyM8vuoqTe6VPAMXtL6/mNnide4rp85Mjesxi7C3DxJhOOJ/H3cj2BQdc7gryCIMVlzwilAYVLCk7l9WxSvp4JXqKurwP/NyjOr509e7Z3S7xoOx8Eh3O8K1mcOHGieJmzyMAt43keWl9Dpmpj8cEuUslAs3lbcp0mdiprZ9V2GY4YUBs36sSU4MCrnZLMhJMv035T+Nr6SLL1MZrNjqXiWPz0tVZrRvy4Ew6XtdIcJ2XnmBXVv0zax1l6PUoV6BMCdZNgO/NlwkVrmnrqE1WyZ+9KtiDYyKXXPTQRwwYyl2LXLLbpPLOnrzAoU5sux5V8skx5pzFe+wvkh10r9tL+2JKUb/cah8YgwDoT8io8lNNZiJFU1heekjMk/QVpe+F/HQW13iqYUhAKu4v4VzwaWtrgOaUPt1825GqrGVQKLVrBqNbz9Cp+pfmIpZr+KIeN30rdHmVeI29288Qw74e1/oR3w76DQtjCDaZlNZ45FLV2jfWttDmTNu0L5tVqVcsPTGeb5WvtWu0G/p+g4saRE4dMax2znrbaraKe1W/fm5/tVTBSwnaEGadsnIWX36HM16wcJ1NXiXlYY/yV3LQ6n4pTMlgE09qaztBLmyhmlE2Xq9bVw12tfebM5UtsUb/CjO8k5bei+LSkxmkeyV6W6/TNta309nXMYnxpVob7Jum881VIEV/AuF/Av8mL6dMYU1f+TsfpdjE2ZCTH4BkohvQGL8T/W/zTJGyNbS2ZaubFnE7LnVkzr9duz07M9LbLMDwUGFjftpVwMs55drb+Ifi1fKf3DDnYFpFzbCHxrFXnpPWiNo9Url08c9OXbcky5/Tke9gO3n7i2LFvjM/P/w9ZO91Ur9fSFjVAdtZvQC2Z0dVsqX6eul7Q1xRYHPxXzKNPZvVGjU9+aAtsjqdFex3wO8bBK3fzZN2VDevy62GflHg44XQVWdKx5Hr7xo0bv8299OecJLVFbyaxoM/H1iRfaTb1MY47aOdNVvoH9TPejan/OUb6TYSznjMQa7wIy0I0p9FEDtwvGYq9JHpl8rCBBfgWFFyWGBaUXmWCiC9SNc9aLY+ULw3SGuCqGjsJoMTdI40HY+xcKIEY/S9SXW3FKswLldD6Vd72FZhHJ1hWnOdSc7xfdpn33t7T50t4bsa9yKHfW3J0AK84jTfyq42r8zaXGY7/EjcnluhTONMovgsY1Wz83j2TSjufTO9nPH4Zu9vmC96VszdLxSZKOQcB36X8LEt7l1Ak2tVR4u5lZVtvwhBxPYCT28YZGe12M711Kyt6+AkAC3+9tZWjcDseSSZDdWdqakqzs/NM4vheW00zinWwrtcUmEWh6bNMhpWvTmR3MDq3MQq34jfulL3WrpQZbT1PW1+lrWVYra0xCNpMo+Xj9IkneHmNNp+4P9G6cfaGZp4rcSU93jW7zztnat/rav97tD+GickW9OhfQn5jnMXguc2SW9/BjGB63Y3Tp+8kU1Ondszcr09Obs7uMlfiQD8+I99xcxvmaqJJyvRTT11uffe7u86sXz/3TpZtKBIKMO0r+GKY8cI3Bmv0+9Zzzz07WzXYlC3r0sG8ICQYq0uc9V+kz16jz49l9Kfx2m19kczydRhLs60PpvHttG3bNOhRei+N4vLWrVd3vffeDWbLen6d3pm+Y8ZcAqrWkeiaOGNu7/6DfOyHQ/UxrMx5QaxP82acZzmWzGYsS8/cSbY1ryY/M1UkP/tkPXlh31jyBK+3FrywmHJO5MJ6LIO3KB57BMA9UvCsd5pP6DQ5e3KS1d0GT0Z40gsJ+NIVnYvV48szHox2hZLCki5LUDZWovJkxETxFXkjtAwXC9kTV8L8N+nn82wEm6XZGaUl6zfUGQYhN07SEEGVWB7/kR0rWGEN2TXpKdPTOkuzSCaQH0cVaeQFkCoW5VcJVkoPEXQukZ6jTJJfYyH+v0r/Nzszz3DQTNzrTmwItCOQx0UC3uO89U05rZB54fBlzxX3yBXSflyKSUZy8cYNkdHvyiUQZnimx1wZVvo0Wsskzo9rOOuZ8ceMjuUtgwEjY1jLQobOYhhRltYZhcUYHmHFqvozGKtOioW6UFYjAZch9B8jKMZVksl/2KEuIta1hN8wWAW90JC+FeTH6hBoi4olCwWy1p/u9EAj+v3Q92HdCpXIKBRhHDSIDgokBBbES6inUzJ5iZ4XqtKu4q6mW7hfgQVAo4QPrwS8A7iv3uLhldTaDeZqcKyE7uNSZiSXNW6puKQpueqqajuFK5cHAZPClgu/3aUsY7Ef4fGCFbgOxoDd7UUnPQKrPK4bxQCkAbTn1yuC2jdcIe51siobcsvsKTtMNJYzHJFLeYGMIWBxgWjIWymVkpNIQvi9DpKdJsVyyjZZWkIAFnWnb0DVH4GsmqkqwkcurLGGXL9amrjIC4IysKF/hM+v3kKOzxV8b77iXrYfX/3gV5Pm/Hh9l4PLy6qMeC3HbkMicZpVPEMWXTbYUjJ1HhZrl+UQHYae13+t8Qqf1+NB8dHL8zB0VGaxOi+Fo5fmquLR4Lmc4Evk9WM+QXvm6sZBfDus4OxRuAKrcMIpF+qt1W4ZIjNGzkMACL+RRa3SqWQHpBPqBu+odkFoo5qZm27wYPuq6KpIVhw2ivAIRbM6AZGRtmp73Yck4DwPKqbZIzDlNSTaLjCn0ZX4oYp4B+6t6SCpDlt5lXccK8Ht5XvLDkt/OXDO53LK9INdCc9rRbsfP71pw/C3lvwsRW+ltJaLd7nwvXIbNr4WdJbCMSwvQ8FVZni98OIDx+3nHMnX3RiUd8j3NIGu1BlOqIS/YKCMJj+22tpHBVh6F8EKUCXYBWIRzwz8K6ljEqvQa1WzUAfxW16RjHEAOwvrUuUjhp1ta4FqfqceCi00diIs+A5c//pGnAIracW0D6fXEcja1281uFdTdu1rMhzGR53nh83fg6K3XLzLhR+utRdCrQWdtcCxkLOelJ5neGg6Jyvfoz0K0BSmz1h68nrwd0cdd0mkk21o9MNlSruThUFwIiUCgDRPk4uFYkwpFagyV+kdJ4gOFKEBNqcD0ym7RKi6ligakXctItpSZkTphsnYoApeQ8PuZMvEMhDxeRxAC3qBMP9m83mPWJTfgVHInslW0Bhd/+mAekrwXUrVcoNgu0uOYiMJjCQwksAHLgGf4WmTpEyYtoxIZZdqTLqtYttM1VlmVel5eKXVieWF15Ybq3iU2KEackruFO2KWL70sqVSznV0KFiFD8t/gDgCswFlrFNguJDxaD8RXpi5yiRnimxRXMhYh46Xcc5CgZgfEx2H+V4U6TnJStne8UKoqJfBF70SvpLemxpoaSK+AEVXqVFkJIGRBEYSeAQlEA1eZZGL9zV8VmL8ouSq+recmXhlyOyvKx2g4zueLoSxvJ7dhSeC8CLr68Duu1buS6w3Mc7+lNybRZJQ6sKQ61VcNxKy66bInXZJGtilnA0TAJLBERpDFiLURSI17AFNhAmRnl/A+tOvViSG5QkXvjztHtDbW3YZjZ7qG2zMiB5Fgu2txJWGk2GruK5ISFcZXY/2e3iVOoyCIwmMJPC9LIFg8IqafCn7YPmk26KylnDsNQEOp9HxRJxPEI5b1eE8fD1EenyBkyXpk25KvwdY+tJmdaInfDqTLWuHvTI6cldfuFWeTgLSdgMVqLoyDsFAM8w+ZD19e4LglVfliXL6tw+gxH17On/HXNx3ZobHfkoiEWCAJzDxD55QDFbgvWhzkqHyOI4g5b1CveSsw37Enr0i5+hEH3hVN7jIkPgJ9em0jwAcLvpqizpIaxggHRVpx0Xii3YQilgL07MqDSseSSkc29SLiFJwgU5ID2G9QhsHTQ408kcSGElgJIFHUwKmrFDBerGdIyeCmZLu85AN86MBUzp6mpMKdGFPpLG5TEmqDJc5Q+CRiu9KspLkRoZvioBIF//gl9KVpeMF+PCJW7MYlamE4ZLy7nHCwRvkZjFlnfWNYIGpQsZXLCGPbDulB2MqPmRXykooAkx5cIDyFnVC3rERIqfDMpTK++UJNk9VMgC+EwU/OoQOAvzbjlPPNKKRkJColJyAZEzFoc3CI7EoM2WQLoYxqBKg3mekcaBtGMiSC2IQCuGTYEJazDYYOyEisG522xA4gPgBPX92kgY+JwQEElZ49DOSwEgCIwk8ohIwg4dSv4c+0xntplHRhLCrM1eIcrgZUTuJhJlDPZvnkLRmWss5lS2fQX1iJQF0dVhWU/p0oFNe1OPSqBYEVdoyi5umsxzGTWLRyDh9tIZ+DUegmJIWtBmBQFRTHqFzlJwXg8Fbzyx0jFNG6k1VKpzbKoS6KtCcKZu35pO52TnUdsEhc6qumRPjCWhmR7Lqwzp4keU0GpCN0rRX6dtUgktZ7QYwGK+CT4IJRvYjDByCwQx1EnVQ6VIhwTY4oaVeB0uNQ1mZCyNkjQdUe0mhSOtJu8XpLRlH9c3PpO3WnI6SNXHZsmrEJ3I2oiAup8m6wMwG6oiWlJP7dOCvDnINbARADR6sYe2TKjJ4GoFMJ/piV9WJpZEbSWAkgZEEHjEJhOUovkFhGlPzCBkFnFmxoEvN4Ekh61x5vkuc5XfaWT5e5O05DsomHZ1dVYvSp9LBA53ZA+WqFHBaMpWX8o2VOj8Yu+n5JLsxzcn12KS7aZ0/U9xCGkmZ4uXjSUR1SU1jQ/Shp7Gb94otN5rJztutZAfzKHQ7j+qwGjIcMl9MZZMGiBvzbU58K5Kd6xvZ5kaO4m8nNQ6D06lf4lGTSqNWIUvxRZ1sghlWh1JZZkPQnZnNk8ucmvbe/by4w8dLYApzZQYZGIjp2ZuB45vdIZlDz5BKVtyaTXbcmGvvvcsJ6HNJe4xVaIpzGiytY+xBt42NyphOTrSayZ5akh6cGEvWtVsMJNpmmVQnl737KiurJbYND6e7IUxVvUloXmnmyDeAIBGZco1CWHsGbjokCi6iUXDkRhIYSWAkgUdKAmbwUKlheQqVJutmq1bSdHZp9oA+lqWQ+rtPeJw5CwbCPqxCuvIXuFJTdueY0q0kmeaUdcXOoPtt4jFer73fqtdfuXqv9S9Pt+fOjm+cmMQYpLUWRiltdZFTBZh1ZhMsyo5vSObfvN/e/PX37j9zfib/zO1W/TN5m89W5G0Oh5Wxyzi/W8+55pONzblkMyfqPjlZS378o+uT9VswGK3ZJJ3H9s/DjiTSa8krfC8IRq5UP1VdMuSy1HoDO5RhuIvsSxxz+dXb78+fuTdZb803sLtFizP7k3A6OHVQfXTJgItGvQHcxPr8S9+e/oFLt+Y+fzNJnr1fo7r1CarDVFFygYqMeKvd5INsrWRfo5388I6xZM+edRhwzjud7Rg8m84JcXRi0AjRzDbukNUFafTMmHp9AqBlW1IsyqcpCY3cSAIjCYwk8IhLwAweCo4PIcrJ3AUXQmys0JIe2pflM5RyvTbOquYYU44xtHTGgyltJvEysegSXrQCBhWomGFgAobilplhvaw+N5bXro/PFad+8Y/ar504Prth8yJYx5nEbGZZ7d+bSub+8dlk23eu59n79cbzc9mkvlFR41lWQ6ZHH8poMqUaa88kOrN81625YsNckk7PT2giiHFghtekThxcbaaK6ZPPhBYhH7JkJ6KTPOzSh2dI55R28NTa41n90t289t1z79997eSd1vyBqaQxd98oWclqHbdEXHsPtJq3t63Pv3bu5s677eTOrbF6cb8x0ZjN+HRUbYz5H5Wyh6oY6vZYsoUvdBSN+eTO5nHs9SSP8qhoNKThEOlQJ/EllkteIz3BaipMuhZL7ZU+AyyBSZUxtrYSkmIdMaExp1xSy7inj/yRBEYSGEngg5aAGzzG6GgtKTVd0YVomGroeVENY8HqYqIvCErHNWyNs496MxwVRI7QfOnC7jzTkHxFw/SkPtrAac4NnuQ93ajpo4qtEycT+Uu6f/87BpLunkhuz2wcn2+OTdb5LAmcapWUD4Bphsc1xlVj3XIjM6J5qXTsIY8kmflh0mUgtKYJNxRcnoOIPW9TUQlTtt3se5Y0sOXjtfHpzZvGbv3y/3f3hiE+NSz6i8mnxxNsZdK6z8eF7/GB4PvJOr4n2ggfHSuoFReGiro1k9n/v70z6bHryPL7Hd6QAylSUlEURVJkkZQoFbvsttWw0W4vuPCqF97RC2+98MqfodNbb72zF14aaMJoAwZcRhlG0yiU4YahbqNcrG5VURLVpDiIGkgxp/feHfz7n4i47+bLl+TLgVQyMyLzvphOnIg4ceOcOHFjQEpXdY+hSZeCODXVzUEqP82hhqK5KqqoTVVNEiqRX30pYBmzgXKJxwnrrM91EE1yBxx/IwUiBSIF9h8FxNgwYpX2ics0GtNqWtLPuJm0HbQ57vNjehM1AKGAAgNjhQNqoYbmPM3GDZytZcE/aTsYsgRc6o+pQObQ5biEwWtZZYhEWu8OemtOIFvhjCerKJueJbj4n9raiyT5/ePHu0de68z1+ykX8ibJXFYlc3wAxK7nEXv98FCfvj1cQQRGvh2i0lAEq6xKgvF1s+JNqctk3QQnQSf1x9IKh3TWVBrjiBgU12q9V1+z0OTPr3IdpySQM1PqtRTikmMLSWehn+Tz3SydYy9Fn4+FvaxkYDBK+uxFmEO2zVG3HvXtkapLbjlCUG1hxuqlconw7uFTXeMOYSahRYcg2eTWWMTNcQqBWoMwPSDVUpxoIgUiBSIFXgEKeA3POJwbxFNo8UZTTIxxu1r4MHik1hzig1kajIRWU9GxqwmacEiGCFcwYcrQwsRLLeuKVSolF2c6YfCn15Ps+nUillpZBQTY/+6/JPlv+PyW3EzK+SNVNqh7HW6gRCHljmHJIFtbgU6KNCI/tsLVJhAk5LiWGemjb1ZewxXeUEDKauV7frVapfHpkRHgMVJJADJYQHGtOj3dO/y61as8M0/WV8mDZ9Jcv5mkv3l0I01umK6Z9PpoqMw0IqNZqqLyV1o5q++eaN4IbBEWYcdHQVQzzTfyiU+aKm4zqpPVS5XaXKFNIVZol9T9AmELbECiZjJcPiPVNZpIgUiBSIF9TgEv8KyUDUscl9nxNYuA3xmPM88U0HGiZ7uU1HNXE7P4G2YrRgyTtv1jyAjWxhgr/WfX0Auvkb+Y8BSjKO6qF+bkfier8sGc1uZzWbyWqUgO6FukKSag4M/y8d8ewbiL2kwpTStIwjaMB8i5R5mGqJHXv3P1urSWlP8agcaU7TSRQbFuWJ2EkY0G9QCdbcg4Q0sjWbhJRVQHCTbqQJ2MbviNTKqjEXgayTwNWkWddBpZyN1QhEgChY2qBKOxhEgaTaRApECkwL6nQDNltmVJxfnE5Rqzx9zNNCtwSpUS20c4KT/l0nefm+SxrdpNESYcUv5OOF6cZE90l7jmETWbiGAwFq0K2EIM2faEWgS7ASN2d8bh34jD5WJSjZWV165YbgbyJ77cG+HNJ0SNeZwu1t9z+/yIr3Sqlb5MqvEcZqlcLUPKLcYGBrQBtpUsOhsKiEQ2VprR3iuSbjff7ZRxGuxelbshXHRECuxnCrQ1vOnlfAFdwqYJQ27yNDKi5Vb3bBkUFm2M3iAEQvQSjmb9x+t4hh0TCAJWEm26HquHqtCUSm0RDPAeGNULIaz92qyJ2Yn5ig0HIkDKoqGUTehaRKSpSacaWi03oDVCTaXWBrDo2ZoCs74RbSq33Vtjnh4T8pt486cD71GoXp/dlHmPihHRRAq8HAo8X+C9gHKYwLMfaSli3CET+ro+UmHZkV8h+Dn2ksUzsZmg6/GBrGADtuFspvUIVh5iKT+EsbxVV1a48rcTM2BDCKThmyPreYxmqoymMfmVQMdhi2vk9OEu0uemMvi4neR/yNKIWi97MY5vIT+GOWQEj9WNFHgZFPhBBJ5VzPFrnF4KqbvLbdLO6S0GN9PPElCNjudTGHc3t+Xgs/GRYyuEB3Yzjtm5y+rSTk4mCHhNRHa7OxN4SUdN5QWcGzGYgHNSTCLOmUbYBaGnYEWGejqw+PtsCuSXL19eWF5e7k0Ds8VPLEdigJHOzc2Nqqoa3L59W7r7ToWkWic/efJkv9Pp2DZ+5TEt792GqczCwd5QdtNma5Sbw4miiRQ4HBQIAu+HZ4dtpix32/+8tlhacvIOBY+TSDj4g03xCE6bAdVSxi1wNZUm3okMn3ET8byMN8ebUhmCJ/BIjO9wRhPdkC0G1MitEPHlNCIJ60RGwRvsUJ5ob0UBUUpElUnPnDlzbHV19R8jfC4jzIzY2O1RmNw5AqO3NizuFp3s18fPn7/9+PZt7RcVLj1teLybTGgd8H/UOXv2qxNk8SHJfgpeHZbANIXwSEC1hd+2ZzyVT6ibCiEEaVmWa+T3v3D/SoHeTMKG8GhHChwICgSB9wNWpt0XXTEUoq1f1jVnKdkSQJrR3GBYzrjVR78Ap+6NsRLY3ODmsjiI7f1a+QNiy4MQn9eOJR74tBLTPRLiymUzTw3ZbK/Ehx5aZLPGv3LlxOLycn4e/1UEwj/C1umqHMhqbyReM7xadqJbjwb5jOswjnXKzhoxEnhN8zvQLX+Vp57yzJmHHCJQn2Dl7d9DAftj8pOWJ3wYfaxtm1nRt9OY2+pHudnBWbNrJ+VgveQrnrbAE2BDC3miiRQ4SBQIAm/HvWjnxCBLG7jqgx1YrFtbnzSU25F3lkCf7zBas6Lt6hqPt8fFFvlD/VhBNgun7RQn15Ff8D67bgF8Y410O1gi7BYUaITK6mrnzboufopc+EPo/Q8Remq4DVOVAiZQTcE2z/osY4+FqlP+luBPtsC/VbDlu76+2On3l8k3eR/AP+SRwNtiMkBJmuLintWM+xYaZBehV2D/bNbUES5S4CBQIAi8TXVputS4n2yC2ZsAn4FlKPceZIhw0C1Be4Jr25WkIlaFdj1wb1AQto2UKU22k5tWF/CKYHqC3+Hc6Nt+Poc9RaEbNtL6QzStkxpg8OgCDBbF2gvqyaONIVBeQVX9Nge1fsgI62SLdrOObnxzfUPSPk/GUt56TnnR1lM/9rpizNbK7n0JpWqX38K4WMMdlRogoh0pcNApEATept7QdCliGrdRY6Nv9wRq4TNNqOWfFfkSgFqz4rU824VnKp6qtalqhL1A49YEkAH1aGdtwmp3+RrTBY+jUKjbRnq1s9xdbjOmNs4/I+z+BWuIyOezt1DqLiP0FvT5DqGBpqX1KZMT7DQ0M8y8awjE6hRi8eT58+fnWotAQlM0uLeqPu3KCbKZLX7BvU5eOtt2ALwN29rpNLvq/cFuRwd3yDPYCsdNRm7Rivq9pl/jghVRJppDQ4Eg8NQxrAOFXiS+bY9IYW4xWoHp0QBWtoxSBLcFbOtHKW3Uaij4kdDbrja0ND1LQ6WyT49uhQYI2cHdit6tE5RuZL5bRNPSU0HfBLL0qAq2Ff0FVaehUchsWrFenTDVotHIyrI6hf8KNz2+7l8FjZ/sm11DaEcAR2VS878IxFnOSb2I0PvUC70wFFArPNNICCFXc5RJ3ffEaam20AqVzwg8kVZhzx09TSSU1wVp0KSHPBexp2qRExlGb6TAgaHA5hEkVQs91Gz6iRN1+EyCjGPH3WgX9DD87fQBfzts+253Fsk43VSsPlBD9Q11mwo8xrW1yzGVqfFB89sFiwlDDodfhfQtAO6maeS2GNVpDNK4XeJd/irv8OwS1Q+bfEODXbp06TWUqtMIrzNUj2NPVUe0LB23ahW207b1PU/pONHN0YAFwZJR7yJAPhiNRovEbcu8adCahy8QrNz3aAM+ZW4FCIQOtqCntWw7TDCCR5ALmd6OpsHkDmZD/UNgtCMFDioFTMPjNEbtabZepL7h/hTS7idBqyPcBwcmO2uvCTx/S2Ja/yYfx2i2BJslwrq48aogJmyi03EK3+VdNngA1qjX9gCqkD5e+Tg8z8pRtR9TwCUNGfgo4dT+wl2Ygm0JEmWqjbMdMjtHU/n7cqfYoczuxqVWZUgiMJkA43xb/wZ4l0Z5t/DJOa761kj2b0wofc0euMXR6uolZNdZXoZ5IyczgL6GrNK0644HCMEKqbTIu9NFnFQV90qp8wB/hpN0fkL8/yGNPsqpwwT8OLc2j9kT189WNXW6St5Pk7S/mOZdtg0IsXs1Sc257ZW+JbI3UJrZpheKslqpVWYteGFbQyZbZWhePsonv/YXfoc7TmlCiGgODwXClGZTY/UWZ+QaP6Hn2rL4ALIXNlkY7pDBHuBUpcb18Cxa+PWYlIOLeABZU7PeMoIEzzWWkYMSHp/Xc5M9ByCI7gDmcvECbiKPDYIpJNit3apWg2pmtt6k2JeO+Wr+aN0tPuRKizN6IRw5pdFJu6u1ReABgdrmiakv8QIdt/YAUDv1aIUzCJAPO53qqIN5bqs3LXb06MNiOJy7Dxb2xeVIpKqPUB2CQRTXK4u3LhiToXUmfx+hd4Vg5eM1T5cX8eqeCOXkc6ZHf4ts+1TJSasVMcoPNz5u7MBa4bvhbwibNE25JiOiP1LgVaeACbxm+LehNtY/LIR+ZD1PvUn9xh3IbH1xQ4r96WmVc0pXVqx7FCn+1gKSs5Uc34yGhErbQqWEovMuZjR9KzguaKgtD1/AIMGVkTebig78prAAPINteYJgSlYzpN63IFatrJe9VlTZ7yEI3kEgUFh+dBUFh6BS5e85iPwmAXe4qUJL+k+gdx1XgwCpOz00vfk2Aue9osiOt2oqRCK55dEKl9MykePWrYQFKuu3L11KvszzH/2M74ikYd2KH45yKkr9ySefrJ4/f/4oKyv/Ffm/TbIFnrbAkzDTK4ZwTv9vXWd/VhTH/+uZM93h+vr60ZWVlYqN9HrBzQjnkSNH1u/cuROCZE8rZzs+uiMFXmkKWJdygizUg3deTA2vnqYL2ExICAh9lf5Dl99NLwloLa+AXp7pUlgQMxpDACYnrG22B47kECvOiXFxrPY04AbkAtfzLDNZeRAKp6WT7eSTYYAzPg/bs3KaHqfMfBmMQ1NHOB+w4saKayKtTFa2aZgmS6ZkPsxjML8FB9gmYhrCVyJMNbBaFHlxlC3mnHRSa9EKgYgVVKQcUcYlkE+p8i0+h/2Oz3kLDPj+SDOKLOqHxHp7eKuY2AT+JNZ5vgX+v1u3bmljtwTMrNSqnOD7WqszMd86q/XLYpjHp0+fXaZ5dexOm/q4VWLLShodU5XV04cPf7Xy8KEh2IyshTc6IwUOCwW8VBCrDA89lO5j34aw5XZdWp0pPCKPIjb2ul0TDZQysrzT/Nv7cbNODodYPjUTI4Axjcvvamu1MSbRrtc4t1COZ9qeBgFGJbeshMahVVQgFR+C9Fllj4zwWztYFiboJOxcS5JnW9h50C1zDhUIdoDH3whJl824bbx/S5z7NyI0eFMDzvJ6k4peoPV+5N4+3hodf2qmXq3T8m/rrPqET2OaJlzxCLRYBWd4tzJNM15Eozr30UcfSfuSsVZyzl3/SoljkOoGbAGba2bJWxPT5JdpylLTmF5HDPUIKaIdKXA4KRA6RFN7scvABRpBZ72aTqaexR3b9igF3tDVGwSzOEIGwILa8Fi2PrxhsLPgmgLDyFs8v6K4JaPxDjyJlXWwALEwkDc1VH48dmWq2JbxLsJUJv8IkZl2odxI2oVbGg+jAT1O+awqZIQbJ7u07KZWNgeWbUQexc4sX/qJxIRa3hbscm8FuEgVMJgNdQmBLduQQQWl0YPf3AIJ+ksbn8JfDeNrk2Tnz59/rSqKdwk4aa+JO1hFrwPtpjtuO3wXyx6WaXa7kxfHCFgTDdSkXtjo/aIv1Vw8n56HMOe++eab30GGnY5uAkVDUzZl5dAX5cwTotrE5oWzYEqNacV4wW0tpuAQNw1JK1l0RgocLApsEniqnskLGKF1GX7UiewIXQaKuo/N+jZ9J8vE8ejrmzpf6E/CttkIf2MEauKJbLWNN9HgtCDP4tlIGgSNw+Cr6hhD3XUQqaBuhMutcQg9fYrB8Gu8QPXCbfLbpqdgbOSf67BpsQfJdcGEwfEGOeVQGb6Gdwi3Eoomlg35OPZjX3goAAvOO2t1lR8ziG3/KNPwKLErhBqpIacTTFI77PBsHdyRUyZRwlLy446gUXqMBZIeBMIhr34afHjNzY/qrxGDwfhwVdcSuDqb79X5sZow/dgdjZ78uE57F2jwo0xMQg6dnVnZ+KhiUSRHka8U1dH7X3ev3vvR4OeDTjp4wppJ2lfXvestknalimcIvOoi/gt8Mwt9y2K2QZZAYSVpuz0KTYsrODwzoQ94gu1xRStS4HBRwDpl04XE06i/8XYcxtywTazp1AlkSJbpXjYYqeY8JUNyBJ4tZmsTTonb/kk3aU2zUGf1T8UH+EyrpSlSupZmlQ6PfDaWBusSrhvuYek2TDnTHqq+vuEjdFQfqXi+TCqYDd5NPkksZh3umONJSurFJa1WfwSfWwMgru7SCIUZL8eC1xKIWFZnfhQvomWiLG6hras+Cx7mqrTqXr/p63UVmD/nsXTYzzdtSBVQdbX8WLNOakdLrZPPmPmCDCxAJ3NVXo/arUOYymp18OiUbINRvA8wmx8RRQMc2QrTI5w2WNHWs1fzM1GeP+4VRf4BU5bvQTBOTRFNUvTwSgTksx67D+rek2Hv9XvJrX87qC5dWq4H3W/KtFhjFDUHtIY1sqBF2uUKBfAk72XZWxD6EbjsTTCkuEW155k2jNLJjMPYq+dGZLSlldUBuF+9EhRGP+00zj0Z1k4Y3ZECh4ICYRS6qt5gvct3Lesd9GQJEPqLfdAohmW+vjzM19NOttip0+FAnY9RruvxTa+kw00STwE2O0RUyUIAfe93WI3xWt7MDxU6fb6qO+WAgfVoHewNok0om5gkWcJ9zcH2esvl+nqPD3kdTSn9JbJYOAcS1wGdspSbAklUZ6Ny1F0ZwM6HRdIbobnCyK3+pEBItTIKTh8Gb4FFltSpgDca2xOE0QMcnCzsZMugnq87yZ08rW/PdbIn164Aex3An0xFHjKR3WQOTZmirXVljPaCSdRo2boNQwQIeVQ/0Vjkz4tRma8+GWSvDYqkXHFDEvaMJZUGKABI4BlJmxwIxY1SWKFjC7/mzmgTgakiOJQAHBAtYzuzlCGRh0UWGv28csbKvLY24qaC5D0GDhd4Ms2Dy1BVNaN8KwyhHiLkTKIvrK+PBunRezT7l0CcA4yFt0DRKCRTk5/C++Mse6qVlGEUoDiNnGTvxpBeTSODwJswvlknQqM3UiBSIFAgCDytKNtkJOq0slA6hLS6cm3QW/121F8fdrtrTPisLQ9rHQyxuevBBsQcx0Z7c8U8hyhSg24nGYqh2EMXxoa1kFE16pt3IVkvFpLRXN9Gx2MsW7ucALH4NwZp+v1dJqR+Cev+VhOUyICRVtEpJ61DwK2JUymoGr936sHK4mCl7KajFRuPZyiXOkdRBdaa82nGZgZBB44hBFrHb5xItBBX0/kWZuMu85p5seqb/kL28ZE0e4iAVlSS/AabUs1ikGLCP4Svctai7QtbQ7pJ4FAxyTny02BBw/8qnRutFr2njwbd3nfcbsMEHEOJZNQpWd7nGKaEm9I02VMS2jntcfEez4Bw7eeS0BPhzJBJ0MsRixCy1tU51H3xa1cfoDxan2JfWqE61rCc0cwm8/QCQ4V3iWhe5VrU4L1hnHE3r0dfnpz/Yvmpr05dFXdp1S8QhO8wH6BN4FDPBB4iE/JX1TuAXuBevQd3794NQk/56mlo5dFtx/Jl3w2K7WQXYSMFDhYFTODRixZCN2x6JQ5JoZJ+DJ+z2blOwXXMg7TTTzpZv2LWZ4VjJsrKfSiDLqEb+l7Z9itIGgHnBEor8tvRQO1hlRTZwj1dynTQ6WWjPhcEiN/OdBhEyJo9TbeKEydOPJyby9bYznSr0yNDdBetHlBltUAlGyGdmLrswt/qrMiGw7JbjobZECDtkyv9UgNvETLFIDe6mh0sIRHoykFS9yQCCNMZF0ZYnwx3NkirYX/EiP+d15fT5J4r75IJkKbsU3JpghBy4sAqXp8qzCkR0kdMG/VKLUQITLeuyqwu6k4+6HXm8zwjjJBiAAAYDUlEQVTtrz5NquURN1zzURN2bsMXqOrEP6kxwuUFIAK8ZlbOaoHT8PsmErc2po4tbQXQCs0WGZksa2jkDA4BNf4Qvs9sVdlMWfZOct3qOV7EH6ng9m+SHWIxQMvr4i7jiAfHbn1hApIbzqvq6fp9xn93WTDJZnCoopfKnQemmxVkjtIS72dZ8RnutsCzyPgTKRAp8MNQwAk87vMK2TecQOxNjyQQgXzDT3ooQfMFTFTCgvWP2To9HakiPu9M4HPBb6HyKEIIxbA1IlZEAJJH7jKpShQuJpjqfj+rFrqIRuJmEnhtfOWjR4+kseq5p4itDGvMk//GhNy/+QbN7qWY77nRQdc6OEPlAg1C0Ja2BB7MtcsjMavFEfMkJz3kR+rgwAPpWG9Ro6F2i166WMwj3FFAh6ssVUXqI8k0Z2mjDGuCJrtQDrUR70QdNB0f7pqIMpBAizVMIviXAwF8dCzwGoz706GKuMrgOH369JtU5TwjMa4C0qjFJrA1q8moiE94STViJHS3UxQP2W9gtDh261aVvfnm/UHWu1syAS7y8+rqRwKRYZBoVy8w6/xBWWa6XDWcZhJoTNBujaoQTaRApMB2KRAUEXVYM5qzGvdMaXhaTSIuwRQgfK2DdsTqEu6BZv5niPrEJNp004S73um8uH1nFUIZ74VTMxek6TYyKbppMmIbkRZcHG4j6gRCyi0dDsrhFIc2OafGkFG49DzAcWY2KEE2ljwV7QSYBi1mTOI1Ta4gH+Gize9CJACbWPviaTJWcABoJlXC71ttPwuKjOL2tVHFTVvr9XpnEHIfMMZaFDUhm4U7AjOMq5jSrMove0n91Q1fpY+h6OV07S6qvFS+kf96KWIIA9QS4eojTIl/gO+UTyZLlNSzK6N1Q5sRuUHprhDHxJECh4ACJvA0oHWcbVxjOn/TO8Ufbam74IwlACfmac84zQaXEDQY2jEK90bO4B33YtgOvEOyb2blLiBsbMO8hBd9SgcPNoxGYTJL9ut/8PxJ27/Xbq3K1EKVJfHUcVl2mI1RbEw2qma1c8LOZUAA7WQCzuKUk3IWrxe8UgcMinueAdZ0yJBeSD2OBv/zcOyb+KbECLuzlIrTVRI0MquT3m573R2NknVeQzaclw8ID+nqU1+vfvX56dfv8RkblV3HfEny+2jhcVfvXESnfpfjwvruBBUnTMGzS+MGgaL+ll1slznE5JECB5UCTuCpi2Pcd3fXcfWrDmWzYNg2c0OndlOcxJrkgx1onaMZpXB4fMDYCsEO9TjcMpFX+OSRlNO6C30904LEkBDn9oxhXvJptCBy0iy1A/Bs8Lfj9so9rRDbx231MqrIZXQbI3HCTqFMbtI+FYs5s4aWmk3mm6WBa4BjvN3hGKPwrq3oLrGg4VFQFSUAreE2YdinAap+eGGRS7UOfL5MENPD0AQCUnNVnofp4TRZGXU6X4z6j9sCL7nB/MbZrP9VlpZfQeQL9Bv1I6Uz8qL05qTWwpVzRfH2qWvXHty5ft1ebsHIuGZw7p3/trBoia26scntnWOMKSMFDjQFxLG8UV9UjzEmFgKtZ4qRWpSF0stM2IlvqMfJnnSHsAlb6Zq0E3ENDtAZD231ZoKimY1JhraytjFaBzqK3sEtW08IC/5gT7SNbzNdNySBp79xesG+EkZvsYwKn1y5cuUIwu483ot4512o3nIb2hFVsQyp+oIjxz6b0NAsfdlLHwD81zxfkt7ILpt/CCLho0+c6dvDKrv0F3/x7mvEBRPKEfw7sEMfDaisSB5PCNsB2pgkUuCAU6Al8FRTdRae0H3xyWmPoo0rqHPxSCjZ0wpvwkKcs00rJC7Y47QBzuMI+FSMiZIJIprtUsDT15LhtvbzOLZoq81tE9I529qwKYbCXimBpzcruXbtWv7kyZO3EWqszuQMTfe2qTIYs3jl62/4ZvmQbQaadpCRFqfH5hSrsswrvu+hS3+lSNd3SKwPnaKtTJ2eAPVP2Efyhg/AumZlcP6d/KpjBIHn0vsJGo/M570T1DFNpMABp4A68N6YXXXj2En3phFeOhY1HM8rsfFcb6i9aL/4xS/e4HqcywgKBFIIdh/xPAUJtIWt51ht+c/PnDn1FbFayUy41XUtGY3ewPd7INQ1QSA21ELmc8Gfpm/xe4U9n7+0cCcJDdD5d/OrrFx2ssdCb4/Q76ZoMW2kwD6lwN4JPPWz0P+2XVklDAhih902+WKCWSlgLxdam7Yj/IRE0u6CIc7m84Nf2z403cl0pDag28HQJDPByAdmHUpX6+67N0kY3nypXu0XmBsYkst85+MGhsbsgUqsLNrZNLijI1IgUuAZFNg7gfeMTGJUpMA+oEBLQnSZYqw+oEyv+3IRZ9FBcMle5JlDvElY8TlOe0IbFIIXjARcuw+F9ASbOcaM7yW+fZ4MAd4WXINsIm5Gbzs5+iXesZY3I4oIFilwyCigDhtNpMCMFLBVjJpAmxF+X4E1EoLPcgigStsR3jB9zYopcaF62ePFhx0bNo9ax3RmKlurOfWYH5vNojpdzq3v9NRp8MjPbr43OGDzzLlz504lV68G4Rgy2i6Bmjq05aW2ZlKO1rNdtBE+UuBwUCB0wMNR21jLXVHAaRBi4/BdY7It/rsrzC80sSSBjBX2ypWk9+RJdQY/2xESdsyboAgwAU7TjnqUhhWbQRtrgwnUlCodmaeBox5JPhlLB73sOD2CL7CT4cPL93+9zOk+OpJTsAG/4HdgJssy6d8BypgkUuCAU0AdL5pIgYNMAUkCkwZsReitr594F1lzFpl0DI1N9Q5SO0gMgtHaOMaNZDrGTVrc3BaP4jgCj5M1peZtpKKWJQt7ztVN50ej8oMnTzrgMTMB2iRUGdQnpz3JRx9phai+M7qC+1Sh3HidEwnNmZ72PdL6N/WWrdWlk3hbaT22aEUKHGAKRA3vADdurJpRoGHqT58+XUQ2vY+4OMs0oG0vACIInwCna5jaGt4zyUhi2+ABkISeCRifwM+WSh+uEbKJvhnqu+AjHuGfNMpfT4Pj6tWrBnPjxg2FV+vr2iSoiyrGhd7oNHD9bKjTYKDLLwx3sANg2HIR/NGOFDjQFIgC78A1b+B1B65iO62QCCJGr7nJ+bJMtR1Bp6AEg/ywzebAGO0eE/G3PLeB/w5NT31EWl8jpLz2xEKWlMtEat2McApl7hILW95yKCw7BBf4zJme4Wi+9/O8c8RnOq2RFKanyQdB58GddfNmMjx/OtWBe0UjvjZjUvo1yraCzdHoiW4QMVvuaCIFDjMFpgi8zT1okkBTIaxjT0JG/8ulgHi2GmJaC4UGUlxwv9zS/YC5mRDh7MyjeZ5dRvU6DY0wgRDt2cj6PuLtl1DoLynvfQ6W7rJnbwNRJf3AZQIP5zEk20VuAf6n4HxLsrOl2pnII/U8yt9pUrHZvb5JmtBAJDUBJ/wdrrXqc6B1HxhlEWD0oTFZTtNVHXLN58KjbHbXRbONAVa1URqFCScLa5LXL168+BbXGa0+fvyYqVdnBCcXWzOqTqezevv27Z2fWOtxRitS4FWhwITAgy9YP1N3CjM+OH0P1qcDXYwZvDurpPqbHuXR7rY7wxZTtShgvAzaWgNtRdutwlt4pjgdm/QRO0MxBesLD9KL1mhM/X51bDRKWZ2ZIfC0zcAMAsKuPDIPJ7nersvy53j+CuHzaGVlpTMc6r7ijUYCCaFRH+cOoGGv9w7XinzAzoU/0BVNwga9kC3Mjuo2Eb4I4mHPXnrp4sXTvwXTXZ7q6tUkQ4lT+fKTJ0++jgC6gHDlHr2MU1yq5jrGARBd7uZDnexzgdGHFF2aYuiIKpuujsIyw3fH5DzPPxiNRj0E8wicCDwuruRfy2ookW4mWctG9V8Bp/JEEylwKCjgBV7gYLLbbvoHAs6+yatDqRcjrBzzazqYI5SSNUGNYwoRFdeOb+UpRt1ENY4pOA5rUItWDQkCnZztl8ZbLEx23JzGVwWzEd55hRezQaoFuBCsllf7Y4LyYfBjOEXtIxMqqyKnrM7sfv99xlRmiqaVan9dMMCF+mu5Zf0QSfbX3FQuoTSGCtAT9kP8V5Pk0zvvvH2PdSIjrixmEYuOQbekqF2WQL86qeX90ajW/Xj3eKpHj8gOw83oOtlbe/X+gDb7JwgpLW5pNC9dgww2TgLXJX31RWBeow5hROpyIIG1N5dq4fwxjzTFi9JEMVyHqBfAstPymh5lXC2yehW4KPAgQjSHgwItgUeXEiOzfqrKO78TeOoosAJ1LX3uMMEkj8KbBBucSEniphlDMobVBV/qi8aBQv5TcE9DdajCtL6gTdNAR2wLbsVBe81csTrQ01WE0tp6sWFbUGiUa+RbEGAb8Ask4PRtbFm1w/Qu6B3YtyYUNn/06K2z3W56AUEhTYsCt0SeAuzMZ66L53a/dLmnhSWqdP7RRx9ZBT/++OPmRSfM8B4l7Abf0zifrH7E2ZuIlvscyXJqlNQIMAYIYBWFANZ5ZD2Uvcv0nwusmvzfN/kgx6ljPDeT9fX1Tr/fP0HZ/i7C6Y+xu9jqGGaajF1tiN7UuVyMA5fwPE16tFirg8OhUngo+rRWcWoV6S9ckuY34GmybGKiI1LgAFCgEXjNG95mfgQyvQMv4KH/CUb9xmDNo4AtqLCBn0zAGKdV35qaOHS6iUTRO6bXc0gEWcUS4WvO4UnnUvm0tGeDxdpKPgnFEOraxn5tICSXOK0Ypdzhafiyz2X/WZcuXcpXV4cXKPMlHmlAqgKf3ax2TiZx5TC++1Wa3v8Xj29/v+SqUSPoQgUNWMGEJdcgBlLRiHUd7eunSfqQHnIbtMcRc9xgbAKLN93RlWTK9z1UvvNMk5Inou7mTVsl+SYHnLECM+HSWC5n0HYIM7qCEmM/2C57+205DXLjjxIEmRgSU1+XSC3oWpEerQFRNJECh4gCjcBTnV2XUBcLLvE2unF4BKMo9RPrLAEO/ybTims5x2AK3DJiDBZdLQqIf02lWQMzjnWMreGXHqLdthtRKeUkfikB4yz1IcrQNJnI0Xgsaj/+cDNCd25uEWFXvUcVECpO+6LsJhBMACT1CpLgMwTOgyX3hqsqqtxUqYCQkwnTinweKx/UGemr7HKaMeWosQP0RL6gTRms9uudpQOd41ud1qFoytIEXqfDFQtVVbBuZQD8AHgtMhliSxhbYmfLLTGoZ7JlPZgHpI4CDokVqaCQTuV+wtNMmwogmkiBg04BE3hVVlUa7Frvtz7B9KXVPE1ytAS+udOzbQdtkvHhOy0BncoG2uQa9zXD66J8oN/+owj7yqEZH42IK3VEwUj9MJbhkh3a3zERjQRwLOjiWJnTIDzvM0o6KimJyMmXnxoeamCBfo60YzglC63jUHhfk297OaAXD8RpXtsS6i1oYB3effEbKmVv6eLiYodvWe9DOO2F8ysWq6BJuQLX6SrV+ozFiyhujVE9/cvahAWH8gj5JGW3fsS6zS+qOh2IPHz5doNJUcdBSvrxba4+uzZau3Ty75xcffirh9o6kBQFC0lyqFvUvP8p39u0HkXlk2ATgjESwc9gmnK1YSXYW6aP3w94W6HRGSlwgCkQXnj6J7WkX4UuIdu0AYXxGIdj6KpOY+NWAWsFmlIYB25TSeFKIXvCCFYjTZtO0o9jo0BZGRRDf8/x5UwCpTYOnUBxOL2iU4Z2An1E8jGB8RoNjZ0ZRdUgfIyqc35yjSHUmrJoEwfl/Ar3yByMEKuBdKM5lgs0R/D4MCXEKQZtDa3o/WaaciPs3kSD0vc7HSmGaaJwqx5m1nj1PitL+34XwhRpFQ0BE3aDqCirh1Xa+YwOspqJzorhcaM2lwf4CUjf4hb6D+eeJA+A+NzwfYNuN1cwjuww8tNiFMuWH5fO5SmE8sveubGXxyVX31cnjSZS4NBQwAReVrn3Xr/WxehT4XD4qihYwcxAmc/vWSdPsw5JxCRLgHQ3ZiHFbKITGhL7AaPicJuAw1GidQz9ius0MFZj2FpNoS6Ycv58B9xdp/0RdniNKGLEZSZOzQPxTchAJLQC46DQn/bQvJkARD4eBB0L+vooFD0Umi6fj7R8Qow4fNcTZj36cfJSHtq1cG1kKrxlbblYnOBMZ5KPOKXne5UTkAaxX36sZCrMiRNXjlTV8rsUVItCTJ4j06mFey+1u0BUI+gJ++Q+xd/W8IwAW1RKcQ01Pr337cN333nnUw4l+05CzrqE08Vx6k4hehR7eijYPAnfK8vi16T/XLhR6Wo2PjDLUtOrTC3vkMDKSBRJrIGAfFZxhOmZxhJTJMhgdGDqtN5Ke20jEi1fttlVRV92YWN+rw4FnMBLMn/2kHbZYTy76NA9u4QwYqVnpMlanXaepnm+2utZrx1lCC5Ncao7T7yizguv9LjEG8RnukWNJGMlTFXQl11/M7HHnGmRJb0iT8usWw9Y3D1Iy/HpFq8OSfe0pA1VYVIwQO3NqkeOj3JHG0wR+QUdoT9stQO37IifZXlnlHeylU43OcIz4qHpEJU0d8crEBTTliEZOwMJOaV8l80Yj2SFPnQlNIedsmVNCIt0fFc+5u3wuAGKylTapahWcaHZUwrsElldFyLPY6jyM+h2C3RrmY50dm+skY66ML2X/Q1hvx6NhjppJRgJNGC3NO24YZ3nn/M17j+R5G+QKwWrTpQPRGVmRAOU2hauPGKf3U32susbmpnBsWOjbP3JPXrS/4S8UL9ilJINFekE3u5JqgUq5GsooYPOCl3hkdBtm3Z9Qvi0sBAX7UiBV4oCJvDQ236LNJKG4Jmberm+26XJHEwyy8u6QvCt12n/CQfpfpd1eqwA5GOFRqHiCXQdrNAtxZD12JgWjKw+y9KqrHt1MZjP8uGRNBvmQxhAiahTIoRd1c2qYTfpr4mBd+vPk7y6x/cU6/SvFEVfUGHRPpZhoneh61tkscyzDtVLGhDqQWsNPNjz3Mv46pqlC4O80/86ybvrDFaqPKuKvMvuK/ioaehqH22QxgZRmiOwEGJZMUrnsqyYz7JBr0qGnYoRibFrNzBBKDjmJ61Ir0vG8t2Eqbnya70E+8k0TPr48XJYVflnfKX+96NRp7O4aNPyTTz0RM7zdmfZ+tGjR5+wAtNPP1h1GrhZKnfnzp0H7Kn7D8DOLxzRtjvrGYYj5JPncxVTrKPV1VX7ficYjv4aXr169fajR48eEP4/BIvxeZuQEtiujfAKiWwWzpRra2t6j6KJFDg0FDCBB69b0pG09DCn4VF9DUed0XQZTNOGnlUH9aLLvEs+ok+uAyPNzz7kBGmnRBJymgaVdii/JnIk3wAnwwJBWFQa9OpEQAEw/NWomyUrHU0wwUWf5FV5/8ui34y2hUGoDplp6pznxe+Gw+5/zPP65+jH8/CsIs8r2iXno0/FwiIbeNiqB+irPV+dUVnla4zsaaZqZEML0FmDQE3fRiWNhxijNRl8aLDBhCYToAWQaicSM9Mm7kujkDctSIxwaVmRtKS6lNbUnNW4T9qpoRvCZIQwKW/cuMq1PEsvWjBX7Ff/1r+jphTr3W69s+nS0lLKdoT0+vXr7fCaczPRrW0gE4VQi2DRGSmwlxSAP0UTKRApECmwiQL5G2+8sbiwsKAZhQXGPC96sGCapy/FtwwcWMqTaIbnhefr84zWIaBAFHiHoJFjFSMFZqSA9H+bKuBszwVOf/l9pnv/JWHazrHmcbQ1Ux+0J5Z4UY/p1oLp5f+MgP0zzjL90t/0EPjUi8p7TyoQkex/CtiU5v4vZixhpMCuKRCY5rMQ7QVDnSUflWGrvGZN/6x6zBrXLsOGfPmemXOP3gkQ/REC6IIWvbxoo/l0PQi9T3j+O0eu2QT8i8434j88FAgCb8PLvlX1271jK5i9CKcwLyurvSjuy8YxU1upUC+LiK9Ie70scuw2n92m38v3UVLOrVjaS6zPwIWgU6zy3E90eEaJY9SrRIEg8GYqszhtfAtnItWLBFITzCz0XmRBhPsVEXYvmgwHGT8y6OX1eml4GGX4UvM9yA0Y6zamQBB4M7/R+4bTjutwGF0ztVdsq8P4auxdnXW1EAKIQ7YbISTkevf28tUK77JwsjicLTZ+SwZbJ0Kc8o0mUmDXFAgCb9eIIoJIgUiBg0UBf9N7qJQEUlvY7aXQUx5tfOYuCk79iSZSYA8pED8K7yExI6pIgYNGATQuFK5G7gRHsF9YdZXvC0MeEUcKRApECkQKRApECkQKHGQK/H/3f2e0rUh0+AAAAABJRU5ErkJggg==;" vertex="1" parent="Jn1EYD1DzJk262iB9yRI-4">
          <mxGeometry x="48.12" y="70" width="123.33" height="40" as="geometry" />
        </mxCell>
        <mxCell id="Jn1EYD1DzJk262iB9yRI-6" value="" style="shape=image;verticalLabelPosition=bottom;labelBackgroundColor=default;verticalAlign=top;aspect=fixed;imageAspect=0;image=data:image/png,iVBORw0KGgoAAAANSUhEUgAAAXIAAACMCAYAAABhyyLUAAAAAXNSR0IArs4c6QAAAIRlWElmTU0AKgAAAAgABQESAAMAAAABAAEAAAEaAAUAAAABAAAASgEbAAUAAAABAAAAUgEoAAMAAAABAAIAAIdpAAQAAAABAAAAWgAAAAAAAACQAAAAAQAAAJAAAAABAAOgAQADAAAAAQABAACgAgAEAAAAAQAAAXKgAwAEAAAAAQAAAIwAAAAAehArXgAAAAlwSFlzAAAWJQAAFiUBSVIk8AAAQABJREFUeAHtvQd0HUd2rrv7AMw5ZxLMWaRESlQmlXMOE21PtMf32nfdsO56y++t53uX1/N9M/d5jWc80eM0GnvkkUY5Z1EUJUqkSFHMOecIggTBAJzz/m/3afDg8CCRIAEQVeRBd1dXV9hd/deuXXvvMgshUCBQIFAgUKBVUyDKKLTqFoTKBwoECgQKtHEKpNp4+0PzAwUCBQIFWj0FApC3+lcYGhAoECjQ1ikQgLyt94DQ/kCBQIFWT4EA5K3+FYYGBAoECrR1CgQgb+s9ILQ/UCBQoNVTIAB5q3+FoQGBAoECbZ0CAcjbeg8I7Q8UCBRo9RQIQN7qX2FoQKBAoEBbp0AA8rbeA0L7AwUCBVo9BQKQt/pXGBoQKBAo0NYpEIC8rfeA0P5AgUCBVk+BAOSt/hWGBgQKBAq0dQoEIG/rPSC0P1AgUKDVUyAAeat/haEBgQKBAm2dAgHI23oPCO0PFAgUaPUUCEDe6l9haECgQKBAW6dAAPK23gNC+wMFAgVaPQUCkLf6VxgaECgQKNDWKRCAvK33gND+QIFAgVZPgQDkrf4VhgYECgQKtHUKBCBv6z0gtD9QIFCg1VMgAHmrf4WhAYECgQJtnQIByNt6DwjtDxQIFGj1FAhA3upfYWhAoECgQFunQADytt4DQvsDBQIFWj0FApC3+lcYGhAoECjQ1ikQgLyt94DQ/kCBQIFWT4HiVt+ChjYgXWWZQxsss3OBZcq+sEzlfrN2XSzqPt1SnYdb1GuMWZ/xDc0tpAsUCBQIFGgxFGgbQH78kGX2LrT09rmW4Vf6qWVO6x20NwH4VLPuYyzqM8Gik3PMuo62qOMA3evaYl5SqEigQHNT4NSpU5ZOp+306UrbvWevnTp92jp16mj9+vSxLl06W1FRUXNXsU2XH2UULmkKnCyz9Orn9fuJZQ4sFheesiiSRCkVWSZS01M6j9IiQaWOuhz+NUuN/Y5Fw+Zc0mQJjQsUaCgFAPCVq9fYyZMn7fDhI/bUsy/Zvv0HbNyYUfboQ/fa1MmTHMwbml9I1/QUuHQ58pMVll71j1a19l/MTpabHd/mQG2ZtABcP4ODiCxy1jw7lumQ3vWc4isspXSWFtveU9x6z9FNT/mQY6BAC6fAsy+8YqtWr7Pi4iJbunyFlR07ps8nbXv27rMjR45aqihyLj2KxAE1MDAobNi42d6d+6Et+WK5FYmRuvO2W2zsmJE2ZPBA69mjRwNzCslyKXBpAbk6iR3dbZmDay2zf4ml1/+rZOLLzDoIsmlpEdx30nyhNudw53DmyfmpCsvs+8DS1s6sqsKigbMtav91s879kwfDMVCgTVDg00VL7PW337WuXbrYrj17rKLihBUJ1Nu3b2/l5cd1re9DIN5QHN+374B9vmy5zZu/wBYu/tzWrFuvCXHKjmqAGDigv828Yprdc+dt1q1rV8+3TRC5iRrZ+oEcyVCmyuz0CbND6y2zZZ5VbXjZ0gc/EEddaVEXcd6ITgBsDxlhtsQrOs8Irs/E65Q07QTgpw9beudTRtapUzuUpJNFJfeYdRSYR8ovpTQhBApc4hQ4dKTUduzabb169tBn0c5/SZPh0hsjF0eC+/68jySWecE+XrjIOnTo4AMC+c1fsNDKjh611WvX29DBg2zG5dOtc+dOSVHh2AAKtH4gP33cbMfnll77kqV3v2OZ8s0O4GKnxYELrBGRCLY1CeTg5w7g6lh0Lphx4n2pAOQWvEuuor+K5Hh0pcQz/8Mym/7KigY+LBn6N80GzCSjEAIFLmkKpMRqp7SW1BjRSW0EIY+33//AOfFOHTvVyJdBoasWTPfu22fPv/S6lYwYLiAfUltWIb4ABVo3kO9bZ+kNL1pmqwD8oFQLj29yHM7AMPsiJgBOEDjnzP+IBaj5q4R+P74dn8fpeUTX6ZOWOSFVxQqdZl40O7FTopexluo926LeV5p1koZLCIEClyQFYhA/XyBHLr55yzbbtXuPHZc4pndHyTpzAvkjrjl0uNQWLPzMvn30azl3w2lDKND6gByuueKANFDWWGbd25Ze86+WPrDFImZitCYL4DGrnSWBo3kM6Q7SwHt1XBKvtKC5I3o6C/JJfnDpxZY5udOqdgnIdyqXgYstVfIdSw25Txfi9ovUOYs6ZgsMh0CBQIGEAqelqnikrMy/uXbtCkMOYF5VVeVAD/CH0DgKFKZq4/K4uKmP7LWqT35gVYt/JHm2FMEB0U7inDUFFM/sOO28tstMEJEIhDPIxHXP41I6k6qhc+LZeH+OdPqRPgvysQiG3Ig4LW0XHaGY8skcfF9PSS5fpbyqTlnU9wpx6FfoZgiBAoECuRRAHn7ZlMnWTYumVZUSeRYIlZWV1kMaK5ehyti5c4EUIaouCrQOIK+UGuDulZbeJG2SPR9aZvfH4KqCAFRycOfCk1YKZCOA1q+zIAyAO6edFaNws0oqiCmBOxw8oO7PZRdGFZPxBVGeSwaAoiy+E6f0WmDNHF1h6a0/1vghVawTdysbLYr2nOglhz+BAoECZyiAHBzNlO7durn2S0eJV3JFNidOnLQ+vXvbqJEl1rFjmNmeoVzDzloukAO2xw/LCnObrDJlUr9VpvVb51u6dEXcsg7FAtYs0DpswzXrx3MA91mBe+IGwOUOvSSK6WuZdkUCY4loFO3qiVnd8mQYyM+CEsSW819iFIF+1VFLH1niAJ+2V3XUv+OzpCkzUfmPlHVo9/wswnWgQJukAMoEt940W3rnGemPL7MdO3fbaTFoqB8iSunbt4/NmH6Z3XDd1QL7YFXd2E7ScoG8dLs48I8svew5qQK+q0XGQxKlCHBlhAADnclUClAFpqAqwKoQ47eA1uOE2EJ1B2UXrYDWimonTqC3wHbgjZbqqKneur/RIul2ZSNSgOiO9PGT/CV//gm1dUXBKeVPOspV+dJskWWEFkQ3WXqbxD1bddn/Xisa+scWDbpVF+IuENlUqz/q0RACBdoYBeC+77v7dpsyaYL9/vmX7bmXXrH9Bw7K2CiGoDnXX2uPPnifzbnx2jZGmaZpbssE8rXSBV8qq8zNb0uEctKi00dclRDsdG4423ZEKB44gLX8UBnk6CErA0eMcgqAHW6pmX9l0YArxTXH2iZFo2+31J5F0j9/QQOGrDrJywcMMhBQV4tWmAEocJ0Eyvf7sf4L0S51KUOXXTOH7X0s1e9rFvV/wKJuo5KnwjFQoM1SYNjQwfaNr3/JHrrvLtuwabMbA00YN9b69Oktq84wgz3XjtFygFxTrsz2T2WN+Yb0wpfJwdU8yxw5KDGIsFW1jFjMFHACpln4jttcDdrZGwmos/IN5gLK/WdZqs9Yi4bOttSoh2TYc6bDRJ36SAwy3DId+sh6s7u4870S6WyR2Hu1cBztFYG5l5jl7uNSs3+zhfmB+olj11QxU1mmgaPMovItVnUac//jihagt+ul+qhsl9fXyKjNXRw5UqbFrTPvoc0RoA02mIkpHHj/fn39VzJimGup9Oge+sH5dofmBXLerDQ+rELAd2CjVX38I2mkPOXg7Z4JO8XgLeSLwVvJmaJxBaSDnx5I5ieK0YCA5WamWPqIUmqxntL5Hv9dS018VNottfhxaN/ZopK7LdVzskz8d8iw6FWzzbvkR+uIlGKqslKRWJwSDyWxsCVm/WMARyuG+nidELlAWQF7pnyVpff+q8YgiV9wl9t9mkVdx+te85JetWu2AIjPX/CpPuZ+NnpUiUyyu9SwGmy2ioWC8yhQ/YXlxZ/bZT7/grVoDyypQzhvCjQvmlQIKDd8bJkvXrAqycEzR7cK5NQmwBrZs8OiuFw/xoCJw6sYthPVwaSzAeU61/9IKokAZmrU3RaNvs2iflMa5JY26jFUwD/CUl37Ka92lt7yUw0yh+IBQdMCOmI8iMClZ2XuAu0oQn4e1yMeXrwScTUl08+c3GxVu7+vZ05YqtcDlhr0H6WueKOu2144fvy4Lf78C/vB3/7Utu/YaddefaX9xX/7T8b0OpGXtj2qhBYHCpwfBS4+kMOFy4Ans+kTq9oxX6qES3W92dLlu70lUbssp80io4AzAUhHaF0hlo5l4DEH7GgpMUrEAmTnAZKDC8CHzZIZvX59JlvUY4hEJA0c9eGkFaIeo+TK9utaEJ0m/y0y/9//iWYM7+C6xUU1Ljr3lPxRPagQ44jXlhPqyZE2iBNPn5L/c808FNJl72lNVZaihySv765BpufN8n8+yO+1lj8LP/vctmzdrmnxcVpo23fusnKd48mOUKX30blTJxs2eLAN6N/PJk0cbyOGa5BUWLRkqf3dL//Rtm3f6UYiixYvtR/+5Jf2nW983a65aqbo5YT0tLl/Tp06bQcOHnRf2MePy3kTDtCygS4FzXv37ulcfp/eEmEpoA2xR76zd+7eKy2JXfLYV+ZaEjtlYYhvD/Kgrr179rRhQwbbwIEDbPKE8davn8RsBQK6zocOHXbHUZ9/scK2btvhngHRwDh2vLy6/Tya1GlA//6eN0e0NMaOHmmDBw2szt3dRNTS5upE53iCgc3Bg4d8toMfk6XLVthueS6s0iwT83sC7e8l/e1hQ4bYkCGDvBsPHDDAvRF2lP53RjPccwn4K1+6dIWdlB/z3HdVW168q07qMwP69/U+A7fe2ADN80m5U75iFnz6mWTx5dJhr7RtO3dapXTZcT2QBK7x7XLtrCsN9wHdu3eTa94Jye1Wcby4QF5xVFaReCUUmK1+VyIHbfBwUuiICEQYCijoe9SJ//HTmIoQXXEenT3nAuacuGI92WOkZOBauBx5p0UlWvl2rlr3Gh2Uoaw4o16SqetnA25XXq9aRnqvmeObJfvWJhUn9yiNMqZs6uwDQFKvOC4W/sRxLuqhTQDdaVmlHn5fuxXp8Z5r5ZRrj0Q6GnTaS+zSTk65Wqh1KObTh0tL3QXp2+/Ns3XrN9jRo8fU9sg2bo4XrRInSgAIHvPGjBxpQwWQM+TV7sbrr7GBAvX3PvhIv/nWV4tb/CpOnLBX33xHjpl6GpsXTJ44wXr36nXWx49l4PyPP7Evlq+20iNHanDvgCG/y6ZMsuuvuUr6yL3s+PEKW7ZylS3WwLF1207VcYsdBIQF3pu3bvO2UF/qiohn1IgRNkhA/t1vfr0GkPORl5eXW6nKX7tug/La7sD44cefigYbdV7seccDQ8wI0AMcyPUHgER8NGzokLh90tq44dpZXkdkxecCWORfXyjXzGf5itW2bMVKd1D1uVzGzledt2kWVKk2J0BG+9kcYsyokTayZIR/g0OGDLTbbp6tgTMeBOorq9B9ZlvPvvSqlZUdlfl9/aCM9Sd65tdcNUNA2v2c6AKI0w/wlU7d2QCDfvrWux9YaekRDaSVvsCaqD0m9WazjK4S723TwNylcxfr1auHgP+oD7h9pdvOvZYeLt7GEpXiSpdIhLLoZ5bePC/mbB0IRaJqDNSJLxjqBsBHvK5dOwXg1CjqRjwgKEl5c1XifnuNsKLp/8WiqY9rt58LyN3uX6y6/0ZioJ9pENEMQAOI19M5UdVNdU4WZV0tERl5th3V8bSPeqckjvFzDWSSl6f6/gfNJv7IUj1annUoGwrgzOjp5160RZ8vtQ7yi9GYALcFYE2Xdd9hgfD6jZsEqGdAj7xOqIwpAvHHH3rAHnnwnrMWQletXmt//b9/5OB8VMBanPM8+fMB3yY95a8+/oirsL36+jv27888Zx8K/BHZ1MbpJ+2AMz2pQeWH3/8r+/KjWhDPBgaQpQLBF15+wz79bIk42r1n1T1J25AjgNVT3gQfuf9ee/zh+23CeDELFyC8+sY7/r7mzv/YaVVf+3OrkKSFprWFY3oHV0ybav/3//FfbfplU5ybTtIe1qD/7tx59lc/+KE2oij1gSS5V9uR9z929Ci9//vtsYfuc73y2tLWFQ+I/14bXzz9/Eu2acsWNy6qqx2F8qI/EdB7f/zhB3S8oVCyFhV34Tlyddz0sqetauEvzI4dlCaKdLZFAkTdsYhE3LQ6jCDQCeOm9EkHAvCc7Y5p5i9EwO0W9tJmKRrzmEVjbjMbPN0ivKV1OzNljZ9o4r99VE67jlakBdTM8V0yVvpInLUGpWIBibh4tai6HTQSTtzrr8ZyhxhvH9XyxgvEPVo68aVPWDoq1/V3JWoZogVftaWZF0QRRcDRvS8uesGixfowtrq4AhEDhhxJyD1P4jgmAAtIwg2t0C4zNLdQegaLzcofsLzrjpvPAnLePeUmv9xy2OyAfNFLfl/c/iL5usZVKhwzBihwnbll4gzNu1Y2E8C1s8zCr5t1lY0YNiw3az8/Lj/cS0WHLdu3OyjSHsRIETRQvXLzzn+YevNL6+e9WfUpLS2zV95420Uzd99+iz2iXXYIpEtAND+f2q7jXhXfpR0MXP/yb7+z3RInQQ/ewWmVmdJMxOuc2/BspkkdORI4QjMGX2Yw2ehs6voP9HVoxGyGX1GxmJ56Au8V833eV1yLeh7Iu71fAP7JwsX2Ab7Ol3xuiFTIi1leNdOgticipbzH/ZI2UzbiJM4Xqi/SJ598+ln7zh99za6cMf2cZgqFymrquAsD5Lz5sn3yEij/4HuXWtWypyy98qNYG4USJQendwBrZ0K2E3sUf5J7yov8sn0h1Unyz76DLQK8J/6BRaNuVn65UzdeRfLsmdz9rPKE6iSZPOGUBpXKUok1LteIIA2XYo0M3QbH92r7K8OfSJotUcfBEq/I6nTfcMnNdSxfbpE6Ipoq8edaWw2om0K2jQBKVpQukYsWfsve0Ad/WnTqr0XfGyzVTZwAKose6mhXNkVTH956d6699ta7tmLlatt3QCIhFdBZ+zQ29MNOAC75kMrl+S52jXpmEABo+GhGlZRIrDLertbUGvl6fgDgisRZw13Djedy5JnsoLJHblDZpACxCucMHh061D97OHnylMQ8fexLjzxgE8ePq1E0AD9EPrJ7SG6KzJh61ADbAsCYm0GSPmkxtAAod+7e7fJ2Fn/79u1tMwUS5+JjJOnprDksXLzE4MRfe/NdB2Do2JDZU1LH3HonC88Nfde5z/JdM2jwjtiIIvdd5abLPS8uKnbApX8kbcq9X9c5oP2cxDgffvSpb1ZxSCLAduonyL2Twamu55N7ST9FzIvIjNkj72nZilV+XXGiQmKxaxokKkryvFjHpgdyOZHKHJBL2XUfSBvlRXkLfF+geUIGMWpS9g35cibnSS/R+ZmXF1+c+VgEHynY75RbYqb6X2/RhPstGnerWa+zuafcnKqJWKldf5RtZo8WLZf+1GcD6bLl4qrXm42XSKZdXyFUX+Ur0Uyy6bJz2NU51DzpKBN/fu0fVrw+zB1/Z5mKdSoaccFJ/Zia0Q4dEa3o3LuntFtiVlCfdXW8bgORbFZxWlz+4d/406lun2nmUS79d/lwKUJt8gyFeOJCB2TXT/7+OZdnI3NOZLnJK0vKr+1DOfP+kpQa53LEIcTyLOmQQd50w3X2mEQNMy6/7MwDDTxLytorrszz1HMMIrkgdnY9435GH4Rb7ScT8Tk3XueqkLnFAgjjx47WIugE53L3akBL2nF2nrlPxudJ3XLvENdJ/kQYaJYsW25/8+Of21/+xX8Txyem4hwCW689/9Jr9syLL9u6DRt9I4iGZFOj/gxI2ffRkGcbksZ5a+UZl6Mv4AJ04b379tt72jbu5//waxfjsBE0Ay6hRvuyFS4UR8UKVY13n+i4P/PCK84g4Ctm+mVTHdizWbaIQ9MCOXtjrp4rz4R/b1VbPxAXLS616gRYF4dYlpLTcEBOIRvvL1qqg3GswA7Phvqf6jnUUqNutWiSFjIHSZOk64CYg46frvuvZPPpL34pZ1uvSL1xlThpxBd6bQJ3Cqra9IRF4gitfT+L5Bo36jFO3L60J4bMrDtf7nbsa6mSL5kNv1ciFmm3aL/P9J5/inG8GJCSDro3ns6sMtxVAK2Lp3BeQNKDHNiz9FBc+viHmjHs0nGJNrSQumLHEk9+Mf6UaRHz1dffFsdY6txxQTBSRVxkooUitCDgrPlBU7g5OJoE/GurM5oocLv33nm7PfLAPTZxwvnJiyFlfl35cFnMgutPo5aqfwC3f7o8oPvI5u++/VZxcUlHrVlj2oXoh+k/gbxoe1oWw97mmslFgniAgit18YSO2TdbIyUDAvmuFfiu1BrA+LFjXGOiRqJ6Ltj/8hVx4ey8w8YMhWYzSRbQIqmviz5EF+rKoOezJ93n3VVzpsmDjT2KrpTF+0Vrxf36K44yoImX1dg8a0k/98OP7Pt/+xOnYyfNFgHlQoH6sMiL+In359o4Ssr7oT48xXl+/0ny6ib/L9g+sDbw23/6hdLKrbXyrC198tzFOjYtkJ+Wis/iX2mzhze1eiV1OyQePqfks6HL0J2zhOaQ9G4/14WAzm9LDp45rY9OM+zUyDmWmvCQRSNvlD64PnT5R2lQKNsh7naZxB/y17L9NcnmvxDHqzL4VimXHxx0hbRQhD92UqKNrc+Jy+5hUZn8sMigKBowWTfqCCxWYqlp3WU9KnP89uLse0+SiGSlfku0JrBUY4YAXMW4GMWzgiDqAPq5W1yPo+2iUdZ61RdIBfyZU+Lyy562dLuu0j9/XOsAEz31hfyDbJUFMhY2Dx46pMWiml7qkrJZcERt76oZV8QqY9I4gHOnYwMuS5Yus+WrVjv32kHcZ0HZpN57WoPAaX3sqA6eb8j9qAAsPOrxcbIYN1ym4XyMxO/V3pHIvVFHm/fRAhtZMtweuv/u6q3H8usBsF0183JbKw0IVC3RQBkgTZcBA/pZf3HyarR/1MlzAAOy2d179vmmxfv273cZfPs8oKC+/ADzjz9ZJPn8ULtp9vVJNg06su7w3IuvqKw9jEkOMIUeBMCoFyIkBiDU/NDyYVBDI+ngwcMO4uyjuW37DhdL1DUIFSojiTstAOfZqzTDOCa1PzaNAPTQ7EGF9LA0SHLfVfJcQ460USTzsFNqn58t+cI3rEDriYGRzzo3UC6bWTDAjZZWzrSpk/X+6AvdHNRRI6U+aYE7Wk4MPLkzuSQvuHO0tFDj/LffPeN+Y9ByaimhSYE8s3+9ONzXBeKS83YUtZ3qNBWgyr4A4s4K2TgQVXLoVNfe2jBZANJ/khVN+bZFU+5pGICz670Gk0yFRBTb3xEwPy8d8PkqWJwU+NleIy9lCDQzaaEr4CkzfPXweISu2CrAVzQ7AkVdpBp4l8Q3YyV6EVh3wFKpjlDU3qI+V1mRfplyOfza9TutD2gbuirtPJ6B+1fnrX6cAYvRg0oR4BSTcwE/gd4Kl161zdKH/sWjijr9n4pjdLxw4YvlK13Gir63b7SrDpz7xvgwAENEETOmT7MH7rlL6nUjXH0t2Wdx0+at9vLrb0mToaMvOpWXVzjXnl9rPjz0e9lNHZ1sdM6bKgCaqEACug/de7dNu2ySqzvClW3cuEWgcsw/5ErNGgEcPu7aAlzqnBuutQ2bN9sRgdHVM2d4e1ErHFkyzEEJuiQB4C+XnH79hk2uyrZcawxsXAyQwdXncqSc88NIaqS2OENNs6EcMUWuWLXGASgZRJM65B4ps2OHjq4KSlvZ/hBVw9tvme3gvXPXHjfOAnA/+mShLzizsXJCo8aCLu0ZPHCg/Knc4+2Fe4ULxv7gM7UTNVDSNDZf2sRnAa0RqSAXp/2IO84wSmdazqyDMoarD7AGc+UV0+3O225yu4YkFSqZDLgnJEqE20ZNFXolawRJOsqkf9P3f63F5D59emkWGS9SJ2ma89h0QL5DXOgXEl+gaVEsIFfD4Ts5EpJzjoTkfo1zVAkF4EWT/9BSM74ikcV0WDbhXQOrWbpB/sEll9/6tHsjtCqJUdopzzRvP/5l4Po5d0k0YhwAVGUAmnrpGaW3E9q8YpXcBSz/G1lh3mrFk75nNvmBuBdR4XpC1GWYFY34jvTEZ0k0sl0zA+0neujp+CmVoVJUBw0kbh0KfZh6I3rhXMFJFJ97tU9v1cxhrqUqHtUsRYtxFxDM0b3dLYMZFgnpvNkaxfXSXz5INBG+IhW9Lz3yoI2Qvwymy7kBHxp//r1v2/e+/Uf245/9yl545XXbK66UkPvxAlgAxpr166UfvkJANkw63JrVnEfgQyPfwYMGSe5+rWvATJJ8O/kIyZoPOyZ1xu6/946zPtr84gGd/hpkHnvwfpt93TUuI2WmAn24V1sYO2aUPXDvna5/jowVOkBfnk1CQo9dUmtcuWatOL51Nm7M6FpnB8lziC3eePs9W7lqra8xJPkk95MjdYTLnD51itT67rcH7rvT5fNV4srxEU7AQGnG5XIdoX5HfRlUn6W+r77uWhtsDNGYgAOsXr162uWsd6gDAeTUFy0iANMLakyGeWm379hlz774qj3zwkvuDhfuv1A4pZkOnPef/fG37JabbnRGIZ9OV8+a6Zw83DYAjmfGJcuWWVcN3vmBd03/3y6jItRhr75yhtMuP8/85y7G9dm1PddSpRFiJ4/GIAUQ6eeARX56mX6eG0eS+GuK00rlJ+rSWzLnWyx1w5+Z9SvhSYkl4s4WXyR/gRcKyQaJRdKbxAHvf0ug+bmcXu0QNmsw8dt8aDQTsOa/rqvLlRaKgD2GKyopkMU1gF6WVWqvTjHymb0LJOY/bLb+15Kbq24j7pCRUE3Nhmwtah7aS8zQTyIabUuXPr3BooO67d88tdIJdUE044H2xHFw6vHgQhzJSFOpeoq+/ovb4TcvwB866cYtWxwM8zsoHb1b164OZHNuuM4NXQpVIQE3BoObZl/nutfPv/y6i46KQIucANCw6AcAxy3OudnIU+qLBgrA8c2vf9mNWnrKuCNZ/ErqlRzJPgEB6pHf3vziGbSwfqxLDp37TFLO+HFjXGcckcVHGriY6if3kvSUj4hj3fpNNlwiFrjjQiGpJ2qBr2jW8/my5cbsIz/QFrR3mBV942tfslvn3KhZyRSfpZA2n+vP/cywwn38kftt8dIvXAuksUBO2eSf++ViFJTf5vw6N/QaxgHxEAvyiIx43/mB2c8kaSB96dEH7eY5Nzjg5qfhOlm4Rux295232qBBA+zt9z6wF199wwef2oyZFn++TIzHCPvK4w+dRctC5VzouARJzr+cjlJL6aapsaZtSC8cqRqRq3/EaG7o4fS+JZJtrzErL60lhxgMMmXSjtn/oaU3/6OAXLJ5uaHNHN2sogXitEx/YlP5JBtKqQcuAHkeljqUtZfM7XSZnGgtlArli5Ze8hNLrxFnfXibZNey7jwugC8UyOOUZO7atMKOzBc3LVl3jUD9IVJSl+RIoppAR4wni/RhF4u+F5Ab56NA86NU+uOFAmbXcFoYbEyZ3DB5PXLYy6ZO0kKTFtaYXeUF/+j1YR4rP+4WlHm3G3UJtwTnDUc7W36tBw7sXw3i9WVUH4jzPIDZUBDPLw/uHK54kMzffdCij+QEBhTAZ83aDS7bz7lV45R68jyyWuTjB6Qrnj8j4gFogTYQKp1w4nCkWNLWFxgoCFjkYqoO594UgXyTvM8vv4ztkLohIhDAPB/EkzJwMzD7+mvtSzLoYUG9IQHR3p233eyzEqxdYx36mu8J+vOuWC9B3bMh/aYhZZ9vmrOHsnPNscdAs4ETYq+DWuiM+0MeKOXQBA5dPFBcGvE6TVfsldris5ZZ9awVjbvdimZ+T9aaklPLCMczFBF9lABoK/YIVH8uM/9nJBPfDjMtplZ/uCd5BHJAXzz1MtA24Fnis4VRsm8QwXX2x30/95txPPmi9w4XcEh68St+qQiBqsQ10YAJ0qTR5st5IVOhDZoPaUej3fJxXqZZQtWBeFIg7poS4LBj+uic/D0gWsmeVscpig9A0Zni3hI7Dc8maPoDi3Or16yTSXVZrbrXaH+gT33HrXOUpmHTbdIBXoXAhlYkH8LGTVttq3Shkd2ea6AN48aOceDqUkAX/VzzbcxzCZDwTHIOJwrtBgtQWCBFSyWXAyYt9GF6v0kAxeJnXYE1iBc0w2H20Qld6QKJocUk+Y15TJayaMM0NCTvg/SAuH9XDX34IqTDr82HHy+wl994UzQrqp5RJUUzyEFv1Flvv2WOFtF7JbcafBw9ssQXRU98dtJdOeTLy8l//8FDvvDNLLW22VODC2yChE0H5J2kuTFkuhX1u9rSJ94TJyuumBlfAkr0Ns6TXqfzXNFKHB8nQJkkvetjy7wnPe+F37eisQ9barJ0vAeOlAWkVAh3yffJfpVxbIU0O8QZexlkSP5xQR4lrtejFO0Fq1fGogqlEWhHsa9ZFc0z+vl9BgDSS+RCXnFGuqVz5orH94s7/6naJ0+GA2dZcaqz2YRbeMCDa8ns+gfVU4utVdJfT2tWobEF51lxxrpQpu4xkUHHC8gudrqcXjMaP3JPdZHIKdX1ehkHPabrCxfQ8Fi2co1rL+RPu88qtZFfNybpk8aPty3btrkpfm7+AAe/DTLb3yIfKLK4OKu4hkagiTJYU2NmDJTZHAEZODMbFjfXS3uHDx3AoS8hCsDAKNvBzqoeAMECcy6YnpVIEcyYWEhF9l3bAMki8ihp46DW6Wp5hTJqhXGbt2xXP9nhX02hbpgMniOGywlYAznxfDKgAQPdMCrjlw/kpIdbR3SFrByncM0N5k0H5Gpc1Gu4FV33pxatHiwXsO+Jg90a28i4pzFHx3yanX3tYg1FnzymhcJjZrs3W3RCx6q9ErVMkfLHJy5OcbFFFmTRdHHu2znsnCx130v1P0liLvTLioCiajN4T5R9gDxyrrOnXg6eDHEzgPy8ar5cvUj39MBCkx6auGZZeR6SymHp2xJnH4gHsmSWkOTn1aN8AbVXKck8Pvpf/iCGULNSXa60VO9vyaDqzGDhWTTxH0CEvRLbZVXFas+eAbBxoX279tZHjrC275I2EYtdBQKGHOcqtiA7PuBeAm+cVCUgDhkbW9cCVSsYRXk4hlq7bqNbvQLeaEnslHoi4A3Iog0Sc7UMVljFdvaFstyBLMkc+mPliWdGFgbrCsyaUBOEc+e53IBZOg6xpk6aaFdoD8xLCcRpJ4ulzESgYaEBD46cUDJ8eJ2aSJ6olj8sAiMrjxfI4+8yP2lKOIVdAmq4rPFcQkCuBreX7vXlD1hR3zHSruhnmc//3vWzcWwlBtg/qkScUlBrxdNkOWJ1RsdYGdZkKlZJrXGN5NJdJKI4GtMUh1XS/PB8eHd59D5zmQM8ikTkAsOLJaVr2GCwBOdNnItWyJ4LKqOPhHvJtcu1dVksEQn1kol/1ZbnLdrxvGUkvjZ+fFf8tLGzP+/PiMv2PBCtJJVl8NG5ion/5IpWJLbg8U7S8+39n2QQJfXLalN90jd9YGESF6s9e3Rz2WOhEgAjOi+cZWM6LsCG6Ty6uvkfH4DIb/jQoeKmGybLzK9bkgceDEu0UJgEJ21y0QRHVBcrxIXRfhaFP5Vvj9feeNdWStMEb3lwbgCr9zgVHnPL1II+FP9lca02IIdG+LM5eapu0coBqe/hxZB3ls8topdfVNROrg5m+izIC76E/vAOWG+pLdC/OspuAW68EJ1rey43njyq32P23eXe93O9VvpdJUZVGjybOzQhR57z2QybLOOYb2tFuL0MhH5qaa3GR4hUASdH0bjZuaKVWHasPBw8gTadd9Cvv9KyRiMxuRBdf1RlADCLr5Qa5ymwJM7zR7ZHGnIhZ5oJaApISFSpWO3Sk+oq51e7pTIpbsrFJho5HGj9veSKVkBmPU+d9JIjXlw7xXXWr5uGps7Kt73idBl7NNS5i0cok8yohW4mJvqIWRQfa63QgmzeqhtgGXWYJQMgbYrR8yaB+WTVTQPYBQ6QBQtNOmdtARHBCYkMkKVjZMMH05AAQK1Ys8Y51kRLIP85BoiEm8q/V991AuRoe4wYPqy+5Od8f5ur5b1qr7z5li9M8gGfOCkRm5gOdJkJ+QPVWYXxgmsJPHsG/Asnwhwf7RcAvGBZ2fyRkeOu9VILW+UHn/bT9vz2s8DbRbYDE8aOkd+aTufcdBYzWV9gZkeehQLfAn7xV61Zb2glNber2yYE8rzm9h1tqSu/bjZiiqV2SCVwyyKr3PyeDHaUDs0qYZm6vX4CDth1QAyAFN6ZxJuZnjrvrnhEisILVwusTNJmQdY9aWU/jGpwJy/AWy8a1ULyplCeVYg6T7Jo8sMyNrpGog8Z+pQ/KFHNcsnktTi5V94MScZg4sAvgAVjyQ9ddEAZwMbYyX86Z4CC+0ZtUXVw+TZZeEZeC13pFhkpn/g7SwYdbsSceNR+qNQvtSlGtyt0vEbtlnOuDjJSqRb9eDYX7A8zBvTDmSYC6IUCXArT2o1abBsrzZCGAPnmLdvcwARRA46Ragvki3jifEI7qbghGmrqwKYU6IBjBchCI5arcIWIjJiGp/RRJ/69z69s+pj/rzWbKpUL1x33IyXOC8lAPEgaOw3RUsl7vMVfbtq6VWstKDcUBvKuEtGxOUhXqck2ReCbKBRcRq7NVFZJ9//mOdfXqt5Y6NkLEVf7l3VepQnUWJYfJK5XPxt7j2WWv2wp6bRmDm7QgmGprB/3CcSUjr7IT4sHznV3UhwiCuxCuugct7UCUfDuTLdVnF8BPzoHIBUTh2yGADgPAcAaNaLO0uvuOlG63dp8YuqfCCgpgCAnXEOkVdJZpvCy6MwckapgpUAXLKcYcuYIpQBx6teFuupYpB9tYD9OB3rK0rX/pU6MAsQpEM3X57eJV8gOXPhRibrfIy78LvkjF4i3q19NLM6g6f7CCeIgqKd2i6lNVg1osRPOp4uWOMeCNWF9ASMQFuYwcc7noHgW964ZaUdg7ny+lp1w9OfK1dfWDoD7tbfesZ/+/T+7MQ9aO4XkzrxWd6erkxhM/UVXZ5u0nWO+XLs6UQNOsJJlUdf7VbZr5T6WTPPHSExWl7Vq7jOt6Ryr0EOHD8sdxNnfCOsDiPwGyF1EQ7Wq6mo7lsHJTCs/He8QVwQsbruRU36Ci3x9gYA8r4d17mrRrC9bu1lfMdv8maUXPWGVS38hXWsBLYAJNwv3PUCA20/H9oyCusHBFzBJRODj0DliCedwBaDEufgCcQVcL2mywK6sIqxCi0sM51apUQ9LVCNr0ZidIcM4dJXzq4lf1rnUbFb+WBz6Sp2TdzZo3038vkTdVLYAPOGuHYgpW+VSYlwydSWOn/Lwo06dyycF9yVHldsAT99xnKUG/BdtKqFZQnvkSM0TmKqPGjnCLpdnt1Wr17n7TkA210cKU058lL/0+ptKO1zg2993damrxuTbrhj1pcIB4EXccuvNN0o3fULhRM0Uu0sLj/gx+cmv/tlFHrglqC14j3cuMdsF1R9yQwLkuXHncr5JMxxc1jIDqFlCnJuvAakeJTL3jzVkzqWUlvsMnHCtsm8RhEEUObqrH59nM0qGDXO3CTu0SE/IfYfADNcwKCx8Nne4QEBeqFnZbiez+1THrlY89Aq5lf1MHLC2e6uSAVAvgXBXgaRq5CnhVuHE3aQ+5mDjrit01y1EJtUd2bnv7JWDus5T3bRIeIWb2Fv/6wTCo8VNi9UX8QuGTrIqHXe/RcNmyg2vNkDYJmdbW54Rdy5tmW4aJNpJHKIFVsCX4LlQLiFHA4UhJq4g9eMFq+5urelvXuey0uwoB1v9viYZuOrVUTOW1MBmBXGakAS22kIb4zf//rSi1II8qzk6L4uWTz37ogMKXgOxBGQQ4APbJx8YDABstYV70QULP5Nr1U0FuVBEKXBW11w509UGkzo05xEgSD5YfGr8XjvN0N5Can6kRYaKqiHGMyOlKTEcWkjtr69A358TTXDKtHXbTjfNZ1s8/NlAq6ScxrQXmrHAVltI+mcha8/anmlN8WgB1Sa3dv5J/RPG4IzV9Lm3Di0rFpUZPPID4i32GB2vTcOxCm3ucBGBPNtU5KSDxonb3hrLlrudEliK8J3EoUIv+qhz4jo6JsZdMwuZ2UzOHDzewVvpAFYwX54TfbPj3kO0W/0tciYx68wDdZ3JPW7ETxtHpEu3SxwjfyPUpxNgrLz578VQUepF6clLjuupiJyguCQJyaoE7qzXHlKmUiGLRmqDjKHTYjl7zlPNeTpxwjj39PfSa2/65sio1OWCGFNKfsjJ0VU+erRcVoCDHMwRy7CjCkDOJsXsawk3g0VoYiaf2zYAcMzoXvLZcr/282y+2UhunQBXgILNpXEgRTvZWzM/ACh84OgcXzZlsE3QB80C2RD5LRk2bIgGqJ4CchmnCFSw2Ny+fZevASCmwTNkrVxlfkF51/1knYmnyFh8k3dTlz44iP5seXYpBsR5vXv28vbnD4TMUljkxaFWfUZVDaENe8OWHiktLMYRjZltUp/GaHA1pNxzSXNxgRxUTMuHydGl0jH/R4HtewKxQ/ppgSotGSqg6cgHGmeBE3EJYOk4yR9EKIloJZcrR9aqeycl5qjQoCB/FpkuO1TOBm3OMFplYCCifNA5PysoXxZL0wDsFmmyaNGzTDOFDsdj2bhXQYONc9c8TB4abQBpTavcuCfLq1fz7CC+o76OALg0Zaxcv30i+e4jVlX2a60d7LXUVd+1aNq9no9yq6V+fuei/KFzAkqzZl7hnurYcBmq09TcgM45Dq/efn9uLOcW4Ktv+5SfdHxkgBWgXwjEASLuDRk80Dd0yM27uc8BQSwnjxw56pasheuD3npPmykPkDjewoES7gsKBUQyo0eW+Exn/iefSo7vAsGzaFro2fy44RokcHIF/aB3fkAURjSbRDM7wtnXpRSGyXUAjAPuhAm5YM6iM0Y6GJex+fT5Bvov2im1Bd5BLMYp8CJqe+gCxV9UIE/LqVX60L8JyN8X13xcwCtDH4KzvVliSJzirmbp5uKwY9EKLDpgAlsrsPV43Zc6n0s3KgWmgGS57knxIQPQprTwdXCRZRattaql/0POrh6T6OSr2phiqudV4482n8gcWCFRiixGD7ypnYPWCdfJqNxLjf21xDLtWHQi8QgZeJWRx1GXOMLvE6849nSMmAYf1iVru0d146TuCdhZKK3c8qaqWSGpjeLRjWVheLg49GYOLJT9z//rv9v/97c/cwdCh8uOOBjnfjReRYEGYOxN15Fm+zlH3TsrfbZdyMXRxcZg5ZYbb8jGtpwDYMACLWAAR50bYgDNGLur337zbPvzP/2OA3hDRBm0m+fPJ8RDQO15JHfQMWdN41ILkK92EurrE1cOM5K7tnOuNGAmmtDzXPO4WM9deCA/qU1Qj2tbtXLJwUvnyaxepvdyKFUtkfBPP8uBK9I/ftDAKagT52qzYOFUUZzw3FUVJZUxFvBPKPEJxbNxBCCvlymEEeaXi7MWGMNspyXzPb7Vop3SXOl/rX5XauFS6odH5O97x+tSP5RPlMNr5MNlrRJr4OAbUD7V9clClHJW1aiczrjwGUP2Y/dr3WN3IJqkZtpBpT+sOOyYTvKcAounypvNMzK7F2lj6p9pLJNHvJGztaud9JEHjIrTNcNfgIY2w/V9/SuPuX+QTyTnXr1uvXPguSIBby50bmAAyJLNHi6fOtUeffA+d+bUwMcvWjIAfJUb+RyrIVZKKgCNBg0c6KKUgdKQaEjgGQY9fh6yXaghz+amQR2uVhmxEiYLb0uXrbRxo0fbLK15XEoB0Qm/QkwCtKV/bduxwy1rz7XdqMLilAwRDYuZhYK+YA0oaTultPTr5g6Fa3m+tdIGwvKAJaDSBseHxYUf1BZo4sIjxTuUQRxx4c5he4T+OFcLNBAcIrJnIhKrwp5O5/jxhoM9JRHKMRHzmM4BchKAp3wngD/XiD2wABV3bsc2WfrIJrmj1WXJfZaaJJHGAC24bnzW0hsl5jm0KpZVo+WiBT43KKIeXiU975kL5OKK6JqQLUdiFs5gFSLJ+11XvkIx+wX5Wis15OLiwLEDivPTPf2P2itzbYRRuem9eKJxXGy71GOiaXfJ3cEI1UOLKB0666GLF3I/EPbPRDOFTrtZflBw6pQL5EmtEi4z91nuJfHJEQ6RDYYx3Hn4/nvs7jtuqVfrJSnjYh7ReXfZvo75uvK0hTUAVPsaq94Hpw/QaJz037m0CbNx6kQdcvSqqrNCbk8d583/RJa6oy45IHcZuURYbAae398SIEfPHJfA5xrYYOIjre+wk1Rx3mJ/kieLnWhjDZQTtFz/8sn9i328IECeqdgsa87XJEZ5SoAr5HTHUYgg1Dz/CcTdWCeOACtdpc9XKrNYByU8DSCOPFpACJ6e0rVEFJkyRSOmyIo1+Dg8KEsfLbNgHqsKwunrRpbLrtr9snTGd7lWS2bfy7HjLYnpfcDwlVZyArJVICIS/QNpYxiPC/K/lO33dGCwUDUzpYrbp7KO0DZx3IpjDCAlz+uP/sLTK1cniG7oLQDymSNb7PQn37dowf9jRWPk6mDmH5tNvU0Jmi/AnbgL2rjiBSsCcOR/VCRMABw5IlPdIeJib5Fv6DvYpUWLqi1VPQ5AQPPhdHWnOtNsXhn64shp2UCjoQFarN+w2XdMqubKG/pwTrp+ffv6QIhGTCZP7EOy5D1s3b7dOcqcRy+JU4xvAHHcItCn8hkLFjwRreCADX3z3vLx09hAvmikeN7JN5qXCYM9uwQ9/sgDsia9uMxWXlX8sumBHI9/pf8mLvwJAeR+9Xqxow5eQBmnHLMiFBYYPQjUQGmwz+9zonQO3gJQiY8jTCirxmkLt+XirrO3JaJwDpzH/DkOgEos/CDOQRgQh6v3D1P34ejLVsuBk5w4nRbLTJWEpK6y5KMFVUGcw3OqF88LjeNr0sL2C6GT6neRLnixPuqyCktv+1hH3SYgYiFz8veWk08cqkE8uU0aRDqnRS+y3vyGRDGlltq32qKrvioVyLM1J5K8mvKYC8rIiV/RJsxvvzfXfYzkTjOxAIW7BFBwPYvp/o7dGhxFGzRd6Nwj5D8FMQCbMVx/zVU2RY6c8OeC8U9TGGw0ZbuTvMrlF33Tpi3eFetSYcM4CsBoTADA68qzoXmhHYRzsENaiIa+hQYGvCiyXd9Tz7xgjzx4r9cVTCowNjW02BaRjo0eoDv+e3L7Y1K5hBYffvSJ7wR1q9YxCHx5/hn6VeE/Sd+nb7/+9js+Kyu0zoAoBX/lOOZqCSBOaxrXEwu3/0xsWo6RDj9tVaXaau3ktizIJuTTsZbR7QyJSUN6QJ2fztvJWKfnaKkEXi6meIyipXt+eIsWNvcI0HUETGkFj/HH3xh/agsCV4lPMmkttp7UyjY6og7MSXqH6+Qi55gdFMRiu7FBsYycOkgjoEuJRb3nSISjvT3LjktjRhoFh7ZpYXO3fjtVH+oC8NdVp2wxqr5b5Mv/ebrimGU2vaO8drvefWrag9KzP9uaLaeCTXIKR0dHxRjmpVfftFfffMe3H8OaEQ6Fe2hdsNiHJSZuY8eOGuULg8gmWeDFuhDdWpxYwc2XyP8Je16e7zZuTdLAejLBPQEggeii8DuLmQTolHC/9WTptwEY6MNO9wnYnP0cZSpfpa0rQPfrNDC+98F8B/P2BdJ3kviFgfi3Tz0ndwqjfGG5sSAei2nqqsnFv4cHSbxc9pQV8gl5f0zAN6kJtOW94E4BvzuXa0EdcYzDQ5KoliPPsQg/f8Gnvo8sWln4bqGMJHDON8AaCXusMpDmzwqStBfz2KRAnjm13Sp3/2dxklrZAyAFxs6RqvGxpRXkBHlZvdcH7+AGkYjTEeDWzxlgotlModsdVjThLyzqIedRhKuUZO8aS3/xW+2p+TOVJZUQFz7r4PQWEJOPc9aUQL5Z7trL0SVHvTSsLqlRnIZ0ZKCf4uHI/ZxLT4VohTbpOR1SnWXYNPA+6YHLuVUPjHqQ26jZV37bbPMiSy/+taxX5ZdcOtRxXSgpN1AW7c2N41wRxGm2QaepOrLSMh/8UAOXuPPb/2t+4gtyjdnx08++ZM/IqnG7wCfhOqhP0qlnXj5d+t8PGFPdSylgkj127Ghf5Dzl/SG/ddneoEVHAL+hARHVm+++r+3TlskNghbZC4a4NwIUdQVEOvfddbtz3Pu0F2ohjRkArUIOvdi279kXXlV7irTV22R/fw0dgFhYbSz411XvprjXQ7SbNnWyTZk4QY7Y1mpXqePi0Fl8ikPStgOHDtpHny4SozHIHnv4Pgf/JE1dx5fFvPzqX/7VwZm1iKS/5z7D+0EZYPTIkkYN5rl5NPV5kwF55qR0tkslDkifyHLiMUIloBkvbAKQEB0QTRY76bwCdo9Xx3EU62WpvrdqMVKWlr2ulhOpUTXaHclNbtHVf2qpaQ9bZqv8k69jw+U3Y1x0WXfSLD465Q/Cu2iFogXeybmXlSdCce6cp/iYhNhUD6+F+i+ZgdYiO1hq6DctNfxx1W16vCCZBXGliEOJfIiLey0W4leueELyfO1l2lG3EmCIv1eviz8AqZI4IqhvEqfLzMGVEtm8a9Hee2XgJFoUJe0jcdMGFjSxxnxaFo2ARO7UEu6Dzj1mZIl95bGHpP99bcHCsT7ES59zR0rBc3CZbB/WGgI+NnC8xHZecGi5HFfsHKvIFnz6mc80viw61BVY4Fy6bLm99e4HrkfeEZuJWgJ5M9tZv2GjiwWSATQ/OfVjMwNA9oQGCBaQ6S75ATk/hjGvv/2uy+bxWIke+m0SN9RmjQhwzftogf3yn57QDvVs7Nz8Vov57YLTZpNoHGjtl7y8kD8U+i1y8n9/5jk9nrEH7rnTd2fKz4tr2sy7fvf9D+2d9+e5Dj70LDRzAsRZDL1i+lRt7H1LwTSFyrjQcU2HCJXSUBFHLpTRT1xoTgCjzvS0pMvFHKff8/tCyqibQHuCzNcFkr1ny5GUuPDiZCEhQTYdAbLusork13WkZTr1kYhDanva6DgjcUu6bEtW3CIg9rz1B3DMBufA/TwpnXv6eRL9yUZnWKlEPq8mRTL3j3pIxNNrqsD0Dov6zNCbpq0FAs8PFccefdeKevXXlnQvSbb/WZwwKZIrLy+OrnGejfKD0rNGkKnYJ65cuoy9h19QIN+6fYctW74q3gBB7evQQX7bs/WE26HTs3nwJnF63bp2kfXnUXXmyP2NH5YfFnRvMahhoSmxCHUNC4HKUPmIxgoO+Tgb4wKQXbt2lvbHkNwWN/s5i12AI/XL58igAR84Fp9s0Mt6wES1BXDlhWIFCvjvP3DIDosGbACxZOlygflK1/qpe22AzqGdhLTegIpdbUAOgZCTXzZ5snZ0KhWwHKsx4HKfQD2pPwPyp58tdq+BaCGhgYQhFhw3sl4GZwbfA4cO2UH9cCHw3tz5rrGBA7V8GsS5N9/f3tJaQbQEx81M54ispIsF3LmfFnJ0FiSxNH5Zm1Sz0w8L7D2793ARH+94v/Y7hZtnBrrki+X2mdYU2A/0lGZaheTv0AiaTtZsYMqkCTVmAs1HjbjkpgPyVEcBnsA0l5oq4wwnDocbd1Q6K0Y2ACr/4smqjil9DB2nyBuhgLyTAMtVPhISJRknx2x8l54WTX7EigaKOz683dKbXrDM2n9W55P8W6IdpCxw1r646OeUC3sNyFMy50IqwEov18U8XHKeau9RUZdhlhr2Del5f0kDRn+laUDQC7ch8ssuvzJ24qg2oJBsnwGBR704yqZQLvPO9fERR6iud5FY+g7KKytG8psX4E+p/IKwlRjWmHAfCYhTFJ2YzszGt0/89mnt+tPTLdtwT7tz924HCNKkJFbjQ4lbF7eZc/Ljw8O96iMP3OciATjELz/2oAPnBWjOOWXpA4wWawsBORkC5hUnKmzex5/Y3Pkf24P33OUbY/DWpsrxF6pvK8XN4u52zfr1dlim3h07sMYQy29rrZReOfRGjx0QqisweCJeOSY3Ce9/iPvlmNqJaCF5lmuAGjcJaLJsFhf7gThuxEK8t4my4nUYriMAABqySURBVAUY4TJXSlTB+2mvWUPCsSf5Jvm1hCN9DBXWh+67R4vsJ+3dD+bFhOObzQbqnYiclq9cZYsWf+5qgrR3yqRJ/i5wQUteMB6btQ1hBzEZvPNCIE5+pMVu4FH13TGjRiZFtYhjkwF51K6/xAfiWHM+31jTFU6b/0IxgNUBVJyCiO7iC+9/dHCxnelDUsF73ioXvm5FvR+Rw6s/kDvbWfUTCs64zyi5v5X2SDdx51oxrFz7C+ad8YYW0h5x0YrnRA3iZmdcIwVA577+O0hK113TWwA06ixf6oPvEIhLBbCPBooOjVBlOi1r0aUvWNVn2lhj5yc+Q8jpZ2cAWqVX08yrka1LNR2VAFFsB+mXD55CJXVx4QLy17Fj1EklqYp1lWuWBTDQ2eFw4PQ8KK5KwNBFHPqZ2nGmtsQJqs8ZIOBiX33jLQcrFoz44B647y7fai77QLMeWEx8RPt+bhToMUD1UP3ygwOk2sIH/qEAPdFgef5lqd2qfQx4aD9wZOExWcAkPfehYX5AFAIdX3vjHdfsuev2W/KTVF8jOkCNExBaJ1HMrj17/F5Sj+qE2RPq64OswMgHKNWdN7RD7du1d6/3+WLpRfM8aVt6oI633nSDHRBXnbS/toVH2ov+Pc9slg+dHVrIp4W8GwL90d+R7tfWdgZXZl4M2jAe5+ty2Qtuwj9NBuRWrJXhTlPlglZGNlULhQJwunHwTxotFA/xERiPgT0b7QdxITKXj0TfdOW/K59ycXbq8KhydNDCZxdx6bUFDHkI/SZKdv4tKx42XYuiS+VhcaGl90glUJx3hHhSXFEMLwwqALbqoxcYi1GURpooUQ8B+ICZEp9cJVHKZVL9GyEglvpjQ8JO5NlzBd6iwV4ZIe2Sz5YTahDGP4QE2/LOEzB3Tpw0JNeAAoinBo20ohH6qFXPCx3ayQACkQgaAXz4FCnsqRHo7HwEgFISiEtEKUlc3Ijk6kzdea5U02G4Qqb5yOOZ3rLr+fRpGqyaObDby8wrpmkn9uud490mcRMiEeiRG2gzP/ZtRLeckOzRCfddDZx6DkpB026SOSPTPXDw4FmATnpAZfmq1ZJPrzF07utzyIT7X1TykMEvWvK5i0dq8ydPXQnJkXPeIwM2d+LBhW9B7iMkdql3BkEGzRxuEZijSPFPTzxpGzRThMb5vn2S90RV2UaP2RTvI+mv3M9/t6QlnpkM7xbV2fs1A3rwvrtbHIhT16YDcnLrMEay5K85WGUqFoHGAkrFu3yDk+RjVqfXJTHxX665px/fihigzClx5wdeUJTENSJk1OMyaYh8WYBY24p/Ni8Ad+BUaZRoUBl+j6XXS9TCAlP5dotOKk+0XDDeSYIq6PWAQeo8SAPBrZYacrcWNOdI3W9gkqruI4PWKakzHtwoLvz30qb5tQaPXT5wIE5xEI8bW3c+1XeVGC5ctIh6DLCiy75mqfH3Vd+9kCcd2neQd71ekmcPdhniafmKSQApt9xCHZ/7ueCemz4XPDiHC2cqiyz4c8knY6+JaWlWaAenGuqgublcvHMcYt19x62q32l76bU35Iq21M+Rqea3vdBUPKmpg6IWe3n9iDDw9z5CYgE0WHD1y/2ENsnxiLwlIq994+337Lqrr/L3kdxL8uXIs+jkf+nRB5Wmt8rIaBF2ka9hkB5gLvRcbh7+brMR5JfMFthpB5DHmKu+PHLzu5jn1BeHZI8+fL/PTOZ++LFt2LTZvU1SZxQOEPHlBmgSD1i5sWfOyVP/nZbMjpihDNa3cP9dd9h9d9/ui8VnUrecs6L/qdBU1YlS4lq6Sj+Q3XJOytCmcmcWu+G/1amgUFa0okSKQ3bNPThjnZMGEQw4CyeOSf8xfJZLNHECwx1x5V1HaSitbeW/5kvzzaAHXmFFk/7IinrIGdUpjJW+UMdUVnBXJBdoYCAUde5vRWO10fHUPxOI3yDwZfEqLz/FFAzoja94xdILfqGB4ylx4Aez3D8cW7YYPejFcZ3E5ZzHN3PSamxIacOLdjP/3FKz/jB2/Vuw8KaNRJ7KQhriJRY+MTppiul2bWAAkJB/qRZNUcsbP2aM75WY/7GxMDVPRh6IcwD/XDDl4yOMGlniC1Gj5Ru9KQLyUPTkK7Vj1CZxe8iRfVEtDxzqLEtpAUPEJnfcfJP9ybf+0O4VZ7d23UZ5Jzxgx8Ud5raFvODC2YQZrnz8mNHyYNi3oAFVLk1pM9w+6nhwptAEjjM3TZ31zN5EPMGMAZe8LLoeU3759SMpnCqDyOzrr3G5ca52U23lzJfZO2IQ6Ei9cuvGDAB978nSxuHXEKvf5HnaebV8ygwaMMDrC5gnA1KSprY65cfnpme9ABuIxx9+wC04G+uSIT/vC3ndtBx5tqZFfR4SkA2SdeezbuWZOS3Ffd94mAR8dAJxAXj8AcbTupgvRhwDsAN5SidO17eu4pHjElls/YGld/9KW6LNkWriwxJ9SOxRZ8giJmkGS0zSfaAVT3xUm0bMlTHRrhise5RIA2aY7g3XQuZoDRRDSK1AHfIDFcnGq022Wx4TN75nmV3zNHuQx8Sj+zSTkNlpksw3xmCQ0mP60dJ4MCtwThKcfmkQS/UarYXVay0ad7NFo+bEmiq6f7ECOrKYHrPghl9ujGTenTvPN0gAZAClhAy0i48fsMLj3uiSEue0EREQAGQ0WNh1HrNnuPDcjyVpU7FEEWiCYEn67W98zT/q5B5HyjimTZxZiMW/dy4XTFn0JUAskXvmPns+5+y084dffUzy6Dm25PNl9v68j7TIucC5c9pb081p7NYUmrCZdJXAaYD8rF91xXS7UYAHd43GAyKLe++8VVok22zthg2xjrOADfBBNFMpkKTc2ddfaxPGjyuoXleoTTNnTHPXAY/Lv/tHCxZpEfBDacus8K37WICmXjUDG2OoPNEW8cxwWYsCzlfOuNzr95d//b9t6fIVBctHnFQmVVUAODuO1sy6wBXaPGg5saDOYm38nccJucd7RTQSG2MVyKCeqBlXXOYD76MP3Wsff7JI72q+9Pa/EKOgvVwlMvQBKZ8G+pxjulfpKA5fC/HDZZGMJtX1186Sr/mJrolUyCd9PdW5qLcvCJAjL0/1vEMfuzi79j3l+VCy6pM7pUK3Rl+kPnDHQrjvrFiDCNDuLCITrw4Ic14lLZSyZWIFRPijmyw6Iac55QLnrtqkuLO49I71LES27yyGfoJAcUKcHiBvJ9XGbgLwHkPziE5FvJJ58dm40h3SX59raTm7cj32Upn7Z0UhmsupsvySR3mm+iKJzB6z97QvKX7GIlmsRcNvsKLB11s0+kadaxZR7TSrtjrlZXmelwAiHR5tknvvuk0bREikIGBhceeoPjRqwYdI5yfgxREOHq4acPXFS4F1ch+gKzt21DnMLwQq+8RZA8r5YM4AsVe651jVffnxh84Ccnx9o//MjuX5ut1JWVMlx8RfdVMFaAHAsQDMD00F6DB8+BAXOx0TkAFmMZBBtyK5tO3u4M4Axi7sbJgxVapqV8+aIUCQJbAC9Z0pcH9cIgFEOOjcs17Aghw7DcEJXjHtMrtbi50ASkMDnDS/cWNHa4OLQQ7KE0SvrdvkDVB5MoAkgbYhwurZk/rKZ3zHDjK0kZ65wHzixHGuqvegFqDxVVJoh3jcM4wUTXAalWuQk+Rf6IjbYu8/0uLh/ef2Afa/HCjVyMmiFbPCcwmogGLFyg+bBWZU40UL3hEqiuXS6c8XtQDe0L1bty4+KI2SuwlUY2Fmrr/2qhp1iWnGN9vyghjEuBteyKplcGW7X2b7+/5W+0pI3GLtJaaWpSTqhbxZTCU5RyTDOWDvMnPdAzCIAzeoqp+TVhE6pPppw+IR3xPo3SVUYVxS/IVQ0WPTCXV4085BmeXPWtUXP7P0gU2xNgqgTzvUKSytha0EyFlI5Zx4T6BDEogiAPwYFEnLJTXty1Z82/+SnH5kfK8F/gWEUdvy7cZUdQCLaThAXl/4/t/8nb3yxtvuw6JQejQDBgjsnn3yn91qrr78mvM+pvYrV6NiuFXvO54RsL4wedI4F410ETiMlVikvsAeqM+88Iod16bKgwfL3YE0huBy0fOGmz/fwOeNlS6iKWZDSWAw4d1NnKCtyrS4i5c/3uOlGDZu2qx3pX1od+3xNqvbVgcG0EESn40eNUKzuUrf6arQxs7VD7TQk4sC5JKPiGMtFaAdlrx7sQDwRS0MPkm0QFdkdeAD9HSt80gcahwnnl3A6AnVIZGj+zlJAUcHQ2kH9LzRikb+Z+Wv5yUqifqKk23qsGGuVa15Qr7L30dAqM0nZKCjF++TCcpCjOIDkc4ZcKiL2uLjJNe0sTrE9/HemNK2VcWXfdOiy+6R+Ec69Bg3oU7ZggMyappE4PXVp1kRp9Qyh6bPP/r5P9iPfvb3rjeey5GRxoFcHO+zv235QA4QwpW6vneWGMxO4Cbh+pjVFBqsElrkHpMZDnJmxDVkVy0KyE14judlEmectWhJIaonnHgiS2+InPscq9CsjwHWvCtmlvl9ju8TWjPIQRJmYPlpmrXyDSy8fjaqgRnVmYwFxXY4fNJiZZ9hAqpuUmgpk6vXtyVTBs2yqOCLnck5wKefi1yQpiVASBy3BOoguRai0kekIbP5lzo/oW3dZNLfTpotPUbq/nkGdu0p3SoVQu00tE4+1bdp8wlNC13Xh+Jd7qg6JFXWCfX0SxeM60q9I76tv4C7ZhHUP4UsfqT03kfeIN/oD7eInYEKUQsQQHZNh0e8gOZFQ4E7yY9n+TgAOThN9rKEJrzG3OBvWen419IDQM2UnN/5BkQwFzIgrmnLgQG1a9eLA3XNReeL3zppnKR63yJNkZSldZ45+rGkKuJwT8Gxg3Jwo3zI8cfsRkOAtqMhf2IAd//i4tAzgKn0zTP73xCHrCwqtgnj1XGH3yn1wRGSskgOXtyIj41huUqDy4lSLWCusczm9y296Q3NIKQXLiCOOuM5USdw2KT1oHMBd1ynuN5xvO4DTEk6VCM7yRCj2xCpON5sqSnynTL6aqk99szm07IOyA9ZLHtZC5BwoHfcMsduuUmznxxZa0NqnMvhsCkzIJhLpSQPhjxmWsnQl8SHY6BAoEDdFLj4QE59JBOO+t5kRf1uknrhehntPG9VuyU/P31I97QQ5nXWXxdNAOIAPNCePQc/q0UVgKXi8U0udjdzQh4Y1/9AZvp/ban+91jR6D+xCGOahoYKiX92aIPctS9IF/xtactIpo8YB7m7658nq5ouO1GulJvUlYplQ7aOLlqJJTAawKZZarLAe/Lt0rrRwqub3KvuLTR8IL3cp5970d6RxgpAjvYJ4fZb5/ixsX/eemeuLZbmB1PZQgEQR0MmHrQLpQhxgQKBAoUoUPiLKpSySeMEfPJjQoi6Tda5duOQM6pU2Rfyv71AnLC4a+TkErmIoVUAwDkquEhFR7hcuGBucEoU99g0uZKfIva/o8VV6Z9v+41F/W62aOBsaYaU6EYtYdfnlt7wpKwy50nss0ty8B0xF07mXq5ONIB4lbxkL1U348rFQhX+ZuMl9rFyPTpkqHb7+ROZ+8tatL8AvNcQzRK0wNlCA/rDixYvtd8987x9smixy7YZkHCmxOo/xizXXDXTjYaQvQ7RIh2+L1g8yw2Yj6OquEsm0fMXLLQP5Jdk7fqNAvKz5ZCoDZLH7OuuKaglkZtvOA8UCBSoSYFmAvKkEgCggFFuat1VbY/bLN1RYox2cuZevlkqi/sl4tiexUmqGqf3o2MlXDEhhtbqc3HnvkvQKXHXewTKp+dZtH+FpU5K7amdHF+RXmW40Y84zcwxlbV3idlWcZ6bfieZu1QbwVnXKGFw0HkiHokL8b9ZuM6JUf1IxyAi8UPUd6SsUbtZaqK2bbv6P0rUU4+KZE5OzXnKKv9Tz77gqoAYBOEJEPEIzqDw6TFXutQ4hBo9ssQX0UZIVXHUqBI3yEB/msWzo3LmhBEN8knM8OfO+1i65Luc487VnkjaiQUlBkFTJ0+sofKV3A/HQIFAgdop0MxAngvAqqT0ulODtfCnX+bwUqva8Rtxx3J+hY9zfKU4Zy6UrBa5CGERsfhPgJusJCI7RyUGLlqAHBUJrA8vkdVlhWTz4hrh2GXxGQ27UQZLWyz92V9aevWTvojpeC011liFUKDscntx2YnGjA8mlMWgwo82xO1wh2CcqmwMjIpn/JlFM76shdeBimwdAZ1mdLnxYY2xCCBOgCNHX7hrsQZA6eviKW/F6jUNbhQDAc/Lk0vBZ9iaDL1mHE2psIJpQmSgQKBAYQo0M5AXrhSxUc/pEnuLs9ZHnd79hDh0yWeLJD8Vt4eoxZ1dCRR8YcxFLAJr//71R14NfeFRd32TZ9RMilAZ3GxV634kvD8hDl1ijp0S4+zVdmoHFsdYzKMOypQBeJ8BlDg/xTN21ABwpUGGL0MlQgoR0SiJcMbcLN32a1oViFP/3zz5tD3xpNwMqO11LWoiM0/ow9Gt8XLo5ZSM5WLOzZNX7qInZXHt/jwE3uw49MC9d8k1623VLlRJE0KgQKBA/RRosUAOnkY9BIpD/0CaItoHs3RxLAIpE+jCtTkTnFQ/AdzsEQ7dwTbnL8ZCAvB02QYH40jb0UWH1mr3ntV+LbPEOLEAKj7xAvIomJSjaEBK8mEXo3SUWmXfETJOmmjRIKkTAuADJQtvJy0VDzxXKL/s7RZ0AKAxjEDnG5k38ux82TfVRfPkfALlYI6N+1Dcgz50/z3yfjjb+soJUgiBAoECjaOAGN4abFTjnr6YqSXfTm9/Rr+/E3e+XliLiEROsBx44dzhlgXCjsMSraBpQtAhIh5wT3yfEI8us6KdAycpZMje9zEgEdcoH1cfdGMfpVE6N/whf2YMHbQ5dL/Zlhqn/TvH36KtW7SQ2YoDi5xsuvzmu+/Ji94J9/txxpBC7T3P8SjpbiyCQnbM3h978H75I7/TddRbMelC1QMFmo0CrQfIAVrpi0tRXDrdknfveFag/g+uO47YFa+JGeTfDuwAus71DCKYTBpuG7U2gFiAD4KDIgJn9Nk5d4Bx8OZZ3UPO7oMBecB9E8lgoGOlwFxVSY2YZkWz/1+pEk6V3LivxDcSyLdwq8z6ehqWivjlwIHRW2/Ptedfec0+/nShL0CycMlC5rly43Dh7CGJE6MxI0u0McCNdpM2b8bbHZ77QggUCBQ4Nwq0HiDPbV+VTMRLl8nKUps2HNbxoFzdajHTwRkRCgDsoMxRD1Zz07oEjwmAPOcO5ErkoA1QC6RzAR+wJxtUCSUHj9prB5XBN0mV8TKJUGZbVHKrtF8aYXBE2a0koDa4eu16/db5vpPbd+xyN7IsiOJzBX/PyL5xjJXLqQPYGBMl0iTfbEFt7t+3r7z5jfXNI9gFHQDHOVdjLUVbCflCNQMFLhoFWiGQg8xn5veZYzstveVJy2yWyAW9bzHe3AeLPZ0APV+0Ug3yAhvntgEd0nNwEFf+DARw3/oP4GdkLRrJMhM/Lqkpfyqz+vtbtC44rW/K8P4HH2kfyjW+ge/GLVscyAFsdM7ZjNnBGrKJhvjvYOMIaMk/gB4PeiXDhrlr0Buvu9o3wG3K+oW8AgXaMgVaIZAXeF3luy2zSTvzbPqhTP63SsShNAIUB2kBsotIHKgRo4A2iFuQqUtM4FvUZ4HfxS8AOOkQrWhUkEiFDTOiXjJNH3e/tFFu0T6iYyVCEeffhgJAnXj5Q0OFjXsPHT7kHgBXrV7vohgWRfGjMmrkcPeLjbMifrhvxbUqWir83EQ/l4VvQ3QMTQ0UuBAUuDSAHDYQMK/YJMtQWYfu+kA66L+PRSHgrbA5lo0D6gC80vM/55zrRCSTkQwcbZSoizRRBl4jEcp1ci07Q2A+KpaFt3I5eFN2pHJtMHDkyFHX/wak4cLhvjt36ihyih/XbAcOvaGeAJuybiGvQIG2QoFLAMhBYJA6G8QBZna+J98tz0mGLtVCNpA4GqsckkIT/SyQAzKAOty3bjj3rdPTOu/YSZsvXyttlBtkXq8NHobMUFx3Hg8hUCBQIFCgxVHgEgDy2mmaOSyHXOt/a1Ubfy7u/JASZrVakH0TBOJRVdYKFJELdvnaRDkadpsVXfdj+WeRLngQAcS0Cn8DBQIFWiwFLmkgZ+Utc0zbsu1dICdYWyy970P5FH8l5sBd3CKclggF97fWWRsCjPyWpUbfZTZgujZ4GBCrE7bYVxcqFigQKBAoEFPg0l6xEzcddRsmlUE5q+onf+c9x8l1rJz4H98vmfoe+UDXDuH9pgnNRQYBd2rUVyVGmaXr0D0CBQIFAgVaDwUubY48/z1IKwUnWVHpRvlXWSHf5YcsGvuowL2XHGtJrNJ9cP4T4TpQIFAgUKDFU6BtATmvwzcukFohmymz2lksV4cuB0dGroXPEAIFAgUCBVoZBdoekLeyFxSqGygQKBAoUB8FAgtaH4XC/UCBQIFAgRZOgQDkLfwFheoFCgQKBArUR4EA5PVRKNwPFAgUCBRo4RQIQN7CX1CoXqBAoECgQH0UCEBeH4XC/UCBQIFAgRZOgQDkLfwFheoFCgQKBArUR4EA5PVRKNwPFAgUCBRo4RQIQN7CX1CoXqBAoECgQH0UCEBeH4XC/UCBQIFAgRZOgQDkLfwFheoFCgQKBArUR4EA5PVRKNwPFAgUCBRo4RQIQN7CX1CoXqBAoECgQH0UCEBeH4XC/UCBQIFAgRZOgQDkLfwFheoFCgQKBArUR4EA5PVRKNwPFAgUCBRo4RQIQN7CX1CoXqBAoECgQH0UCEBeH4XC/UCBQIFAgRZOgQDkLfwFheoFCgQKBArUR4EA5PVRKNwPFAgUCBRo4RQIQN7CX1CoXqBAoECgQH0UCEBeH4XC/UCBQIFAgRZOgQDkLfwFheoFCgQKBArUR4EA5PVRKNwPFAgUCBRo4RQIQN7CX1CoXqBAoECgQH0UCEBeH4XC/UCBQIFAgRZOgQDkLfwFheoFCgQKBArUR4EA5PVRKNwPFAgUCBRo4RQIQN7CX1CoXqBAoECgQH0UCEBeH4XC/UCBQIFAgRZOgQDkLfwFheoFCgQKBArUR4EA5PVRKNwPFAgUCBRo4RQIQN7CX1CoXqBAoECgQH0U+P8BcXKlX1OEw78AAAAASUVORK5CYII=;" vertex="1" parent="Jn1EYD1DzJk262iB9yRI-4">
          <mxGeometry x="570" y="110" width="118.92" height="45" as="geometry" />
        </mxCell>
        <mxCell id="Jn1EYD1DzJk262iB9yRI-8" value="" style="shape=image;verticalLabelPosition=bottom;labelBackgroundColor=default;verticalAlign=top;aspect=fixed;imageAspect=0;image=data:image/png,iVBORw0KGgoAAAANSUhEUgAAAI8AAAA2CAYAAAD+psouAAAAAXNSR0IArs4c6QAAAERlWElmTU0AKgAAAAgAAYdpAAQAAAABAAAAGgAAAAAAA6ABAAMAAAABAAEAAKACAAQAAAABAAAAj6ADAAQAAAABAAAANgAAAAARi8oWAAAUJ0lEQVR4Ae2cCXwV1fXHZ+aFVRRRxGJFJQm4oFarokVJyF/Uv7a2/l2oVUlErbZaseKOiKAFFaW4tChuECKuxaVVWi00C7iL/1pFtrCoKCoioLIm702/v5eZeDOZeS8JWUBzPp9f7rnnLnPnzrnnnHtnXiyrlb4LM9Cfm/grWAVcA0/Aiw4G74L1YDKIAZ9yYT4GS4HqtdL3aAYKuNc4MJXG58u9eSgKlB/tyZVMN8ruMeRp2Yy0Nb57FbK4pd7gn6ByO7+9XRn/ROB49/EvUlmbNUAK9CoQvV+VJP9u4O9yI9/B4NsbfCsbmIFu5GW6NbF3Bcq2x+z53r3ofr4CO0TchJTrNHA5OCBQZwZ531I9EChLmf2+WZ79mI2O3owclnJmto/CQ4xhvgevhRFGCYRyT41Kvrlr1E4t17WzHyneM+vh0h6N2/FW9yYz/10i836+bO4ba3TlyZpadmb21LLlVtz5yI5ZH2YVln6SNaX0wua+sYjrdYmQb6/itsbAvzH4ZmEbVXmyp5acbLvuNEa+lz9627K627Y1Kauw7He+rAXTXVrw2k19ae24mpUaT3lGufRlj2H0oX3alntjs97ZtxcrhPUDwtu/FVvarvpypV+Dfl65YsFnwWbwR0+m5MfgabAOqOxs4JOs2tVAO5yVQDu5z8E88Cj4FWgHTDqQzN1gPvADeZ3VaCd4EQjufg5CJgvjj/s0eJ/OgvHlW+DP8wtIdwRzwCYwDDSU5CYngqvUQaMEzFlTX+5mu7PvYOi6uSjqqFjIsm3dYHOSlEIBY6hSGwPRxG708gpEf+Hxvye9AZwAHgdtgE9nwMjSSun+AroDk3YjI2iHI+VZAArAm2AsuBIEn0FXZAM9XEN6ElA7UQVYD6J2VaojUr21Sa7qz/EkR3v54aTmgvDEaZN9qPF3oE2H6PXgwKvEdfybffeMdnbnTkNdq/J6mnRO02xKCyiOhiR36bvM8fD+ynsZ/hgQRubDwfMm68l6SHGk/B8BWYj7gOhMIMWR65gD/g02AVEmGACkRJr4f4AXwDlA9B6QAqo/KfjJ4GdA1+0JysCh4GOwAOwOfJLC+tZH4zvbLwik5v2Y5zqBapHZgymR4uzh1fiMdHGDlafX1NJTMSTjXMvNSk6n12tI4jINRdba9f5DC6myzYu0WqU0WiQPAD1ok0aSmQVeAcEy1WsLrgOjgNybrzh3wV8BzHhF/Z8CpgMpk5RuFPg1aAnK5aLPgp29iy8kPRGsrLfyZBeWHooF+aPrugOq5tPr0k9c622c0zi8U8JyHdeJ228vOq//Ur94O037Mu7jwJyI8a9F/lxEmcRbwGjwEyD3J5JF0YKSSw2SHtZT4JdegaxLSyiPrjsN+LHay/By56tBLX8rWSjtX1TWvSLu3kzhEGIXrYgaxLJciZ0dUb48Z4o1yg6bkBr1lZHbs3bqdDHr6+f0+b4VS9xSfk7eiloVW15wD0OIUpz6jE4K4yvPOPhU87TY6DhdSGBUbTT2YnrSffvPWpZQFtN3x+mVp8+T89pu2fjFbysS7k24n51oHKQtWJr7bKfdDeXnHPVVsDA0r0PEotLTceu3ojSZntsbwNnQuVi2e2KVsTELzz/m69C2LSOUFWgM8uMNual/pelwb6N8jcE3NatY6yYwwriQ3GstK5nSbencZvOmL+6kYabRkcG6z8dse+jC/NxlhjAl22vq7CPdqWXjUZyjQyp2RHZNPCM+mIPF0UuW5zxYVysW0ldjij6sQ2c9qJMDugHtmGJAC+BzICsi7AlEihs2JrnwP5rv04yiWQbflKz04QGgd2YiWcYrwQRlghSqPFlTZh9GuwlYhP7BBl5+ruO4ly8aPGB2RHktcebk0l6OY49x3QQWJ7mTqFXHEOyhg8XsnmUXOkUl9bqO0UdjsrIUUaQdiFbmqcCJqhSQa5EoCF8OPgByBdqCayclBRwKVEdUAcYluab/czaXaGNcZiR8qOKoTg3l0fsoKx4bi+LIt8l8BWmFZbvDywfnPpJu293z0Zm7Z2xps2/csTo5Cc4qbOtCAmxzYH7fmrSZAIWtXpl+2WGJhF2KK3sqI5G4ZsGQvOV+QROnhHB1IlmS18APA7U3kFcQLQuknVaQ9kEwJigMyW9GJiswN6SsKUQ6RugF/LOcy+AVvM8DtSi5UvaY9FZHHtCNxBycI7iDqRVUHE3G6I72pv3K8wcUpVKcvabN7tJrSsljsYo2K4mFSh2XMw3buoT2QcWRSXyY+KZ3eUHuKZs6tOnNta9H9g0wSWMZVOk483GjY/d9aM6OZmEL87dzfVNxCsnvC3bw5Nql7OzJjiP1lbIE/gWwCEhBTKok8y7QQV42mAaai3R+MxAs9S64G+k/Ac+mNmUkYxB3vQ6btIqCxM3yrirmXlfXXVDbysRjrm37O4pgf37+pbhlX7WsIOc/vmDFoH6KAcayq5uc3NXZ7OpquoH2lmtfRzw0BCW6ECX+m9+2hVIpiFywT4/BnOtnjHQdvKDF4i/Ku+GfASIt4M5JruqPFmpQoYziJmc/5gpSoDIgnegOZoJcsAxUUwYxSBG5MMX5xLHs/1tUkPtGde00TGbhbDQ0kUpxPsdq5Zfn57wY1dX8wTkrKbsAS/hn0sdBUOt/gBJNYxfYdd6gPjo/aSi1b2hDr10fUtPtP5Wmv4OM8s8NXkq1xshvC6yURApUChSH9QCzQA5YAZIkrfcDM09UnWyoyKiQGWtEsp9LpTjmhSoTCd3AKlNm8B0rv17TzsjXlTVd4ta6v6AbTmctfmkMUq5sW6eFDPB48KU30J6kUqAfeHmLI2Bb731kKoOUHavMWIAFuCX7kdfCzneC9a2lBf0XYVkUdIXRZo53JoUVmLLDJr3VhphpaIbjlCM/2izzeBdXOrKB50AfGf1pl5SM+QxZfdj5VI4bDY4w+CDbF4Hp4nRmElS+YJttIa+w4n/BV95g5AXkwhQLWc6SwTnPcrK7L+5Y7ksm1CSZ9mut+ObFvQpLLxpQXGyaabNeNV8Zj/8Kz64gj4dcTcsStnXqknP7p9w16H3Zuvbr5xEzaeu7a3Xrb5myRMI9srxgwNhvRfXi5Mf9cXWCP6NerWtW1op8whBdB38u8OMav0jmX/FZDFR6wv8hnQOkUOZ9akzHgnuBxpoJWpreZAA/A76Bkbt+CXSpcaOZU4sPxxSNp0C+LYTceW7CvXLJkLwo61LdJvvhst1sx92ftb3qhz0Si0vy8vyJq67jM70Ly/ryRMfzkvUYX2amyBdajnNtUtHNgobxClRP8ZpqsbwH/BjkVfiRQPcvf+9TV5jVfsZId4HXQ9aE+rQMRv0oHjsU/AiIZKkGgekgGMdtQia3ZwbOZHltU6V44sPoLwhP8woeJT07rBKyfFDolUkJdvB4JTPAiV7+QdJfe3wwOQ6BFoEfLrxQQ3n82r0LiwcmXOcu1tABvsxMeU0+M+bYVy4a3P8dU15fXt84OxnWCNe1LqCtE9Jeq3uctW79neVDT9LkNgZ1oRNZDE1GkKRMWv0yy0uALO2nQNtxlYXRjghvBbqHtiEVNO7JQJZpLVC8czPQA40KBz6hbDjwHzhsKN2B9AqvZDTpKI8PJv0QvOwJ3yI1Xays3G+8sqtJb/f4sETKLIVtA94MVR610jutzRtWX8KhoAalCQpSnFPghyozKkYuO2tgvQLrfSYX74zyDefLsEvpVK4xSHHio/Hu5s1jl1503LpgYSPlFU8NAFIMuRTRbPBIkqv6CCsXfhqQ709HUoqB4CCgTYgsz79BCVgFgtQBgcawH9jTK9S96iG/AWSN0pGUT3MoBf0z2Aii6CwKDgT3g+XAJ437MqBrTwQadyrKo/B4cH+k8vits6eWPkKUcLafD0m/Joy4dVOHthO8s5qQKlUiBcNr23/zG5RmJBK5gigqb9eha5+t3IpH9d0qb6QZiFSenoVlB7McR6AYdQ0qV+B+bo56mZl0hZZ9J/GkGR+kuA37A74ZGruk42cPWYMGmbuaFG1ai5pzBmopT9bU4gMJmm8igD2FgdQqr8Pg3kjYiSuW5ufNUd3MySVH2LY9HhfXP0Vbmegw96UB/Me13RHbwIlyiuF/P4uqlSN7yqwsy46NQl/kG8OC1wRP8rFE3LotZiViruNQt/ojcdgAubwTcew43+ucQEn1dWrWcudZtnOFDg6zp5QeT60xlB9es0517hXOkIZTt7Ra0sq06AzY+xXO3LXCajOGp3seI1EUHUbPJRLWDUuH5L5rFmYVluQRv4xHdqgprwO/mh3bqB57xe+rsYUnSu5VOPtULI12I/tH9PNizIldtnDwMQsjylvFzTQDNifIOrORdQijMtt2rl6c3//1sMKkjN9r8d3Nubi5P6CA3SPrVRVU8vute9tWtB0174J+2oaH05NPxnpt6JbPYeGtVOgWrMS1li/Jz8nEEsG2UkvNgJRHB2Q616hFrp04aEl+ng7R0lKfJ4s7bdpoX40l0rmDtqpBetGK2cPKz8l5P1gQlU+x03OtWLud6/zZa9QFWuVbNQNSnnvo4XcRvazBmozeadMOE+dedHhFRJ0a4qoPyuxbCHO0vae5tci2nCsWF/R/vkbFFJlek4sPcWMxvmR0B4RWs63p5fm5p4eWtQqbbQbwIq7NPyfI5ymP5ap7RFx5Ae+m2EHlzogoryXuOW3W3rEtTvfOW3acW1fF09eHsYqMP6Bzir/CgvZV7NxGLm7/6QMN3L7rQEyHYBu8Aet1QKbHLyVNdSCptlpA6736OlhUWx3QfejJzET1Va5jBvXNeVgodUW6GqRzwV2oo3HrenuBj0C6NlRJvjv7hlTtGpVkGZKkrwk7tl+v00rOdpJH9FUFxl8qz4onrMuDgbNRpUGsDg+/ar/+Yr48HM10BN/vqM8Kyu6NxxM3Lh+St7ZBF6lqNIlkGdA7nLvAqUBuW7Q7eBpcDVaAIKm+4rS7gWIxWdY14HFwFfBJCjMOnAxWAgcoLHgKqF7wNP5ZZFK+oSCK1P41cC1QP/OAntMzIB2VUUFjn56uYn3LdWNJ+uSiwzfwOehtvGFnl5N8w15LqxEc6zjW27z9nqTfp/tttybVLzTWtd8wn77vDFMcvUcjVjpkSX7uZVupOBqmdpOyCJrQT4FW8N4exMsC6CH1AkFSW1mJUiCl0FF/DyCF8EmyV4Esjaz4PkD9ZgFZLfWtvElSmjPAJabQ4NvBS6nnAl8BHoYfBtLREVTYF7yQrmJDyqstT7CxDvf4tcOdyPsFy7y8Vt1tvEaY0JDXCMRah9J+Asj1+gsm891EYlhd3uAHG6bIa9Jlbe4HsjBhpHv+MdC40Olqmgg3BGj1ayUHSW5Mu1I9qBuDhV5e190TnBQo70t+JpASvWiU6fkUgt4gD/jvrnaCl7U6DrwJougxCuaDm6IqbI1cg4sm4qHkj/Nc53bmce+IinwAljwBljlNS70fLe4ar3RuYJOtlaYJD9JqBnXz4g6f/amBcU2wPzMv5VGg3R2sNwsMfkf4j8GJ4GVDLuU5AewHZEWCpAdZBGRZtgQLvfwupHKJUpb3PJmfaFwPgGPAPE94PekF4CgQdHc8k+RL3bNIw0jj0LlcNlgVVmFrZamVx+u9LvGQ3Avf+gyLiof8X56ylLUKtHKClIxr3I1bRjbhm3Qpj1zPz4MXD+TlHsrBNYZcyiPFGmzITFa7Vh1RnG8KQ/gZyOYAbVCCJKt2ITgSDACK0aRM74Mg7YlgIZAyfxQsJC/l6gR+G1LWKCKnLr348ZBjVTLQ8HiIbdtAPx7Sh2Bmv4pr+OVpVVwTqjju85Zbub/imiZUHH9Ii3wmRbqAssyQclmNKOpJgdqlI9VR3TC6FWEJeAk8CAaBMMVBnLRgUvJLlQmQlPw8oLCgySijPj0vKjhW5jw/q6j0Pv6VgQbWN9CeX2OwcmLu6fxc+Ba21Ytxd5cTOeQG6lVl+Y8avP8axplNaWh50wg31KHbb6gjFxMkDGckKRCPcoVmI/UtlxJFt1EghXkFzIqq5MnHkxaDm4D69UmKMxvUZaH4beqdOvVuQYMlg3Nf4QXlUcQ6g7BEH4T0sQtv0TGb7rOUhSnOF7Zl/b6842d9W+BFZ5jLDN6CVu4XQWGa/GrK69J35xR9SwGfAX8Cu4Iw14a4mt6BewsMqZZUxZGXkb/DkDUJ2yDlSY6E90p8JvHUhk0dDyAvX21qftRg9R817ubVQtbigty7miAgjrquKe9jZiJ41cFq1ou0yjUX6Uh9K1YJUhsE04GC5cvBT4EsSLoYStZHyhIDolPA50BxVZNSw5XHG5YZD2Ft7kecCB+x+7wTd5JxTQu/k8phfN3Cx5iUyl1p5yQLUB96msp64Aqao2h3CvoDWeQgKTiWxSsAmsNlQIowAQwEUaT4SK7Y3wQMg5dCbX+k8yHOcOYA18NbvYtKNGHbAj3MILSL0vkHnrMWSVYE/lqrpOr73nRu5B+0CzsDUndaqE+AKSBI2pJ/CLoHC8ifCdaAVFZNClcGtEtbCnwrBLu9kc6HJhcflV1Y8hMr+S92t5kbkPKMAn8HfwOa7LYexEtpdDYS9hAnIk+nPNo+zwfTwCFArqgd6AdmgNdBF2CSlGMdONgUBvgR5GWJdg/I/azuYQX4fzDUF7amjTsDUp4bgSZbqSbc9fAJqZSjMwgjbaOHhxUEZFIO7Zg+A37fsiq6XphLm4tc7i4VySIqJFBsGUUq+xLobKeVmmAGfOUxu1acsZMpiODldsJcXUT1pFiK2FwPU3GOlL/ZKKPZrrTtXujrOg4tUcd6ZjW5o+YgKb9Ovn/UHBfzr6HV1Erb/wxczC08D1Y25620Wp7mnO2muZYC8kvBSU3TfXSv3zfl0U5KgfF3ifbgZp4E7zT3Tf0X9fWHMdMovUwAAAAASUVORK5CYII=;" vertex="1" parent="Jn1EYD1DzJk262iB9yRI-4">
          <mxGeometry x="229.99999999999997" y="290" width="143" height="54" as="geometry" />
        </mxCell>
        <mxCell id="Jn1EYD1DzJk262iB9yRI-17" value="Forward the request" style="text;html=1;strokeColor=none;fillColor=none;align=center;verticalAlign=middle;whiteSpace=wrap;rounded=0;" vertex="1" parent="Jn1EYD1DzJk262iB9yRI-4">
          <mxGeometry x="480" y="230" width="130" height="35" as="geometry" />
        </mxCell>
        <mxCell id="Jn1EYD1DzJk262iB9yRI-18" value="" style="endArrow=classic;html=1;rounded=0;entryX=0.5;entryY=1;entryDx=0;entryDy=0;" edge="1" parent="Jn1EYD1DzJk262iB9yRI-4" target="Jn1EYD1DzJk262iB9yRI-6">
          <mxGeometry width="50" height="50" relative="1" as="geometry">
            <mxPoint x="360" y="290" as="sourcePoint" />
            <mxPoint x="410" y="240" as="targetPoint" />
          </mxGeometry>
        </mxCell>
        <mxCell id="Jn1EYD1DzJk262iB9yRI-19" value="" style="endArrow=classic;html=1;rounded=0;entryX=1;entryY=0.5;entryDx=0;entryDy=0;exitX=0;exitY=0.5;exitDx=0;exitDy=0;" edge="1" parent="Jn1EYD1DzJk262iB9yRI-4" source="Jn1EYD1DzJk262iB9yRI-6" target="Jn1EYD1DzJk262iB9yRI-5">
          <mxGeometry width="50" height="50" relative="1" as="geometry">
            <mxPoint x="370" y="140" as="sourcePoint" />
            <mxPoint x="420" y="90" as="targetPoint" />
          </mxGeometry>
        </mxCell>
        <mxCell id="Jn1EYD1DzJk262iB9yRI-20" value="Process the request" style="text;html=1;strokeColor=none;fillColor=none;align=center;verticalAlign=middle;whiteSpace=wrap;rounded=0;" vertex="1" parent="Jn1EYD1DzJk262iB9yRI-4">
          <mxGeometry x="230" y="82.5" width="120" height="15" as="geometry" />
        </mxCell>
        <mxCell id="Jn1EYD1DzJk262iB9yRI-22" value="" style="endArrow=classic;html=1;rounded=0;exitX=0;exitY=0.5;exitDx=0;exitDy=0;entryX=1;entryY=0.25;entryDx=0;entryDy=0;" edge="1" parent="Jn1EYD1DzJk262iB9yRI-4" source="Jn1EYD1DzJk262iB9yRI-5" target="Jn1EYD1DzJk262iB9yRI-9">
          <mxGeometry width="50" height="50" relative="1" as="geometry">
            <mxPoint x="240" y="130" as="sourcePoint" />
            <mxPoint x="290" y="80" as="targetPoint" />
          </mxGeometry>
        </mxCell>
        <mxCell id="Jn1EYD1DzJk262iB9yRI-25" value="Forward the request" style="text;html=1;strokeColor=none;fillColor=none;align=center;verticalAlign=middle;whiteSpace=wrap;rounded=0;" vertex="1" parent="Jn1EYD1DzJk262iB9yRI-4">
          <mxGeometry x="450" y="100" width="130" height="35" as="geometry" />
        </mxCell>
        <mxCell id="Jn1EYD1DzJk262iB9yRI-26" value="" style="endArrow=classic;html=1;rounded=0;entryX=-0.087;entryY=0.579;entryDx=0;entryDy=0;entryPerimeter=0;exitX=1;exitY=0.75;exitDx=0;exitDy=0;" edge="1" parent="Jn1EYD1DzJk262iB9yRI-4" source="Jn1EYD1DzJk262iB9yRI-9" target="Jn1EYD1DzJk262iB9yRI-5">
          <mxGeometry width="50" height="50" relative="1" as="geometry">
            <mxPoint x="199.57" y="190" as="sourcePoint" />
            <mxPoint x="249.57" y="140" as="targetPoint" />
          </mxGeometry>
        </mxCell>
        <mxCell id="Jn1EYD1DzJk262iB9yRI-27" value="Make a response" style="text;html=1;strokeColor=none;fillColor=none;align=center;verticalAlign=middle;whiteSpace=wrap;rounded=0;" vertex="1" parent="Jn1EYD1DzJk262iB9yRI-4">
          <mxGeometry x="230" y="170" width="120" height="15" as="geometry" />
        </mxCell>
        <mxCell id="Jn1EYD1DzJk262iB9yRI-28" value="Forward the response" style="text;html=1;strokeColor=none;fillColor=none;align=center;verticalAlign=middle;whiteSpace=wrap;rounded=0;" vertex="1" parent="Jn1EYD1DzJk262iB9yRI-4">
          <mxGeometry x="450" y="140" width="130" height="35" as="geometry" />
        </mxCell>
        <mxCell id="Jn1EYD1DzJk262iB9yRI-29" value="" style="endArrow=classic;html=1;rounded=0;entryX=0;entryY=0.75;entryDx=0;entryDy=0;exitX=1.04;exitY=0.65;exitDx=0;exitDy=0;exitPerimeter=0;" edge="1" parent="Jn1EYD1DzJk262iB9yRI-4" source="Jn1EYD1DzJk262iB9yRI-5" target="Jn1EYD1DzJk262iB9yRI-6">
          <mxGeometry width="50" height="50" relative="1" as="geometry">
            <mxPoint x="439.26" y="155" as="sourcePoint" />
            <mxPoint x="580" y="140" as="targetPoint" />
          </mxGeometry>
        </mxCell>
        <mxCell id="Jn1EYD1DzJk262iB9yRI-30" value="" style="endArrow=classic;html=1;rounded=0;exitX=0.25;exitY=1;exitDx=0;exitDy=0;entryX=0.615;entryY=-0.074;entryDx=0;entryDy=0;entryPerimeter=0;" edge="1" parent="Jn1EYD1DzJk262iB9yRI-4" source="Jn1EYD1DzJk262iB9yRI-6" target="Jn1EYD1DzJk262iB9yRI-8">
          <mxGeometry width="50" height="50" relative="1" as="geometry">
            <mxPoint x="370" y="270" as="sourcePoint" />
            <mxPoint x="340" y="280" as="targetPoint" />
          </mxGeometry>
        </mxCell>
        <mxCell id="Jn1EYD1DzJk262iB9yRI-31" value="Forward the response" style="text;html=1;strokeColor=none;fillColor=none;align=center;verticalAlign=middle;whiteSpace=wrap;rounded=0;" vertex="1" parent="Jn1EYD1DzJk262iB9yRI-4">
          <mxGeometry x="320" y="195" width="130" height="35" as="geometry" />
        </mxCell>
        <mxCell id="Jn1EYD1DzJk262iB9yRI-11" value="" style="shape=actor;whiteSpace=wrap;html=1;" vertex="1" parent="1">
          <mxGeometry x="720" y="720" width="40" height="60" as="geometry" />
        </mxCell>
        <mxCell id="Jn1EYD1DzJk262iB9yRI-12" value="" style="shape=image;verticalLabelPosition=bottom;labelBackgroundColor=default;verticalAlign=top;aspect=fixed;imageAspect=0;image=data:image/png,iVBORw0KGgoAAAANSUhEUgAAAtAAAADwCAIAAACmBsTUAAAAAXNSR0IArs4c6QAAAERlWElmTU0AKgAAAAgAAYdpAAQAAAABAAAAGgAAAAAAA6ABAAMAAAABAAEAAKACAAQAAAABAAAC0KADAAQAAAABAAAA8AAAAAD+n3OyAABAAElEQVR4Aey9CZwkR3Xum0tV94y2kWShkQxi0YKFAYnNgNl8zSqD74/VxgYDxhewwb42kjD4vvfgYvDPNhiQbC7gFZDwckECjMAgjdgR2gAzI5AY7cuAZkaDrNlnuqoy8/2/OFU5pe6u6srq6u7q7pMaZWdlRsbyRWTEF+ecOBEXRRH54Qg4Ao6AI7AqEciiKI3yqEgofR5HCdc6kqjo/NQQkehRGCuKqIijOITJozghtF7h9YM7W9t/lCdpuv++eNsPm3E9RDX7+JKc+Khi4qgkzrP1j6pPHhliixRrnudJoqzwniViEcQhHe7nRZSEcBHBQrpxVBRZTCHssLfaP/zPeCEQO+EYrwrx3DgCjoAjsHgIMGZDLBji2yO6DfawiiKO4wI2wrifwjY4kiInJMM8z/IfXxv99M5817ZsyxXFgX359h8WcRrnDQLzXl60YB6EjwOPmVmaPI1rGWFqGoDyIj3x5/M1RycPflJt3UnRsQ+uPfgJSqgQoREHUdJiPJZJbmUFyUBK9KRNkkgotjIoexwzE/U7S46AE44lrwLPgCPgCDgCS4RAW4wRJArKQqAUYSCHCSC/yJFfRHnCiH/fltZd3y3uvCrbuim65+Y8govkSV5ALCAsaZyJEMT1KBdHyeIkFV2QOKJXwZIoLaJmEdXiIkdmkhJjXIuTrMhb/CrWPzJ9yC/UT3xU8pAnxuseEiLpCDmgQSQqIiJSoh8iH+QCfmPSF5EPP8YQASccY1gpniVHwBFwBBYLgSBIyMUqkBAwhGvkbl9DHTZvaN14aX7HNcWuHyPXQGKBHKMF/wgCELIIsWgldY30yD8kF5Fqg5uSjzD6S+gw2xG4SCy9STsAxIXokyxDo3KwKCZqIjtxJPIRHfXA9PSz4oc9pX7as9pMIidc2lGidOJvK19EhaY/6gTxv0uLgBOOpcXfU3cEHAFHYMkQ0Ngs9UmECkK6Ca6RcbT2NTdvyG/8YrF5QzOeSItAMPI6w3/IqNhIjGyhSDGeSBhD2lIKbCtaNugn0qqkUJBeBUOTkiQ1CTXQlUQElbyiHmdNzEPiOtHyIjKPIoklA+EvNAhxyuQxtZ97du0RZ6WnPlumHJKpBMVKMCURweGWSEyvZP3+EiPghGOJK8CTdwQcAUdgqRAIWopWBmMIJhrNGy8vbtrQ2PhJRv1a1MqQZ0RxJotQDf4IH0QBRDuSIkb2AFOZQBwykSPkoARwD85GMggAdYBHiDrMPIi2CYVIEGNgzoHxKMxFMUu1EsxGYSSSkUhaAQeCCqVp0cTmIysgF1m65sj49LPSM19We+gv8lh8SWkrEyIcUCAZlvoxdgg44Ri7KvEMOQKOgCOwSAiIIkT5zrvzTZ9sXPepaPdPNNBrIQryh7wpoUGKlAEZRJB/5DK7SJJ6YBGIHGRxgbVGMO2EbohdaKTXJRSAh+Icsx2iB6ZMkbFnjhEHAo8sylKZi5ABdDcZhiCoeJCTiGRI44NARdmVoka2JuhNinzdA2tPfMPEGS9L1h4J1WgVRU0ZgBLVZkvW7y0xAk44lrgCPHlHwBFwBJYKgXzr9c1rP1ps+pQMNiEMcVJngQmjdYxyJAgMoA/Se8QM8+g48qSFZaipPEQmtCJE9IL8E0DcQRIGXYiK9NZtHHorqiUJapOkyGAXohIxUo24ViD4CBocpSsNS0wOYRKEkHpFeeOfBDRx0YzXHB094rmTz/ij4uiHBBsUPfNjDBFwwjGGleJZcgQcAUdgSASCDSjjv5ZvYErBgtJORFqBwrWt7Ei2XH3wa+ez6qTzdFn+xa5UR9tYJKmd+eLkl86prXuQ5DHGR0KxREwkU7EyihRhQyLhiwhSwKf9aFmCsIwy7YRjGVWWZ9URcAQcgTkRQBCB4IHhFZ2DVBEcMsLAZYUuouyOK5vfOj+77epYK0q4t4wPbFc5WkVaT/JmVJ/IG9LCnPmyyWe8OT/mJHnykMAlLNOFUgRe0mZdPEFqg4ks/kIMl2UMw7LJuhOOZVNVnlFHwBFwBOZAoGhGYWGqTdy1wDW4zGJU1qKRnXe3vnn+1KZPs2xVA65kA3PEN+aPKQU2p2TSTE0Dv5CKJ0uiiTNfNvGMc+J1Jwb9i8rRJeQQ9wimsGiPpEIKrGzMy7oSsueEYyXUopfBEXAEHIGAQBhIg00lWgP5LGc8Zh1Hc9/Ulf+Yfet82WFgehExIjNSF1oAspwPUSaOYEdi15wpMxavGTatk8fGT3ot0o4ICxH5CpOAR8GRe1Dutpd0F3AsXgtwwrF4WHtKjoAj4AgsPALiHKznCMYJQVtw4+WNS9+e79qOkiWODmZxCu1oJrU0alighc/SgqXAChc2bQlyHYQ2CQ5PA/ugXCiMguFqURx10poXvy998JPDupggDpF6SRSEFTAhWHCUvmB59IhLBJxwlFD4hSPgCDgCyx+BMJQyf5e56IE9jc+f3br5q5rWy4O4XIWiWWilGC6gTVneBhyqKlx4mN8O+AOePMJaF1EOmIf4R6BdePko8okzf7P2vHfGaw4LHCvwMFl1hOpe3lKe5dRinXAsp9ryvDoCjoAj0AeBjvmjFCf5zV9uXHJ2vH9XS9uv8g+vGLIS1eReVgvaX01qheV8wC2QakirogLKegOVClu7sSKXEz5SWzEhdF+6pcnD6y98f/Jzz5MxKZakWLuwUiVch13iljMQyyTvTjiWSUV5Nh0BR8ARmBMBeSZPigN7skvOnrrpKxiHYrCgkThq5vjECjN6CQBwcQH5WOZsg4KFxTi4CGM9DuxJjkqlRkGII0MN2WjANVjDYjjIdqVI6k98bfpLZ0dr10E7wEpELNCxOaH1APNHwAnH/DH0GBwBR8ARWFQEOmNkjhdO3ITLNSizeM3yI3x5NS56Q7Tz7o7zLs3vFzVzY50Y2pYiesDpEy/6QLT+EVo3HPZhYdkw6Ak+px8LWX1OOBYSXY/bEXAEHIGFQAAOEUZKNCI46URXIgrC1iMbPzn1+bdqGUa4yTwftmEz/oXIxbKLE2TQKMlf++SRyVnvnjjjhRJyACL+TcPKYcmAipgt6RAMSfMS1twuu2KObYadcIxt1XjGHAFHwBGYHYEg4Qh7t+a4IddKV0bNqUvOaVz3Wfn4QpHCiIloI6wG7b9x6+wJrNC7mM0G/UnQuRR57cm/M/m8d7ZNRxFuBBhl1QHPwBq1LfNYoVgsRbGccCwF6p6mI+AIOALzQUD7qAZWYYKNA7sb//zrxbYboR1Yi4YtUZpN7fjKzijswwr1mE9iK+ddUQltf1sDpCLVrvfxw8+aePF744ljxNsCGTFZkRx1+DFqBJxwjBpRj88RcAQcgQVGQINiluWsbsX44Cc/bH76d1u7tmmKXuBSosAitMA7Bbu9ygsWagSGWLm98kOACBGpmdjqFi4GJsn609f+1r9Ea4+VbCMJfsCmbXnvwI0IASccIwLSo3EEHAFHYPEQgHJgbZAUW2+Y+peXZwd3hg3ZW2ypmtqiDWiGLBOY0tfDapQQfvGyN94pIfGRYxKYhwiHjGonj5h8zUXp+tMx6TBvYOBFIGmm/BgdAsEsd3TReUyOgCPgCDgCC45AkbAZbB7YRn5wZ8yW8fj5QpWSa3mo+ZaQGqWoFVkrT12h0q4QGAbiDaxGg/JEVCPN5Zs0ah5oXPCKYvtmwmFSigEpoiNnGyNvxi7hGDmkHqEj4Ag4AguOQHPTp1uXvaM4uNcMDzRlxyShqFnCmfaKbSECwbtXLW/aitkFz9PYJ6BN3VjAI8mFxj5pm1A+IQiShWia1NdO/Pan0/WPcAOOBapJJxwLBKxH6wg4Ao7AfBEIgyJyC7xialIe/G1wkTc2Xty65I/lxyo4uUqRY8h5qEsyhgQc5iH1E2KiNUdOvuqTtRMeqYhsSQugxq2sYOuZcCfsvuuqgeGAdtyGw83fcgQcAUdgwRFgHMRrN1IKqAaJyWkVPrm33djc8C6NkRxoTNhivUiTuCZFgR9DIQCQWjyMWmpqb/MTL29tu17b6MItwlpZPHSw610UJEawEHifH8Mh4IRjONz8LUfAEXAEFhwBhj0m1lq9iWsvufOK860/aH7i19MDe3SbI53QrijaEqThi1+Hrw/RDRb+YN6RF439U594ebx1kzZoCbooNDAwjyKoq4A8j4MHlOETW71vOuFYvXXvJXcEHIFlgECQWzDgscw1u2dz84LfbB7cq/WcRTPoU8LWZXGClCPP68ugOOOaRRb4TMW1WiKL0ezg3qmL3hg19ga/pBiQhhUrsiOVSWnSMZQZ16KMb76ccIxv3XjOHAFHYJUjwAyb8Q/7Au00NrW/8cnfyZq74B7sgyrZBwspZMUB2WjmKbJ+n3kP2V6knyqmAmnTmh58mDR2bmt8/KX5gT3aURZXauHMeClHrpJ3+DEMAk44hkHN33EEHAFHYBEQ0GKT4AoC0tG48DeiXT8mUdhGM8ajue0EG2EwynDYKuoxE3A/hkKA7WTDfjRYZzAm5qyWrcXN1o7NB7/wxxjPhN1oiRf6x3/IlnzcHArlAO6Qb/prjoAj4Ag4AguKAEtbNZsu8tbn34I+RfPsOMWQo84yTrmLwJgxON8ILMQVKkPXhQgcLkwwlcG/CXhDOwKrSH+04eCGdwUvrXmeyKgUvgEjGTqhVf6iM7VV3gC8+I6AIzC+CORxjTWxrWs/PrXx03HUwmc5s8QkSvEngeuIyYjlmvJmroUqrF7xZbHD1iQSjrDmGMdpcA7ESW2vX604y6/5p+zGL0Hr0GrZWiH30jEszDKF8SU+Q6PnLzoCjoAjMAoE6Ia1CCVI9sPAhoQ/8Ie8tf3mqX94Nvuls5DC5tbmMWIUqXoccyIgDUu85siJV1+UHv8I6VuCuw7nHHMCN2sAl3DMCovfdAQcAUdgEREI1hdhdi232ihOkNpjkpE39k598jVINbAqwA83NyAlRTGxiDlb5UlJexIf3NX497PFNvCJgiWHm8oM2yiccAyLnL/nCDgCjsCIEAiGGm1/G2FDMXxsKGqNc7u3w0BYE8tKCu7h3gvdyoiS9WjmQgDJUpFh4VHc86MDG95FaPQtOD6Z6zV/PjsCTjhmx8XvOgKOgCOwqAjYvBl9SoEjc/n7ijb/R3bTl2tRC4uCLK2H3T8wG2Xree+3F6tmCvberWErSnr5Nf+Q3XW1lrAEi5nFysGKSscb7oqqTi+MI+AILEcEsAztrHxgO1PpU7L7fjJ1ydsoSwsr0bzJqgktk4jjBm6n3If5YtUx4ow664DCshSsahqf/aO8uW+xEl+B6TjhWIGV6kVyBByB5YWALYLAOIB1EHTKrEFpfflP86l92Gvg2qtIa02GPpanRLilyjLWo/ixKAiwUJZd8UhKK1eom73bm1//AEtZFiXxFZiIE44VWKleJEfAEVheCGhFStCUyEIjSpo3fSXbfFktwoM54owWrKOmDUuLmhZvsgjWrRYXqXox4CAlHJ/kCcuQ0XbF2bX/lG25epGSX3HJOOFYcVXqBXIEHIFlhwAOp1ibErxB5Ad2ZZ99MzvE4nUjybKwJgKiIcMNBCHQEdQry658yzTDrElhcVDYwQ1Ha7UUzhFHU587Z5kWZ8mz7YRjyavAM+AIOAKOgEktEOFHrWs+WjT2IbfnB2wjxXQjrMZk5NNSWZ39WFQEcAsmTRd2NtpyJYp23t36+vmwPvycy9m5LvwYCAEnHAPB5IEcAUfAEVhIBFooSxjP8p0/nrrifET3Wo7p3GIhEZ9P3M1r/zE/uFPSpiBswk2KrHv9mAsBJxxzIeTPHQFHwBFYYAQyWSaiN8mbG94pN9sRdhuQDledLDDuw0afT+1pbni3do7FwBeaqHUs7DU7bHSr5j0nHKumqr2gjoAjMK4IQDKaGGzcdW3rxsvJo/YS0+H9c4BhHE9567qLm/f9RJRDrsAC2XBb3rlqyhv0XAj5c0fAEXAEFhyBBE9f2dfeLyONqBamzsFcYMHT9QSGQQDDGl4rvnW+1gwFf/Ny1OYSjrmwdMIxF0L+3BFwBByBBUYAR+bZnVcVd14lZxt5hgVHSND75wXGfdjo8zRFi9LYeFG2ayuCKNmSZm7DMTea3qDnxshDOAKOgCOwoAiw3LX4xvmtBNUK26PLMoDFD+5QdEExn0/kWNhgLlrEaf6N9/E3jxMWzfrO63NC6oRjTog8gCPgCDgCC4tAa+v1zTuvlZFomkUF7h4auPzyTdoWFvR5xJ7HLZxzQA8Pbrok3vUTxlF2wAlMcR6RroJXzTRpFRTUi+gIOAKOQIkA6xg74wNrQzIGD1txYAHwL6nRJAqaDYWEEOTbry92/yS745pa0WxNHUy2XYdvrkiOxmuTJz1BHkLXHh2tf1TtqPXRiWdE6x+hCGM2fdVqE03spODXHbtgdCKAeZTiaf6dj8oUANG8/Ho1s+SwqDigMG4WUFbZOF1gw9HSHiv1et5qXvXR+lnvQAtGbfoMvn8txXwO/UP4U0fAEXAEVhgCKC04ZJsZrP/CchApMpCOByrA36jYvSXafHlz84Zsy7cxDWS/ViiBSAM0IGth2NksGGAwtrDIeBvJRI5uXxxjzZHpQ54SP+RJySPOSo76WRGJYJWBo+y2daHeY38O3W/he+ODTxXfSNmnTQYcipnxjHWxLLj0Y/wQkD4lFZmUhe/EkZNvviKZOELV2Ta+Gb8cj0eOnHCMRz14LhwBR2AxEQhettT9MaizPQnChrg9Pc0O7Ilu+lLjmo9F22/M8xYkIBhTiI5IxxF2KienuBqHDgQLT01rRUPQiOCsS8G05QkOQuWfgeOhT5o848XR6c+P16zjF69oKhwywJtkofWNDza+9X7GqiRvZTGERDGLbfhsUPCN4xGETzBEbe1by5vpC8+vnfGSGAmVizj6Vpe36b7w+ENHwBFYmQgYdUCd0iqQK2jgj6OdP2ld84/4V0jYzQR5RtGM4rpWH8iRZG0iyhhmglgC0QQWglkqpYxpSqSAkWtQ0QWoBtwjg21AVlhyIgLBMbE2edLrJp74O/lhR2q7UULG2gwMEceBv/nFYs929qAnfmLgXQQnYi7kS6/7MY4IpBH6rqbsRtljb/2j1r7+P6Qv86MvAk44+sLjDx0BR2BFIhAEDEHAwSAfZQf3tK79p+jr78vSCW5KmlE0a1ENA07RgqjWEWbUgkKFXdW4GSQZyDKQR7BmIUmCJ3K4Bb/CNihBtYKSRotN4B9xHSqSTqxLn/za+Mmvr00cYeKP/MYNjU/9D/IAJ2lJ3xK8VkJHclkhypDEj/FDoEiyOA/KMQRjcZYX6ZrXX5qu/zlTnI1ffsclR87IxqUmPB+OgCOweAgE4TdCBmQIU9d9qvHBX2x987wsrQWJQl7DfiKpTcEqZGkxIeFFMP+EPeB0nEzCNmAeSClQ5If1q7AN+eli7JEpBqoVtpJHegH7YPc1GWIgt8iZC+eN+xpf/+vm3z4vu/lSzDUkYNl4EYSmmazFbiPQGkQeskWF0yweGp5SVQSKVJxTJFJNphZl+bV/n3uVzQWjSzjmQsifOwKOwIpDIMgwomJqV+OTr8u2XGPGFqIXOg6ZUNgdGAMEBH6BBAKCAi1QKEYX5rmJttCAYwR7DRgFFEOqfaw9GIZENSAliCpiVCRs/wptUTzNsFvK5Om/Ej/3fzf+5umwE9yaK0oWxcJagliFSbPZnyotP8YPAa1R0m71aVqgdEuj+trD3nb9+GVzvHLkhGO86sNz4wg4AouCQKt1x7XNT72hNXVAA0Y4JI3Io2YCUWjJegITDQQhklugZWmTEQktOrachIc9sDIlOH2S4YU9EoHQagXkx6ImbZOOkISkILIFqWs9jOQrRNdsStCcQFyUSgLnkF2IeAwx+6qHgNu4nSCOLIylbaBdg4RaxU2+7CPp6c8bt6yOVX5cpTJW1eGZcQQcgVEjEOQRNorL5DMczWs+3rjwN4uD+0xF0k4y18Bh/AONCeRAIovgSLLMU8k2uGOqE3ECyElQo1iwDksICUMlwlMC8I8jD+oVkRJkHkUmoxAoCeIS4zR5hlyEfx3WYlH6ebwQgF3CNthjL8i3JPcif62bvoSASgdcMZBN3dUd93ouVDiccBgOfnYEHIEVioA8hWONCS1AvMA4XjQvObd52bu5g4gCEoAkgwvOHaKwQnHwYo0SAaRPik7nPMuTetSaym78RmCK2N9o2TMsROMr7Q5xlR8BAScc3hAcAUdg5SLAahQKxyyTfl/LSorGF96Sff8zzLVa4hc61YtWHLxraL2KH47AAAigC6OxQC9kNyqVGxY79eLAjuaWa5CRhfYWVkwHiVpHBTdAvCs9iBOOlV7DXj5HYDUjEKNoxyBTvANJR+Pz58I20FgUsWw/ZbMh008tSoF2YKe5mqHysg+OgDRgiDDivCXlSVi9jBIsWVNs/nJwnKKbMtGB45pv2cGjXtEhnXCs6Or1wjkCqxyBAml2S2tSk/zgF85tbfqsnHgF+wzpUHCxBeUISxyDPkXSED8cgTkRkGYuuPnSCmp2UUmwAs7T7GB8x7cOmfmW8rKgfJkzztUQwAnHaqhlL6MjsEoRkIod39NR0tx0cb7xYqgGzCPFhahmoExOa62iLklHLcdLKEtYVylMXuyKCNBUZPPL+iTp6jJMkmUJlMQH77k5ObgLv/eyGeUUOAfkpGL0Kza4E44VW7VeMEfAEaCDY+FAse2GxiVvg2GgScGYrxWM+GAh2u6zaNRZ35hhxKE1I46YIzAIAojCIBUIOVgWi2KFtSpQkCyawNt5466rw/ol2SfLWQuM95DQY5C4V3IYJxwruXa9bI7AakcAfjG1q/l//0dd+8LKuXhYm6pFp1j8IQ/P4prGDLxf+CqV1d5WKpSfjXWCTkXeYbWSGm6RZ7UYyVlebL3RIoKDyM7DpRtduDrh6ALDLx0BR2C5IhAWBcg+ww74BVoS+EU+9Y2/jvf8hAsEGBoZ5Aa07VALkbhMRxkSgqsMBovO6/7XEeiHAPQ0wfSHndtwp6I11TVJyNDNJXG+daPMRdHZIVoTw+V/ful/mieu73VdLp6SXi8canrtR3pNb7ZvBRcyeqSQ9mK4UBhuyJXLsjmccCybqvKMOgKOQC8ENJVUbxwYB6415AiSPVvz/I5rims/iqGGRgIMODTpJJz3e72A9PuDIRA2uzEdnPbEyZs4AYOFZFE2+YBHwHaRmtEa0bCIKNDctFRKPCQtULVICxPoCI9luSw2AS9RG9bKF35pXRXEGFtnFt8qLr3FNZeKkf+lHNR/yFeCoxndH//DHZKMfx15Dh0BR2AABNQls/2IJn2punM6/Vrz0j/Vm5JtMFGkw6bD55kpVgaI04M4ArMhAB1AJYe/UY7g3Zyr0KhgBkcen2oJtvYRhmpALYKlB81OAjW4Bv9EHMRIJFyDhGivPrENbhGxHOprmxY5poObSFJCAARzSEdSCehCqihz1NbFPUygoouxP5xwjH0VeQYdAUdgLgRY7IpIQ10zh4QZdOVxtOmi6Kc3qOdOa+wgrp3jIzkOnysyf+4IzIEAe7axB19gCTAINHXsVY+gIk0mj0h/4VXwgMA2dKYZRuwcvHdrvuVSBB4ZC2iLg0U8kRXNFJ9ztclo3cMl16gdVax7KOQEJQ2cQ85hREhYCwMXIS0sUjFxDquoaORSCvISLTmQjzkyO0aPnXCMUWV4VhwBR2BYBEQ2Qi+sCPQjjvd/43wJOyAj+NvQfq3cQ4INAVl+PfWwsPh7C4IAahTT4sFhTUCRiRxE0cOfk7clEDQziT3UGHfekF/xJ1FrzxR8QxQkzvKc/VdYiU3mcAVTRFNpMYkErpiYjNednh1+QrR2fXTcGcXRp0b1o8RYaMdKhxYuuoxDsdDCWSOj6ML1ghRz5JE64Rg5pB6hI+AILAECKbJtufmCaqivb276dLTzx1yoYy+SZpJORk26eCnQ3YZjCepnZSUpE4oarvGLuIZwjQalferzbOIJv1UO/6IGiCIgHf/5gai5WzK3tJ7FzbhIYcFsS8yWwLiIQXARRZMoTaQjaR4sfrox3oFYg3ZLW82LtSdEP3Nmsf7M5Lgz4sNOlOBEBKQNZk1aQuJdNnIOJxwr6zPw0jgCqxQBde86MMEL/rta1/wjv2pR1pL1XVQrGsxBmSoyMZ1gNWyYXIYX/OQIVEYAtQfCBcZ5mAGWHAgeEkjCCY9KTnqC4pIULZAA+MHeu6I9N/Mzj7EtRfPCAm3RhDiexIIZx/soTTDtYA2tuAN/oCiYexAFS7bjiWL/1uLA3fGWy6Z44ahT4gc8JnnQc6NjTtOeg+Idy2wEX2bZrdwu/AVHwBFYBQgEOXZiC17p1vNtm5vbr69FcUt7wQcVCyMC1hzoyIs8bNu2CkDxIi4YAia5kEIDlUjCglhZEE38/PPFAYLCrrSxqG29qpXJ9kIWzahGMP2EnbCJjxR8yl/gLmH7QNomBEYrtaEy8OR6FB9ECRjlNUQd9SjLdt1Y7Lq5uO3idPJn4gf+cnTKS4rDkXlAtV3CsWA17RE7Ao6AIzANgSDHZuoozkHX3tp4EYZ2suhXdxw06ZpThjkhF4wKfjgC80EgaOWQbahNyR4D5UeSPOHlRBmMPEUBjAjkP70hCC0CuQgrS8z2k6ZJ4HCDCy195Q3i4U8QdsBRaM8dFSF3Q1gxFhzKHLy3uOWi4pZPJ0efUpz8ovihLwhpqf2TEWi1qXW0OpdrWaGShElcZOfEwppkiUQjy4YZCXA/HAFHwBGYFYG4hXCbPprelk47u/Vy+nN3VT4rVH5z/gho2NfKVrmshR9AbSdOfUa+9jhiZuG1TDsluODIW/d8MwuLteefaIhBZILEsQch8mLnj7Lvv6/x+RckN1wYtQ7Ie0dQ9BTxFIEx+CBr8Bd9GhKe6MS/xHjMiDJUKRonHJXg8sCOgCMwlggUiTpg+X+MWluvj3bdRaecLh9jurHE1DPVEwGaG4xWthfhSItW8qgXKbQMljXS0xgZ5osff4MGydOeEVV+kCOi4B+rZLVyFkMQstLa37rxY9kXX1p8/y+L/duUi6gu/6Q8l7QkmKVKigJJSlPWu8iGZGkOJxxLg7un6gg4AiNFgDkcZhrqa4st39EoELxxjDQJj8wRaCPAbn+SXrDoGjoBAzj6QemjX8yzYPCpkR4hhzy+/PQ6CIHWtI7yYNQWsVZrl0hPjR0KUrT2R7dfnn/1da0ffSya2i8lDQEQebSdeRAY9QqWqDITGWV2qsTlhKMKWh7WEXAExhMBdfFSYEM78juukDw7Sc1pwXjm13O1rBGQeRDu5PIGuhU4R/3kX2Ls12oVBv+2qRDmF0nrnqu5McIBHokF/tNxOiqnHGIa4j1IMdh7EK1OFDeK1r5o84XNy3+jdesn1f4DteC55CLKItodwo5Q4lKtGp1wVMPLQzsCjsA4IkCvLs8GMuAobr9au2qxcEBTQD8cgdEjgAOMJk44UkQXeNQo6k9+PcYTWgTF2tdOq2vtvS3ZfzduueAgo8oByhqkGThTz2O8gKTB5lSaEsQdedaM4zoshMTixu7apr/PvvKGfMd/BoekfBjiQ4z3UKI0X7LVqU44RtUSPB5HwBFYMgSYwDGx1PbzB/bEB3exmZbM5LjrhyOwAAhgnsmAj+sNrWF90OOj406R5y5RDRtS0XRkydbvSgKBRkPChdEccnAum0/EG01J8xCnhANBS9vxucxK0PfUWnEz2XV79q235Nd9pGjtNj4k/yAQkqX7LJxwjKYdeCyOgCOwhAhoGkc3CsfYfkNT/hxrbM9paw2XMFee9MpFQIIL3I3T8GpnvIBiBg/lDOhBrxcnNVrfTzcxuEu+MUKbCeR46G2wD0GakqBHkWIl/CNdFmpBRSBBMhlByIejMRh4fstFra+9vrn7FrJKRnJuOuFYue3SS+YIOAKLhIDkHPfdVcubTAORc+fsNeGHI7AACEiigHYD96Jr1tV//r8zsLMGhNanGXxw0RE178u3fVvXeAWTlmM0B/YikmhowStkIzid0W8xGhgG3v05c21OPmAlEAzWqCT774m/+vqIpbM8QgwDL+dK8pggepFHPH4iMeHPwh4u4VhYfD12R8ARWCQEEG5HUWPPveryc3asCJ3pIqXtyaw6BGQnREs75dmR3G/osg2BXG/lxb2bGL5FBXBenuACY4mOuJ6yLIVPAkXLjRfkV5yd5fugIeRV+kbZnXBYzjv5X8icLkYaC5l/j9sRcAQcARBod2W17CCC4zqiZrrTzk0HyBEYLQIyTs4b/L/mSa8i5uB4I+xuomUj4cbdV8JI8IGBeEOLVpfoiHNMPSbIQ3ABFhU7rssuf22+61YIkkQdh/IViMehnwuVXSccC4Wsx+sIOAKLhgD9peTHOFliz85gp28LFxctA57QqkIgk7VGLT7qQfEDH6uV2GGo5hSUG0mSZfm9P2grLMSFR+uHowrSSYrLEIiR3inYs7CVHLi3+Nb/bPzki9zgbmdNTdJCEGJkqUr0VcM64aiKmId3BByBsUOAjkz+D9glgr3C45R1g8wr3bX52NXTSskQ0gs4R+3xvx22gQ3DaFiaSvnk4nP3LezyihpDK1e1dQ870S/NwWIZOSCzpbkYecQT0Iq4MZV87z3Zj78I2xBVUs7ZThlWFHjJQubUCcdCoutxOwKOwGIhoL4sTDQxq+OSJSpBr7JYyXs6qwkB3LzAJWqP+3UrtEZu/gs2owg5inu+J08Zan9h0crSISPH51lRY2mKXH6xBUuTLZSxeI2yevHdv8q+9+da3nWIZyw4H1jwBJYOak/ZEXAEVhkCqFXo5lkZqE07+bHgM7ZVhq8Xt40AI/ia038lPuwYaSW4p5bWHkwhHwUGHFFdqj1cYsgVBw5ilubQ55DEDRbDQomwJtG2b1yQJdbQxtFdX8u++xfSq8ieA8XQgn8vTjiWph14qo6AIzBCBNo9JaKNsMRPcmx5Ol863fkIy+ZRjR8CqCCSJ72WfOHhU4ID7dHaWVbKyH3fD6EaaCsY70WAAwNekkJox5WimIhqsh4Nfs21ljesmpVzdFyhb/lq/r33BJkgQRecDyx4AkuCsifqCDgCyxuBwBusCG0ygT8D+22mbcGXgPTlndt6yvXadZpcai9uLQW0N/zsCAyHAIIBNuUJVshoTJARMGJKS5I+8PHJg54oK0vxWv7Q+rigzUWte66VVIH9S3igw0bz4dKf71uoUZQVRBdJWgurZbhm8YyO8HVIz3LHl5rf/wuZlkoVqSLYP7yachE+q3B/FCcnHKNA0eNwBByBkSKQs7Gl6ZY1RwtRq+MM5ELdonp/fmKuwbaw/A7jADLhJPnZM+L8oFTX7KXS7kFHmjOPbDUhkLEtq2w/pYmQc0+EArS4KJl80V9oJA5NlHvaONDG6Tiq7ftpkHtkNEKN9OHFEHaMTtrhRRmrwaFaSR7fuSEJbsGUXb6vwDy0kb3yz7c2Mgd6TjjGqBF4VhwBR8AQgGQgrE4Kejr6uzYqHU+O7Z9h6tiSL0duqPtUbxYfsT5PpDJvMDJEI+so20n6n1WGADxCbjSkGIFtYHpJo8rqj3xxcexpIh6B6QatyaFxOt97N40XkUJetLS/SZB2jBtsSV4TgY+myFitqCPKKG78eHGX1q1INshXFwf5BqoiPis2bxnR4YRjREB6NI6AIzBCBGTCRu+kPb7bc8fg7YDpZkgEjQsyEM7qCqVHD7xET499cBx4xoQ6TLfhGGGVrMaoIA2oUTKoL66z2Be+aBaTx6Rn/W+aZlsDgcsNrpGBwHhlIsoGJlNZ1JQH8iSM0wgJls6Go1edyRGvJDd1CW+SFktXMINtffe90Y5N+EenMDAPigDtgDTpAxzR4YRjREB6NI6AIzBCBCS1CE4CoiZmGkHIwWRLAm1mYPAMkQwUKPSWNs8M7qOZTvI8fvBT6e21f5soix+OwPAIJPEEHIJWh4YOBQQRrXnBu9K162iEkgUwGGOJaaIOCUJYeppO7blTS2LZAr6Y0pguOjJ2xJfMoVWBIsE5oOkSyWRojOLmtf9vvusOygXV4ODbqvH/6D6jQMEUsx+OgCPgCIwLAthwkBX+p5fXVJJeD7N/zPcwztCSVx2cNe1E8nFwd779Rvr45tbNeWMnhASjUXr5PA8y7RDYT47AEAhIYqEFKBqeaU61056TPvJFNDD54egYg9I6ea7IxX2jSSQcSOVEU+pRzGXaygr8f43VgXgjkd4HxjGFqVNatKbQFkHmG/uz7/5l8vTzkonDw/cHqYLa10aVfSccY9UMPDOOgCMgBOj8EFKg/5YoW+JqDNvSoDoRyyi2Xt+665p82w+znT8u7vyORB7q7TPmo2zbJsEG/xB+LKFLaa/GlYGAjI+RV2Bj2aodfVLthe8NojcGa9lTdlqmdm3lUDON8CrKGtQ0SNwwciZUK5FRUXhvbDAJFtj6QBBuwCfIZBDPIOvIk123t374wdpj/x8+qFT+84Ll6IgYhxOOsWkCnhFHwBHoICDxNP0hShOYhBwWRfHOO1s3fi2784ri9quzxj7mZCia2Ya+lFbHCZtUERZNCrainOkqW2ZJ2onV/zoCFREomjWx3oht6Ne+5PzksOO09Bo6K0VDMCQK1s2BemhhFZYQ9aMe1rr3OpJpRWkNu0yRZ+QExkkqpr5gweUBTBZOWZa02PQWGQfyQfYESLjPkzu/2PqZx9Qe/HyZQcH8tWJsNIzDCceCValH7Ag4AtMQkOGnTDHQhqRhQoiqOKiS6ZDb/bgpj4OrgNDPHdjV2nRxseni1vYbNNWChdA9asKoC7aJOJRCnlmnzmqCzoRyNL3koST8aoUiwOY72Egy9GLzSaNi0m+EFY1eoV1ToolnvhXHG7Q27IjEcdXUgtovXOhH5/9i4ohgJVqT+45kSjFgMMHTcTq06CaQIZaohLLw9alYZFS5jtLsug8VDzgzXftAPRX1V8lDSD49fXQS8lQ/nHBUx8zfcAQcgeoIaJYk0bT6LeZTTJ6Iw/ruOEZcob6ICRanQDTy7K6rmlf9U37zV+m+M1mJ0kfCQ/SWH47AaBGYjHNt+Icsg7m/TIUYW1u46IzxxZnXMBRNHv9Kmq4kG9LWYWCpljvzgD3nRzwU09FWzEIVNhFED8hbqFSWxwptrfplgRjZbh7Ivvf+9Gnvl6CwQ/RVXnQugWqIRVUX2zjhmNlm/I4j4AiMGgH6KXpqrO0012MlIaagkm2g41b/FaTWJvPAUKN13UWtaz/WuOfmetRsySEz6wt5H5bSNs4bdeY8vtWOAM2MGX4TfUKS1PCfUWiJkzhHlNQf/1vJ416p1hpm+RDepAfbMBCLY0/hAoUgwzFOLDiKfEoOOZbDgUoyZBQYknzHtfltF6cn/xouzFLUlBIcSssp977SeEJD2uRj8JI54RgcKw/pCDgCQyKAJoUJImyDnr0WLDOk9RAF0X06d9OhtG66rHnpO7M921mlV0NJXhCYCRa/WnTyLb3oEo4hq8Bf64OA+EbRSuN6nOFKThahzPUhxNGjXjLx/HdL8RcG16AKPKRcmDXC+IiTssOOSQ7cGxyGQWGkgFguByWWR3ZsVpTrWr75guSEp6WHn6gVYZoq4JCEDzEW5zD9SsWCDaOGqZiEB3cEHIHVjgB9t+zd6bDoctRzIdsQeeC+PCQh1bjnRwcu/I2pT70h33138LWBxFbuh4J1W0YnJ+FGUJqvdii9/AuAAJ6viDVDthGnsuSg2aXxxLPOXfOiD/AEtiGbIbXhbqOh2fKBDQSqhhN+yeyJgsESDX7JdoudLYv97smOJcwNWCSrD3Nqd7H5Ql7ArkX0S98r3EM+wfQtg0nFo/ILFeP34I6AI+AIhF5KumFMMcIEka6LuR+9FisLD+6d2vCuxt8/N9rybWgFXRu9HlNMBB8Ax3PNNxGOYH2XNx1KR2AhEGAhCe0LA1FMKfMkqyX55FnvTJ76hzavpymG4ZbmCOdFMtcnCzTXvHbKC2neNNuwpBYdxbIRclDSsEk9Ah4MVRAu1os7Lsvv/V6YHuDanWkAjCQUR+LJyscw71ROxF9wBByB1Y0AEgqzEqXzFc8Qm1CPld151dTfPSe79p/o7pt5nXV5zZi1hASu4StJxvHax0E7WKB2aeuXVzeSXvqFQIDZvFqd2EQWT6477DcurD/+t0V0g0gjGE4qWSMOfekDlh9pduQDs+MeT4ztlh6o80Jke+Rx8qXJ52ic6n++OVmxRPkNn9DSXnkbMeKFsAfq0Z45VMqDE45KcHlgR8ARGA4Buhos9sMcEVtRLOqS6ODXzzt44W/ku7cFezR8QWcm4aAzQ8SNc/KIpQNs4IbKOMZnKCtZ+k0th8uWv+UIgABNDrbB3+T40yded0l08jMCq4DjwnO5r4VTtMdEi020rrvXIX2Dlmenk485hzjRzMjMclkZHuXxpBWZz49DWpQdG6O7NqDe5LOleCp9W8jRC4ae9yEuvcHr+ZY/cAQcAUdgFgTolzHIkD8u5kBB6EoPw+yxHVQa8NCvH9wzddHv5Hdei+jCD0dg5AggD7NpeHCtoeiRq8nDFdNylp/IiS0jH25E2bhMc3r2gVWAx79y8gV/zpDKyEoz7TRhvTXoQXtWY4dsJNEPP9685aPEGj4BDKYbRTQRFagF4TGkJzMmZQUeg4GSHNHIUjMsb+l8L4OmuuDhirXH1876JMSJ3JI5SAhwSR4UPufBk9fH74cj4Ag4AiNBIGi4mQKiMFFvpK5WJxEN/iGvYG7U2n7jgQ/+YnGHs42RQO6RzIJAkIcx+DOgY0LBMGdiibC0FTEGw6ZUddr6Dxcw6O+Ko3927cs/Nvn8P6eVRnEwFWIN9lDDI2K6IBbIoke/unbc4yXmgEzEePXgb9CykARRx3WtBzHrEO6TyQJfYVoEzs1ZirS0tw7c07rzi3zUiSRBpaixMkCVX1jaUnvqjoAjMNYIMPXRHI+eNMg36Fq1yk4zNvoaNpnIbtrQuOAlcWOvdtTsI5se60J65sYeAXMnUTSzuImRI/YZHVmaZG8ygYRtYBHJepS0dviTXrfm9V+IH/5MZu0si43YkYfytWfwlUuaisagEcRsKY6f9L+jox4O50hz4qy3SBqthJq9hByyF+HTIFUYBpu9JfgTy3Briuutyqku+AtJsfkT+pjbBA7VElKcyqm6SqUyZP6CI+AI9ELAekr1qHCM0LOr7zYBLD3pdRcf+NxbtC0lfkU1ycPDUq+Y/L4jMDwCDOcM6tNbFzcltUDswYYhzZSLR75k8pn/MzrmZO5LXcDwz9CPz64kOB41d98Vc5Gx5xnu0FHdSKCRRc09xTf+pNh7o5ZdydUu3nSbDNts6RY2GlQ+kWqg1SHPkm7kCD5aY7jvINmPn3Feesxjg2pKjC18wtXQccJRDS8P7Qg4An0QUPfZpfrmp2QdQcLR2Pip5uf/GLmxTN+hHHSww8ms+yTvjxyBNgJy8ImCIjjIlHiDMV5DpqiGNk6Z+PkX1//bH2Y/c3Iwl4AMMHMP5DcI5tSMiaerJQ+Ka5tb0+6N3CC/IPU43vjXzdv/XQxEW7BONOJGDSuORGbUrP+QqE9yDikcyVvQRg6a4GKFy7HdTk94du1J77SikXH7ritlwAlHJbg8sCPgCPRHgL6anlrdtYQc2PZjB8dqk40XN77wVrwimzQ77JXFJHAC8qFAfjgCI0WAITyTkznpL5AeyG0XrZJfR51Yf/RL08e8KD7mNIk02DFVT2iEwek2QjjJP2TFKbqBEGKIXEm8Z7P/wFuIKsFINUq2Xdva/M/RfRvb7EdhammOxqfOFfoU0Q0xdGlYhhjLh8jp4K/AyMCFc+15/1YcfqItnQ0yoWou251wDI65h3QEHIG5EFBvKzMOemrND8U5Ws3rPtu45C30onVtKN8MwmuJu7E+s5Fgrkj9uSNQDQHGwiJZg84CZUUR1eMj16cnPSl5+C/VHvXCIEgQwwjUWI2w5MftzUF4g4Yb6HK1VKVmkP/NdszhW5DchKg6ko9i+9XxzV9s3XMFMReJdgqqZdioTmLPAd+IWRuOZEYrW6qmvMDhUTkhlcT/6ikvKc78Qz7hgI996BWSdsJRASwP6gg4AnMg0O6JFEq9ER3/9h81Lnh53tiFsV6TzlgzJSiJOlQtUNT6FT8cgREjgDAjfeAT0nUnxSecHD3kKbUHPi7IN8xEAzoRRkpRCtgGgg65zof7BjGILefWfS1bHSJfba4g09TwunZCDrQGToG5BuKUoja1p/jJ14r7rs/37sh2bpxoZVmCBesUhqVB7zMU2RkiqwO/IvtWW9972HqEHHqvbRQ+cBQhoBOOanh5aEfAEeiDgGZ40qeE3hZ1+a4t+/7uV5OpvYF+9HlvuT6CM6VaClGvFdqHg3EMXsVoh/yGM1PVunwnMZkGFEQ8QkaKfCaLQZQ/N9/SUKi5r2n5O3PxzqScSDTzVFJC0DRZs2LJ4gi5l0glDA9UDzdrrNDoVS8MkM14ol5MZdGktmiPkokH/ULw+4TgSlowk/lnEWs7m/3SRUuw5tg1xz20FU/wFl7cAEE6BsvwjKwCSK6Qea1oNOI1E8c/rDjsZ5Qc1pezHUZXg8sNBmk8kjeiw46NH/RYg3e2N8bsHgYlQZtT7PgOMAY2kmS7b04bBzGoVls6sKM48FMt4KVGDuxI9m+TYSloCELakxx60MBCq5OAJFjLiug346xW1Hk+wgLTspF0TDzxXdGJTydamndVQuaEY4TV4VE5Ao6AOjhGQJnnFcXU3/9KtGOzyTNWJDRtDhE4Fn295PcYAtpCg5OeXMuZuU6wIIKbrLeMGRjC/hrFYcdOHPewRjIhmb9cP4UB4/4AiUaEhcN064wsKZYwWSOv1dAO1I5+IGE15MvY0YZu6/l7ji4MyfLtesKZ+eE/Q8UEuiB7hTk18MTYnp0rD0qLlALFQcAeBnplW8YSsx8QLyXdeRwEYIqkLQaY+VLHioIAwbWlQiIG6y1rCLEFgUQIoypgMF4mBzSqUwVBxBJg6QzkgVaqKO0ixgnshP9jbTV3cGdr9x1JNiUXZQB17w+D6YeYbv7TG/Auku2+I812jsoumxrXTIKckeGHPj967LkIPJQxUq9yOOGogpaHdQQcgf4IaICR9JVQBze8K7vmArqqetLCOXn/95bp01As+lxz88DCG3r8PF5/+ppX/StTcw3VGv/CmGLjexhR7jcGU3JuDgiPhQyrJ8KoX5oaGBPoi2LIQDucabIwcOjxBunIjIBcEVJMSvwxJEZ5xCY7rCWQj5JPzIitnVwgAZaWBqiQ/xlhdaMdPjApoykUM3ClWYN3Qac4eVuWGYJdvGg5HB3bjkN51QIunPmHT4gqCIXhKYVjcG8XLFRNAEYj+CF8dD/QFEQgrT35dR8stnz1UMzzuAqpIOBIWVzTqq+p/ff/QObEz6ooVw0/jyz7q46AI7DSEWAKJNdAcZTd+CW2ZEujhqb2GlFX5kF563TuDKjtEa5VrFm39tX/YooAyo0Wo13y8oJBoTNC04/r6YBsoxMSyUQ7zkMvdu60H8z4k7FoQws/GaDsGcsO+MkQNus/k5tAlxRYjlMY1GTMaDNaElMRUAcQIRKa3tXbHi6DyIFYOrns/J2Rzc6NYOgDnVC6hwrZeXrob5hyI+ex1U9EqwwvL0tkg6gVlmuhFDHxDIo0CsIqGkoTKigAb75PDW1K3EEmiIuCjAeo1BSpnjSrr0se/3Zdj+IgLWYRLFORMUdrT7zzVm70rvaeSc5Z8T3f9AeOgCPgCExDQFNmRBwHdzY+97YEFTK/pOjVxYo86lnSUPfO+IAlBzL9NJ66L1pznA0SpcC5TSwYDjR6Mo5r14yM0RSwsFoII2sZ5n5AqVPneRhOwhWnIMs21sKj9qHXGQ56HHkaJqOSUShGmQCg+2d4E3eZ5Z9GQQVkLNMbqWxSFI4X+C2GwT9E+xy58tPzaHMMYqPoikT/eh9y4tI5yqs+o5T4k5khC0PAlVpFXruWy6H2IJ1IEsDUBslWy0gzNMKLgMhEhlLCa41hhD1sw1tCyGRcrMlBtiHmEXituR0bIQZBS4icS5VHvrK7LoPZYDhSNYnQYqq+5OEdAUfAEZgNAS0KZDi95NxWY49GYdwqEgzXRrMFXgH3Oj17XI+jZoFPBTr+wAc0skqeEIYQxlqNpIwXYezE41O40HBiQwogzW4GEQiKXkJG0B6Mg9Y8RAe70xYh/Ce5ErFrxJ39CO+GxDV6FYxkMgzh3OsN7ddrlhaUhEBKR1cMe/zkBpwJV1pKmDE+5H/2lAPDCMMngQRJSDG8MssLnUFV+ChMKOws4Tq3VGopeSycKI2wNibUCTPWfzWCk2vlX7pIfKCHRiJA9YiWAuDYfhroACj9iWGoF8NvggV3IuIcZsALQWzx7vb/VOwjOXChI0KH8JJUWtGO/xSzCZmvFH1ogpXe8MCOgCPgCPRAgP27W3d8p9j8FUYLeihmQdjNDyN77RH/uN1mv9EwB9WKD7yMaEFKkR74m6dm37swDK2iEQyiDQ3MLbEHDfQqhIYKenD+afrKY4YY/knsYVd2tnG3PTyrrycIw7BiCKORYgvC7dD3B3Znz6adgzaDkRkxBfmFNWhD1E4808KGnyGfCt/JMOVghQtqe5ma5k1O5I2MaAjpPfBYkS0BSoFQnrPEEsYoZpwZxBho28OSuFG/yIkWuCBBlAYwlZswWhuSluiYnw0fIxBhm5IgpQjo8AhOiFswlSu0Df7Idqat6OIXVQhGsuY0oNQUTf7R2F3bfFHjO+8k0EgO8kLkWqOCeAt6s/v2orFbma94kP3ejaViXB7cEXAEHIGDf/O0xs4fs1eKpr/qXegEg4PplQiN9r+gXPkEniLVE8fany7sp4lfhRZKFnpqBgVxAq3cYamjGZa2seB+mJPGxfE/X59YQ1xBNd/pyKUzZ0IbumgE2OF2GK3BlZiZ+0b52qNZdMoKUq5rcVOgz3YQBQ8YvQJp4FrkJll/erzmyNmCh0EcYqKFCe0ooQqUC20F625qzJ9PexYvEguyE8bFNkWYGRckJ0i5rBCHns+ezfa42hWb8qkm1OsIBRN1o0ziW2Ho7RF5rziW/r5WLKueaQAUNRSDTAUuS5GmdhY7b4uLg0U8KXXWntvjxk52uBXV2P9f2b57cKen0M398a7NghuOUuDyhrZDIxnNoWjhdaG1C21+PPnP0hOfXjV2V6lURczDOwKOgOadGXsr8CfI3jXBCkfz2n/Mdm3Bu5EGAv63AVd/VuYhnQmHNh8XsdL8L9As1ElhRsgzBQjzOjkxUNgOVnYfZCRI2H592BOde5WPAze1X9GwsygHZisDHoFRiQig70cd00rqtaNPTI48wST/A0ZCMCRnU8natcc9NJpcZ2osgWkSnbBJCh4+CFasPTZdf1p87EOiY09V5CzMgdLBhxCBSBIkQqfIrDl2BniFHOJQE+e1sI6XSA8RL1W9ESwRCAVrMyE0i1A9CSR4be8WnGoUO2/MWlOp9lE+0Ny3JWrszfGLyjrqvVsbjZ0sfqWYMhXlA5IyS2XgbClz7q7x0Lb48jhYOUsrKxUvujXPQxYk4s0kXZOPD6K777bohKe3kRw4dpdwDAyVB3QEHIESAeusQyfLPc3f46x58EDjb54aH9wT1lEyjDIHk/PmMBLTPfqxKhEwWiDRjgTyndG+IhRtblFHUwf54GWpD3C6FobhMOcOI7HaYRhzJ4+pn/S45OG/nD7iV+PD1gV+I4sQRmiZOmo9MKIb+f0khqDLqJYfXhdvUFKIqDjLRQXNXfqm0NLtZ2AJphMJcovt34l2bGzd+8Pi3uuTGIYpkkAMqOHEhlBU8QN6xLeE3UaOjw3igrFwgyKGZEbJIkLig50AC9okbAsw1IcdH/e42tPfkW4PZAAAQABJREFUZ17LBotDoZxwDI6Vh3QEHIFDCNDrIyDV3I2ekPGgSJrfPK/5zQ9ozYbmQxhvaJdtsziY26XmoYj9auUgAMlQ1QfdEGNxKBiijuoFpIFp/a0MR1AWhNFX9IUhkObHmQYXnLAxpMkMAhdsSqOoJZOHpY98Yfrk34mOOzUM7x3xgxgM42auLd50VfGgUBJqBcPJwHDIkql1TLxhhINr7qfbv5v/eEOx9aqsuYtl1EJE5AvqhCBMDCkX+SBovbxWbKFcqOkUb1CaUBzThVXM6wiCB8UahCMwPPGfKK8fWX/BF1zCMQJwPQpHwBGYCwFTGai7bHe1UXTgvWe0mruwZ7ddNtG6oGlO2YweibFE2X6sUgRMzaTCB2LaZiFVwNBIjAlBaGy8R5OjjYlwiNe2IyrbGPHT2mh4ehAkK7XJI+LHvaL27P8FxQiMhZwEzYRCMNi3hRD6NdjBwmBm+x2aorYNt5CcrzMCI0qJG7uKO/8jvu1zxf7/gihkKCF5B7olh6GEC4vG5Ri+pgGc8mWScyAdDDkM2hKz/iGrWEFx8FN/luAwSx6yzn9816yzaiXJ5K9eEtWPqJQbt+GoBJcHdgQcgYCATBboB4OoV/1o1Nx0UdG4T8KNpM7SDcldmcBhapjLP9RSdZReW+OAgCbEaitIE3TGkEIKkSpHeB3BiNZXM9qxIlfMIe5sHRKIjDUycZEiD2M4AVhTQ4pZdnB3etVHpm79+tpf/z/5MacpOGYWQVzAXrKs2tGCzyqHQrNmR54y0KhwksQigwSRUVr81H3pLZ/Lb/33orVb63pk7aRwOmSNEWAwmwzRnqCv4LZyBThk23hSuBCFke0wr+ozW7Ij6EVlGU2RkcQg3cyjnZujBzyhUo6q1XqlqD2wI+AIrFgE5DhAh7pPGUhG+VV/L49A0WTozZFpp5iutSXOvRcxWCR+XqkISHXAkCk/GVJ5YKzQiFK2heNmpX8mvYDl8g8zEMZmFHayjhRxkdpCMgKN/DIYAsxwI0HYhpxDJhpJ0cSmaMeNB/7hxfGW78oEQVo/vYzJxRA2HGIBSDTICXkhLlQ62sZPnCC//mP5Za9u3nhhK9/HI0ws5dIEGiSuxX46klUE7oGGQuYjgKMca0kJf4mRoRzhCXcBjGixR1ZwC8XFkhxCVXwItpdRB8KOOcbuLVUz44SjKmIe3hFwBAIC7QmiKEe87YetHbfQy9fygxNIuumfEtZx0s22HRk5ZKsTAcZYeACiAAZPxlL83LNemo1q2/zAWMIA58BOGOGlt7B3w4jMpnedIVzMRkoWQoZD6TaTmpYqM+qjoOCaHX2nDjT/9bWtH1+H4EHBEC8Qfkh9n+QZSDSQ1qTadzeKtn03v+zXWjf/c57tUfbYlx51CWWHRoSlNLn2oDe1iO7k5opXmiIdCAI1jKcsq+ZSjrYUZzh4yl9JQpbqoJQQpGBmy3ePeoiC1KburZodJxxVEfPwjoAj0J6j0X3QWwJH85qPShpMl5isRbDBqICxKJMzeltGmdDfO2irFwGJJGxQpzGIp7ZJweCI8JLaEpIK/gapiY2+TbQqYXv3wGwUJgRjhM9xggKz0fiO8ACVBrv1ypio2ZranV/8puLAvcqFDeEdcd3g+QkzfOmFYDx6q7kz2/g3rav/ONu/IyxjhUyI0sA45IuFXCk/qG3AQVQEPxlWIgw3YDwE5kBywIHUI807pg5wMwsf2AblVoilOJRwXCeTmG5QFBlpFVm+6/aqeXHCURUxD+8IOAIdBJjm0BXRf/5oA1M2KaHpSZnS0fPTlSNxFgtpjwGdd/zv6kWAVqHRdwiJQrstWXMyYqHWFdx76Oa0I0gdNI6HtIL/tMCM5aEClx27t+b/fo5Ig4kbNJz2OhA2hEZM02aItQbNWRajygC0It723dZX35jf/hkIjNhESCjQCn4GNzVBGYFiRTwrXAcljlx9wVjanIJ8hX+KAlYWrkVKOvlShAJhaY5Qb1M4jmM3XggfsINZlu2pmpslK0DVjHp4R8ARGC8E1Olo7jZ105ez1n4xDHXBfjgC44vARJ6iD0AHcvDWrxe3fA3GAGM+NKrPzHhRE7fAylWONtiiBG2hDp1p/YhrbvpkduWbswNbwwrwsLQkBFhhJ2giMwp5JINjyaM8+pX6RPXiegexwhqGF8cRWBQEwsyLSZfM9jb/B4KNRUnVE3EE5oVAC5sPqToyBsvGtz9I4xVp7n0Y20AbIm4hwYZUhbyuhTbc+N5fZtd/GPoS5HxiJL1jWt5P2ot1pUKFd6RJPBHnU1P/dV3VUjnhqIqYh3cEHAEQCOKNoD/Pbrta8x+TTjs2jsA4I6DN9jAsTeAQzR9vzLd8V8qLoDOZNdcyC4VYyB5DAg25sUOSp6n+7uIrv5vd9SW+gBQOowUnHYuQWSNa5jdR6Eg/JesTFtFwiaWJFCtVi+WEoypiHt4RcARAAD2z5nPFfVvQiOuC7qjfXNFBcwSWHoE4r6MaYLFMUI7k2aZ/l4BDnGL2o4hZBSqTU5l7YlIh81exjda33hLtvolL/jVSfJCxYmVFfwDBhiasN8IKVt95pu2G5bus0uGEoxJcHtgRcATaCAQxcpTfdbV1u9LyOuHw1jHmCLBfLg0Vyw2MNXFJd+vXlN/ewjlYNaOspBeyiQ5D7dSu7FvnJCzQwBQVL1hQDVx+4ZscX6hB7TLmAAyXPcRCWtmrMmLzopUz2MMWyeC7+LWTdcIxHP7+liOwuhGAW4RpYX7n1exHEbDQNuWrGxQv/bgjUEQHMPtkgSz8WN7D9vwk23ULXiX65Fu+uaRUEZvOG7viK94S775dc/2YNTJ1jcQiLHKqWzdvHH3iWraPYBhBo1RLcbUTeBdwZPlk1QJ5B1EVMQ/vCDgCxjbw7VxkWzenKVs6yRFhmAg6OI7AGCPQ1p5gm5GlOT7q4mTHljTvaexpAyTuNaVTaezMrzg7332LZvnM9ROc2k2FBa5a6oJehr0KV+oRJBwy4yiiKYpKYSFhaeQSjpVa4V4uR2C8ENB2GDhxzLZdj4gVrQpi6vYWU+OVT8+NI3AIAZl3Bm8WaY7b8LDI866rabmdAy8TwYI0iDPCni8Mr9ALOcyNrvu7aOcdrbAHm4ZbsQ6EH9gyyLxDMfc2Pu3Ev1z/xvgiw4OInIiwTQ3l1eJYIVPxOIR0xRc9uCPgCKxmBLQ/SmvrDfpDN8TUB/pR3YhsNSPoZV8CBDRkhq1/8KuhWbpsE9qjoJahaAqvRStq0oRQ60ZhIrZx/T+xJgVlQsrEvreR6RKUaHGSxGQDORBUg+TyFBBk2oIBbsWj8gsV4/fgjoAjsHIRaOzFBVAwW9cGWkieV25RvWQrC4HgZB2ZhAyPtLyT2Tp6E2R2oh3BSS62pbqPzCPZdnVx8ycpfwb3IGBvI9OVhdGh0rAvjSCS6pQJRgMJh3yktlzCcQgiv3IEHIEFQ8AkqttvYOYT9rdAxb1gaXnEjsCoEAj6lOB4g8k2SsA0ePKCc/Cvbclh/rvYAJYtQ3S/uafxnXdro1fm+HmNFRqrcG8gVCrSHIW1KiiS8Pcu9pH4sthRtUuPxxFwBPogYPTiwE7ErGHaQ/fdllH3eckfOQJLi4DRYgQbsroIg6ac5PKbn3jSCMtVkG8gx4B2wEX40/ruXySt/cp2XM8wNqW5B9aytAVZ7NTlUhj5D4Yv2sY2jTOpUI99VNVsuEqlKmIe3hFwBISA9sosWqwODIb69MNowxFB++EILAsE2m01T9dorh6UAybbsBWwCRuww0K2XRtvvwqOIYOPtj6F/VTCDrHLopSjyiRms8CkjXpZIoxVy0SSN8OW0NUScMJRDS8P7Qg4AoYAfUdry/e4tg056ZHxg+TgOALLAoHgh0M5jY9ab2TC7DbQpKBqkedzbKDjKNv0V0GBov1mNbNXY8cB1uobN9tcAzkQPKwligZA6dFV63r1AVcVIQ/vCDgCPRAoohZzHrOhQ8cSTNh7BPXbjsAYIEAThV6ELYDIDeYYUX3dCcqX7Rkr69EUtYk16eym/1vs28HIyu8CqQZbFcpgFLPSVTduwr+0QSzL4KWLqqNoktORo0+rWqWrDriqAHl4R8AR6IUAvhYDyQjS6WD23yuk33cExgQBZudacCGnGdp+LD/t2WGVilbAttefBM1g0dhdbP6E+diQZbQkHpARFSLoFcakNIuUjeD4S2439MEXwYADkU/tsKrJO+GoipiHdwQcASEAy5iIWCAXrOiwuJM/g6AJd3gcgfFFQOu3RTYYO6NGvv6RskmATsQsgdUKWZZc8Uc+c2+/JMqCrej4lmXxcgbxapvKYsAhkY+kQ7V1J1fNgROOqoh5eEfAERACdM1T8UQw4JBmW322Ew5vGuONAA4kahJQaACN8omJkx6bsrMK9EKrXfmjg9UqGlFv+zyKg3DDT8IHFISToVRohU90tBMObxuOgCOw8AgwQ0QbbiIN+m58FNCJSyXuhyMw1ggktFUaqhQraZY+5AlRgdPu0JrFOzjw0R9HW77SOrg1KtaMdVEWM3PMJmwlD8IhUznVD88n3Gh0MevA03IEVisCkksjZF2zTucsT4IPaHXifjgCY4wAFBmzx0xLuuU/pnjki9puynmg5SgZHjiYyxd3foNCyOuGHwEBLEb5C0TBqAXOESfrTm4zkCoQuUqlCloe1hFwBAICwQV0PvGAU+UQmkPbacrns8PjCIwzAmj9WGKBAyvGzvopz8KFjLFkSezkTwar0CSa2p3d880kXkOrHueyLGbepEiRs5L2Bw5XSx7w+GDHVS0X3kFUw8tDOwKOgCGAbV0znmSNXPipPSTNFs/xcQTGFoFaETe1H2wQxT3kseSTXchYpXK/yfodX1L+s5arCMt6RI4J5ZCdFgRNe9Pn0QMeVz4d/MIJx+BYeUhHwBHoIIAFR5HVj/lZ21dCxhyZnBR0HvtfR2AcEcBAtIZGBV8ScTzxc88hi1hshP3bsIoMCpQib972ObnckDtRb8+dSgSksJYHygF0Ukite6iMuCoetYrhPbgj4Ag4AkKgQBx99EPou+tF3ijSWq0Wsy2F99HeOsYYAS08YRcQqPEDTo2Oe7j0KQyfCDm0ASz/8mLnDcnBrTj5qiH7kLd+d54bqjOrF0lTVi9JClz5ulOS+lGSE4FZlcMJRxW0PKwj4Ai0EYBb1JPjH84GV1jh1dlpAWErvXSwYHeQHIFxRQCfofgSzZJTnxPlcmCVaO1rDeYhpUGS4Fwirh1ea+1Tc+5YeIxrWRYvX3nSSsQ2IGesGi6SBz83OCxhelFNyOGEY/HqzFNyBFYMAnlc17xwzVGTL3zfwcv+tGjsRR6dyox9xRTRC7ISEShqadyIHv+a+nPeRotltMy4EyxGcdGhG0eeFD/sxdFNFxasvMoZHyHWfvBpI8rg40b/lNWOOyN66AsQ/uDzryo0Wo9c9R0P7wg4Ao6AEAhuGelBJHdGxCHNuPcn3jTGGwG10DAvl5NcxBpYJYTfYTsVVsKyLjY8DjKOtnOO8S7RwueuKJrIMTXHkL0oCGF3G6QVFVUqTjgWvq48BUdghSKgKSH/29RQZQz+zVdoYb1YKwcB4xZqsFrLzapu2nAe1ZJiKmLhldoxnCOcVk6Z51cSdlCBnslclKkFTuDlBqxN1KpEHJhclRc8rCPgCDgCJkxNiiaTHQQbAoRTxemOw+gILAkCjJQ6cLOBd1z5kKER1zQWxpNdIn8oh4vrAlBCRv8FEgYPC2ysyMLPToDB/jrhGAwnD+UIOAJdCGh3K00B5cVADjg4uPL+uQsivxxbBBgpsXkMvrohHSxEYcM2tWaOYPRsl7l8nPsREDBExDQwGg2qqGCyVZk/VH7B8XcEHAFHgH29tV+bVhMGL0pxS7PG6uvyHUlHYDERwP4g0GL2g6X11rQnmeiyHH/ZfD3XLvThwGp0MXM23mkJCoDRpELeV7V+J4aqVc6023BUhsxfcAQcAUfAEXAEHIGqCDiHq4qYh3cEHAFHwBFwBByBygg44agMmb/gCDgCjoAj4Ag4AlURcMJRFTEP7wg4Ao6AI+AIOAKVEXDCURkyf8ERcAQcAUfAEXAEqiLghKMqYh7eEXAEHAFHwBFwBCoj4ISjMmT+giPgCDgCjoAj4AhURcAJR1XEPLwj4Ag4Ao6AI+AIVEbACUdlyPwFR8ARcAQcAUfAEaiKgBOOqoh5eEfAEXAEHAFHwBGojIATjsqQ+QuOgCPgCDgCjoAjUBUBJxxVEfPwjoAj4Ag4Ao6AI1AZAScclSHzFxwBR8ARcAQcAUegKgJOOKoi5uEdAUfAEXAEHAFHoDICTjgqQ+YvOAKOgCPgCDgCjkBVBJxwVEXMwzsCjoAj4Ag4Ao5AZQSGJBxFUUxLqrxTXpQBZt6xR73uly+O6mLREhpVhoeLpyxmeUE85XV5UUY+84496nW/fHH5XgxdtKFfnInVcFEN99bM1Ed1Z9zyM6pydcdTlrG86H467XqQMNNe8Z8LhMDKqIuVUQqquLsgwxAO3o/juIzIoivv2EXZksrA5R276HV/WrCR/JyWpT5xWlnKANN+lvfH84JiWoa7y2vXM9GeeccK1ev+eBa5Uq6saJyrvkX4bkgrvU7g7hSHhndaBqbFWTVL8w9Pfso8lBfzj3Y+MVg28jyfTyT2rkXV69uZNf5pFTRrmPG8OSbVN39wrCCcR14XSwJR9ydm4CxJNuZTL5bh7uo41GtUjbdXvc68P/NOmVafR2WYeV5YElUTIjzpdiM1z2wswuvdJZ1Z3kHulJmcGbh8tKouuiFdVQVf1oWdZ+sd4vXV2U5KoMqLZd1sujM/ViWCQydJsmhZsoQGT27wkCA8pISDN0v+RXrdVTVzkO6+Y4E520UZCTHYne6o5n9NnJZ6dx4GiZbwVV8ZJNoFDWMZ5lyWuju5mcXpvmPgc7YLi8RetzvdUa2A6wELZRDZecBXFg6cWTMw8+bMO4ucpYVLbs6YrezzrK+y8ZdIlhe9MlC2kzlD9ophye9XyrkFtlKT8/JiCUtRKf8z8zntdSsRN6fdt5/Tbs6MbSR3ylRgG0S4aCCTEEnbeZCClCHLDE97y+7beZQSDsvlvn37brnlFru2M8mfeeaZnKfdLJ9Oy99IfnZH3n09ksiXVyRW/DGpl6WCrmwD5cXgOSlfKS8Gf7cMOZ93iaR8vbwoY57zaXfIEV5Py8m0nyNMqGpUZU7Ki6FjGPzF7rS6rwePYVmEnFm0mXcWvyCWh3nmZNrr034ufqEsxUXORplceUE2uq9n4tD/6bTwlQnHtNj5eeutt24Kx/bt22+++WYjYpwRBNl1mSS0Y/369aeddtoZZ5xx6qmnlvcX7qLM7Z49e2677basKNJgfdIrRcLzCEZ5/PHHk9Vp+e/11njeh/aNbb3MRIyszrzZ545R2D4BZn1k7YEWu3fvXgJkRZTKGGmWo7upnHDCCTSGsi3NErrvrfLFjRs3EpBG1R1531enPzz88MP5cMoIux+XN8uL7qcjvy5TsQs7gyrYjjytwSMsczVc8ygTohT0GPw0UXZ5f+aFVeXJJ5985JFH8rTMwMyQy+IOnyGtNI/iJLqf3LrMPK2XMpY/X/3qVy9tJ7l161bGHaumkYBPJHxifGhlSbsLOJIkSvT6XCzVp0RhSw2OVfQpp5xibbtPbgd/dL/WM/hrhKRpXnrppd++4kqgIZdZaKC9Kn5mPZ14/PqnPvWpZ5111imnnmzpzgxTKT/9A5PbPzr77JjvqPcB0GmaRnlGcfiQXvOa1/QOO75PynrZs38fubRGM7b1UuL4y896dnk9yMXXvvLlQYLNGubNb37zD37wA3rVWZ9234zzIooLWgJH9/0hrqmI5zznOTkDVDJ3ujPjtwGAlmkVSgD6RPqCI444gv7RDljRzBcX9M60b5a29+Zzzl3QFPtEbpmJCym8v/zl4ZsHSZxzzjmUhQsoKZj3SZRHRZH/9XnnzZPi9E9i0Z6effbZG6/7Acklh0jF/RLPY3UptZjnMs5929veRqueE6L7RTHSHxdccMGFF17Y3Q7tepCvuzsjNBsrRRmVXZx6ymmHHXbYYx57Jp8Y8+QRDr3dqc+8/v6mTTTCMjNdAeZojV0hh7m0eqdyyzo977zzKHj/uMgnAUoAv/3tb996y238PPyIw57ylKeceOKJ9jrBav0jmvkUekF0VPO2bdviYAJCvMIldKPdCXe/W2bFLngELf3sZz/7mc98hk7zpS97yXOf+9zyUfeLo7qmn+/PNsg5bCPLMnqrqBiBofuocj5gPNTLZZdd9ulPfxpguz+2EnnimYlw+bR8tMj1MmDpRhiMiqaKuyGaNXIAISTkIB5RWyBCYxvEWqI9a9Kz3mxnOHzXFmD33n2MDTTWK6+80u5AOBj2nva0p0HlZ41k5DenFWTaz5En1z9CS52eqH+wwZ8GzHsMvF2x0LHQvXTdWK6XyKc3/eCH1j4hFr0OcG6F4Zm2x5yTrrtXyEW4Tx0FUthFkPjQ9IlVS5xmw1u8kyRpZrJ5eoAoMpn9ddddp+jigtGK8jJPhuhXS6ByaAqgMpCpdsMeqt+omiyCg5Cc8IRJc03bpgvs/1FZDknriiuu+PCHP8wgQjRoCe65554Pf+gjz33ec37/938fxAhWgXDQEOEHH/34BQcOHAjqkvvV8SAFK7NF4NCgAbO45fbb/uI97/3YBRe+6U1voqucWbDhOuhp+emvSSEweSMhsQ3V88xcTItvMX4OXnB4Rle9VPzUQtnL8ixyvZTpLtpFu6JFKvsBBfhkSU28atfVuyQMhfRhfMS9g1R4Yl9Tdym2br/n7ss2XHb5l9euXfuMpz7tpS996amnndId46wtatab3W8Nfm2gDR5+gUKOJhtFTAPp7rL65HbO7qXPu2PyCNDo3sNEnxyp3ffKWAkvn9CmjdehumX2P2tgQg4I4KyvD3KTLzQlq/qsDgUfLlF7a1qemXKoI2gf8c233nbzR/72Qx/527Oe81yknutPOH64tDoR9vlLsvdDb8ESul8eulOBScMpGQsHHA4vu3TDe//qPQ875ZT3ve1PHnumhCJMgz998WcQQaGj/MAHPgDnUFTWgMpmdL/0O09R7P3u7/7uhz70oQ7bOCTanRa+0k+KZ6YecKJ3vvOdZ599Djq5aTF0QzDt0cr+2V3wsnbKCys7gt9XvOIVkEqvl5XdGAYpHW3DPigaw6WXb+CDLVUD1mzKFtXdisqbgyThYVYkArQHjMqZntIYutvGrIUlDEf5CJpSXnPR/Xp3sO4wK+B6w4YNr3zlKz/xiU8wpk4rdVk6g6IbkPLRyrtA4/He974XCRA8jG7nWc961jOf+UzGpj17d7//A++DcEAeKLUIB80CUGY2DkOK+yhQzj333FtuvjVKUuMH3YGHA5S3yhftgjOSK3pJxHQrrz7mWSIDHIi6kacKqdrt2+5hmuv1Mk+El+/r5XdEEWgeHDQGrpnzfX/TdWjl1UgQcnYGg2mtaPkW3HM+KgRoMyhk9+87gNavj2zDkrP2w9nkwbxog26Zme4GWd5cYRe5ZEHRBR+/8JyzzzW1S1nq8gJUuea8wso+a3EgCRT2Xe96lymbUDzBPCg7fJTm8bznPQ+KBilpC0sMlBIpi5GbmGq/4Q1vQCTCkCbhUoCPsw1vZbBZc9D/JpHTXonKWq0F5ue+vfv/6q/+6j3veQ93+MnRP56V/XRa8QHN7jAdoV7QpNA/eL2s7DYwZ+ns4yUYF3yYtJBwh7/6dlBOI/dmNkZrsZBleD1d3d/XnNiungA0D0ZQGS1pgOw3RhLAbN2ssQERnMOAsrZHgBXfrqyAWDwwd3/LuX9snMNACAC2v6zVAwU4YD1mq/nA4azn/QqE48UvfjEIMFpxwU06okPaGWsr3C3bCso55A1ERKdlUNqZKDi6Q5avdAeb89pYC+eScxCtoipiFNEMqPv3758zkpUdwHDuLiN3qJfXve511Au2Jhx8/BaMs12U1VFedMcw57XXy5wQjU+AsortomwD5JC2YTcZRZgwoHdD1DFtMkr4MobxKZTnZJERYB0ABkCDtwTs6+klyKR1OJAVy7D9LO8vcikWPzn73Hbv3n3uOW+hWy4zAJLll1ViUj5dYRdW0ttuu+1hD3sY1xwUH+k7slVUTpixI+3AFwalPiTh4AfhDAh7AfjaktiiveR1Jkzdr8x8OsgdYuCwtmvh1TnGkgZjnsPyxdXMOWb9/q1eduzYAS0TUB2vt91oA6n9LC+6nw5yrVrxehkEqaUOQzVZFsqLTo702dtN+77gHBu/vwkJcNkzWgOb8WInAv+7ahAwLbZN/GbtdqYhQYui2XBYYBR22H8Qxn52n6e9uGJ+spjFiomQA9wYp7rZvCHDecWUt39BKCmG6qxJIRiwqOBxYWO3eWqxec4RRx5+SMJhMRqINCA6JrQbNqoZfN1JWrDuV7qfDnhdRtvd0C1mzhy33HY7nGPanGzAyJd7MIqvarv/wVBx9pvP2btnH/bhkn+azLwrpN2xl7qv7x/NHL+8XuYAaMwed1d0ec3SQAz4+ccFZvx2wYd28223MhtDAkwhZjawMSuZZ2cxEMBO/6qrrqLlTKMRs6ZdNidalLqgpL1s0kxHrUVZB7KyW1c3Vpok5zkWMG///95RgmbFL7/H8v6KvKCYj3vc48x1jY3mf/AHf/C+970Pew7sMSiy8VGkHYcIh0EDTAzw73jHO3bv26sJdGdU4x1WyGAoY3h1ozl0wyoro7vyLDbOdnHbrbebdeuKrKc+hbLidwegXjAD3ntgvz7y4GYtgBTjK5Oq8XrpxmpVXVtTKb/fsiXYHfv+uUkwu8OnjdZ5dfL4VdUwBiwsXCG4KVJ3QlfMW1po2uMow5TPucM1gw0C8/Lmir8wEh9GLiZ+sPuIPnnjD65DOdVddgOn+86KvKaYWGkgp8B0FBU/ZaSrwUnaS17yEuw2WC6LPpcFLCyfPkQ4SmgY1VBnlD/tgrPsRnHvFZpX97kXgta7cSawnS1keW2R2E9r6OWdMk4Yz6UbLv/UxW0dYXl/9VyAjxXW6sWuDSi7pl74Z3e6z70gKiO0wGV1lOG77w9eL2W0ZTx+MQQCJpaY+aLB2w1y9zXhqTV7t90Vhtknnw/9oM0c7ExIXoRz/NHZsueYFsnMdEd1h4TIIWcOi7O8GEkSxGbxQ75HG/NIsjc+kQidThWQK9zHfemyDTQfu2nfPk2l18EjJjya0x8KwxV34wsv+IRFwtni6RXJ+NzvhmJarnjEYd9UeWZ2x6ybNmZfUyhmKH6Hon3o/3x4WjxL9ZPMD5G0fUT2IjGEwSX4lJ0rrsc85jE4+KIN/HDTD7725S+bc1LsRv/27z7ymc9q+H7rW9/K+RDh4AcJYP4DR+uTV3vUHaD7ujtXNrWyAnQXo/ua8Py0cxmz3bGo7OZHPvIRUzz3Sqs73ZV0TXkNDerFpFK9SleiVwbohVU55S3JhF2UL9rF4PViCXXX2rSo/OcQCHRXH9fAa2eLiuuyHsvIjVvgBZLxoLw588JqCqNjZIeLVmskRDPjzEGW7KK7jDPzWekOaBC/7YxjSVR6fTUENrQN+bK89PYm6ypBG65SeIsOCrU9FxbVcPGUGVvQC3Jo2StL3Z2cFYFHHBasLAvLhjGYLX92v2XXzPJNyNEdpvt65iujukMqlpBlmy/CflaKn1fsdbuAFMz5uqXCGUoB58BQ9BWveCVD9sc//vG3v/3tb3zjG+++++53v/vd5h1OhMNe4AKwpHFRij07LMtHmQZvWWBIH9TPxPtc208jg3aeNd8Wj5WwPHeHLHPC/L5Mi4syz92BV961FR8lK6IqNCd9Ss0jA7AEx97tUy/tauoMAN3oDV4vLGC2hOyVPjnsjt+veyFgMydmVCao6BZaTLsTZTlPuwG3iuA8K4PsTpG36I+QHfafXXS/Mv9rMma5tRxyzYU1wvmfic3YhiUx/9yusBgM7ZmFUscS6oUAHATg58xgc96B45auwwhMVMPFM2dC8wxgXxbfTvfXZF+Znc1IxT4u7thRloWLrHVoWeWsmbGZYfnK4kDBF1RL2l8T24FxPW04HvQTC1Zf7JVjQzlfLBThfmKJGWW2ktqZvXVw84WtBlZieNWiSfze7/3ev/3bv3HH3pNrcwsKLrAS7ZGYpLSXGdG2bxDYZir2YlkliJR4xE4ttllLmQCKPeZSOCqlGrbv+Cnv2lzEXrek7ebMium+QyQXX3zxy172Ml7svt/O1or+g2MSZiGl3mTWsg5XL9///vcZcrbds8OGKCIxbAevF1ZDWb2U786aPb85IAIG46EWrgqZ3ndzR9OXPGg44fkdrllWgVVfrxTtdfuKEXIs2sYr5McyVpaIbbEefur9nK/3yvOc96cVuUxizhdXSYCybVDeEhwML5hkcme42fA06ODK0BdcPHF/WnVMC7mEP5mCs/lzrwyQbabjrLZgvLRFFgxrFtgA5JoLuUfrIUQEW5NwlEksDhS2w4tljzxw2HWZjcEvVMAgjCQSrnv5rS8jtGBlcgz95ehvjywzFl6Ew+7CR+AETKPbW9eU8d3/ooyd22IboUPEGJWNGzhsV197w0JSuxx0amzfAu34+IWf4EwxLBN27v5p1/YBcF0mznCLrIbWjClK9/0ywEq9oFMAsSRO847F7qwlHbpeMCcmCfayoQEY7SD+SvWCVIzdjLqrftYc+s1BELBPnRaOEvS88z9gr3RXrl3TJBgq4ItXfvsqphFY+g34UTDRga1YKkR+9zbZeaFqHSRvIwlD/m3KQYbpy847r13GkUReRmINuBu38tGqvShbCBeGjK2GtZ/dsAyNG9NLOhPGm6Fj6M7GQlzTU5XD4cz4Ldt2RomPIhuDR8OtewwWYjNfDnd4xOSQd7GRtBd7BBzxbQbZslyLDH6fYtojO1uuJCzhNz/od+BtXaZAsyNigXmGSIrgXGAt8q//+q8st4V2lE8t2u4oSIKQ573/ff/rbW898vDDLBN2JhhPy1e4WTqzKmPg5q49e3GPWt5ZJRfUCzNZ256xT5HBxzCsWi/ESUs9/wPvf9Pv/e66I1WD3LEzF3PWCwH27NvPl1m+0ieT/mhOBA7B2NWn2c3uuuBTgnz/yZ/8ySWf/9xb3/bHJ64/3mSNhLRgvRIiQMk2LCS7K5kWv9crI7lPWhykXrIN+zmSyC0SIuRCyXRkQobbCJNYGVEZPpAD605pD5TLWk55rlpS4uQVeirknWVsVSNZhPCWz+6E2jm//wDETdgwCoJ3/9m7mErx09qSnWdGUkbII1p4uWCnT8jylZFfWCaJdp6pD/L6IGG6C9jWzqCwYNsFa23g1R1i2jUJWDC7oNezXeDsJoHL0k570e5ztlesFsvw096yXqmMgbSsl2RgK2+u+AtKTb3858ZNlBRA+NmnyFYdnO1i8HqxOHkLdRUrp6vWi2Ws9G1cxtYnq/5oEARm1vi0b6SEmrqG8b/p998oHo+epUsuODMhKpqbhLF2wvWe/fu+ecX91vLNfGv+d0jRPuoyXcvD/GMuY7CCc+awYtq5DOAXhgD4cKFvtqOP407prdyeVsWqxPzKK69kuC1ruWo8Cx2+zCcJWfOw8tr9ssGUwSSb/4M3lT8te/bKrFm1kEg4LIydy2hnfWVUN7tT6S7a0PFbWfq/PjNMdza63zUo2tzC3LbwmLvlBKg7dPc1MdJ3cAe9ka11sacWY3fIXtdBlHoeEhECEBvHzJBlbDzl2n4iRjaTnJnhV94disx0wQpOpRjmfYoJUEPXi6WCA9rzzqtWL1Y7q6pe+lTB/B+V38Kcn6GlRcXZKyg0jfrPmQdeKSO3ei8//znfHToAmeSw5IiEa87lz6Gj7fUiMXcn1yvYartvsFupmbyVENEezFu54TYcLO3aLGKTd3anNVyEC/FWWeTyokyF/LeLEG6V1xD6U0492X5yHqRc5bvENDOhMsXRXnQn2n09XCpWzEHimRam++dMrNqE44pvtac4hs7McGWmzbiXidQZZz4aiVN5v+rFaaecjBgfjTIR8o/XuzPaHZvdtyyh9JlmktMdcuVdf/uKKyl+WSlz1gvG1Wc+5ozR1ksvVLvrCwubsl76ZLJXVH6/RKCNapc+pXzU66KsCPH48z9wxGFrZZEerM052z8+WLtDTRFP+YrFiSCtFAL3SmWe97tTtPY8zwj99SEQKGsB8QaOpMvl09wvK6UMw0W5tIFNuQZMDqX8l8JebmU8A764OMHKXJUXZbrWcc3afSHnsO1hS6825VvTLmSTMGPrsWlhFvTnrPkfIsWZ+IwkEhEOZAbYnXFRtrk5o0bwzka0cwbrH4D+EcsPmYKEA5bdJzzlJ3us1Vk9A5vVC7CUso0+jcDqDqFRWS9Dtzzq5VWvelX5ennRp3Z4VEqeyGSffPaPxJ/OE4GTTz75z/7szywSasHqjrPVSJ964bMasKKHzmEZP+25vB46tllftGjt3Kews767qm6apUX/WijBxMbrta95df/AoEcAa3KMJtN0rOOPrWWefM5sNjzCZGrO4pdlLKPqvlNeL9CFIU/kZf4Hz/DMLNm784lhZpx2R4QDu2L7UWa6V+j2O0ny0pe9hNUi888Q5vHlhrb9E+UpdJszBm6W4RLZOV9cpgEoJmXkAOc5obZOnHoxRdU8i/zbv/3bJ554IpGQ7iDDA8EOHDhAhufM5zwz5q/3QsCQp7UwPKDrLH8S3mqwf9XY2jEC9w/WK/VB7pM3i58k1Kw7fGiQdwcMQ5yEXIiYB8zA+AcDfCwMWM1uQPXJsLUEwKQ5sfO4YdsnPAE6qjppVRauIfXJw9CPrHTdk94y//aIcwlI/1TKkAQb8JX+EQ7ylIQsnxbYflrqg7w+LUxZ5Gn35/9Ty2JtnGAwJxn6pk6j6Rk5q+fxkc7j7hL2DN37gcEB58CpF65xiS+IONoCj2nvUdtlcnSO5RKgacFW0k+KqbpI2zUyrUlNKykhoYAo8u1+/8DT3p35k9df/ZpXvecv35t0Up8ZpjshqoZXaEiroV56QbG098uvg4qAL2647HIujGpgD9jfPSI5p+4s/1aVFhsxlNHOv3QWW8lf5+xn5pPiQuR/PvkZn3dBRiY7Ya/p/rkKGBYIszFi4Pqs5z6HVS2mkpv5YtlUCMk1nIZl9suoNygbJ0Wz61D8dkEpDkZHVrTyPBOEzrttQwV+dkcya/hR3eT7ZT1jmTeKMM+YqXSW2s4zkpmvi3CgweVsVIOLMtMzQ9udpz7tKSbemDNkrxi4b5XKBfTZCmYYEeesb3HfeiiCLQQQsya6tDeZhVDq0i1KL2TKTD7lqb9I78DPEtvy0eAX9i5p4cCN3YTZaoHrPhF2P7U9SAdPy0OOFoGy7pAa8lkxPHCHJLo/7V4potFHdoh4rLuu52xyvWKb9b7FVvKM0UZuJZ0W57Sfs+Zq9dy0mkXfcemXLgMZDgOtPwI0JAvJCHT55Zf3cnWNstt2gLP6xW8QTj6WEeGgjIZDd/svkWE4twDd5/Jp94Vhtfgj1Mbvb+Kfpc6Zg4ooyX13Due47lg4UHcLUYqaQRlcJLc50ayIH8plXJhrQoo0R8hD78xyxevctRgGb5fzSXGWTIzxLZtxUt5uGUOf4mPfZWLPPmEGKW5ZrXBKOMdllx+aKPd/nXTx0Nc/jD9dUASs7kiCCz5ShoeSo5efG8965YGJB19i2QDm2ZCmpUJObB1EdydII3/Ws541LeRwP5l5o3Jlnc7gnclwCS3ft6wNXHzRp2Ur2pm/9S8ObeDXfu3XrCVgx/CABzwAr8SzvkKYNEoQUVv9YlyJjA3p9UIMWrNmYFQ3DaXu2BBvyHg/7EE/82l3SLsGilIfPUj4mTEMcYeEOKymOBOD/awaFZ5U8IweIuvZUVSNszu8hD/0BXbL2sqcGX3sYx87nyJ1Jz9nWmXgMkXu2HX5aEVemC8m8LExw8rIzz6FLYlgnzCDPCorhS6G8N0jxKyvW64Ixpc5awC/uTgI8F1QF1Yd1J21HPtJBuxpn5zs2b3XnvLKnIH7xDPrI5oH+bGzBbCvGKIwkn/EyRI2P+ZE4EsbJN6wuugfmApinfzxxx9vTYiftrPErG+Vzay71eGmc9bAY3vT2mR39uiHbRsvHtF6ux/1ugaKRz/60TwtcesVcoT3YXjlChpWygz9j2KKc4RjJhrzz3BixmIlNHZh51ljR1qL3J4Alps+IWd9febNAWPoDtZ9PTPClXGnHLytsHPWPZ50R1hwEiXFkqcPEvOcORwkEg8zHwS6v4sjjjjcljLaAEC0/btLqs9Uq1aP3VHNJ0vlu0RLnGVmuD/aJCx+4xxWBDuXGfALEGDxCC5zjG1w7oOJ4YmtXllNXKBV6fOKPSIY71rky26tSllYKwv5f8UrXnHrLbfZz/6IlcggGO6Op/u6DDPyizIVwO//pfdPmtc5zFKnjLP/K5We1tg8pVw3TEpzpmGLSuYMVikTHngWBFjMHfwA0jEPUi+wQAs2SOBZkptxiyqWgD1EN+PhoRtlomw9bsuIDj1b5lcUDdnkfL7epQQgjk44cT1KLuTnefu7xuytZ46oPJvYLNCnbdEuUOSUymK2DWMXOq2eII79g+7NU8q6KD9h7ti1lYMuxYSmZbEw8Xn6U55qC+BLHx7haRiiuloXUUFntt6znTG7pCn6nDo1Vca5yBc33XKL2ZpYTsgSR4BCueeaM5wMczRcpnKh7HXKVSKmm53DQOv8wslD/vRnPM3imTV8GXKBLqblp2oqlueF68lrBo1lqzuvvcDiPkenktrFmfazaiE9fC8EBHXnE+0PcqiW0dRLmZBd9BdUky6ZtzPh0cqvGCW6IA0Kx7J0dtGrssbqPnUBVeKsuumriSuzTWAOAtu5vO8Xyw6BWesR326sHOFjLZ/SQpi1dzcPazMWAG4x0wgdG9K2J6T/v71zCbajOO+4XiuM7JURzg4kWAVJZIcx2cQSEpsEQVKVShA4VeEhJRXekJSRMVAJFK9KUYICLRIkHgueO9t4F8DagWVWAUl4ZSGSHVhkYenm1/M/53+/0/M4c+bMOfdKulO3+n799ffunp6e7p4+RTsZ21Q84BhLOZ8gP//88/grrzFpcI8k3YNhhe00UGeYCEgjAWMyQmSMaWKQXXoeAouLUgoccdHVEAsFMRLAErMr8JJEoK96UW1GaWobdU6p1PQtJx7rpC0TvJ1Sp2zvlol5Y82gEm2zfWngEo2qXrwNxCtFyzwCrsdoJ59NKuu2oRaiqvdQAxpgzqVlx0aUI7IfXHM1uzqg0W0+tqnwBqKP1yQKRsmRJUuRMtpgVM2DD4sYkWMCD6/F55ftVEDqLMQLEwA7Dj6YQIzCW2adtPMHvzjgiEFpaBMuEuDs+ROyeXraPrymnL5eJMG3ENnYNsrum5IiflTd92GZ8izCyClSOlY8Oosst6luCaq+WE2mMSCauqzxK8Ayj4AqHSNd+4LZ/JhmJrRKWzxs5Yjvbr30G8meMH5ARFmlaiHQ77xuh7ikomhXkXAEhuadd94RJQUGRojmm7EjsqewfzBLgXnONt/49AmOGCwsW/IDHZddupEPc+SjPaVwvv4ta20jPalj3RAjlrVUGtNl7eLZbJyCrLYL7EZc9qmvekGFlKKCXYRkWz5uZZ7TsoX9YhpC0YsixyF6NGulvVhuIYMV6CIvy12zpolAL2fURoEr8PwjoOZqvW697N7Q71eYgCaRfmdneMy82oaaPemuG663kAhAlk7mYJE/PJvFG8kM88mDfqJBGCi54DXB/AFpxwxUk3rcII+cpbTBThHLeMKYfqBj9cJ9998rmSoVe4MQsZ9X6Rp+OEMOK/Ruf3VRYCFQX2zWEazge4kA36/7ztQjn4bb8Ozvq150H+IC6jSImfSGsdm9xKFOiOyc1LY6aWV8WT66HJwy/XLDcJPSJGxzm0pxV7DcfFmxp0MEVONqAKRvv/WOThd1k9BPZirr1i4uhp4c6oNSSsuq6ZrYTCoWM5bJjPnq96e0WdUYcTk7ZyDanFlCVhhHqdk2iDXagJ4fTucr4hgxSlvKadZyLpWu0bYgXNLIjrR5zEEQdSaVoxBDbOQKMGUE+CRVdYEcRVjNt05s7/WCwI8//tja6/SKAGIu/8QRcAN9L0WOSS/SykKQz9V8L5S5lg/Gn7vjhaqjuVIodVewfLxYsaRDBKhKKh1GAC4AFlN4eTASjFuF5NPVgHFrZzxxweiZs+IVMWnx4UlSkckxQQbw0yoRk0mLRbOGrVovb9nzjiwGmGasMaZ88MEH9TEOAQepFHbFf6yc84dgnV9rFBrHqyEETJHFz6VWYtoQq85F/OwngU03AMcCDi815WEu/997vfBhGDrG1q/aDJS8GAkey5KbPnme+WEekLNTJxcUcH13MwenJg9DLcfgU4Ki+tQtNjceWhpdQaSJcK2alYJlGYGsreqQex6xf1hI36SoZklluyuaNiBGWoLeKiE1fXTUq2+U6iEdSyMs4XyeTe+kWRNKpSWSzQ22ajkr+4Uk5XI0DDTbRi+0Z+8d8csUhCytj80GL23pOn4v46IN3/3y5ODAWqK8Lu3dpWHWGLawmjNr9+7dq/chBbeGtBWaiV9G35w0Mqzgikm8QlAi0Hf27GfSw6aVgrOTyPWicAzqhYmoOneol/feo17cF9QRGj8MuBEjAD3O7774otjOPYKvzDCvSHvZsjmdTNqtSQy+/Ob0kdGrrh3qHO6W6pKnaZV18K4/2t5G9WW51OgGXJREOCOcZ9ZmlAGZwXrKf33wIcvnZ9J9PAip6mXxC/thqCVkUzEbHOsuwn15Z4P7EpjJ4YiFDHMeZh1kAXSw73/4K95bOIlSdarUd5Yr2gDfjraI20i7qqNXz0AbZJLDA4464vngFRacNYBewaSZDcIbaTLF6rKNlz7wwAP9HrpoXRMBt+y+if2qE7EsCXE6h4OjyjmDVqEkjh7nNhjE7w3u3r0bgqw+IkssMlwGODiWZxtHBDIAL1RHGRFO7ZtjVbDwlVde4bFqUZHonIHxbtJ64fCdN998k18KdRAqQ2Sk7hmIwZDGLLA/orO0OgD2NcWgXjMBll9HX4lnBKlNbbE0GVazOsNJrJm6sl5hshQtDDgKdz3GjToX4UJ7Cove4cryF0nnC6mmoj1gYpbO/ZtvvtGNHPGYOcgWow3BksbnRQJm7QpaKg2bXi9vSWtrWsv0ws8iCa5HAdlyxlI5whEgDH04N9LmLYkltHmvHNkS3yMClA6fR4M7CyQGi4WU/upHN+/mI1jh5YsYl8Svs0XpOmJHX8PxLOkVsHiZczVU+sC4GLKX//Mgk0ja2FhJJlFZBcQsWsjy+1IsNiOh+CRao8v8HTeTj1Idud1sZ8Z11mUnrRdeX3iNOHTo0I4dO3RXx2jbfSFdJECRNJIsE/IfFfUiRhdZTgQS+8KqCy64YNNlG0XZTB95DWsW1+zgueFJ1SZMZoAWq7s9M94EACqKKUjWiTydpqLIYhhLkgEM4latYi8YaQOxueYAOLaZPc5y7MHBgwfPpKFauqCXVWJMGPwvbjJ3qRD4uDaRWUu/HqHdow20s274j3v39KKCuQ1GGwiMzvYi+awWwlzXz36xlD9oQo2nmZUiiAx9mIJd2njGO8KW+EagFKSyACI2UrcSKSeUMKOguWSVQjyjW8ZGnhtA+nl6ZrqefPJJAMVOYR30SSUvFVa64X379r344osOtwlFAN4VICCmIuZF87nnnoNSJ7dDYCGVAARr16y56qqrKkvPPeRE9aKKoF4eeuihAwcOKNoxJsKU6wUaF4meTuqJJ56AklGgHg9AUVSExbuw6gwnAoGHsqw60tfBcSVI6qS6jp4lFV6YGH3a+ExvlpUcJFee7lzWMnCkCE60rUw5T0ylUzaAUupu38M/Zb5Q9kd6RbXo/Ac3miPM65qmu00/ILboPgAJt2S0E1gPdPrQkGRELXanL+FnkRz5/v777586dWoJzdY6jozh1mPaf/ncTW4tMs+thZYZhyDgTQlAEbvp/2HPHY6qGHXHuXm7dAWIEUgvkbQAfm9GYSXbHDKFFeLPjh1nNcRcEqrQRwUWmIlNPeO+fdwMet00WcYbs0igKfAGH5HnMDxRvTgOR49/ruGCMQAN9UKp6xSYernrrru+Tp3U4tAhffpVc4mX1PUCXEPbhGYd1IyV1mbMNJv9+/eLkpTSyO6siszLdNrHR4442wDAKF7/NnID8dyK5KMMs1JlSRnB33n3PSdOnKBPpBTijF6UIAG4/CbnxXXRW3KPAOosHBjJaBfQoxZERZetsV8VZ4U0+f7uu+/SZy6hwZihlkb69alv2Dq6hMZE1Wp7biFkDctmZWW8i5BAPI8fP86KsySAMWUki7pWYEcg7eEgTHzS8+Hhw55iAFP/iEm8iWBh4efv/RLgvvvuM4asRUdYWkRGylONnvHYseNohEOUprGEDIBs65aty2GHTmbYLLId6gUWLCFK1AsAu5lkWBbYWC+2XMg02rjz7mO//a1bggkagYUNGy5mYQ6aTFcj10ghn9RyD2uPqh6Eg8dhaFGRAUUf/Oow+2RpuvZI2rOsufCO3XBqcmPtHD4OFy655BIJHMtiRbMGMnvIYtvhw4f/7V8f//qbU8pGG0QPJgFsnR32rQC4CXL7tdsoFT6WmjFK6wZLlIQrtlbUTWAlV+ZCJc05j3Rg2RvH+lrLfd+zCwtV73phsY83E1s4O6V1kpmZ8LsNZoiMN+cTJ7/MWGQkxjPCIOWKBDjCMF3fEkpORhCJV2BHIHU3ZIgdJ+S3CRnL2oo8xASaBcLbb7+92IVnmSOAK0MAZWz3u/XWW5kSpyLXrl1r/LCLH2F3BnXQ++kClxlNcy4BE9dLMYvuGP78vffuvvtuFh2aY6IYKqVeYDn6OaPAdIlxbJOAEhpmSkkFN2usK43jSMnRfV5HL3VMcuj7PcisHUBcMl5ZjaU+PXqspZ1olxDPcEhanT1zxkdnicC999z3Lz9+6KtTv8cMu18H2xFRXrH5jxntQZxFRtm+/EIaIaV9IlCxjXb2qEWO9CXwbJTjimMJgy+VZhHn9mFBu+0B4ElBcwVoL6FfSvaK0dp5O2ItjwuYy+9m0qWI2Uh3qioVnhlWTySDEbJfU89Jaen+18VXJy2bJjyxSj77NA0geD2NXxlYlGqCLADPv8cff1wDFDBU5OnTp11Vohmak/+nk2LBngGHJMNlxpz03Mq3rZfV6aDiEMPVLB801IuCpBjSC3Dz3HbbbYwCIx5Y0VZaGVcksEeVeqksbY9k/Yi+QPRSp4dTgwQIaHIMkmh7jCewBEaurGGQpY+79e9vYyJUNCZoXipCNdLolUzfYMyci6gyZqcZb/313/ztP91190dHtPM69ePRWsF4EfHKCsPmGz5ripjoSBQV8R1gjTZQxCWxpMAdRDWzzEJms8blVqoI00KY/8O2Hiuxg6eq5UUbFlbzJV0HOT2yxBYosdzju3btEqxStSKlbrpZi2VTAT1Pj4adD6LSplFd1+3Y8crBgyc4EqMYfrpWhuXpP0iVxhEq30RyeO3Blw/xx6crDBh5W920aaM/MDhy5De8PfP800FShcBBC1xsiFFNAdsAAZzA8eD9g7WbEm0/CCmSj8zcfPRrjcT76RN3bN8+6Vyi7Nl57bVt62X0tYGXm+Z6OXr0GE9iruEhUcUDYHEIuhhVqtjBUZUpCwUzXj8afv/dUJuLsmogBDJq2X90P2bTR3LwYfHwrKEu0HQE0vgfLx984623OYyO6/JNG/WRDmMR5pMZQvE9S5pO4xueIj7RSB9FYDX2Sxhm/hgJZUgTzwhAHY4xGcNIAmul3SkPEq6oWh5Fv2IpcNf3kXwAABKWSURBVBSS7l9kFhRE+Zo/vYbeNqOfRdbmGaA7id1IX0qD/L5Ejpfz3P7nYzspKms81yjF4t3LPbVnzx7G36r0UbLxOUXgZ7/4RWrz1H76cdTV5aaeCbIuAxlBloUsCQ8PCzGSakqgUg5msBL6uy9O/tHFGzKBc8tWthC+cT384QfcWcMH3GJ1QG/XMl4eeZommZvxdYo4M0m70zAVGttcR1+HV/ev2V3BdKe86tfRT4pfHHDAycwS74veYiSjwQOoc8/CXVbGmFrDajU7PxJMWdkKXWrAZNbIs4ShTJnAmOkB6eJuwWwmYzgdr6i8fgYcf7J1q52yqWVMViQCTum/5557+PBPFpIWhvVQL4iKdZQk24JRQErLXQn32/TTG6hCPjuXX3jhBb6wUHZUf0XOxgAwvFDbo7NW0JRWsNWgRI8ZsVyuZchI0Dts49lPzdEF0YsIozfLli2xKOyXC0oHlKfPrP/O+jvuWNxsX5awgmkTAeLM5Bn3kRtkEee6O6laJI8JuFRltGFm7KAbqa9qvlrsG2+8AXuyarRJlxkGStdAPOhhyjRlTLRNjtt+BELvrHhBQqbehncAHvBRpmyImDnDfKjF8eR33nknptvy6GNmj9xZOHOG/R8vvfQSw82MYM5Z9X5W2jmeHnAgQafaMMXe45FiI++zrGxxtoHmmR10fLD1AHYpAyjiEhdFGbuJVYVQGlMGKHXTpIFCQGuIy2xSVGacHoNkCZf9wLjSy5/EZhYqGhlS2RhARlrM+OnHliLeMgs7K8UUj9+aeoFB97/NaJYDmapDNsBOvTAYqlY8OZbjVbZt2yYbrKtBTGbMwHja4Ko1HDWxZvVaXqHTORpK6wXByKVOEypg0TK0Z5jrbL2APktcF7JEWdlgC4WMlJUWQACj0kggaWyf4jW6x3eXqOK8gomwmqIbZOH+ZP2GKwteKoi6niaGPNHTB4DDKcBmUVJdNBVUD2YNm1lkpBqS3QcJzKVSZQULb3vKZ5GJC+KlujDgiiuu4PEnS8baA4HcP/nFl2wgldnCLJEL2IPmQTrFM6voMAtRqSMddoZ9OTXSrAkiw5mNmy712rZuIbRKcUM1qEhkMs7E7igpBam0wQFo0AsXKSspjPf/+YH7ebaZxZKjOpdOA1jyNEL64o3GMMbkWC1mRyV8+npR6KRC0pAcNWZeqMhVqXrh1KZ+n1jMKKwrlm/UADIbYlatSFZFWDTgo4ORMYPNi0ZJMy8vYSo1i2Q6OztAzxtHWya5mmyGgUpLbLz8Eg1IRq40pG3bf9jL1FSl6vMKqThnjadbBFTR1Dub27pJEBfvuzwpkCaBze0EFk+CFPRpkF73x4ikGBFpaS4NUISxtdLlpqvgqOnaGOZvdBwOpVzmXVoA8+hmv7fhoonMgOvNN95iYRou4Il4eyQmjApvTLvI5/WsEKVG2PuYY7CkIh3Yx9QQcwmcxMDyP1lFkJTLPXKlG0hwIxMBmAyQEMhS+6upG3Mllalxr+blnhfNSqWQVOJ7QTomvUiLQjpIpl7uvfdeFlb6qpcU3WEbVcVRKQDRzgiLXiwMASliv058YtkpAEq7VQ1zOUxy8H62as3i50vRDMOSb5tRypWMTDPDi29pIJMx4QfwLMEAXBkLGPqd6J2IpdSMswAGXhRmy7uBC8Om7ixAdsdl9qRoFDGJ+DRPtnph69YtmjIsE0TiFbhNBNShEW0HvFtUxY5Gt+o22ss02jAnq7CEiXGudBJx1aV3yz1798TPxKCvoh3g7B12Mk9GyoLmj/f9hGIXGRCPBEa/3n7rHe6vZkUNNsyoSI+/Yl9BUwSipziFF2y6Z2FFb8VL4pSUqtLdLWS10CZoYmEUycUxm7BIWl9OjezhkEF8W/zoo49yTgYq5QDK1FYU3Eq7oSmMTJ0+BJFXRotXohJxpZQCKQk6gZlGqdNwESi8+coYF00DWGymbhqZ5pXwlpJtidg5YJv1i4d+8jD4XuoFM6IoZNrOMgClkNokwQZYnb9iSjmV2ezS9gDz/GxiTWvY7B5tvGS/DSsb0MYYuNyqRS85lUtFbQQ2mty2MFpSVoqFMtKWl+VGCSodyFm9wKPlkUceIQtecsrsK5iWESCMXA4jcPN91CxWovSsi2KbuWIpXPzQFW9qZ9gnqq5Y06L1D1AORGApIQppgMtWgYGed0JuWzSKIJKJgKIYGfZx/+bIJ1u2TnV4T4OdkxbZYH2xQgy15bZOjnpg7Y+B94sTJ9nMwW0lekurY58FHqXSS0rPEI+caK/OLRmAVxPkSGZ7Cc2UqU+3RACyKCLodLgALopkdRIjMbz65FUys6I6CdKePC2sYrShp1pkl0BRNsjpUCTJ1t5BwliWiYSXibmre6wX5HM5tsDN9is+pOyfZ1iQ0cfoNctpLl2/fr18hEwyK+kp4spsiJSU0imQRmQlbCHuEFlYzHYow9isrlJyB6Rstknc8LZK0lQEnqzJyoqyIkeDeamnn36aNzkIMpqykBXM2Ag4jGppZLuthsDOBTspSpWO1V4mYKTOBKFqVkIElymN2XldOonL2WYgk2YVHrLIBZMB6IoqgPlcJR0TMnziCIg0zWb0XoqRlsnCCvu3nK0EWJRkcggv0tTR2jUA/CRv+onmoUeVXLNDotdxBtbMU7d4ShSmljuf6e1PA44Ya7Ky8tprt9Pv84tc0gFNs/W2UmTQq6O08Gb26Ik6U0YbfvBEIWMtiaImgqXF9sPb3uY2iizN7rThyqzqsV5sjzxV2BtMkiXUyzPPPMMTS5QWMpFTDVoo4mNU9V8NMimyaliAnRUAwViPxChjCgGp2+VjmZtHt9CLoMEYEfSSYnOmyIZF+RlNLBLsaCiraNCTspLCkA5kRlCWsIKZKAJEWCHt/GYpCapZUgET2QCxpjcAJKFNLTMGhbgNZdkYaQG/ZctmHtII4ZLlAGV6IUXAwIi1GNEIo7TMNWcMnRuPnrFKsbZwlgdzOk0KmEkOPJKPSscK6YvAoeOxK2OQbGR7LYVHgxd+2M8sTLWXqKx3ZNZa9imlYOe12//92WfWfyuNOWQHKcM6De4yWfZNgMPN0K/8l37Rp5joE5mJkcmMPX/s16us8mhhZkBDFvkwYnlUVEdvRyCIcB19e7yltTEjE2ve3uuFuqCC0kkba9JCr9Z0M+1kWeFio+iNu67nieXRRsKHN4MyVzcM8WEGZcf2bdosUicE1Y4ksAa42M82BbVSAMFkhTFemJQd2s9/1F228VJ2KI/cFf362LSWmBy1PfJaWVI8jUXCQJPhhcnk4BdbUriX47eIUZp0TZO6IhqEmGZoM/3a4mtlA+P8ixj2pW5o2G/QTtpcCunQuzYcizSDBlnMyVHTjtUiRTuIA4TSNqZhXDFJ3W/G7dq/+gff175vYzLKlllumb+68Qa6CMspbqzFwAnv0hTS1QvZ5yqdvbaRLSWMJWOC8y9v2EUTGNRL0YFYC4CiWrhDkjoM/jHaYMwhMnsauSaF1TlJ1FibJdxk3QyACwlcAG5Fk5rdQJ91rTkly72vv/76lVs205vLCKVpHqm4yGY8ESNYafQ/eVXs4xNSqcjYd/PYY4/ddNNNkT5T0T5r1XrZ7UVme+2RMvoILMMiwUTw7OqlrpFRLw8//PB8fl1asWJko+P/FCvSWH2KYcSoih1YFYlLSGFIRTkacJ4vaRvss88+G4dTozQdczYpAcV5Zsa0l2izxYsLdiebwwcvGlJgRopMF/HDzqyTtlc3KaWMGcslwyCuqoKx3PMjKGakU/Qw2H3drNWnZ1hRrToPQ7EaqzSSsYuCo6vANFSH6M1Fm48qjI/IlnA2U6K1hTpeosoIX9+qiKbZ7Do54GFUrwWg51QDsYrK8Sk7zrpqXFhxx1imjOo4/1cnURnZTG+yDBCXnq7ZDZ5R9p7l0ayWjw3UUTlW02gcM+BAGasqTKHvuf2276y/kBGfTLERAupiqlIT1xkKO22G7yGvufr7r732Gj9AD0udzDohlXjLSQ1xVVr2XqpL7jgUAjr7CPtM68Vx43am0qkXxp2sdMw5eoxvHv3pw9++8FtpfqXYD++IAcTOhaxsVmBlJ7BpUm9eLLiS6hVQmII+jTaYU2GIE7++7stZm6RvzMga016F/IXevAKMVwTsOBHjhtr+wz/jhsI1llEgaK+uDaUFGmjggoa6wGYR24sGliUs4pA9tNtavR3N1J7ULEMbHttVOeYxkjo1nDgzcBGByWS8VPim0EkzFIHnii53cJaROp+YyR6kRcPK0ijF5ZP/878eczTTlyUYA2NmfBtRYkGIeQ1LMl0BHQKiGBvRACDjIstl1WWAg5L5wQF+sdlFzfQmywBxoRE89aVU2Yyy36zaoT2V4z2qGDPgQJM8v/HGG1999VWdyyT/5bzSGFO15liKEGVld1aU5qxWLVy+adNTTz3FLl9araTFiHd2GF3IIRXQWc6MGGPcJlUh3t7rxWFPixFpKn4Dw03Vy6QWdqCnmsRlgFHOgQMHSBdO/wHb1PYyGrIyW6n1uts1XoCFQ8lIl59yYgLAu97M3iMgjaTY3+3lHsstBMMkB6QuigAkGZgHCb+QcujQIQ5PZMJcjBD065EFCpANdSpkXkYjw+pYlhYfI9ytyrrZr2A6pHVCRBBLORyZo2nByFrLIciKM6luH96YAciyHwsyAFIBUWAHmI/XxIU0AOmtlKMiTM3mAyqJm5Gy3zSobqgvuykL4TJGsORIJpOCf77rejDKNksWIyknF/AsE5dTl04EyDalmZsTyWlPbE8B4FLann0sZcVnsXU8DAXov+jI+MUaJo6+OfV/WMPErultHAECSTbV0HCM5tJ4J686fWbz1s07d+7MZvYkUxIsvwMQK6wwCXvHj7E6KOrAMr13UtpvvcgqRoF8sUalqAcpm1rGdIhAxhJlqgmJgMcnIx6O1mHFl63gkSuSRXbBsRQuEwhPytmCf3fLzVprcGmU3xc80MgIrrgpOog1o0TRpeo+YtWcb+DWFeOY7118MSMzzgvmayaRSVGEO6iuZCnLBIORlcTRDDtioIFlqYroIxxh/OKatSWKxmJMhktmLfXC6B8Ss7WWJgwpTpFqtAHAgCPXO3wAi6WldpNxK12+cdN/H/1MjVOKXBoBySf99cdH+EQ2ngISycbCthNHpNSYSl7HJJaKJRZZyC037T78wYcnvhwsVBkf2cswPxxGZ8U7TDm8ZeJKDIziRaOaItlKyn6RmYM8CPq9xgw45DMqDfDCxEQTc92MOdgRzSEzabPd8LK50Ku18aKceDmlf0iDLJAbNlxEt0iL12+EWr6pAJBWiY80Y2GbJIH0+WNZ5kAwpV9mN9BXvVy04bs8tKgXugCFzioagOkjJuExtUwh6cu4eI1jczsXQKzZRFyMculOoVfb40bVQgyUqd7TrHWaqyZWtD2GUxxtYi25NBf0ChTrehha2DOR5MI7cSQHeQQunOGX6pj4vfLKKzk7B184UAGCSkcUw4kUtie28GRYzf1lmnTwWLFZARfqiNur7p3SdjKS42WJYLI4hZbKqPapvahfhgMYgGoa8FjhNhWA7Yps4AAYOeKukDnYNyRxxS1ADXAncJv7F9TknX00MNaGMsH1u/7iiSefkm2p26/ZJV38MlS6VTldipUgnillUW0w6dNUfu2x2Pk+/FqE7e14Xt3Po1FiZWFUgddGGlj/7QsfePB+TsJMd9yqBf+gVV31cHqHWjXjPzoZuhpUdIgn8uUFrQ/VC6eL38SpCWb0YnoYjTSj1AJRuq7O0Y56UojHsjr6ZUo++2Y0x1Qev8z5ySef0MVDo/hGLsF0i/xehp4c/i3ESAavs2WgrL095quvvvr8889pLj3Hr7UFvKar8dlHO9haRk7YIGGaerGaKN+wAGdNPD0QJZflZxgGHDQ83o2OHz/+6aef8ssR6i+iGcLAyCQQ4yceyaQ0P+qi3AVk8qOc6WEJ1/nHWp7v0A4RQi/ALUZDcluayLYefcxEKUuro0YqTXLtQAmBHKFe9L5RybJUSCykUdFjlBvJfEzCAMJCcMaqU9ghY8DBXUBUFV5HmyLBCrizIGOPBF6iLBDMpJd41QbGyuEu0C0AJRuMeDTITtKJ9NIP6MeTpZFUntbJoQcgsJl5zhqINoCctD1IThbhKHMsXL6VKm0bK2dSAmsBUCQ79zaVqmsHHFZcyVZX6jCJwGRtQm9iA5WqOyAt0K28g5BlwmJfKu2pK520XurkoNRFBiot6YyU2PbCNd+IOnc9Vo0QGh5jXGPqgKguwnX00+A7DzhQOmvbpvFrhXdZRUBN5SxqMNOYGnkjPFGNNDA2FJVVTERcZq/EzEJmpaJZI/8fa3IJzxs4/gMAAAAASUVORK5CYII=;" vertex="1" parent="1">
          <mxGeometry x="120" y="700" width="300" height="100" as="geometry" />
        </mxCell>
        <mxCell id="Jn1EYD1DzJk262iB9yRI-13" value="" style="endArrow=classic;html=1;rounded=0;exitX=0.75;exitY=0;exitDx=0;exitDy=0;entryX=0.587;entryY=0.963;entryDx=0;entryDy=0;entryPerimeter=0;" edge="1" parent="1" source="Jn1EYD1DzJk262iB9yRI-12" target="Jn1EYD1DzJk262iB9yRI-8">
          <mxGeometry width="50" height="50" relative="1" as="geometry">
            <mxPoint x="340" y="698" as="sourcePoint" />
            <mxPoint x="345" y="600" as="targetPoint" />
          </mxGeometry>
        </mxCell>
        <mxCell id="Jn1EYD1DzJk262iB9yRI-14" value="Forward the request" style="text;html=1;strokeColor=none;fillColor=none;align=center;verticalAlign=middle;whiteSpace=wrap;rounded=0;" vertex="1" parent="1">
          <mxGeometry x="345" y="550" width="130" height="35" as="geometry" />
        </mxCell>
        <mxCell id="Jn1EYD1DzJk262iB9yRI-15" value="Make a request" style="text;html=1;strokeColor=none;fillColor=none;align=center;verticalAlign=middle;whiteSpace=wrap;rounded=0;" vertex="1" parent="1">
          <mxGeometry x="520" y="730" width="110" height="20" as="geometry" />
        </mxCell>
        <mxCell id="Jn1EYD1DzJk262iB9yRI-16" value="" style="endArrow=classic;html=1;rounded=0;exitX=0;exitY=0.75;exitDx=0;exitDy=0;entryX=0.997;entryY=0.62;entryDx=0;entryDy=0;entryPerimeter=0;" edge="1" parent="1" source="Jn1EYD1DzJk262iB9yRI-11" target="Jn1EYD1DzJk262iB9yRI-12">
          <mxGeometry width="50" height="50" relative="1" as="geometry">
            <mxPoint x="480" y="820" as="sourcePoint" />
            <mxPoint x="530" y="770" as="targetPoint" />
          </mxGeometry>
        </mxCell>
        <mxCell id="Jn1EYD1DzJk262iB9yRI-32" value="Forward the response" style="text;html=1;strokeColor=none;fillColor=none;align=center;verticalAlign=middle;whiteSpace=wrap;rounded=0;" vertex="1" parent="1">
          <mxGeometry x="190" y="550" width="130" height="35" as="geometry" />
        </mxCell>
        <mxCell id="Jn1EYD1DzJk262iB9yRI-33" value="" style="endArrow=classic;html=1;rounded=0;exitX=0.5;exitY=1;exitDx=0;exitDy=0;entryX=0.707;entryY=-0.03;entryDx=0;entryDy=0;entryPerimeter=0;" edge="1" parent="1" source="Jn1EYD1DzJk262iB9yRI-8" target="Jn1EYD1DzJk262iB9yRI-12">
          <mxGeometry width="50" height="50" relative="1" as="geometry">
            <mxPoint x="100" y="620" as="sourcePoint" />
            <mxPoint x="150" y="570" as="targetPoint" />
          </mxGeometry>
        </mxCell>
        <mxCell id="Jn1EYD1DzJk262iB9yRI-34" style="edgeStyle=orthogonalEdgeStyle;rounded=0;orthogonalLoop=1;jettySize=auto;html=1;exitX=1;exitY=0.75;exitDx=0;exitDy=0;entryX=-0.1;entryY=0.917;entryDx=0;entryDy=0;entryPerimeter=0;" edge="1" parent="1" source="Jn1EYD1DzJk262iB9yRI-12" target="Jn1EYD1DzJk262iB9yRI-11">
          <mxGeometry relative="1" as="geometry" />
        </mxCell>
        <mxCell id="Jn1EYD1DzJk262iB9yRI-35" value="Forward the response" style="text;html=1;strokeColor=none;fillColor=none;align=center;verticalAlign=middle;whiteSpace=wrap;rounded=0;" vertex="1" parent="1">
          <mxGeometry x="510" y="770" width="130" height="35" as="geometry" />
        </mxCell>
      </root>
    </mxGraphModel>
  </diagram>
</mxfile>
